<svg width="500" height="500" fill="none" xmlns="http://www.w3.org/2000/svg"><path fill-rule="evenodd" clip-rule="evenodd" d="M0 500V0h500v500H0z" fill="#FF384B"/><path fill-rule="evenodd" clip-rule="evenodd" d="M458.344 336.009c7.918-10.86 5.862-10.919 15.802-21.326 19.643-20.568 14.746-17.084 13.311-46.068-.372-7.501-8.809-30.627-20.012-33.64-4.65-1.252-38.793-11.904-42.642-14.839-13.435-10.245-21.741-19.388-39.263-23.696-7.253-1.785-5.311-4.435 1.104-12.04.084-.101 25.105-21.32 25.225-21.377-8.098 7.677 1.751-3.692 1.886-4.21l4.606-1.586c18.064-7.958 10.242-15.287 21.279-27.881 5.333-6.086.797-33.634.797-42.608l-3.983-5.972c-6.962-9.794 3.327-19.17 5.176-28.967.998-5.283 2.789-1.67 2.789-10.855l-1.006-21.108C437.642 19.844 435.14 8.41 429.711 0H139.325c-15.375 10.862-22.58 46.601-23.307 61.139-1.314 26.312 3.872 32.54.797 57.546-2.58 20.96 19.978 15.457 19.978 21.503 0 8.823 13.735 19.403-3.186 12.947-7.047-2.688 7.895 11.992-12.672 8.488-.405-.069-25.882 7.932-10.697 15.404 18.018 8.865-3.159 16.121 10.423 22.234-18.314 16.418-4.359.965-14.268 24.551-7.052 16.782-.541-13.144-8.624-20.503-1.975-1.797-1.454 24.977-13.334 1.321-10.137-20.19 7.14 17.589-10.355 17.589-37.924 0 2.767 4.993-17.2 22.026-.506.432-1.408 43.387-13.25 11.474-4.338-11.683-2.718-4.879-4.35 1.528-.526 2.067 2.171 7.755-.446 7.978l-.985-10.394c-3.08-.407-1.245-1.422-2.601-1.653-3.614 4.649-2.834 9.921-9.159 9.052-3.227-.442-3.002 6.351-2.156 8.278 2.754 6.281-5.496-2.522-6.878-.288-1.95 3.149.003 6.624 1.468 9.124 2.011 3.427.623 3.387 4.756 6.937.298.255 1.321.781 1.716.845l-.174.229c-1.877 5.803-6.404 10.146-6.876 16.845-1.037 14.809 1.328 22.613 11.585 34.012 3.935 4.377 13.598 8.887.493 8.166-6.048-.335-5.332-5.459-13.822-.019-9.268 5.937-2.695-.382-7.515 7.185-4.179 6.559-8.341 5.996.448 16.31 1.909 2.238 4.643 3.605 5.411 5.973l.195 1.148c-.836 6.797-3.758 25.68-.1 30.746 10.194 14.112 28.233 23.606 35.646 38.488 7.313 14.681 36.932 15.015 36.932 21.71 0 9.26-3.859 18.826-3.618 32.081h346.821c.178-13.893-5.396-26.906 14.418-37.065 1.037-.532 5.216-5.819 5.542-5.869l22.628-14.721c-1.375-7.549 4.449-10.483 4.449-21.119 0-10.44-8.23-11.474 2.129-26.145 14.022-19.865 11.014-18.202 11.014-45.532-10.328-2.658-11.863-.327-15.965-1.162-4.222-.859 13.398-15.673-11.116-12.344-.52.071-4.128-.034-5.176-.034z" fill="#FEED01"/><path fill-rule="evenodd" clip-rule="evenodd" d="M142.735 0h16.305c1.094.04 1.848.1 2.052.189.695.301 1.453 1.013 1.655 1.764-1.494-.033-2.283-.597-3.917-.012L149.39 5.2c-11.923 4.682-14.3 3.69-21.614 12.566-1.86 2.259-5.609 8.735-5.801 11.044.203-.232-.009.044.331-.4 3.343-4.352 4.113-7.54 10.492-10.75 11.226-5.648 30.425-3.68 45.817-9.117.783-.276.433-.23.996-.467 1.116-.472 6.468-1.239 7.794-1.239-.249.687.003.325-.816.893-.337.233-.602.37-.892.573-.6.421-1.205.83-1.857 1.318-1.183.888-2.209 2.062-3.373 2.973-1.258.985-2.326 1.913-3.561 2.788-2.515 1.78-10.945 6.653-13.448 7.305-1.751.457-.035-.584-3.323.826-2.039.875-7.76 2.225-9.809 2.885l-9.645 3.053c-2.391.796-7.09 2.456-9.186 3.509-1.444.725-2.632 1.435-4.046 2.3-2.658 1.627-2.414 1.31-2.887 3.46-.347 1.582-.794 3.593-.88 5.226-.099 1.876.429 5.59 1.134 6.926 1.755 3.326 5.477 1.487 7.515.258l10.708-5.163c5.044-2.424 4.714-4.823 13.035-8.937 3.819-1.888 11.32-7.33 16.342-9.048 6.316-2.162 6.512-2.774 11.778-5.558.373-.196.661-.28 1.013-.45l-2.097 3.273c-2.028 3.09-5.47 3.89-8.581 7.045-3.061 3.106-8.637 5.525-10.46 10.292-.796 2.077-.264 1.16-2.239 3.133-.869.868-1.765 1.665-2.561 2.566-.421.476-.797.993-1.193 1.492-.815 1.022-3.047 3.618-3.287 4.524l-.344 5.028c-.088 1.615.007 3.482-.003 5.131-.01 1.87.424 3.023.213 4.843-.477 4.11-.63 15.564-.687 20.31-.029 2.278-1.47 10.959-1.858 13.767-.908 6.561-1.156 13.411-1.917 18.835-1.796 12.789.38 10.111.347 18.9-.013 3.418 0 6.838 0 10.256 2.818 1.492 5.01 2.668 6.259 6.436.759 2.287.219 1.213 1.31 2.841l6.137-2.651c4.754-1.767 10.446-1.447 15.628-.559 6.907 1.18 13.283 2.655 18.572 7.305 2.257 1.984 6.95 6.811 8.495 8.84 4.224 5.542 4.28 6.983 9.457 12.515l13.585 16.688c2.168 3.15 5.024 7.173 5.594 11.817.126 1.561.323 4.755-.069 6.346l-.284.767-.457-.722c-.163-.376-.246-.67-.449-1.061l-3.457-5.817c-.898-1.273-1.512-1.752-2.501-2.872l-2.381-2.744c-1.76 1.178-1.304 1.741-3.906 0v-1.466c.682-.457.744-.386 1.464-.732l-2.94-3.418c.133-1.285.173-1.993-.6-2.809-.869-.917-1.431-.768-2.562-1.108l-3.174-3.895c-.56.13-1.636 1.12-3.35-.558-.836-.82-1.447-2.427.176-2.859-.09-1.061-.252-.849-.911-1.531l-6.413-7.75c-.29-.417-.532-.871-.889-1.218.444-1.015 1.786-2.49.745-4-1.059-1.537-2.365-.871-4.007-.65-.268-.982-1.15-1.455-1.71-2.185-1.556-2.039-7.085-7.367-9.697-8.614-4.473-2.135-13.876-4.095-18.531-3.259-2.058.37-3.41 1.433-5.18 2.145-2.183.877-3.515.912-4.677 2.646l-.245.245-.244.245-.243.244c-1.795 1.202-3.758 3.913-5.756 5.474-.671.526-.912.814-1.603 1.327-.553.413-.949.704-1.537 1.148-1.195.901-1.949 1.593-2.957 2.548.048-1.682 2.433-4.579 3.256-5.422 1.411-1.446 2.095-.936 2.861-1.55 1.164-.935.136-2.326-1.321-2.29-3.078.078-7.632 6.181-8.058 9.806 1.358.412 2.263 1.164 3.151 1.842 1.364 2.921.66 2.603.979 6.157.16 1.796 1.595 3.343 2.051 5.129-.378 1.232-.902 2.015-.424 3.515.447 1.397.721.283.276 3.271-.514 3.449-.54 1.835 2.081 5.344 2.365 3.169 2.132 1.531 6.26 2.03 2.684.324 4.605 1.283 5.535 2.93l.333.244.266.977c.381 1.097.283.571 1.247 1.166.6.369.846.698 1.416 1.075l1.465-.399c1.468.402.94.47 1.772 1.026 1.304.871 4.421-.338 5.615 1.711 1.037 1.78-1.157 5.813 3.6 5.919.886-1.324 1.646-2.661 3.12-3.473 2.394-1.319 5.134.683 6.201 2.451 1.607 2.665 3.618 1.055 3.618 5.905.731.06 1.346.254 2.024.444 1.869.522 1.458-1.477 4.807-1.191 1.486.127 1.881 1.117 2.74 1.917 1.172 1.093 1.775.671 3.368.538 0-1.525-.03-2.211 1.28-2.411 1.306-.199 1.501.593 2.076 1.254 1.187 1.359 3.11 1.246 4.624 2.134.508.472.712.564 1.012 1.478.314.955.282.955 1.318 1.378 1.443.591 2.684.722 4.339 1.094.303.129.089-.126.487.333.458.779.141 1.089.9 1.664.56.426 1.382.444 2.208.723.552.89 1.98 1.386 2.503 3.864.541 2.548-.335 3.757-1.193 5.303 3.007 1.375 2.661 2.387 9.01 4.588 1.008-1.425.541-3.094 3.152-3.525-.308-1.131-.709-1.81.022-2.734l.21.509c.44.987.335.685 1.011 1.327 1.167 1.123.654.25 2.028.772.703.266.788.66 1.347 1.091 1.171.903 1.942.493 3.045 1.837 2.016 2.457-.492 5.661 1.881 7.398.95-.697.838-1.832 2.1-2.552 1.569-.896 2.186-.04 2.783 1.087-.239 1.028-.869 1.756-1.464 2.442.572.853 1.356 1.395 1.464 2.685.682-.5.714-1.229 1.953-1.234 2.504-.011 1.568 2.791 1.329 4.028-.268 1.386-.229 1.174-.84 2.088.565 1.07.777 1.808 1.185 2.965.423 1.201 1.009 1.593 1.255 2.651 1.417-.118 1.218-.766 2.694-.763 1.185.003 1.706.601 1.946 1.495-.394 1.473-1.214.943-1.95 1.947l2.438 1.227 3.905-8.057c.346-.689.644-1.384 1.075-2.099l3.7-5.088c.858-1.287 1.429-2.53 2.226-3.879 2.231-3.768 6.134-6.104 8.38-9.164 2.166-.082 2.182-.862 2.685-2.719.685-.457 1.254-.951 1.9-1.519 2.894-2.55 6.578-4.546 9.995-7.096 3.368-2.515 4.632-3.465 8.906-4.52 1.855-.458 14.863-3.928 16.065-3.955-.487-.665-2.542-1.44-4.102-2.489-6.139-4.127-6.992-3.03-15.296-4.236-3.87-.561-7.061-1.673-10.284-2.899a230.065 230.065 0 01-4.736-1.855c-2.047-.83-.884.186-3.555-1.331-1.971-1.118-9.22-2.92-11.587-3.058-5.401-.32-6.743-.195-11.318 1.133-3.61 1.049-6.324 2.242-10.017 3.166-3.135.784-7.746 1.56-11.458 1.56-.38-.768-.791-1.12-1.875-1.178l4.798-2.57c1.315-.632 4.224-1.342 4.967-2.356-1.284-.343-2.835-2.544-3.703-3.621-4.461-5.529-2.65-19.084 2.667-23.783 2.749-2.428 6.721-4.288 10.783-3.828 4.77.542 2.955 7.174 2.358 10.134-.886 4.402-.386 4.75-.386 8.647.857-.628.497-1.361.793-2.626.702-3.02 2.469-7.037 3.924-9.747 1.922-3.574 4.972-6.5 8.117-8.974 1.336-1.049 2.492-1.993 3.954-2.881 2.01-1.221 3.408-.679 4.309 1.178.868 1.791.276 4.348-.101 5.96l6.031-4.466c2.749-2.058 5.544-3.567 8.784-4.893 3.497-1.43 4.22 2.502 3.807 5.519-.289 2.107-.158 4.348-.323 6.513-.253 3.267-1.697 8.447-2.918 10.755 1.231-.329 4.871-3.291 6.07-4.185.972-.722 4.917-3.933 5.16-4.849-1.069-.285-2.858-2.138-3.553-3.038-1.394-1.803-2.218-.924-2.54-3.808-.41-3.697-.098-4.517 1.706-7.308 1.431-2.215 1.429-4.539 4.583-4.937 7.135-.899 4.832.083 7.17 1.472 1.981 1.178 1.669.787 3.93 2.417 3.106 2.242 6.694 3.291 10.049 5.82l3.417 2.932c3.56 2.766 7.782 4.951 10.948 8.095 1.299 1.289 1.556 2.498 2.673 3.676 1.052 1.107 2.531 1.735 3.365 2.98 4.391-2.322 12.641-3.403 17.402-2.753 3.149.431 6.763.09 9.515.74 1.992.47 5.815 1.69 7.508 2.502 0-1.57.396-3.343.496-5.12.393-7.143 2.391-16.547 4.358-23.229.845-2.874 1.384-5.892 2.001-8.984a146.516 146.516 0 001.616-9.616c.441-3.345.816-6.545 1.226-9.761l2.51-19.463c-2.403-1.271-3.304-3.907-4.056-6.93-1.541-6.179-.355-9.213-.841-15.273-.389-4.858-.25-10.4-1.144-14.968-.569-2.908-.941-6.132-2.4-8.587-1.434-2.41-2.414-4.74-3.87-7.117-1.143-1.87-5.611-7.655-7.159-9.198-1.214-1.207-1.249-1.89-3.48-1.89 1.072-1.6 2.61-.99 4.307-.401 1.669.579 2.476.923 3.799 1.816 3.559 2.4 2.616.618 3.532 1.793.627.805-.425.302 1.079 1.396l3.083 2.543c2.271 2.512 4.462 5.327 6.014 8.392.499.986 1.404 2.983 2.112 3.502-.097-1.156-.57-2.346-.831-3.561-.483-2.243-.426-5.49-1.272-7.273-.508-1.07-.976-1.723-1.559-2.593.659.056.664.115 1.22.245-3.162-4.725-3.98-4.251-8.089-7.536l-8.67-6.955c-1.039-.582-2.577-.94-3.952-1.176-2.898-.496-3.215-.646-3.215 1.506h-.487c-.129-1.55-.951-1.894.195-3.22 1.95-2.257 7.577-2.85 10.271-1.875 4.049 1.465 13.218 6.711 15.87 10.254 4.759 6.362 3.26 10.437 4.206 17.521.102.761.302.865.605 1.593 1.352 3.246 4.367 14.779 7.58 16.345 1.166.57 1.788.963 2.857 1.538 6.551 3.527 11.155 5.107 12.485 13.394.669 4.174-.171 7.818-1.424 11.5-.366 1.077-.904 2.039-1.131 3.019.79.184 1.036.357 1.641.798 3.778 2.752 6.41 3.223 6.417 9.212.003 1.873-.115 2.71-.482 4.157-.24.937-.809 2.419-1.233 3.162-1.111 1.945-2.607 3.388-3.658 5.375.715 1.354 3.061 3.731 4.638 4.152.354-1.514 4.601-6.435 5.803-7.627 1.946-1.931 3.177-6.165 4.348-9.08 2.776-6.921 1.767-10.929 1.811-17.96.039-6.23-1.809-10.17-4.474-15.547-2.149-4.333-6.301-7.305-8.953-11.309-.88-1.329-1.723-2.587-2.637-3.956-4.546-6.82-4.562-13.848-3.043-21.745 1.446-7.518 3.803-16.207.475-23.294-1.642-3.498-2.589-5.38-5.945-7.239-3.424-1.898-6.435-2.381-10.187-3.24-1.887-.433-3.61-.878-5.368-1.469-3.544-1.189-7.945-1.159-11.724-1.702-3.161-.456-6.694-.15-9.92-.11l-6.087.505c-1.314.171-1.879.073-2.205.969h-.487c0-.992-.082-.786.243-1.464-.556.129-.56.19-1.22.244 2.185-3.262 6.376-6.372 9.928-8.14 2.133-1.062 4.402-1.735 6.721-2.311 1.13-.281 2.57-.609 3.654-.74 1.389-.169 2.606-.161 4.044-.352 4.715-.624 12.51.284 16.382 1.332 2.195.594 4.09 1.927 5.981 3.052 4.27 2.537 7.503 5.896 10.723 9.542l3.011 3.579c1.337 1.85 2.227 3.622 2.934 6.1.555 1.943 1.083 5.357.796 7.921-.3 2.673-.494 5.439-.713 8.32-.218 2.857-.385 5.639.024 8.553.575 4.104 2.063 9.714 4.875 12.948 0-5.627 2.045-15.76 3.152-21.26.871-4.317.483-5.956.858-8.42.304-2.02-.118-3.574-.11-5.715.013-3.023-.219-4.956-.865-7.923-.977-4.488-3.221-8.632-6.273-12.04L429.137 9c-2.286-1.83-4.934-3.222-7.463-4.744L413.967 0h14.725c2.831.281 6.095 4.243 7.633 6.207 4.581 5.852 7.605 12.67 8.365 20.2 1.022 10.145.152 16.785-1.567 26.431l-1.917 12.488c-.273 1.992-.642 4.45-.633 6.446.004 1.19-.089 2.439.061 3.613.173 1.358.279 1.453.967 2.45 2.103 3.054 3.501 5.82 5.076 9.328 2.775 6.175 4.307 9.453 5.205 16.28.973 7.405-.23 11.013-2.723 17.686-1.352 3.618-2.999 6.254-4.84 9.565-2.842 5.113-5.943 7.366-9.905 11.335-1.261 1.263-2.24 2.341-3.638 3.442-2.152 1.697-1.176 3.141-1.643 5.438-.41 2.014-1.048 3.656-2.471 4.609.369.697.549 1.069.976 1.709-1.335-.111-.183.137-1.087-.399-.657-.391-.294-.391-.831-.415-.14-.006-1.929.506-2.223.579-1.714.427-3.207.235-5.136.235-.305 3.673-3.704 8.242-6.283 10.806-5.31 5.284-5.446 3.922-10.399 6.689-1.858 1.04-3.273 2.369-5.205 3.342-2.344 1.182-2.926.862-3.413 3.178-.587 2.783-1.508 5.406-2.316 8.183l-1.925 6.376 5.323 2.978c4.711 2.844 9.806 4.176 14.596 10.307.682.874 1.072 1.515 1.946 2.204 8.035 6.347 7.989 6.172 18.242 10.567 3.897 1.669 7.385 3.921 11.313 5.288 2.239.78 3.99 1.304 6.393 1.909 4.278 1.079 8.435 2.166 12.573 3.782 3.857 1.508 7.083 3.913 10.567 6.037.923.563 1.617 1.069 2.495 1.654.836.557 1.535.967 2.304 1.603 3.546 2.925 5.088 5.234 7.656 8.947 1.217 1.763 2.308 2.957 3.44 4.859 3.452 5.8 5.732 11.631 5.693 19.209-.014 2.888-.066 5.523-.237 8.067-.316 4.663-1.057 9.699-2.255 14.103-.565 2.083-1.437 4.083-2.176 6.124-4.419 12.201-8.351 15.625-15.733 25.527-1.101 1.477-2.76 2.776-3.77 4.287 2.18 0 5.177-.212 7.23.093 2.26.338 4.001.547 4.001 3.081-.567.379-.793.655-1.71.732 0 1.314.368 1.832.235 3.401-.082.978-.399 2.229-.48 3.19.75-.174 1.684-.679 2.439-.98 3.667-1.456 3.259-.728 6.636 1.427.731.467 1.502.688 2.327 1.093 2.665 1.307 6.3 6.59 7.646 9.199.771 1.494 1.454 2.757 2.045 4.547 2.273 6.884.375 15.612-3.828 21.266-1.474 1.985-3.667 3.155-5.16 5.093l-3.037 3.555c-.307.381-.493.528-.8.908-1.745 2.164-3.889 3.921-5.252 6.467-1.301 2.428-2.941 3.434-3.016 6.751.023-.03.466-.458.489-.487-.281 3.384-.268 2.789 1.366 5.47.342.562.574 1.072.835 1.605 4.582 9.339 1.803 15.269-1.365 22.813-1.812 4.311-2.047 6.175-4.778 9.869-6.364 8.604-7.7 8.037-15.344 13.466-.935.664-1.897 1.297-2.862 2.02-1.014.76-1.775 1.311-2.893 1.99-2.673 1.623-3.147 2.071-5.42 4.103-3.391 3.031-10.816 7.608-12.759 11.409-2.035 3.978-1.162 8.365-.748 12.726.273 2.855 1.309 9.531 2.465 11.94h-5.861c-.761-1.588-1.329-5.885-1.604-7.916l-.839-8.681c.02-3.7-.187-5.974.702-8.826 1.364-4.369 1.13-3.164 2.964-6.56 1.552-2.874 5.526-8.644 7.874-11.169 1.525-1.64 3.099-3.407 3.818-5.702.401-1.279 1.979-6.264 1.979-7.298l-.734-.488c1.247 0 .407.003.734-.244a.502.502 0 01-.046-.133c-.004-.024-.03-.106-.035-.138l-.014-.332c0-.01.091-.566.095-.618-.941-.079-.962-.245-2.197-.245.319-.475.936-.984 1.459-1.225 1.294-.595 5.512-.238 7.086-.239 5.336-.008 7.92 1.226 12.208-1.707 2.301-1.572 2.536-.409 5.021-2.303 4.883-3.723 6.104-4.838 8.785-10.991.284-.65.65-.973.787-1.654.636-3.14-1.831-9.173-2.91-11.874-1.731-4.332-2.057-3.28-3.918-5.848-.788-1.087-4.127-12.8-5.936-16.526-.282-.582-.444-1.148-.681-1.76-1.57-4.044-2.991-6.182-4.731-9.918-1.614-3.463-2.803-6.835-4.862-10.03l-1.486-1.759c-.131-.255-.042-.197-.157-.488-.724-1.808-2.989-2.655-4.63-3.444-2.545-1.224-5.425-3.475-8.476-3.729l.559.417c.395.379.206-.022.416.559-2.276 0-3.789-.912-6.098-.989-2.997-.098-3.602.681-5.387 1.711-1.755 1.015-2.828 1.269-4.466 2.613-1.958 1.608-1.879 2.175-2.18 4.658-.32 2.647-1.311 6.753-.042 9.448.442.937.744 1.278.986 2.432.436 2.081 1.051 3.306 2.044 5.037 1.312 2.286 1.805 4.543 3.633 6.865.498.634 1.083 1.262 1.493 1.925 1.575 2.557 6.166 19.194 6.078 21.945-.079 2.463-2.568 7.639-4.078 9.824-1.386 2.009-2.195 1.911-1.991 4.356-1.821-1.333-.212-4.601.229-6.606.519-2.354.697-5.003 1.235-7.311-1.126.025-.81-.067-1.248.705-.189.333-.387.866-.62 1.333-1.613 3.206-4.202 6.325-7.491 7.891-2.61 1.242-1.709 2.658-2.842 4.971-.454.928-.633 1.658-1.716 1.946.594 2.222 2.674 4.899 4.51 6.234 1.047.761 1.154.817.862 2.067-4.481-.1-7.45-3.373-9.67-6.688l-4.833-7.374c-1.372-2.05-2.829-4.192-3.84-6.415-1.872-4.119-3.378-8.932-5.258-12.808-1.009-2.081-1.182-3.865-1.838-6.218-.471-1.689-1.742-4.245-2.823-5.478-.231-.263-.353-.387-.582-.639-2.458-2.698-5.9-4.287-9.39-5.503-1.134-.395-2.033-.587-3.174-.976-5.161-1.761-13.162.748-16.998 4.19-1.639 1.47-1.927.642-2.453 3.408-.745 3.935-3.622 6.771-1.366 13.465 2.153 6.394 4.908 18.182 9.674 22.794 1.472 1.425 1.849 3.472 2.533 5.525 1.029 3.087 2.352 5.487 3.979 8.227.552.933 1.85 2.952 2.124 3.91.282.991-.338.068.37 1.149.553.844 1.242 1.579 1.799 2.369 1.401 1.989 1.451 2.872 3.553 4.502 2.329 1.806 4.444 3.669 6.28 5.929.844 1.04 1.023 1.032 2.514 1.391a86.325 86.325 0 016.479 1.823c4.204 1.346 10.313 1.721 14.827 1.214l7.605-.454c-2.759 3.766-14.23 8.85-18.495 8.246-2.108-.299-4.906-1.261-6.551-2.243-2.639-1.577-3.062-2.061-6.058-2.976-2.11-.645-9.346-6.066-10.372-7.45-.99-1.334-2.603-4.214-4.423-4.365l4.887 11.225c.855 2.293.967 4.44.296 6.896-.446 1.63-1.646 4.269-2.742 5.072.026-1.142.245-2.115.245-3.663.003-5.491-1.43-3.521-1.48-6.332-.063-3.504-1.052-5.722-2.838-8.882a31.418 31.418 0 01-2.365-5.201c-2.579-7.269-7.669-12.467-11.64-19.123-1.131-1.898-2.296-3.047-3.269-4.544-1.271-1.953-.152-3.467-4.971-10.653-3.347-4.988-4.155-9.935-14.199-10.721l-4.892-.478c-5.748.16-6.586 2.015-8.38 3.112-2.224 1.36-3.674 4.954-4.111 7.607-1.072 6.511.14 7.605 1.659 12.824l2.078 5.733c2.063 5.533 2.142 3.671 5.969 9.412 4.986 7.478 5.956 16.86 8.393 22.37.865 1.956 1.21 3.412 2.395 5.175 1.454 2.162 5.361 6.002 7.549 7.831.792.661 1.197 1.261 2.021 1.885l6.596 4.878c-3.221 0-6.215-.452-8.7-1.309-3.51-1.21-9.765-5.052-12.09-7.929-.815-1.009-3.594-4.964-3.868-6.142-.399.291-.932 1.034-1.22 1.465-1.527 0-1.978-.452-2.932-.975l-4.745-3.069c-1.613-1.223-2.807-2.18-4.009-3.803-3.397-4.582-5.457-6.002-8.582-10.705-1.043-1.574-1.816-2.99-3.029-4.539-1.152-1.472-2.419-2.831-3.396-4.417-.723-1.175-2.164-3.853-3.094-4.475.218.932.516 1.022.734 1.953-.755-.506-.65-.575-1.186-1.256-2.603-3.303-7.152-5.246-11.413-3.531l-3.485 1.153c-.983.356-2.223 1.032-2.964 1.676-2.352 2.043-3.409 6.967-3.426 10.253-.024 5.023 3.142 8.841 6.665 11.909.871.758 1.349 1.564 2.201 2.437.796.817 1.313 1.747 2.068 2.57 1.596 1.738 2.887 1.975 4.669 4.364 1.332 1.789 2.831 3.353 4.72 4.558 2.902 1.852 5.736 3.66 9.137 4.778 3.617 1.191 6.889 2.347 10.726 2.947 3.048.477 8.123 1.768 11.348 2.568l6.265 3.013c1.2.601 5.091 2.448 5.69 3.342h-8.3c-1.147-1.712-1.884-3.174-4.138-3.193-.719-.007-1.437.002-2.118.111-5.242.855-2.842.857-8.391.64-4.205-.164-8.34-2.875-11.858-4.988-.721-.433-.574-.404-1.475-.722-2.445-.868-4.781-1.488-7.145-2.377-6.594-2.481-7.397-7.154-12.449-11.233l-5.329-4.193c-7.197-5.859-9.452-14.643-6.456-23.637 1.192-3.575 2.657-6.695 5.972-8.434 3.548-1.859 5.017-3.898 9.47-4.69 3.639-.647 4.778-.54 8.027.216.08 3.575 3.035 1.759 5.128 4.884.966-.226 2.896-.273 3.691-.704.58-.315.361-.52 1.278-.919 1.169-.508 2.545-.497 3.806-.588 2.531-.182 2.123-.747 5.385-.476-.094-1.127-1.722-4.576-2.194-5.618-1.181-2.608-1.135-3.112-.981-6.102.22-4.245.726-8.896 2.368-12.768.79-1.865 1.627-3.276 3.173-4.396 1.503-1.089 3.094-1.875 5.044-2.524 5.296-1.762 13.613-2.384 19.204.4 1.652.821 3.018 2.003 4.429 3.14 5.606 4.513 9.15 11.732 11.997 18.276.79 1.814 1.349 3.654 2.322 5.245.64 1.043 2.395 3.952 2.489 5.081 1.018-.273 1.914-1.411 2.442-2.198l-10.088-18.965c-1.133-2.025-2.119-4.315-2.637-6.887-.468-2.34-.939-6.231-.947-8.816-.01-3.14-.54-3.291.515-6.321.179-.512.455-1.003.703-1.495 1.325-2.639 3.357-6.935 6.182-8.221a64.416 64.416 0 013.272-1.367c1.292-.509 2.135-1.099 3.393-1.49 7.987-2.481 12.411-1.234 19.665 1.764 1.107.459 2.07 1.155 3.033 1.851.526.38.878.67 1.389 1.051.496.369.783.517 1.298.902.993.744 1.847 1.407 2.546 2.334.616.814 1.479 1.954 1.99 2.895l2.545 4.779c3.954 6.571 2.704 9.442 3.934 12.668.425 1.115 1.454 1.63 1.781 2.857 2.734-1.448 5.568-5.417 7.837-7.788l9.977-7.357c.567-.352.67-.594 1.228-.969-.695-2.985-1.536-4.484-2.751-7.012l-2.347-5.03c-.399-.787-.676-.149-.69-.214-.005-.026-.042.058-.07.049-.229-2.745-1.713-6.369-2.397-9.077-1.52-6.017-1.451-11.23 1.86-16.362 1.11-1.718 2.031-3.336 3.669-4.631.568-.449 1.119-.761 1.716-1.215 3.595-2.73 6.73-2.776 11.021-2.649 5.291.153 8.168 2.566 11.685 5.404 1.565 1.264 2.796 3.068 3.634 3.579l.487.34c2.251 1.949 1.33 2.714 4.701 3.615a437.175 437.175 0 011.954-3.661c1.875-3.47 4.158-6.815 6.115-10.243 1.162-2.032 7.331-11.465 7.556-14.171-1.472 0-2.207-.15-3.36.299l-7.877 3.111c-7.373 3.239-16.037 3.714-23.962 4.847-4.076.583-8.583 1.396-12.898 1.505-9.395.241-15.608 2.638-25.039 4.016-8.447 1.232-17.022 2.054-25.356 3.45-4.362.731-8.45 1.677-12.836 1.814-5.568.174-20.499 1.767-26.295 2.514-3.187.41-6.604.517-9.979 1.008l-10.118.623c-2.606-.042-1.365.1-2.877.784-.448.203-2.681.385-3.235.43-4.547.37-9.007.239-13.518.885-3.658.522-6.86.539-10.403.582-3.208.039-6.81.663-10 .742-2.8.071-2.581.137-4.723.648-1.917.456-15.312 1.578-18.467 1.553l-30.764 1.707c-2.487-.019-4.213.243-6.837.243-4.818-.001-9.871.15-14.656.008-1.299-.039-1.838-.264-3.408-.255-1.196.007-2.486.047-3.673.011-1.919-.058-4.636-.483-6.574-.506-9.52-.116-18.005-1.173-27.361-1.447l-13.767-.882c-2.235-.337-4.902-.102-7.221-.102-6.903 0-13.068-.675-19.949-1.537a326.806 326.806 0 01-12.556-1.848c-4.206-.699-8.436-1-12.861-1.544a490.035 490.035 0 01-6.495-.828c-1.284-.176-2.048-.212-3.246-.417-4.275-.726-8.78-.831-13.236-1.167a58.726 58.726 0 01-3.088-.332c-2.417-.333-4.172-.49-6.39-.934-1.674-.336-4.142-1.012-5.92-1.159.255 1.089.61 1.914.482 3.399-.44 5.159-.75 3.461-.725 10.516.007 2.077-.605 5.479-.008 7.088.596 1.608.58 1.166.321 2.986-.184 1.297.151 2.386-.314 3.354 1.56.417 2.346 2.696 2.687 4.15l-.245 1.221c.733-.49 1.464-.973 2.198-1.465-1.129-2.349.834-3.6 2.026-4.564 3.892-3.153 8.664-5.054 13.192-7.317 2.391-1.195 6.816-3.857 10.566-3.162 3.396.63 7.396 2.284 9.439 4.234 1.048 1.001 2.38 2.713 3.122 3.957.883 1.477 1.64 2.889 2.217 4.621 1.288 3.879 1.311 7.526.742 12.043-.678 5.37-1.642 9.328-2.877 14.212-.238.937-.335 1.95-.704 2.714-.492 1.018-.802 1.075-.86 2.557-.056 1.407-.212 1.979-.252 3.168-.137 4.085 1.71 8.346 3.877 10.055 2.815 2.22 3.327 2.596 6.551 3.703 3.71 1.276 6.89-1.937 8.906-4.434.503-.622.929-1.388 1.482-1.937.464-.463 1.378-1.112 1.898-1.519.698-.546 1.177-.959 1.949-1.469 3.416-2.261 11.628-5.254 15.701-4.707 2.167.289 6.763.615 8.411 1.843.387.29 1.337 1.299 1.713 1.705.524.565 1.067 1.311 1.522 1.894 3.676 4.705 7.814 9.299 7.814 16.113 1.511.035 1.803.602 3.144.234l8.885-2.119c4.758-.823 8.25-1.043 13.85-1.043-.34 1.455-.639 2.939-.978 4.394 1.158-.775 2.981-3.106 3.663-4.394h12.451c2.384-.002 3.91.256 6.102.246l14.887.738c.954.029 1.991-.06 2.937-.009l14.639.986c1.06.002 2.136-.031 3.193-.018 1.356.017 1.554.247 2.91.263 11.002.136 14.758-.108 25.541 2.291 1.741.387 3.344.715 4.989 1.115 1.03.251 4.067.691 4.635 1.468-1.92.16-3.648 1.037-5.565 1.515-9.095 2.257-16.786 1.881-26.416 1.902-2.502.006-4.206-.249-6.836-.243l-6.837-.244c-2.061-.111-4.37-.489-6.591-.489 0 2.392.562 3.147-.103 5.756-.471 1.846-1.123 2.934-2.274 4.075-3.697 3.662-5.715 8.811-9.754 12.218-1.734 1.462-3.707 2.458-5.777 3.501-2.691 1.358-4.97 3.356-7.559 4.891l-5.784 3.737c-.664.467-1.14.795-1.848 1.326-3.553 2.671-3.831 2.771-7.838 4.614-4.968 2.288-5.104 8.197-8.135 10.419.12-1.446.689-3.637.943-5.162.554-3.341 1.076-6.103 2.727-8.991.745-1.306 1.664-2.082 2.884-2.975 1.176-.862 2.331-1.533 3.458-2.4 3.887-2.987 7.786-5.939 12.04-8.47 1.271-.755 2.286-1.633 3.728-2.13 4.624-1.593 11.399-5.156 14.4-9.038 1.409-1.82 2.758-2.992 3.311-5.478 1.078-4.853-.245-4.734-4.868-6.187-1.378-.432-2.903-1.193-4.452-1.406-3.654-.505-7.49-.142-10.25.962-6.836 2.738-9.598 3.83-16.272 7.167-1.378.69-2.58 1.183-3.845 2.014-1.28.84-2.188 1.705-3.589 2.27-4.094 1.652-4.93 2.107-9.502 2.217-1.062.026-1.732.272-2.491.439-5.411 1.189-6.977.711-12.234-.831-1.143-.336-3.608-1.037-4.797-1.063-.084 1.001-.735 2.811-1.071 3.811-1.196 3.568-1.338 7.397-3.419 10.496-2.256 3.359-5.621 7.791-9.179 9.622-15.205 7.829-22.955-.247-30.276-.247 1.093-1.492 7.895-2.597 10.541-2.887 2.148-.235 4.194-.376 6.086-.751 11.278-2.243 13.339-3.837 18.918-11.355.536-.724.787-1.269 1.052-2.122 1.141-3.674 2.558-7.223 4.833-10.303.83-1.123 1.569-1.418 2.273-2.854l2.443-4.148c3.124-4.698 2.502-5.473 2.447-11.001-.038-3.943-2.378-5.876-4.83-8.353-2.568-2.594-6.618-5.181-10.697-4.208-1.302.311.038.321-1.155.186-1.401-.16-1.215-.477-2.969-.183l-5.228 1.37c-7.26 2.573-6.734 4.819-8.993 7.853l-7.23 9.615c-1.036 1.282-1.944 2.334-2.959 3.634l-6.031 7.396c-2.4 2.973-4.034 3.769-5.908 7.519-2.324 4.655-.55 6.392-.161 11.07-1.16-.775-1.057-1.541-1.953-2.198 0 1.841-.178 2.612-.325 4.33-.09 1.065 1.22 5.425 1.522 6.924l1.231 7.558c.255 1.373.918 1.881.992 3.42.141 2.987-1.653 4.232-2.2 6.577H77.541c.555-2.383.955-4.572 1.847-6.943.468-1.247 2.36-5.169 2.496-6.055.139-.887-1.291-5.405-1.555-6.879-.526-2.939-.4-4.768-.572-7.973-.058-1.078-.063-.916-.672-1.525-5.168-5.168-6.882-6.599-13.833-9.849-6.528-3.053-11.957-2.564-15.947-9.933-1.104-2.039-2.185-3.253-3.687-4.857-.495-.529-.513-.695-.976-1.221-2.34-2.657-5.084-4.843-7.14-7.753-2.905-4.117-3.692-5.933-8.346-8.744-7.373-4.449-4.852-4.763-9.333-8.001l-4.886-3.659c-6.965-5.442-5.264-12.344-5.267-20.124 0-1.464.006-2.93-.002-4.396-.014-2.992.506-5.088.492-8.053-.02-4.137-.143-3.486.682-7.395.412-1.953-.537-2.732-1.463-4.278-.289-.483-.472-.965-.78-1.417-.36-.529-1.82-1.597-2.38-2.014-1.689-1.257-3.132-2.462-3.91-4.637-1.551-4.331-.835-10.499 1.206-14.004 1.074-1.847 2.381-3.183 3.892-4.653 3.864-3.761 12.69-3.449 17.438-1.679 1.115.415 1.888.986 3.136 1.013.226-.852.225-.894 1.221-.976.144-.604.115-.432.244-1.088l.474-.623c-2.066-1.826-1.871-1.363-3.735-4.311-2.992-4.735-6.792-6.962-8.674-15.744-1.783-8.32-2.496-18.166 1.296-25.955l.526-.984c.182-.273.225-.315.369-.478-.489 1.566-1.129 2.419-1.473 4.267-.477 2.557-.306 7.769.686 10.052 1.35 3.109.631.3 1.154 4.718.588 4.948 1.051 9.119 3.533 13.289l7.386 9.702c2.408 2.063 3.125.83 6.474 4.999 1.514 1.882 1.541 1.573 2.865 2.752 1.584 1.408 1.514 1.114 4.044 1.535 3.165.524 6.697 1.378 9.732 1.752 1.11.065 2.374.424 3.52.653 5.447 1.09 5.489.914 10.78 1.672 2.364.338 4.788.302 5.897.45 2.668.357 7.561.177 9.568.666 1.503.578 9.22.839 11.503 1.007 3.832.284 7.516.704 11.26 1.138 7.481.866 16.468.919 24.133.991 8.042.077 16.438.724 24.392.438 8.202-.292 16.456-.276 24.68-.348 16.53-.147 33.067-.42 49.561-.56 8.161-.069 15.65-.879 23.67-1.194 8.033-.315 16.002-1.066 23.837-1.406l-8.688-.078-2.161-5.396c-2.129-5.289-4.429-10.799-6.234-16.227-1.144-3.444-1.997-8.982-2.111-12.781-.153-5.077.252-9.908.252-14.656-2.169 1.147-8.938 3.722-11.58 4.778l-3.801 1.658c-1.46-1.632-1.734-1.488-4.657.391-5.74 3.687-3.5 1.46-7.867 6.765-.647.787-2.55 3.774-3.102 4.196-.63-.781-1.519-.942-2.929-.942.278.69.443.246.976.975-6.524-.542-3.366 2.57-3.184 2.931-1.969 2.614-2.789.844-3.782 3.263-.407.986.052.356-.685 1.057-.404.383-.536.492-.97.975-.549.61-1.32 1.224-1.877 1.829-2.637-1.54-4.357.1-5.869 2.142-1.656 2.234-.226 2.923.128 3.307.557.602.136.389.891.855-.29.795-.398.687-1.222 1.01-8.07 3.164-7.046 6.871-12.338 12.076-3.464 3.404-1.851-.071-5.515 3.426l-2.53 1.267c-.027-.048-.108.068-.155.108-1.494-.004-5.802.255-6.759-.31 1.462-1.232 2.506-2.588 4.109-3.87l6.52-5.688c1.294-1.042 3.215-2.591 4.185-3.87l2.869-3.234c.483-.507.455-.487.898-1.057 1.311-1.695 2.555-2.632 3.99-4.067l6.343-5.617c1.364-1.378 2.792-2.536 4.039-4.019l3.896-4.161c4.1-4.101 8.877-7.148 13.291-10.88 2.983-2.521 5.817-5.008 9.35-6.761 3.364-1.669 7.974-3.837 11.721-4.148l-.274-4.365c-.114-1.093-.555-2.805-.948-3.69l-2.407-6.627c-.371-.63-1.701-1.648-2.272-2.367-2.005-2.525-3.148-5.793-5.389-8.039-2.017-2.019-4.871-7.788-7.564-10.5-3.324-3.35-1.91-1.756-4.864-4.171-.876-.717-1.654-1.368-2.463-2.177-5.153-5.159-8.308-5.363-14.591-7.87-2.08-.83-4.5-1.513-6.976-2.057-2.583-.568-5.103-.967-7.739-1.294l-12.87-.807c-3.452-.006-9.164.582-12.474.964-.827.095-1.446.114-2.195.248-1.733.307-1.006 1.967-2.179 4.412.948-.022 2.242-.33 3.172-.49 2.935-.509 7.265-.394 10.058-.045 2.77.346 8.978 1.508 10.451 3.707-5.399 0-10.424 1.938-14.99 3.078-14.272 3.559-26.846 8.175-42.038 3.903-1.306-.367-2.051-.836-3.275-1.12.597-.813.114-.342 1.386-.569l4.523-1.093c4.366-1.081 13.895-4.442 17.773-4.442-.122-1.473-.732-2.636-.732-4.15-2.295 0-5.69.623-7.814.974-2.446.404-5.044.798-7.567 1.221-7.505 1.261-12.203 2.102-18.866 5.306-.588.283-.822.502-1.394.803-5.336 2.792-9.05 4.089-13.847 8.125-.799.672-1.201 1.596-2.269 1.881.585-1.219 1.034-4.249 1.325-5.999l1.595-6.008.124-.03 1.247-.754c1.772-1.234 11.133-6.108 12.798-6.496-.241-.904-.094-.562-.757-.953-.927-.548-1.99-1.072-2.702-1.936l-3.196-3.15c-2.521-2.523-3.494-5.191-7.26-5.191.731-2.741 4.526-1.833 6.103-1.464.705-.473.657-.675 1.541-1.146 1.829-.975 2.744-2.106 4.252-3.56 1.768-1.703 4.178-2.996 6.17-4.329-.288-1.238-2.649-4.405-3.419-5.859l-8.707 3.743c-2.35 1.165-3.487 2.561-5.456 4.066-.823.629-.833 1.009-1.461 1.468 0-2.402 1.056-3.202.341-5.465-.408-1.293-1.96-2.712-2.738-3.855-1.277-1.871-3.254-7.201-3.463-9.722-3.916 2.621-5.266 4.982-4.465 9.837.366 2.224.778 4.379 1.012 6.555.225 2.089.036 5.322.036 7.533-1.038-.695-1.274-2.479-1.676-3.694-1.288-3.889-3.147-7.026-4.4-10.984-.494-1.559-.61-2.601-1.563-3.806l-4.532-5.723c-.617-.836-1.51-2.407-2.234-2.892-.188.802-.353.854-.591 1.849l-1.013 6.068c-.485 2.889-1.082 5.241-1.082 8.441 3.773 1.995 6.42 3.856 9.34 6.774.924.926 1.92 1.697 2.624 2.748-1.47 0-3.95-.819-5.159-1.191-5.037-1.548-10.056-2.473-15.838-2.473l3.724 3.358c4.775 4.782 4.633 3.428 11.03 6.568.463.228.76.26.855.612l-.104.357c.023.373.496-.141.005.47-.156.193-.69.38-1.358 1.323-.466.657-.835 1.443-1.212 2.205-2.29 4.627-2.902 4.346-3.973 9.943l-1.154 5.682c1.257-.027 3.662-.734 4.714-1.145 2.128-.827 2.157-.823 3.34-2.518.959-1.37 6.132-8.429 7.625-9.955 1.05-1.074 2.028-1.681 3.266-2.593 1.545-1.138 2.806-3.854 3.961-4.827.764-.642 1.1-1.005 1.751-1.178-.256.535-.425.96-.487 1.708.633-.169.884-.425 1.465-.732-.751 3.221-1.138 2.488-1.684 7.369-.173 1.54 1.408 5.335 2.197 6.54.566.868.674.415.51 1.264-.223 1.161-.711 1.689-1.284 4.812-2.502 13.642.013 7.865-4.275 13.321-2.888 3.672-4.297 6.76-6.684 10.894-5.159 8.939-7.435 16.443-8.3 27.102-.056.709.025 1.476-.011 2.185-.193 3.765-1.156 10.78-.591 14.506.336 2.223.605 13.957.59 16.99-.034 5.622 1.465 1.992 1.465 7.322-.242-.278-.01.056-.29-.443-1.266-2.27-1.046-.96-2.29-2.349-.7-.781-1.316-2.289-1.662-3.465-.83-2.841-1.316-5.567-2.133-8.365-1.283-4.396-1.777-13.762-1.016-19.38.258-1.902.268-7.098.657-9.842.828-5.851.368-7.538 2.306-13.318.328-.972 1.198-2.875.916-3.999-1.143-4.526-2.048-3.796-5.176-5.102-1.335-.558-2.304-1.172-3.6-1.772-6.427-2.982-14.232-5.017-21.315-2.678-5.294 1.749-9.798 3.239-14.543 6.208l-5.672 4.584c-2.714 2.106-5.477 5.422-7.208 8.415-.326.56-.585 1.13-.905 1.781l-.74 1.473c-.013-.036-.059.107-.095.156.014-3.111 1.38-5.24 2.763-7.259.764-1.114 1.404-1.859 2.239-2.656 1.11-1.058 2.345-1.038 2.012-2.947-1.746-1.473-3.45.147-4.598 1.341l-3.425 4.285c.417-1.231 1.463-2.62 2.178-3.579l2.531-3.102-.748-.389c-2.383-1.019-4.425-2.074-6.048-3.817-3.136-3.37-3.666-13.008-1.83-15.878 1.742-2.718 3.642.453 6.169 1.042-.328-1.406-1.053-2.539-1.37-4.002-.346-1.603-.078-3.53.878-4.077.774-.442 1.276-.116 2.107.108 1.087.294 6.066.157 7.418.157l.798-6.279c.228-1.651.642-4.111 1.888-5.194 2.94.685 1.17 4.456 3.661 7.324 0-2.079.888-6.677 2.284-8.461 1.076-1.377 2.557-.858 3.227.51.699 1.43.41 2.605.651 4.476.467 3.612 2.537 3.937 5.421 7.761.465.615.715 1.007 1.114 1.572.391.553.692.903 1.122 1.565.382.587.577 1.002 1.074 1.366-.714-3.063-.04-7.377-.002-10.499.078-6.183 3.254-10.709 7.147-14.582 1.463-1.457 3.427-4.751 5.794-4.948v-.489c-2.106-.49-5.554-3.035-7.16-4.315-2.112-1.685-3.972-4.415-2.64-7.927 1.37-3.612 5.012-1.928 8.862-2.613 3.18-.565 6.943-.641 9.728.695 0-5.131-.916-5.369-.266-13.205.296-3.568 1.522-7.583 4.129-9.788 3.39-2.868 4.711-.404 6.066 2.077.463.846.86 1.241 1.4 2.019 2.02 2.928 3.156 3.804 5.27 6.938.164.246.186.288.402.572.379.499.095.127.333.401.935-4.019 8.6-15.115 11.196-9.244 1.063 2.403.195 2.884.263 5.338.038 1.481.494 3.818.674 5.2.273 2.089.402 3.196 1.048 4.811l1.467 4.394c.58-.425 3.774-5.735 10.992-3.669.855.245.748.416 1.704.495-.81-3.477.885-9.123.976-13.184-.946.634-1.031 1.441-1.63 2.519-1.302 2.341-7.377 10.731-10.473 9.852-1.626-.461-2.422-3.709-1.77-5.737.377-1.177.876-1.667 1.484-2.666.57-.936.489-2.103.825-3.326.814-2.957 2.692-5.504 5.29-6.917 2.286-1.241 2.345-.315 3.936-2.411l2.826-3.033c-2.846.237-4.096 1.013-7.871.059-2.048-.519-4.53-2.093-3.592-4.674.714-1.962 2.785-3.547 3.981-4.849 1.665-1.815-.814-1.029-5.356-1.868-4.341-.803-9.801-3.526-5.411-8.382 5.12-5.663 5.538-4.185 10.681-6.653 0-2.448.086-4.581 1.451-6.361 1.987-2.59 6.427-2.968 9.291-1.451-.028-1.323-.395-1.022-.122-2.549.441-2.479 1.343-4.229 3.926-4.879 4.153-1.042 6.54 1.378 8.647 2.788l.572-1.89c.221-.909-2.208-6.114-3.045-8.82-.26-.837-.632-3.041-.944-3.694-2.321.193-4.041.499-6.531.183-8.513-1.078-19.139-8.449-14.576-19.825.966-2.408 1.847-1.955 2.271-5.053.296-2.174.536-4.03.814-6.266 1.596-12.826-.897-11.462-2.785-18.3-2.614-9.472-2.107-15.866 1.38-24.61 1.434-3.594 1.679-2.594.395-4.752-1.283-2.155-3.173-8.073-2.604-11.858.433-2.874 1.36-5.941 2.673-8.315.601-1.086.908-1.074.909-2.752.006-7.086 2.063-11.756 4.414-17.56.893-2.208 4.082-6.866 5.579-8.824.486-.635 1.074-1.406 1.651-2.012 1.781-1.869 3.068-3.597 5.775-5.211 1.694-1.01 2.85-1.567 4.75-2.33 2.343-.945 2.676-1.18 5.902-1.187zm-67.39 457.52h2.44c-.474.709-.494.327-.732 1.221-.79-.212-1.309-.625-1.708-1.221zm370.848-2.929c.311-.649.223-.262.245-1.222.845.448.75-.018.603.647-.114.516-.418.446-.848.575zm-143.554-7.814l.243.489-.243-.489zm12.45.734c.029-1.256-.22-.702.489-1.223.247.594.17.828-.489 1.223zm-8.299-3.908c.594.049.835.12 1.428.28.891.24.659.144 1.309.651 1.371 1.071 1.003.29 2.877.29v5.616c-1.572-1.054-5.071-4.796-5.614-6.837zM88.039 427.979c.033.05.072.075.084.161.02.164.376.476.405 1.792-.76-.557-.489-.652-.489-1.953zm-2.44 0c-.088-.462.307-.868.154-.155-.004.016.006 1.006-.154.155zm.243-.978c0-.624.387-.037.146 0-.003.002-.145.682-.145 0zm2.93-2.928c-.079.941-.244.961-.244 2.198h-.244v-1.955l.487-.243zM46.78 406.739l.073.072c-.006-.005-.098-.048-.073-.072zm-3.661-13.428c-.273.728.523.38-.734.488.326-.295.31-.265.734-.488zm41.502 33.447c0 3.384.62 1.902.677 3.406.001.01-.69 5.807-.674 8.56.014 2.035-.224 3.588-.233 5.869-.007 1.661-.087 1.192-.572 2.364-1.306 3.151 1.718.959-2.066 4.764-1.641 1.65-6.508 4.823-7.629 4.823l-3.987-2.117c-2.903-1.452-5.577-2.628-8.68-3.527-5.267-1.527-6.3-2.494-8.674-6.464-1.727-2.887-2.51-3.21-4.05-5.228-4.174-5.465-3.274.232-1.427-10.948.448-2.72.829-5.282 1.427-7.85 3.347 0 .863-.082 2.441.489-.811-1.693.025-1.514.01-3.425-.021-2.327-.563-.705.868-3.023.915-1.483 1.847-4.585 2.302-6.486.273-1.134.479-2.553.706-3.688.307-1.531.473-2.044.503-3.892.055-3.409 5.561-11.548 7.888-14.33.642-.769 1.667-1.465 2.51-2.128.968-.759 1.487-1.234 2.533-1.861 4.748-2.843 6.155-3.648 12.222-3.648 2.7 0 5.432 1.133 7.08 2.197.96.618.44.578 1.02 1.178.035.036.086.086.124.119.039.033.098.075.14.105 1.591 1.149 1.156-.099 3.657 2.935 3.557 4.314 3.003 9.238 1.917 14.73-.51 2.571-1.109 5.075-1.731 7.545l-2.252 9.224c-.21 1.063-.06.944-.73 1.71-2.183 2.498-5.32 5.109-5.32 8.597zm-24.9-39.795c.257-.972 1.09-1.185 2.685-1.221l-2.686 1.221zm402.342-14.16c.024-.025.073.039.073.073-.006-.006-.098-.049-.073-.073zM27.004 355.714c2.16-2.484 9.941-3.216 11.573-2.787.928.243 1.894.773 2.7.966 2.294.551.456-.748 2.758.903.66.474 1.582.903 2.308 1.353 6.91 4.297 4.328 12.948 2.636 19.342-1.742 6.58-.801 5.342-4.298 10.594-1.803 2.71-2.82 3.459-5.793 5.195-2.04 1.19-2.873 1.974-2.609 4.712.182 1.881 2.786 5.385 3.902 7.336l3.46 7.526c.295.932.259 2.018.9 2.763.85.987 2.386.654.042 5.085-2.798 0-5.584.131-7.815 1.461-.78.466-1.192.783-1.218 1.956 1.446-.765 2.35-.461 4.405-.478 2.165-.016 2.619-.631 4.14-.986-.277 1.188-.596.835-.881 2.292-.113.573-.104.919-.234 1.476-.408 1.741-.87.986-.836 4.291.016 1.497-.248 1.931-.248 3.171-.26-.3-.507-.583-.772-.936-5.02-6.692-3.151-6.286-11.94-11.498-1.054-.624-1.15-.82-1.997-1.664-.737-.733-.943-1.099-1.588-1.831-2.026-2.299-3.633-3.2-6.12-4.866-.723-.486-3.284-2.652-3.817-3.505-1.94-3.105-.111-12.686-.126-16.465-.03-7.224-.44-9.658 1.507-16.804.995-3.652 2.781-6.64 3.714-10.691.927-4.023.608-4.854 4.003-6.983.364-.229.713-.444 1.072-.665.316-.191.141-.347.894-.338l.278.075zm447.998 35.644c-.773-.567-2.894-7.501-3.125-8.349-2.195-8.077-1.818-10.211-.049-17.286.921-3.682 1.299-7.229 3.598-9.587.428-.44.706-.652 1.076-1.12.459-.582.387-.647 1.04-1.157 4.241-3.317 5.026-5.234 8.767-1.152 1.569 1.712 2.16 2.799 2.752 5.549 1.389 6.449.92 2.916-.169 8.418-.302 1.531-.526 3.121-.847 4.768-.46 2.358-.368 2.119-1.87 3.501-.595.545-.873.634-1.473 1.212-1.663 1.6-2.469 2.634-3.841 4.46-.875 1.165-1.421 2.096-2.244 3.37-.947 1.467-3.477 5.714-3.615 7.373zM11.623 372.803c-1.172-.784-2.326-3.88-3.184-5.361-2.541-4.382-3.382-4.909-1.917-9.507.677-2.128 1.783-3.467 3.325-4.976 1.653-1.618 6.909-2.997 9.146-3.547a36.18 36.18 0 013.468-.685c.808-.121 1.296-.059 2.1-.096 1.098-.051.886-.218 1.956-.242-1.061 3.969-7.16 3.599-9.595 9.937-1.298 3.374-3.813 9.19-4.71 12.379-.224.8-.293 1.482-.589 2.098zm464.6-36.376l.073.072c-.006-.005-.098-.049-.073-.072zm-31.494-56.154c.024-.023.073.039.073.074l-.073-.074zm-425.781-7.568a63.25 63.25 0 013.28 1.846c1.402.85 1.63 1.329 3.8 1.329 1.7 3.216 3.863 3.603 4.882 5.127-.451.617-2.574 1.868-3.386 2.472-1.238.925-2.097 2.156-3.206 2.899-3.766-5.625-5.37-3.777-5.37-13.673zm276.854 8.302c-.485-2.09-2.363-3.482-2.988-5.585-.661-2.224 6.492-14.315 8.793-16.932.744-.843 1.147-1.396 1.951-2.198l6.343-6.843c2.329-2.353 7.284-5.171 10.369-7.209 3.413-2.255 2.969-3.977 11.286-6.047 3.726-.928 2.884-.535 6.519-2.027 10.093-4.144 10.326-2.992 22.679-2.956 2.201.007 2.436-.712 3.642-.728.757-.008 2.804.387 3.872.521 2.3.291 5.788.248 7.793.994 10.41 3.877 22.507 5.042 31.852 11.363 2.518 1.702 5.621 2.816 8.546 4.636 2.14 1.334 2.506 1.85 5.274 3.515 2.881 1.732 2.702 1.703 4.631 3.914 1.787 2.049 3.341 4.585 5.745 7.439 4.369 5.188 6.559 11.404 8.078 18.045.746 3.256 1.388 8.477 1.373 11.811-.005 1.467-.011 2.934-.004 4.402.039 7.362-1.689 12.295-2.95 18.776-.106.541-.206 1.214-.401 1.798-.19.578-.386 1-.588 1.607-1.307 3.912-1.429 5.476-3.304 9.637-.934 2.067-2.31 7.501-3.564 9.375-.254.38-.16.301-.489.488l-23.128 2.262c-5.393.169-10.302 1.391-15.381 1.953-2.575.285-5.251.502-7.915.875-2.756.385-5.342.301-8.098.692-2.636.373-5.04.644-7.648.896-1.089.106-2.986.264-3.995.4l-4.085.308c-5.748.274-10.345 1.502-15.643 1.934l-32.323 2.066c-1.9-.362-7.503-4.046-9.348-5.764-6.466-6.028-8.677-7.116-12.515-15.803-1.49-3.375-2.969-10.299-3.37-14.21-.291-2.833-.561-5.225-.794-7.993-.794-9.414 1.373-14.352 3.598-22.08.588-2.042 1.245-5.101 2.038-6.751l4.149 3.419zM25.051 266.113l.732 1.465c.951-.343.281-.404.734-.244 0 3.608 1.979 4.066 5.367 6.351 3.715 2.506 7.422.879 8.793 2.927-.375 1.609-1.578 1.284-3.654 2.224l-.706.604c-.008.012-.018.069-.035.101-2.025 0-3.399-.597-4.464-1.64l-4.51-4.522c-1.45-1.603-2.257-5.416-2.257-7.266zm0 0l-.28-.476.28.476zm13.916-3.417c0-1.074.35-2.364.662-3.245.282-.798.683-2.169 1.291-2.615.348 4.179 11.466 11.872 12.207 14.649-2.751.061-5.483 1.41-7.812 1.953l-2.764-5.78c-.551-1.196-1.557-2.953-2.552-3.798-.58-.493-1.032-.461-1.032-1.164zm-1.71-3.418l.292 2.925c-1.068-.537-2.724-1.429-4.197-1.46.232-.994.996-2.311 1.71-5.371.662.761 1.278 1.437 2.44 1.71 0 1.12-.335 1.415-.244 2.196zm34.735-6.104c.532.783.85.474.656 1.646-.045.274-.512 1.193-.728 1.526-.543.835-1.487 1.417-2.434 1.922-.83 1.689-1.371 2.235-1.23 4.922.103 1.968.951 3.438 2.317 4.144.175-3.233 4.367-4.963 4.106-.244 1.67-.028 5.562-1.017 6.914-1.563.877-.354 2.024-.936 2.742-1.409.898-.589 1.727-1.435 2.54-1.911-.156-1.82-1.195-4.196-.945-5.781 1.249-1.203 2.1-.612 3.075.455.547-1.706.6-.919 1.662-1.81.659-.551.74-1.375 2.005-1.359 2.136.026 1.437 3.116 1.526 5.066.312-.794.474-3.299.668-4.418.245-1.411.128-3.207 1.719-2.639.525.917-.461 4.941-.566 6.336.06.035.146.059.194.077.048.016.137.052.196.072l.198.066c2.78.898 2.51 1.799 1.585 5.316l-2.55 5.745c-1.082 2.678-3.074.477-3.218.376-.718 2.253-1.756 4.153-3.086 5.914-1.282.029-1.627-.268-2.275-.765-1.15 2.406-3.512 5.61-4.15 8.346-.034-.049-.076-.192-.089-.156-.039.112-.232-1.153-1.921-2.718-.774-.718-1.93-1.422-2.95-1.931-1.13-.562-2.147-1.161-3.31-1.573-2.514-.894-1.816-.956-3.45-1.678-4.534-2.002-9.56-3.663-16.112-3.663.04-1.8 1.526-7.721 1.977-9.986.337-1.689.502-3.419.809-5.294 1.15-7.024 3.462-8.684 5.376-12.935.692-1.533 1.15-2.743 1.922-4.181.65-1.214 1.937-2.39 3.098-3.004 1.423.951 4.402 2.498 6.093 2.94 2.739.718 5.626-.255 8.313-.255l-.873.593c-.357.226-.567.361-.876.589-.706.519-1.078.868-1.745 1.427-.727.613-1.005.842-1.694 1.48l-1.597 1.577c-2.025 2.464-2.85 5.524-3.892 8.738zm82.942-23.193c1.623.135 1.709.311 3.181-.482 2.761-1.487 1.647-.253 3.166-.983 0 3.18 3.226 13.812 1.472 20.758-.267 1.05-.396 1.918-1.219 2.443-1.187.756-3.787 1.819-5.38 2.189 0-1.386.342-3.126.253-6.111-.038-1.25-.258-1.501-.26-2.913-.01-6.629-.735-4.753-.718-8.804.009-2.204-.495-3.545-.495-6.097zm114.501 87.157c0 2.066.155 3.216.25 5.124.389 7.882 4.171 14.463.971 16.605-2.112-1.117-.813-2.221-2.669-5.387-.71-1.207-.496-.954-.779-2.639-.117-.7-.289-1.29-.459-1.98-2.096-8.487-2.705-15.997-2.693-25.158l.725-13.924c.682-4.889 2.953-9.829 5.583-13.704 1.275-1.88 2.136-4.175 3.081-6.441.291-.696.483-.974.77-1.672 1.669-4.056 3.919-4.857 6.953-9.892 1.916-3.175.875-2.343 3.75-6.015 1.416-1.806 3.242-3.286 4.538-4.984 2.799-3.67 7.384-5.729 11.244-8.043 5.565-3.337 14.173-6.296 20.319-8.733 1.165-.463 2.54-.876 3.868-1.016 1.733-.183 2.982.011 4.608-.274 2-.35 12.544-1.89 15.136-.245-1.86 0-2.676.292-4.322.56-8.301 1.353-6.087 1.638-12.087 3.296-2.755.759-5.065 1.657-7.588 2.666-4.446 1.78-4.681 1.64-8.669 4.024-7.811 4.67-7.723 5.884-13.128 10.066-.939.725-1.762 1.676-2.607 2.521-.84.84-1.81 1.686-2.552 2.574-.492.586-.555.749-1.11 1.332-1.645 1.726-4.255 5.19-5.557 7.137l-7.642 12.866c-4.557 7.618-6.067 14.306-7.796 22.966-1.096 5.481-2.138 11.695-2.138 18.37zm-145.018-89.599c-.717.14-.015-.738.056-.502l-.056.502zm30.517-1.219c0-.95-.198-2.57-.488-3.176 1.153-.268 1.57-.627 2.468-.95l2.903-.758.274.967-2.331 2.103c-.556.418-.715.633-1.219.978-.516.353-1.097.565-1.607.836zm171.63-17.579c-.049.601-1.579 3.94-2.225 7.051-.459 2.205-.273 6.927.517 8.573-1.564.035-1.855.699-3.419.732-.451-1.938-5.029-5.803-5.37-7.08 3.664-.853 6.13-4.079 8.087-6.559.434-.548 1.976-2.399 2.41-2.717zm-11.475 8.3c-1.115-.298-1.04-.962-2.957-1.68-4.97-1.857-10.884-1.605-12.178-2.226.775-1.157 2.853-1.92 4.357-2.479 3.711-1.382 11.746-1.769 17.615-3.136-.569 2.136-4.977 8.276-6.837 9.521zm14.162-12.452l-.245.49.245-.49zm0 0c.078-.948.408-1.182.115-2.296-.261-.987-.654-1.198-1.092-1.853-1.37 0-2.629.664-4.422 1.193-4.57 1.343-8.01 1.601-12.389 2.26-.898.136-1.444.43-2.476.453.609-1.152 1.004-2.27 1.625-3.501 2.863-5.679 3.013-4.335 3.013-12.856 1.72.909 3.709 1.496 5.361 2.452 1.703.984 3.168 2.1 4.977 3.079l6.897 5.066c.706.846 1.229 1.479 1.809 2.342-1.929 1.021-2.454 2.553-3.418 3.661zm20.263-8.543c3.188-2.134 5.13-1.748 9.698-1.153l11.51.696c3.937.41 15.074 4.564 18.101 6.07l10.547 5.81c2.097 1.322 4.785 3.645 6.483 5.48l2.923 3.18c2.427 2.296 5.346 4.196 8.119 6.039 2.965 1.971 7.477 3.516 11.093 5.022 4.038 1.682 6.183 3.197 11.161 5.198 5.075 2.039 11.922 2.972 18.592 5.575 2.1.82 3.399 1.75 5.221 2.837a257 257 0 015.009 3.05c3.211 2.007 6.551 4.262 8.812 7.299 1.239 1.662 2.161 3.215 3.416 4.885 4.624 6.156 8.358 13.515 7.512 24.254-.495 6.287-.783 11.283-2.729 17.289-.564 1.738-.17 1.537-1.721 2.43-.702.405-1.96 1.293-2.596 1.555-2.207.907-7.384.133-9.67-.19-2.566-.363-2.69.007-5.956-.88-4.119-1.119-12.312-5.197-15.145-8.294-.808-.882-.53-1.341-.52-2.897.017-2.635-.733-9.781-1.499-12.173-1.983-6.198-4.586-7.016-7.084-13.18-1.385-3.42-4.245-7.335-6.863-9.983-.719-.726-1.138-.935-1.836-1.581l-4.997-5.257c-2.2-2.176-3.376-2.568-6.054-3.956-1.486-.77-6.726-4.985-8.311-5.361-2.047-.487-3.259-1.029-5.043-1.793-14.374-6.165-7.677-3.419-20.481-6.619l-10.487-2.94c-1.037-.257-1.625-.611-2.545-.875-5.677-1.63-8.802-1.807-14.334-2.509-3.125-.398-17.261-1.151-19.359-.662-.985-1.859-1.541-2.3-2.204-3.655-1.714-3.507-1.623-5.044-1.032-8.62.458-2.772 1.436.763 7.05-1.489l3.417-1.466c2.889-1.623 4.745-4.896 3.037-8.708l-1.235-2.428zm-50.049 11.23c.535-2.296 3.511-5.754 3.135-8.239-.394-2.589-2.057-3.058-4.252-.203-.833 1.084-1.498 1.595-2.546 2.338-1.206.853-4.834 3.066-6.346 3.417 4.235-6.323 4.522-4.576 10.042-8.998l7.722-6.439c.87-.807 1.497-1.807 2.742-2.14 0 10.02.514 4.374-2.858 12.277-1.356 3.177-2.862 4.451-5.334 6.384-.689.539-1.492 1.385-2.305 1.603zm-45.654-13.428c0 3.233 1.381 7.39 3.381 9.558.447.484.665.51 1.201.996.44.398.728.708 1.033 1.165-1.54.128-.875 1.21-4.578-2.503-2.864-2.871-2.977-3.518-4.299-7.418-1.326-3.905-2.657-4.391-.546-9.757.298-.758.55-1.457 1.15-1.779 1.023-.549 2.911-.516 4.122-.516 0 1.478-.696 3.566-.908 4.951-.268 1.753-.556 3.451-.556 5.303zm54.198-11.475c-1.232-.826-2.388-1.908-4.393-1.953v-.488c3.321-.887 2.781-9.277 4.393-9.277 1.03 0 .806.197 1.247.951.905 1.554 1.7 2.419 3.229 3.363 1.786 1.101 2.639 2.965 4.272 4.274.82.657 1.676.938 2.59 1.559 2.665 1.809-.086 1.3 6.56 4.183 3.586 1.555 5.715 3.892 7.982 6.91 1.603 2.133 4.855 6.793 6.526 8.367.433.41.946.686 1.21.986.443.5.954 2.384 1.297 3.098-3.744.872-4.936 1.666-8.544-.244.747-1.558.218-2.116.14-2.75-.105-.846.49-3.046-1.988-6.633l-1.627-2.035c-.732-.8-3.206-2.928-4.169-3.401-6.996-3.44-8.404-2.271-13.352-2.271 0-3.935.582-6.471-1.954-7.813-1.222.648-2.669 2.056-3.419 3.174zm-38.817 21.729c-4.022 0-2.057-.13-5.728.415-1.801.268-3.305-2.58-3.305-2.613 0-3.005 2.183-7.916 3.58-10.823 2.414-5.026 1.797-4.404 6.002-8.647.96-.969 4.372-3.937 5.555-4.212-.718 3.08-5.745 5.656-6.827 18.084-.187 2.155.547 5.677.723 7.796zm11.963 2.44c-2.404 0-5.115-1.892-7.812-1.953.388-.807.49-4.004.798-5.303.352-1.48 1.865-4.779 2.761-6.274.462-.774.651-1.32 1.125-2.048.364-.559.769-1.304 1.135-1.796.379-.507 1.071-1.126 1.561-1.611 3.099-3.069 3.071-1.694 7.617-7.519 1.031-1.319 1.71-2.446 3.284-3.065l2.225-.948c-.608 7.321-.496 10.59-4.149 17.335-2.204 4.067-2.941 7.16-5.687 10.427-.317.374-2.634 2.755-2.858 2.755zm-159.424-30.76c-4.804 0-2.166.564-6.879.043-1.378-.153-4.467-.362-5.328-.775 2.821-4.213 7.164-3.965 10.251-5.862 1.961-1.205 1.711-2.452 1.711-3.904 1.54.358 7.537 3.768 9.766 4.882l5.127 2.198c4.634 1.828 2.683 1.22 5.615 1.22-.656.98-4.7 4.382-6.064 5.412-.962.728-1.28 1.15-2.561.549-2.029-.954-4-.883-5.997-1.591-1.125-.399-3.421-2.172-5.641-2.172zm180.419 0c-.393-.822-.83-1.845-.513-2.688.285-.757.946-1.91 1.734-2.195.411.856-.332 4.231-1.221 4.883zm-168.944-16.845c4.969 2.629 6.675 1.475 8.967 3.24 1.597 1.229 5.97 3.639 8.367 3.84-.303 1.13-1.394 1.734-2.234 2.404-2.822 2.251-.444 2.234-5.335 2.234-1.504 0-2.241-1.466-3.002-2.37l-3.776-4.281c-1.155-1.118-2.178-3.528-2.987-5.067zm286.133-6.105v-7.08c.807.541 1.327 1.256 2.227 1.924.596.443.637.45 1.339.858 3.38 1.966-1.789 3.885-3.566 4.298zm-9.522-24.657c1.453-.973 3.391-3.386 4.395-4.884 2.376 0 6.34.856 7.323 2.198.444 1.576-8.599 9.379-4.716 16.197 1.228 2.156.729.539-.323 3.666-1.241 3.685-1.151 4.462-2.769 8.705-.464 1.22-.168 1.094-1.231 1.733-.147.088-.678.355-.71.512-.143.733-.237-.267.132.282.937 1.398-.173-.872.341.398-1.396.934-2.742 3.863-5.821 6.143-.944.699-1.581.915-2.619 1.532l-2.549 1.357c-3.659 1.974-4.532 4.239-6.59 5.617l2.428-21.008c.408-2.883.627-11.479.989-12.683.344-1.146 1.639-1.547 2.994-2.865 2.093-2.039 1.509-1.008 3.902-3.912 1.017-1.239 4.432-5.41 5.556-6.162-.096 1.159-.627 1.905-.732 3.174zm-11.475-6.837c.134-.574.228-.72.244-1.464.445.22.305.189.977.243-.262.985-.417.796-1.221 1.221zm-254.638.489v5.615c0 4.254.916 7.687 1.202 11.492l.993 8.529c.151.911.418 1.809.49 2.684-1.389-.324-3.977-1.189-5.371-1.221l-1.613-6.199c-.286-1.136-.472-2.037-.724-3.181-.27-1.227-.61-2.407-.77-3.38l-.799-15.071c0-1.863.123-3.059.26-4.868.275-3.611.418-12.466 3.158-12.466 1.111 0 2.071 2.482 2.441 3.417 2.357 5.954 1.899 3.817 1.265 9.078-.237 1.962-.532 3.479-.532 5.571zm250.732-18.311c0-1.623.244-2.114.244-3.662 1.428.956 2.046 2.57 3.231 3.849 2.267 2.443 4.607 3.403 5.868 4.63.677.658 1.129 1.235 1.851 1.811 1.232.983 2.849 2.358 3.698 3.627l-9.931-2.52c-3.716-1.729-4.961-3.342-4.961-7.735zm-248.291 1.465l-.135-.353c-.551-1.961-1.042-5.125-2.963-7.047-2.942-2.943-5.458-1.062-7.156.075.018-.811.143-.863.208-1.5l.536-5.325c.441-3.244.685-3.409 2.674-5.137l4.895 2.43c.882.615 2.958 2.938 3.419 3.921.359.768-1.277 10.525-1.478 12.936zm248.046-13.916c0-.74.901-.24 1.216-.033 6.123 4.008 12.37 6.444 16.366 9.063 3.462 2.269 4.942 5.225 2.927 9.036-.7-.513-1.094-1.784-2.007-2.632-2.128-1.977-6.31-5.073-8.764-5.885-6.703-2.215-6.531-2.19-8.436-5.967-.364-.722-1.302-2.74-1.302-3.582zm-.244-7.812c.025-.025.074.038.074.072l-.074-.072zm-248.29-1.71l-5.372-3.663c.379-.564 1.247-1.61 1.77-2.135.48-.483.533-.538.909-1.044.464-.626.392-.747 1.228-.97 0 3.445 1.381 6.812 1.465 7.812zm249.023-9.277c.024-.024.073.038.073.072l-.073-.072zM130.276 99.854l1.043 17.512c.325 2.377.289 6.185.421 8.856l.237 6.843c.034 1.189.227 1.132.252 2.19-1.469-.777-3.962-1.342-5.111-2.456l-7.449-8.91c-2.211-2.874-.803-4.634.841-7.921.792-1.585 1.469-3.121 2.281-4.8 8.106-16.742-3.501-25.614-3.501-29.868 0-2.846 1.239-6.132 2.193-8.06 1.485-3.002 2.037-1.922 4.512-3.301l9.128-3.811c4.588-1.322 2.671-.658 7.36-3.14.166 1.998.383.939-1.514 4.102l-4.347 7.86c-1.085 2.634-1.267 5.003-3.335 9.117l-2.103 4.243c-.581 2.389-.908 8.931-.908 11.544zm-8.301-71.045l-.134.524.134-.524z" fill="#0078BF"/><path fill-rule="evenodd" clip-rule="evenodd" d="M83.868 351.319c1.504.578 9.22.839 11.504 1.008 3.83.284 7.515.703 11.26 1.137 7.481.866 16.468.919 24.133.992 8.041.076 16.437.723 24.391.438 8.203-.293 16.456-.277 24.681-.349 16.529-.147 33.066-.419 49.56-.559 8.161-.069 15.65-.88 23.67-1.195 8.033-.314 16.002-1.065 23.838-1.406l-8.689-.077c-1.803.031-3.079-.235-5.128-.233-1.871.002-3.744 0-5.614 0 1.245-1.082 4.588-4.716 3.622-6.774-1.844-3.933-10.25 4.793-5.711 6.42.669.241.785.101 1.356.598h-9.276c.679-2.922-2.618-2.511-5.139-1.231-1.095.555-.899.427-1.454 1.475-5.594 0-3.29-.597-5.122-.623-.909-.013-2.862.822-4.706 1.049-1.889.235-3.554.178-5.412.447l-13.823.826c-1.316.016-1.438.225-2.668.262-.964.029-1.982-.044-2.945-.015-1.23.036-1.352.245-2.668.26-.97.013-1.983-.046-2.947-.017-1.245.038-1.341.252-2.678.252 1.585-2.996 1.288-4.027 2.93-5.127.051 2.282 2.697 2.879 3.214.286l.645-4.458c.024-.901-.173-.593-.198-1.687 1.015-.537 1.69-1.236 2.732-1.908 1.107-.715 2.029-.928 3.129-1.509 1.188.795.402.732 2.44.732 1.195-1.784.431-.667.812-1.874.196-.618.008-.238.455-.765l1.374-1.313c1.333-.767.94-.424 2.047-2.103l4.59-6.397c.708 0 1.776-.064 2.441.006 1.291.132 1 .638 2.02.321 1.179-.365.421-.627 1.987-.432 1.562.193 3.172-.434 3.48-1.711.417-1.727-1.702-.629.168-6.399 2.528-7.803 9.545-7.904 10.412-10.983-1.46-1.631-1.734-1.487-4.657.391-5.739 3.687-3.5 1.46-7.867 6.766-.647.787-2.55 3.773-3.102 4.195-.072.932-.088.841-.703 1.285-1.221.882-1.942.483-2.949.955-.688.32-.415.48-1.485.724-1.969 2.615-2.789.845-3.782 3.263-.406.986.052.356-.685 1.057-.403.383-.536.493-.97.976-.549.609-1.32 1.223-1.876 1.829.911 1.699-.996 2.567-1.75 3.577-.923 1.235-1.012 2.675-3.101 2.726-.289.795-.397.687-1.222 1.01-8.07 3.164-7.045 6.871-12.338 12.076-3.464 3.405-1.851-.07-5.515 3.426v1.309l-2.685.066c-1.493-.004-5.802.255-6.759-.31-5.767 0-10.85-.243-16.434-.243-2.651 0-5.702.141-8.303 0-7.994-.431-8.593 0-16.356 0l-11.962-.49c-1.342-.072-2.81.075-4.153.003-1.315-.071-2.226-.254-3.905-.245l-8.05-.495c-4.344-.099-2.465.128-5.865-6.587-.931-1.839-1.718-3.709-2.603-5.698-4.069-9.151-6.06-17.128-6.178-27.514l-.46-8.083c-.373-3.314-.108-13.62.383-16.145.853-4.394 1.29-5.744 2.894-9.558 1.546-3.681 1.16-2.821.042-4.226-.414-.519-.243-.812-1.079-1.147-1.132-.456-2.291.472-2.804 1.045-1.067 1.187-2.44 3.514-3.218 5.082-.497 1.006-.984 1.836-1.352 2.798-.915 2.402-1.568 6.773-2.75 9.945-4.199 11.272-4.63 13.083-4.604 24.45.003 1.751-.21 2.737-.252 4.141-.523 17.476.24 12.755 2.347 26.478.202 1.315.498 2.693.59 3.804h-3.195zM298.49 125.244c.169.726.473 1.712.802 2.371.635 1.276 1.024.94 1.638 1.78-1.294-.108-3.896-1.304-5.132-1.947l-1.459-.983c-3.742 0-2.829 9.033 5.616 9.033 3.638 0 3.623-.816 5.619-.973 2.775-.218 1.648.278 5.554-.549 4.49-.952 8.636-2.766 13.954-3.869 10.287-2.135 12.125-4.364 24.388-5.885 3.419-.424 7.441-.77 10.767-1.44 1.917-.386 8.803-1.437 10.704-1.145.63.097 1.539.394 2.358.576.949.209 1.898.395 2.651.521 2.147.362 3.058.88 4.816 1.289-2.331-3.48-7.215-5.373-10.29-7.531-6.479-4.545-17.091-4.091-24.799-3.143-2.363.292-4.975.666-7.298 1.247-4.741 1.187-7.135 2.344-13.174 3.671-6.512 1.433-10.587 2.163-16.735 4.261-1.242.425-1.99.529-3.393.758-2.495.408-4.314 1.429-6.587 1.958zm-139.16-12.451c8.658 0 11.911-3.417 17.09-3.417 15.998 0 19.845 1.809 32.608 6.941 3.568 1.436 9.698 3.207 13.75 4.561 2.244.749 4.21 1.905 6.404 2.629 3.56 1.173 2.33 1.205 4.459 2.377 2.243 1.232 5.181.109 3.941-1.744l-.447-.529c-.03-.042-.075-.098-.104-.14-.425-.639-.458-.996-.576-1.867-.195-1.451-.382-2.836-.706-4.175-1.61-6.662-5.357-5.284-8.229-6.664-5.4-2.593-5.101-1.567-11.657-3.481-1.399-.409-2.276-.791-3.644-1.238-.709-.231-1.313-.352-1.895-.546-3.197-1.065-6.323-2.211-10.46-2.234-3.569-.021-8.859-2.436-19.783-2.436-5.343 0-8.526 2.378-11.58 4.778l-6.834 5.372c-.655.492-1.977 1.322-2.337 1.813zm166.991 29.785c-.381-1.64.103-.537.489-2.196 2.437 0 3.141-.245 4.15-.245 0 .764.151 1.615-1.628 2.278-.802.299-2.04.163-3.011.163zm32.47 3.174c1.05-.503 2.899.199 3.908.732-.334-1.432-1.584-2.11-2.786-2.829-.683-.408-1.266-.721-1.864-1.065-3.72-2.144-2.91-2.448-5.032-3.513-7.949-3.991-7.491-4.37-17.306-5.888-2.415-.373-12.901 1.309-14.973 2.096-2.517.955-13.485 7.399-15.149 9.267-1.318 1.48-3.014 4.997-3.438 6.816.592.138.98.255 1.466.488.984-1.471 5.122-5.37 6.095-5.867 1.43-.731 7.078-3.372 8.797-3.411-.331 1.426-.912 3.232-.558 4.698 1.466 6.071 7.607 7.466 10.567 6.045-.468-.64-.732-.611-1.464-.977-.62-.31-.923-.529-1.515-.926-1.364-.916-1.675-1.172-2.82-2.309-1.891-1.879-3.13-3.515-2.257-7.263 1.372-.114 2.06-.702 3.418-.732 0 1.732-.869 3.289 1.516 5.807 3.155 3.328 8.643 3.248 10.111-.527 1.04-2.67.659-4.316-.641-6.257 1.403 0 1.865.22 2.93.245.018.037.009.069.013.122a.467.467 0 00.025.12c.395.788.307.196 1.427.733 1.084 4.653.089 6.667-1.384 9.846-.503 1.083-.786 1.874-1.302 2.85 2.154-.501 4.119-2.844 4.965-4.801.485-1.122.52-2.881.4-4.47-.147-1.93-.994-3.089-1.215-3.913l6.254 1.804c1.92.676 4.904 1.12 6.442 1.858-1.499 2.835-3.875 4.624-6.414 6.526-5.968 4.465-14.978 4.419-21.866 3.444-3.353-.474-9.83-2.058-11.027-2.157 1.56 2.329 7.901 3.904 11.056 4.325 8.91 1.186 11.015-.104 14.124.276 3.755.456 8.69-2.446 11.615-3.695 3.937-1.68 4.347-2.316 6.385-5.091.608-.83 1.228-1.245 1.497-2.407zm-144.285-13.671c-.267.503-.339.578-.489 1.221-.976-.228-1.514-.625-2.786-.876-.963-.189-2.697-.293-3.317-.59 1.829-2.731 4.31-.286 6.592.245zm-35.889-1.464c.986.022 2.082.36 2.967.45 5.445.544 4.036.279 9.586-.838 2.081-.421 4.409-.833 6.734-.833-.671 2.874-1.674 4.233-.14 8.684.938 2.725 3.414 4.255 6.487 4.255-1.844-2.755-3.365-3.035-3.92-7.31-.695-5.367-1.227-5.629 1.967-5.629 1.236 0 4.147.136 4.884.489.386.429-.189-.287-.983 1.702-.946 2.37-.376 4.976 1.176 6.893 1.518 1.874 6.29 1.258 7.051.846 1.812-.98 3.155-3.928 2.033-6.269 1.29.302 1.833 1.11 3.173 1.221 0 1.744-1.31 6.067-2.613 7.397-.703.718-1.3.918-1.781 1.636 1.846 1.038 6.104-.542 6.104-6.591 0-.842-.18-.946-.245-1.708.597.399 1.117.739 1.761 1.167.737.49 1.024.792 1.655 1.276l6.359 5.359c1.717 1.049 2.044.881 3.409 2.45 0-2.005-.814-2.823-2.198-4.637-2.06-2.699-1.201-3.295-5.293-8.378l-3.439-3.643c-1.075-.951-5.127-2.763-6.823-3.43-7.618-3-8.255-3.349-17.403-3.349-6.528 0-11.307 4.702-15.52 6.452-.945.394-4.58 1.782-4.988 2.338zM29.446 342.906l.474-.622c-2.065-1.827-1.87-1.364-3.735-4.312-2.992-4.735-6.791-6.962-8.674-15.744-1.783-8.319-2.496-18.165 1.296-25.955l.526-.984c.182-.272.225-.314.37-.477-.49 1.565-1.13 2.419-1.474 4.266-.477 2.557-.305 7.769.686 10.052 1.35 3.109.632.3 1.155 4.718.588 4.948 1.05 9.12 3.533 13.29l7.385 9.701c2.409 2.063 3.125.831 6.475 4.999 1.513 1.882 1.54 1.573 2.864 2.752 1.584 1.408 1.515 1.114 4.044 1.535 3.166.524 6.697 1.378 9.733 1.752-.526-.676-5.691-4.132-7.324-6.569 3.403-.793-.405-4.009-.406-4.009-1.402-.614-2.51.358-2.768 1.323l-3.484-2.619c-1.285-1.281-2.035-2.738-2.854-3.25-1.135-.709-3.713-.137-6.06-2.973-.687-.833-.567-1.224-.544-2.629.016-1.011.055-1.971-.264-2.666-.416-.908-.967-.95-1.626-1.548-.867-.788-1.363-3.101-1.293-4.827.098-2.426.51-2.767-1.032-4.566-.84-.98-2.53-2.004-2.862-3.242-2.417-1.618-2.324-5.056-2.464-9.033.015-3.11 1.381-5.239 2.764-7.259.763-1.114 1.403-1.859 2.238-2.656 1.11-1.058 2.345-1.038 2.012-2.946-1.745-1.473-3.45.147-4.598 1.34l-3.425 4.286c.417-1.231 1.463-2.621 2.178-3.579l2.531-3.102-.748-.389c-3.81 4.19-6.163 6.128-8.377 11.787-2.364 6.044-1.287 15.586.055 22.314.301 1.505.427 2.815.9 4.226 3.281 9.771 3.08 8.112 10.168 15.224l2.625 2.391zM340.237 16.847c1.767 0 5.926-1.395 7.325-1.953 4.609-1.838 9.189-2.99 13.985-5.06 1.173-.505 2.035-.886 3.244-1.393 9.208-3.856 22.379-5.78 32.639-7.889L399.32 0h-35.631c-.415.063-.877.207-1.698.513-4.535 1.69-8.692 4.088-12.235 6.81-2.163 1.663-4.364 3.523-6.064 5.652-1.072 1.347-2.575 2.211-3.455 3.872zM231.351 244.873v-1.953l.786-.68c2.58.451 1.018 2.257.76 2.491-.656.586-.756.327-1.546.142zm4.884-9.521c0-1.518.137-1.282.759-2.17.617-.879.5-1.491 1.682-1.491 1.612 0 .006 3.175.003 3.178-.526.811-1.582.684-2.444.483zm-.656-20.752c.125 1.561.323 4.755-.069 6.347l-.284.766-.457-.722c0 5.283-.342 7.888-2.244 11.384-.578 1.063-2 3.461-3.151 3.684-3.951.766-4.087-.719-5.658-.873.552.891 1.981 1.387 2.504 3.864.541 2.549-.336 3.758-1.193 5.303 3.006 1.375 2.66 2.387 9.01 4.588 1.007-1.424.54-3.093 3.152-3.524-.308-1.132-.709-1.811.022-2.734l.21.508c.44.988.334.685 1.01 1.328 1.367-1.888 0-.009 0-5.261 1.658-1.109 1.055-.928 2.442 0 .02-.923.677-2.968.741-5.118.055-1.912-.009-3.941-.009-5.868-1.868-.155-5.085-5.264-.975-4.394.599 1.251-.338 1.358.975 1.708-.788-3.383-.423-3.822-2.359-7.649-.369-.728-.743-1.766-1.136-2.36-.381-.768-.791-1.119-1.875-1.177-.562.046-.301-.065-.656.2zm123.7-180.664c3.339 0 8.445-.983 10.95-.696 3.67.419 11.72.347 16.749 1.075 4.579.663 9.896 2.05 13.562 4.504-.41-1.754-2.224-3.67-3.278-5.024-1.168-1.505-2.971-2.925-4.497-4.048-3.413-2.508-8.091-4.356-13.466-4.356-5.973 0-11.499 2.34-15.921 5.319-1.535 1.033-2.769 2.07-4.099 3.226zM87.306 397.462c-.783 3.358-.65 4.703-3.361 6.404-1.767 1.107-5.397 2.14-8.112 2.14-1.277 0-4.443-3.349-5.433-4.334-2.504-2.485-2.381-3.73-2.381-8.361 0-1.322.456-1.909.977-2.685-2.844.661-2.93 6.272-2.93 8.788 0 2.689 1.154 3.815 2.197 5.371l-1.465.489c4.74 1.104 4.824 4.752 12.47 4.657.458-.006.686.008 1.11-.112.706-.198-.113.046.514-.218 1.506-.636 2.508-.811 3.967-1.649 5.922-3.396 6.03-13.146 4.054-14.294-.522-.302-2.012-.493-2.77-.65-3.464-.716-7.94-3.495-10.495-6.106-.627-.64-.914-1.311-2.013-1.403 1.41 2.104 2.203 4.704 4.95 7.744 1.684 1.861 5.589 4.148 8.72 4.219zm-.432-135.255c.335 2.688 1.895 7.936-.118 10.196-.701.787-.918 1.197-.318 1.878.77.875.095-.605.625.577.648.497.994.794 2.275.765 1.33-1.761 2.368-3.661 3.086-5.914.144.101 2.136 2.302 3.218-.376l2.55-5.745c.926-3.517 1.195-4.418-1.585-5.316l-.198-.066c-.059-.02-.148-.056-.196-.072-.047-.018-.134-.042-.194-.077.105-1.395 1.09-5.419.566-6.336-1.591-.568-1.474 1.228-1.72 2.639-.192 1.119-.355 3.624-.667 4.418-.089-1.95.61-5.04-1.526-5.066-1.266-.016-1.346.808-2.005 1.359-1.062.891-1.114.103-1.662 1.81-.974-1.067-1.826-1.658-3.075-.455-.25 1.585.789 3.961.944 5.781zm36.079 177.49v1.953c0 5.181 6.194 9.766 11.475 9.766 4.291 0 4.39-1.591 7.045-4.917.846-1.058 1.584-1.823 2.373-2.998 1.285-1.918 3.674-2.114 1.428-5.862-.511-.853-.472-1.077-1.133-1.796-1.154-1.257-2.119-1.414-3.827-2.032-1.252-.454-3.021-.995-4.263-1.596-3.347-1.618-1.999-1.47-3.576-2.527.295 3.556 4.795 6.696 7.645 8.223 3.644 1.954 4.001 1.319 1.663 4.26-2.185 2.748-3.116 5.095-6.136 5.095-4.723 0-10.558-3.183-9.929-7.227.233-1.501 3.411-7.044 4.36-8.598.622-1.017 1.175-1.611 1.175-3.218-1.129.301-1.84 1.474-2.624 2.258-.807.807-1.709 1.586-2.403 2.481-1.328 1.709-3.273 3.92-3.273 6.735zm219.725 6.592c3.642 0 8.807-2.961 9.765-7.081-3.057 2.049-2.568 2.931-9.277 2.931-3.188 0-6.601-1.629-8.616-4.321-1.348-1.801-3.537-6.981-3.591-9.351 2.993-.066 5.028-.885 7.606-1.915 1.344-.538 5.329-2.448 6.066-3.457-1.261 0-1.855.118-2.931.245-2.776.329-2.336.617-2.683-.245h-.734c-.29.802.317.536-2.149.78-.892.088-1.472.213-2.732.199-2.25-.025-3.793.048-4.649 1.453-2.137 3.505 1.826 13.671 5.317 17.164 2.121 2.122 5.778 3.598 8.608 3.598zm-55.665 5.371c-5.912 0-1.179 9.091.486 12.454 1.496 3.021 4.6 5.856 7.57 5.856 3.38 0 7.138-5.089 8.057-9.033-.97.712-.433 1.114-3.029 3.075-3.346 2.528-4.614 2.46-7.523.643-2.456-1.534-4.565-6.667-5.072-8.845 2.126-.176 5.049-.591 6.738-1.316.861-.369 1.677-1.019 2.224-1.683.76-.92 1.172-1.388 2.024-2.128-1.067-.226-1.167.082-2.273.656-2.979 1.548-5.128.321-9.202.321zm139.404-81.542c0 1.075 1.178 4.64 1.557 5.768.908 2.703 3.053 7.849 4.744 9.904.705.856 3.246 2.639 4.929 2.639 3.571 0 7.774-.839 10.385-3.286 1.695-1.59 4.022-5.042 4.264-7.945-.957.702-.987 2.303-5.467 5.032-1.283.78-6.695 2.048-8.693 2.048-3.748 0-5.329-4.974-6.263-6.92l-4.48-8.95c-.346.4-.976 1.243-.976 1.71z" fill="#0078BF"/><path fill-rule="evenodd" clip-rule="evenodd" d="M192.042 140.869c.394 1.474 1.469 2.442 2.697 3.164l3.731 2.13c2.31 1.162 6.242 1.949 9.295 2.428 1.754.276 8.57-.48 10.871-.661l7.854-.934c2.495-.471 1.665-.06 2.174-.755-1.132-.094-6.448-1.574-8.827-1.916-7.016-1.004-7.63 1.174-14.757-.379-1.772-.386-9.319-1.291-11.294-2.133-.683-.293-.908-.721-1.744-.944zM24.32 368.165c0 2.897.644 4.801 2.495 6.296 1.71 1.379 3.45 3.182 5.484 3.792 2.892.868 6.501-1.155 8.73-2.658 1.438-.971 1.968-1.892 2.81-3.292 2.055-3.413 1.966-4.989 1.966-10.242-1.731 2.49-.624 6.51-6.733 10.114-.641.379-1.01.648-1.74.963-1.297.56-.885.184-2.27.154-.37 3.385-7.487-2.763-7.858-3.617-.458-1.053-1.175-9.229-1.175-10.3h-.488c0 2.9-1.221 5.916-1.221 8.79zm125.831-176.027c-.377 1.232-.902 2.015-.424 3.516.447 1.396.721.282.276 3.27-.513 3.449-.539 1.835 2.081 5.345 2.365 3.168 2.132 1.531 6.26 2.029 2.684.325 4.605 1.283 5.535 2.931.409 0 .333-.117.333.243.474.126.378.045.732.245l-.466.732c.381 1.097.283.571 1.247 1.167.6.369.846.697 1.416 1.075l1.466-.399c-.368-.199-.64-.397-.978-.622.39-.582.296-.255.489-.977 1.185.1 2.44.546 3.648-.014 1.962-.913.693-3.945-1.995-4.337-2.068-.302-2.065.229-3.119.934-2.922-1.547-4.328-3.138-6.034-2.885-.921.137-5.337 1.928-7.149-.778l-.243-.244c-1.086-.289-1.563-1.291-1.684-2.467-.079-.763.065-1.333-.131-2.066-.186-.693-.434-.742-.627-1.571 2.178 0 1.979.237 3.126-1.023.724-.796 1.174-1.766 1.038-3.367-.228-2.704-3.563-2.887-4.797-.737zM390.53 406.982c0 3.405-3.139 6.592-5.615 6.592-8.744 0-5.929-.848-9.766-3.416 0 4.354-.78 4.526.686 5.66 3.768 2.916 9.317 2.347 12.783-.249 2.443-1.832 4.263-4.283 4.543-7.426.187-2.119-2.211-7.386-3.852-8.484.204 2.444 1.221 4.396 1.221 7.323zM253.322 166.504c1.52-6.522 2.363-13.338.035-19.809-.614-1.705-2.547-4.899-4.184-5.337 1.088 2.269 1.244 7.025 1.451 9.535.34 4.106-.284 3.736 1.006 9.981.203.986.97 4.8 1.692 5.63zm37.598-5.371c.805-.591.259.161.795-2.624 1.362-7.075 1.839-9.441 4.927-16.097 1.559-3.363-2.128-.357-2.935.268-1.748 1.354-3.42 4.31-3.952 6.545-1.342 5.638.35 8.412 1.165 11.908zm-88.134 293.944c0 3.422 1.437 6.105 5.127 6.105 1.795 0 3.178-.638 4.638-.978l-.83-.39c-3.549-1.175-6.25-1.125-6.25-4.98 0-.309 3.148-5.127 7.08-5.127-1.895-2.586-9.765-.251-9.765 5.37zm1.71-295.165c4.988 0 6.817.793 12.012-.44 1.397-.331 3.478-.912 4.834-1.025-1.282-1.751-6.7-1.709-8.789-1.709-1.369 0-7.621 1.541-8.057 3.174zm-57.375 20.94l.111-2.385c.047-1.682 2.433-4.58 3.256-5.423 1.411-1.445 2.094-.935 2.861-1.549 1.163-.936.135-2.327-1.322-2.291-3.077.078-7.632 6.181-8.057 9.806 1.358.412 2.263 1.165 3.151 1.842zm69.582 166.316c0 3.142 5.586 2.223 5.587 2.223.786.098 2.342 1.64 3.148-.571 2.195-6.035-8.735-4.398-8.735-1.652zm28.807-35.155c0 .8.741 1.589 1.291 2.126 1.868 1.817 7.01.222 7.01-1.639 0-.98-1.202-2.929-2.686-2.929-1.791 0-5.615-.009-5.615 2.442zm-7.566 17.088c0 1.038.761 1.584 1.806 1.867 4.811 1.3 9.011-3.245 5.045-4.811-2.87-1.133-3.98-.049-5.292.843-.824.561-1.559.817-1.559 2.101zm2.196 10.254c0 1.428.928 3.662 1.953 3.662 1.066 0 .38-.15 1.362-.324.976-.174 2.127.571 3.303-.625 1.047-1.064 1.853-3.281-.908-4.031-.475-.128-.931-.189-1.395-.312-1.487-.398-4.315-.836-4.315 1.63zm132.81 56.641c.065.775.323 1.729.489 2.441 4.709 0 9.278-2.703 11.718-6.347l-9.317 2.645c-.918.371-2.086.836-2.89 1.261zm-122.313-56.641c0 1.021 1.843 1.587 4.273.368 1.469-.735 1.334-.763 2.197-1.71.222-.243 2.152-1.587.26-2.702-2.168-1.277-6.73-.297-6.73 4.044zM27.983 295.41c0 1.238 2.01 3.461 4.942.548 1.102-1.094 2.971-4.943-.792-4.943-1.66 0-4.15 3.344-4.15 4.395zm199.703 47.852c0 3.948 5.131 1.776 6.274-.094.577-.941.035-3.812-1.879-3.812-1.185 0-4.395 2.825-4.395 3.906zm-21.726 5.615c0 4.48 10.772-1.231 5.41-3.717-2.667-1.235-5.41 2.224-5.41 3.717zm47.119-17.578c1.886 0 3.881-.769 4.273-2.341.806-3.237-7.444-4.372-6.634.367a2.408 2.408 0 002.361 1.974zm-28.81 2.929c0 3.707 7.325 1.327 7.325-.976 0-3.729-7.325-1.819-7.325.976zm21.972-12.695c0 1.999 3.615 2.978 6.722.13 1.685-1.545.631-2.608-.639-2.794-.726-.106-2.236-.3-2.806-.183-1.365.278-3.277 1.29-3.277 2.847zM27.736 398.194c1.78 0 3.864-1.465 4.64-2.93l-3.906.245c-1.34 0-3.094-1.045-4.325-1.536-1.849-.738-4.01-1.966-3.586-.615.254.809 4.128 4.836 7.177 4.836zM214.993 339.6c0 1.988 2.583 1.861 4.831-.541.9-.961 2.626-5.075-.193-5.075-1.24 0-4.638 4.333-4.638 5.616zM191.8 188.721c4.521 0 2.029-6.105-.977-6.105-2.681 0-2.509 4.095-1.034 5.185.196.144 1.844.92 2.011.92zm45.164 132.568c4.756 0 7.197-4.882 2.931-4.882-4.146 0-6.775 4.882-2.931 4.882zm41.751-87.157c0 .595.566 1.219 1.464 1.219 1.646 0 1.989-1.378 2.863-2.264 1.394-1.417 2.028.164 3.241-2.129-.545-1.031-.485-1.272-1.878-1.561-2.361-.493-3.502 1.221-4.332 2.43-.567.826-1.358 1.023-1.358 2.305zm-11.965 16.845c0 3.797 4.394 3.56 4.394-1.466 0-3.324-3.44-3.364-4.048-1.363-.195.64-.346 2.082-.346 2.829zm-67.138-74.474c-.265 1.015-.108.049-.353.88-1.339 4.539 1.385 5.305 3.614 3.77.444-1.014 1.785-2.489.745-4-1.059-1.536-2.365-.87-4.006-.65zm72.265 52.257c0 .949.463 1.46 1.312 1.617 1.446.264 4.793-2.549 4.793-5.035 0-1.124-1.149-1.221-1.953-1.221-.868 0-1.765 1.524-2.271 2.125-.474.565-1.881 1.725-1.881 2.514zM59.72 268.555c0 3.034 2.72 3.599 3.405 1.451.606-1.905.578-1.068.988-1.94 1.16-2.462-.526-5.754-3.25-2.029-.45.616-1.142 1.592-1.142 2.518zm229.981-38.331c0 1.35 1.2 1.466 2.196 1.466 1.022 0 3.508-4.263 1.866-5.772-2.052-1.888-4.062.78-4.062 4.306z" fill="#0078BF"/><path fill-rule="evenodd" clip-rule="evenodd" d="M161.04 200.439c0 3.692 5.126 4.585 5.126.489 0-2.969-5.126-4.053-5.126-.489zm-4.153-6.59c0 4.371 5.126 3.966 5.126 1.464 0-3.729-5.126-5.073-5.126-1.464zm34.423 26.123c0 2.639 6.837 3.726 6.837.975 0-2.756-6.837-3.483-6.837-.975zm4.638-21.486c0 2.761.691 2.931 3.417 2.931 2.702 0 3.432-4.64-1.708-4.64-1.139 0-1.709.569-1.709 1.709zm-7.566-1.709c.633 0 3.662-.249 3.662-1.464 0-2.292-2.425-3.174-4.149-3.174-3.602 0-1.028 4.638.487 4.638zm11.961 24.414c0 3.593 3.045 4.943 4.348 3.365.595-.722.562-2.393.056-3.374-.765-1.481-4.404-2.948-4.404.009zm47.852.977c2.601 0 2.993-6.104.732-6.104-1.309 0-3.534.978-3.012 2.497.275.8.243.114.485 1.003.1.365.022 2.604 1.795 2.604zm-27.599-19.287c.133-1.285.173-1.993-.6-2.809-.869-.917-1.431-.768-2.562-1.108-.006.003-4.114 1.461-1.788 3.749 1.205 1.183 3.144 1.414 4.95.168zm-7.145 25.635c.509.471.712.563 1.012 1.477.314.956.282.956 1.319 1.378 1.443.591 2.684.722 4.338 1.094-.578-.884-.369-.19-.977-1.019.432-1.858.977-.451.977-2.93-3.136-2.1-3.545 0-6.669 0zm43.778 5.128c2.09.487 3.456-.015 3.378-2.905-.127-4.621-3.861-3.756-3.842-.804.009 1.338-.133 2.465.464 3.709zm-72.021-19.288c0 2.812 5.126 4.436 5.126.975 0-2.032-3.058-4.784-4.394-2.685-.055.085-.732 1.619-.732 1.71zm85.937 28.075c1.751 0 1.448-.188 2.206-1.944.526-1.221 2.14-4.159-.742-4.159-1.702 0-1.992 1.525-2.518 2.854-.496 1.256-1.128 3.249 1.054 3.249zm10.744-21.484c0 1.123.132-.118.122.732 0 .01-.48 2.442 1.585 2.442 1.116 0 1.463-.915 1.653-1.766.472-2.103.789-1.461.789-2.873 0-1.582-4.149-3.43-4.149 1.465zm-76.175-20.263c0 1.019 1.371 3.001 4.699 1.525 1.275-.565 1.405-.526 1.405-1.77 0-2.76-6.104-2.422-6.104.245zM39.456 326.659c1.344 0 2.504-1.572 2.896-2.478 2.105-4.87-4.72-3.207-4.555.312.046.994.393 2.166 1.659 2.166zm130.86-145.018c0 .966.976 1.084 1.848 1.326 1.14.317 2.847 1.695 3.776.146.165-.274.485-1.486.428-1.92-.333-2.554-6.052-2.241-6.052.448zm-17.089 21.729l.243.244c1.813.422 2.607.473 3.421-.976 1.64-2.923-2.114-5.731-3.823-3.086-1.066 1.651-.195 2.302.159 3.818zm10.74-27.344c0 3.325 5.615 2.717 5.615.489 0-3.742-5.615-2.952-5.615-.489zm7.813-7.081c2.207 0 2.838-3.509.321-4.489-1.925-.75-5.428.864-3.187 3.202.432.45 2.123 1.287 2.866 1.287zm3.663 18.556c0 3.051 6.592 4.066 6.592 1.464 0-.607-.611-1.145-1.011-1.431-.551-.392-1.153-.59-1.883-.802-.369-.108-1.745-.454-2.195-.395-.403.054-1.503.701-1.503 1.164zm-5.127 14.892c0 1.111 1.267 2.623 2.069 3.076 1.371.772 3.057-.325 3.057-1.612 0-1.905-3.003-4.605-4.58-2.871-.232.254-.546 1.022-.546 1.407zm13.428-32.471c0 5.49 4.15 3.827 4.15 1.708 0-5.314-4.15-4.556-4.15-1.708zm79.589 47.607c0 2.546 4.638 2.954 4.638-1.709 0-.97-.834-1.953-2.441-1.953-.979 0-2.197 2.764-2.197 3.662zm-83.009-38.33c0 4.242 5.126 1.584 5.126.245 0-1.854-1.155-2.687-3.662-2.687-1.163 0-1.464 2.245-1.464 2.442zm77.149 41.504c3.772 0 2.335-5.371 0-5.371-4.087 0-1.695 5.371 0 5.371zm-67.87-45.41c0 3.795 4.638 1.838 4.638-.732 0-1.431-.639-2.442-2.44-2.442-.8 0-1.201.585-1.534 1.152-.223.38-.664 1.578-.664 2.022zm58.349 52.735c0 2.381 2.112 2.034 2.991 1.29l1.472-1.221c.993-1.069.621-2.377.419-3.243-2.261-1.084-2.899.463-3.964 1.652-.286.319-.918 1.059-.918 1.522zm-73.73-54.931c0 1.651.857 2.635 1.962 3.176 2.479 1.213 5.101-1.287 1.011-4.199-1.76-1.253-2.973-.368-2.973 1.023zm5.125 38.328c4.615 0 2.553-4.638.488-4.638-4.632 0-2.674 4.638-.488 4.638zm-109.86 46.843c.946-.505 1.89-1.087 2.434-1.921.216-.333.683-1.253.727-1.527.195-1.172-.124-.863-.655-1.646-2.127 0-1.038.05-2.316.68-.696.343-1.418.418-1.943.991-1.418 1.545.198 3.162 1.753 3.423zm180.906-9.001c1.936 0 2.441-1.397 2.441-3.174 0-3.374-5.842-2.348-4.242 1.302.349.797 1.183 1.872 1.801 1.872zM30.668 302.734c0 2.428 2.791 2.676 3.897.478.282-.563.171-.702.474-1.234.216-.38.755-.676.755-.952 0-3.829-5.126-.362-5.126 1.708zm-.732 10.254c0 2.109 2.689 3.704 3.983.076.186-.523-.003-.011.199-.53.11-.283.211.422.211-1.01 0-1.651-4.393-3.595-4.393 1.464zm31.736-54.198c1.37 0 .9-.66 2.636-2.498.457-.483.794-.857.61-1.516-.525-1.872-3.423-1.245-4.864.938-1.014 1.537-.111 3.076 1.618 3.076zm201.661-21.973c0 1.245 2.834 2.535 4.083-1.308 1.365-4.194-4.083-4.538-4.083 1.308zm-70.802-22.95c0 2.939 6.165 2.965 5.485-.115-.436-1.975-5.485-2.987-5.485.115zm49.804 24.171c0 2.456 3.628 5.323 3.974-1.393.037-.715.105-.668-.312-1.538-1.109-.258-1.984-.67-2.904.757-.26.402-.758 1.615-.758 2.174zm16.603 11.231c2.556 0 4.067-4.884.732-4.884-1.467 0-4.275 2.263-2.521 3.98.324.317 1.289.904 1.789.904zm-4.881-8.789c2.707 0 2.95-5.615-.734-5.615-2.147 0-1.538 5.615.734 5.615zm26.854 4.914c2.166-.082 2.182-.862 2.685-2.718 0-1.364-.082-1.929-1.033-2.397-.904-.447-1.878-.332-2.444.382-1.025 1.29-.91 4.165.792 4.733zm-20.994 13.884c0 1.241-.083 2.196 1.709 2.196 1.669 0 3.071-2.172 2.44-4.882-3.288-1.578-4.149 2.344-4.149 2.686zm-223.879 35.4c0 1.474 2.534 3.26 4.142.725 1.075-1.697.983-.917.983-2.191 0-1.4-1.818-1.243-2.919-.973-1.237.304-2.206.922-2.206 2.439zm173.338-71.533c0 4.56 5.127 3.436 5.127 1.466 0-.93-.699-1.249-1.246-1.684-1.168-.931-.802-1.002-2.66-1.002-.569 0-1.221.65-1.221 1.22zm-13.182-31.25c0 3.06 2.838 2.194 3.551.866 2.212-4.114-3.551-6.196-3.551-.866zm100.83 33.936c0 1.101.802 1.695 1.91 2.504 1.03.749 2.483.201 2.483-1.283v-1.466c0-3.177-4.393-1.607-4.393.245zM39.701 331.788c0 2.515 3.825 2.44 4.478-.429.866-3.808-4.478-2.903-4.478.429zm-7.814-8.546c1.059 0 1.952-.339 1.952-1.465l-1.021-2.888c-1.453-1.646-4.487-.033-3.22 2.479.32.633 1.587 1.874 2.289 1.874zm240.722-105.469c0 1.666 2.747 3.343 3.741 1.055.052-.121.653-2.009.653-2.031 0-.944-1.428-3.336-3.399-.958-.495.595-.995.905-.995 1.934zM74.367 272.704c0 2.618 5.126 2.138 5.126-1.219 0-2.204-5.126-1.087-5.126 1.219zM32.132 327.88c0 3.36 4.639 3.069 4.639 0 0-3.213-4.64-1.826-4.64 0zm234.133-102.295c0 .351.577 1.625.789 1.9.829 1.073 2.365 1.126 3.094-.944.238-.677.492-1.575.509-2.42-1.385-.927-1.489-1.665-3.245-.073-.528.477-1.147.755-1.147 1.537zM35.55 307.617c0 3.193 4.148 3.053 4.148-.975 0-2.655-4.149-1.815-4.149.975zm28.809-61.034c0 1.867 1.187 1.71 2.928 1.71 2.793 0 2.562-3.908.489-3.908-1.172 0-3.417 1.149-3.417 2.198zm112.548-79.834c0 2.394 4.881 3.48 4.881.244 0-.822-1.817-2.197-2.685-2.197-1.088 0-2.196.988-2.196 1.953zm25.389 22.461c0 1.944.039.733.279 1.43l.118.37c.454 1.482.458 1.617 2.045 1.617 1.733 0 2.016-4.883.243-4.883-1.166 0-2.685.452-2.685 1.466zM70.573 267.334c.617 2.372 3.733 1.614 4.106-.244.26-4.719-3.93-2.989-4.106.244zm-46.986 42.97c2.144 1.435 1.674 1.17 4.149-.489 0-1.3.026-1.297-.601-2.084-1.225-1.54-2.945-.826-3.525.161-.542.923-.235 1.503-.023 2.412zm10.987 6.347c0 1.823 4.15 2.93 4.15.732 0-4.88-3.163-2.884-3.476-2.499-.223.275-.674 1.388-.674 1.767zm186.032-83.853c.458.78.141 1.09.899 1.665.561.425 1.382.444 2.208.722.052-.046.137-.173.166-.124l.638-.442c2.202-1.696-.268-4.728-3.666-2.929-.15.624-.117.419-.245 1.108zm34.183 20.865c0 2.269 5.126 1.232 5.126-.976 0-.817-1.863-2.011-3.391-1.195l-.289.199c-1.024.692-1.446.879-1.446 1.972zm-94.972-86.426l-.245.245-.243.245-.244.243c-.373 1.603-.716.661-.243 2.686.804.187 1.481.53 2.3.357 2.279-.487 2.218-2.762 1.18-3.602-.81-.656-1.505-.256-2.505-.174zm18.797 50.293c1.429 0 5.081-3.908-.732-3.908-.94 0-1.509 1.181-1.286 1.992.235.851 1.08 1.916 2.018 1.916zM23.587 303.223c0 2.981 3.662 2.952 3.662 0 0-2.616-3.662-2.584-3.662 0zm310.791-135.988c2.332.544 7.076 1.03 8.544-.975-1.484-.124-6.734-1.495-8.544.975zm-78.37 96.926c0 1.846-.204 2.686 1.954 2.686 1.689 0 2.235-3.631-.099-4.062-.813-.151-1.855.639-1.855 1.376zm115.479 146.972c-.022-.993-.338-2.196-.476-3.187-.189-1.352-.183-1.869-.245-3.416-.063-1.591-2.398-4.264-2.94-4.628.479 2.054 1.202 3.668 1.711 5.613.455 1.742.825 4.324 1.95 5.618zm-157.715 38.818c.086.997 3.23 2 4.149 2.441-.33-1.238-1.526-2.186-2.672-2.463-.83-.2-.498-.081-1.477.022zm155.029-52.246c.454.621 1.513.741 1.737.725.977-.075.704-.66.704-1.702-.583.31-1.739.814-2.441.977zm75.44 33.691h.245c0-.658.116-.673.243-1.22h-.488v1.22zM298.245 126.465c-.221-.445-.188-.306-.244-.976-.778.57-.824.691.244.976zm19.531 71.045c.806-.591.274-.266.732-1.221-.565.228-.252-.11-.537.44-.042.082-.146.577-.195.781zm-37.354 72.022c.597-.438.525-.333.732-1.221-.598.437-.526.331-.732 1.221zm76.172 126.22c.725-.532.725-.445 0-.977v.977zm-74.951-128.417c.526-.365.322-.037.488-.733-.525.366-.321.036-.488.733zM162.746 1.953v.245l.284-.203-.284-.042zm-28.077 46.632h-.243l.202.285.041-.285zm161.134 232.422v.244l.286-.203-.286-.041zm72.752-262.208v.245l.285-.204-.285-.041zm-64.939 430.42v.245l.283-.205-.283-.04zM149.075 39.063h.245l-.204-.284-.041.284zM57.279 387.695v.245l.283-.204-.283-.041zm352.536-259.521h-.243l.203.284.04-.284zm-217.77 12.696v-.244l-.284.203.284.041zm284.909 261.719h.245l-.203-.286-.042.286zM89.506 231.446v.244l.284-.205-.284-.039zm45.166-182.861h.243l-.203-.285-.04.285zM27.006 355.714h-.244l.203.284.04-.284zM149.075 39.063h-.243l.203.285.04-.285zm333.984 302.491c.025.024.072-.109.072-.074-.004.004-.096.049-.072.074zm-326.66-118.165l.072-.072c-.004.003-.096.048-.072.072zm125.733 43.212l.281-.475-.281.475zm-2.196 3.907l.243-.489-.243.489zm1.463-2.685l.244-.489-.244.489zm-1.464 2.685l-.281.476.281-.476zm1.222-2.197l.244-.489-.244.489zm-.978 1.708l.245-.487-.245.487z" fill="#0078BF"/></svg>