<svg width="325" height="325" fill="none" xmlns="http://www.w3.org/2000/svg"><path fill-rule="evenodd" clip-rule="evenodd" d="M0 325V0h325v325H0z" fill="#0074C7"/><path fill-rule="evenodd" clip-rule="evenodd" d="M134.109 187.406c3.818-.497 4.961-.958 8.287.962 4.843 2.795 6.497 9.139 5.569 14.69-.22 1.312-.904 2.907-.586 3.984.221.742 1.529 2.743 2.274 3.168 1.77-2.593 2.425-6.777 2.387-10.565-.056-5.826-2.923-8.059-5.81-10.397-2.821-2.283-12.557-8.01-14.277-8.37l2.156 6.528zm29.622 94.409l1.74 2.068c2.082 2.138 3.832 4.903 4.59 5.545l.888-6.749-7.218-.864zm7.179-209.654l3.543-.4c.009-1.98-.441-3.326-.999-4.433a2.891 2.891 0 00-.157-.267c-4.523.43-4.019.67-2.387 5.1zm-1.251-11.769c1.448-.114 2.565-.215 3.735-.806l-1.048-4.108-3.697.278c-.358 1.577.451 3.603 1.01 4.636zm6.563 51.191c.217 1.599 1.081 3.072 1.402 4.785l3.387-.324c-.161-1.829-.644-3.719-1.327-5.039l-3.462.578zm5.046 21.745l1.123 3.481 3.748-.477-.726-3.6-4.145.596zm-8.605-54.77c.013 1.504.538 2.477 1.115 3.828l2.585-.039c.178-1.436-.562-2.829-.796-4.355l-2.904.566zm3.207 13.065c3.102-2.096 6.658 6.3 2.63 7.776-3.787 1.386-6.749-4.992-2.63-7.776zm.034-1.895c-5.757 2.29-4.2 12.875 2.707 11.532 6.263-1.218 2.67-13.672-2.707-11.532z" fill="#FF384B"/><path fill-rule="evenodd" clip-rule="evenodd" d="M128.971 146.162c-4.727-8.581 6.151-7.03 12.068-8.273 8.267-1.734 20.669-4.108 29.287-4.966l29.887-3.79c.984 2.063 2.187 6.544-2.233 7.219l-29.512 4.186c-7.958 1.133-33.747 6.295-39.497 5.624zm69.422-28.673c.729 1.185 1.171 5.415 1.081 6.92-5.107 1.473-30.842 5.354-37.865 6.428-6.675 1.022-12.46 2.098-19.146 3.081-3.363.495-6.398.883-9.785 1.442-2.014.332-7.682 1.31-8.062-2.687-.467-4.922 13.11-5.953 15.942-6.152 17.884-1.256 23.304-3.536 38.753-5.643l19.082-3.389zm-2.867-10.933c1.027 1.634 2.196 5.066 1.927 7.328l-18.388 4.209c-6.752.961-13.089 1.533-19.952 2.627-9.129 1.453-20.376 3.691-29.094 4.793-4.332.546-6.768 1.159-8.321-2.714-1.243-3.103 2.505-4.718 5.032-5.363 3.155-.806 6.074-1.035 9.389-1.946 7.73-2.129 27.918-2.955 39.854-5.566 2.603-.571 18.078-3.52 19.553-3.368zm-75.729 2.694c2.369-1.476 2.244-1.467 5.141-2.37 5.815-1.81 30.576-5.119 38.042-6.042 1.855-.23 4.904-1.142 5.951-1.219 1.017 1.177.981 1.826 2.167 2.918 1.27 1.173 1.541.881 1.733 3.142l-42.112 7.015c-4.616.554-11.02 3.234-10.922-3.444zm61.526-6.371c1.024-1.213 3.069-1.509 4.622-6.94 5.746.802 7.918-.137 9.044.172.801 1.735.913 4.477.761 6.717-1.627.491-12.424 2.255-13.948 2.05l-.479-1.999zm-5.419-13.151c5.377-2.14 8.97 10.314 2.707 11.531-6.907 1.344-8.464-9.242-2.707-11.531zm-8.773 7.084c-9.211.129-18.257 2.208-27.182 3.667-3.101.506-17.931 3.132-19.921 2.563-1.758-.501-3.051-2.75-2.28-5.117 1.353-4.161 19.528-5.146 24.989-5.494 4.487-.287 25.415-3.664 26.662-3.409-.28 2.608-1.559 1.032-2.268 7.79zm25.385-12.38c.748 1.165 1.879 5.99.679 7.102-.827.66-8.538 1.418-10.078 1.159-1.07-1.637-.217-1.93-1.984-3.465-1.608-1.398-2.123-.491-2.337-2.924l13.72-1.873zm-.346-3.627c-4.955 2.657-13.259 2.772-19.571 3.9-6.867 1.228-14.145 1.328-21.156 2.565-6.917 1.218-13.595 2.111-20.617 2.96-3.963.48-13.172 2.463-15.133.058-.747-.919-1.413-3.383-.652-4.514 2.631-3.92 34.451-6.389 40.408-6.97 3.612-.356 7.395-.524 11.045-.968 3.607-.44 6.594-1.364 9.77-1.826l13.548-1.457c2.351-.183 1.903.425 2.036.674.5.948.475 4.302.322 5.578zm-79.659-.813c-.787-4.742.722-5.411 4.894-6.428 6.728-1.635 23.664-2.943 31.428-4.28 6.175-1.062 25.326-3.878 30.51-5.114 3.057-.73 7.081-1.783 10.42-1.37.694 2.945 1.124 3.763.998 7.078-6.746 3.067-29.491 5.513-38.566 6.418-6.792.679-13.129 1.94-19.858 2.712-6.658.769-13.689 2.76-19.826.984zm-2.357-11.407c-1.045-4.742.994-5.084 5.262-5.797 2.672-.446 7.214-1.396 9.68-2.296 2.235-.817 7.31-1.6 9.888-2.14 2.626-.549 49.74-6.328 52.332-6.23.767.845 2.818 5.941 2.061 6.845-.362.199-17.348 2.787-19.911 3.266-14.336 2.679-26.799 3.178-40.308 5.61-5.407.974-13.068 4.346-19.004.742zm31.641-41.015c2.124 2.837 5.251 1.87 8.594 9.443 4.435 10.052-1.604 11.167-3.973 8.347-4.34-5.174-8.096-15.072-15.253-16.78-.793-.188-1.7-.249-2.519.162-.655.33-.635.437-.857.646l5.165 2.51c10.916 5.492 9.911 19.571 3.046 17.733-4.188-1.122-8.148-7.754-10.324-9.717-.736-.668-1.41-1.14-2.215-1.79-3.024-2.431-8.429-2.614-12.97-1.69-2.649.538-3.398 1.588-5.147 2.848-1.599 1.153-3.058 2.203-4.245 3.752-2.133 2.787-4.072 6.104-5.2 10.427-.817 3.135-1.487 12.005-.555 14.91l1.008.096c1.636-.201 2.74-.847 4.447-.42 3.532.882 4.08 4.471-.69 7.115-1.418.789-3.7.948-5.07 1.885l.53.191c1.79.273 3.924-.483 5.764.102 4.392 1.395 4.302 6.775.563 8.702-1.609.829-4.538.78-4.878 2.285 1.716 1.196 9.808-3.185 10.285 2.62.135 1.674-1.186 4.106-2.061 4.982-.802.802-1.256.98-2.442 1.195-2.006.36-1.71-.225-3.052.663l.147 1.52c2.852.302 8.226-1.846 8.783 3.218.672 6.097-6.108 3.808-7.085 6.176.822 1.307 2.261.059 4.787.269 4.239.355 5.471 4.583 2.721 7.189-1.465 1.389-2.43 1.499-4.513 2.362l.107 2.439c2.193.299 8.529-2.807 8.473 2.653-.033 3.431-4.326 4.62-7.117 5.92l.653 2.735c2.957-.918 7.23-.665 8.034 2.319 1.186 4.411-3.257 4.684-6.505 5.44l.364 2.728c3.398-.351 8.266-2.658 8.895 1.704.783 5.429-5.955 4.747-7.015 5.487-.991 1.283-1.4 2.193-1.079 4.529 1.222-.075 1.099-.155 1.977-.763l1.7-1.198c.183-.251.33-.985.635-1.48 4.839-1.192 8.548-.596 6.708-6.903-.999-3.429-1.734-8.991-2.333-12.555-.696-4.159-1.874-8.076-2.933-11.67-2.348-7.974-2.53-16.869-4.524-24.91-1.991-8.035-2.11-17.26-4.624-25.228-.853-2.705-1.489-2.498-3.211-4.056-2.83-2.561-3.604-.335-5.966-1.66-.053-.09-.102-.338-.116-.288-.015.05-.086-.218-.105-.294-.113-.438-.125-.409-.205-.954-.883-6.13 4.372-20.435 8.895-21.4 1.096 1.412.343 4.616 1.557 6.357 2.251 3.22 7.624-1.694 8.969 4.595l-5.457 1.527c1.365 3.364 9.192 2.36 12.07 3.697-.018 1.603.251 1.188-1.276 1.814-3.254 1.336-9.75 1.377-11.896 3.372-4.436 4.127-1.963 4.084-.995 9.09 1.196 6.186 2.511 11.878 3.362 18.313.518 3.93 1.831 7.944 2.451 11.798.698 4.349 1.078 8.53 1.838 12.773.671 3.742 2.013 7.344 2.913 11.262 1.08 4.693 2.141 13.964 3.507 17.952.679 1.991 1.151 3.895.07 5.801-.926 1.631-2.53 1.945-4.698 2.582-3.837 1.127-.763 1.166-4.739 2.595.434 2.037 2.438 5.292 3.788 6.23 2.44 1.7 5.746-.455 7.773-1.631 1.882-1.094 5.622-2.967 6.6-.109.845 2.471-2.408 5.133-2.948 6.944 14.258 1.146 15.32-13.918 20.059-14.178.955 4.586-4.088 14.939-3.318 16.333 4.856-1.366 3.355-11.51 6.689-14.648 5.678-5.337 10.212 3.133 7.123 9.333-.856 1.721-1.847 2.899-2.946 4.306l-3.295 4.051c1.311.563 8.488-.441 10.344-7.533 1.437-5.497-1.029-13.113 3.921-14.705 5.68-1.825 8.494 4.901 6.804 10.13-1.316 4.066-7.085 10.04-6.451 11.717 3.047 1.313 7.346-4.928 8.501-7.112 3.187-6.024-3.627-15.796 4.579-14.759 5.786.731 3.599 11.802 1.727 14.877-.896 1.476-2.732 3.325-2.987 5.023 2.239-.242 5.494-5.421 6.25-8.657.747-3.2.849-10.731 2.591-12.699 4.151-4.687 9.285 2.116 6.502 11.977-.563 1.998-2.078 3.666-2.03 5.562 4.808-2.809 3.5-10.589 4.677-15.313.541-2.169.813-3.78 3.29-3.691 3.279 1.888.326 5.178 1.819 8.084 1.579-1.008 1.794-4.804 1.852-6.538.171-5.083-.842-10.011-1.852-14.932-.468-2.282-.659-4.985-1.003-7.366-3.209-22.197-6.737-34.229-8.081-58.848-.431-7.892-1.333-15.283-2.156-22.984-.184-1.726-.139-3.913-1.046-5.464-.72-1.231-.482-.706-1.352-1.132.055 2.358.014 3.184-.812 4.87-3.486-.076-3.768-2.118-4.961-4.99-1.855-4.464-.207-5.626-3.937-6.428l2.434 6.072c.633 2.105 1.281 4.538-.184 6.346-3.959.818-5.073-4.209-6.301-7.106-.687-1.62-1.428-2.726-2.168-4.363-1.072-2.363-.813-3.141-3.539-3.382.716 3.162 8.455 11.307 3.723 16.717-5.057.291-6.064-5.633-8.02-9.128-1.482-2.65-2.817-5.755-5.09-8.015-1.1-1.095-1.202-1.113-3.221-.976.346.776 1.907 2.557 2.558 3.455.913 1.257 1.444 2.769 2.273 4.293 1.971 3.626 2.916 5.512 2.004 10.464-7.57 3.147-10.027-10.927-13.478-15.74-.621-.867-1.516-1.682-2.039-2.578-1.862-.136-4.381.207-5.841 1.147zm9.467 186.857c1.81.377 6.095-4.198 7.25-5.545 1.528-1.776 1.12-2.616.755-5.38-.313-2.351-.35-4.056-.536-6.393-.16-1.995-.667-3.703-.862-5.805-.244-2.668.29-2.925 2.923-3.45 2.578-.513 9.367-1.79 11.988-1.147 2.431 4.01.804 12.723 1.451 17.832 1.342.304 2.567-.374 3.597-1.445 1.002-1.041.858-2.811.787-4.34-.172-3.73-.561-7.034-.665-10.768-.767-.557-.535-.27-1.349-.717-2.322-1.27-1.466-2.046-5.151-2.488-6.8-.818-4.951-6.732-13.989-4.922-4.976.994-5.693-.902-7.808-1.957-2.761 4.753-.476 9.473 1.871 13.317.689 1.124 1.228 2.652 1.715 4.112 3.533 10.559-2.737 15.877-1.977 19.096zm-5.611-10.354c.932-2.92.487-9.114-1.152-11.276-2.179-2.865-4.948-3.797-9.559-3.128-1.796 5.715 3.016 5.479 8.928 12.861l1.783 1.543zm-14.16-13.762c-.199-2.658-2.316-10.517-3.278-12.884-1.141-2.806-2.07-2.433-4.515-3.443-2.202-.91-3.631-2.236-5.361-2.856.661 2.193 4.587 7.969 5.921 10.275 1.18 2.04 5.837 8.039 7.233 8.908z" fill="#FF384B"/><path fill-rule="evenodd" clip-rule="evenodd" d="M175.87 91.622c-4.12 2.785-1.157 9.163 2.629 7.776 4.029-1.475.473-9.871-2.629-7.776z" fill="#FF384B"/><path fill-rule="evenodd" clip-rule="evenodd" d="M165.877 100.261c-20.455 31.235-22.883 62.108-41.237 92.568-4.788 7.943-3.096 14.501-2.531 6.828.023-.288 1.174-1.819 2.476-1.822l.026.606c-2.282 16.544-6.394 19.26-6.394 37.25 0 13.669 6.137 52.593 10.282 65.034 3.549 10.645 2.419 18.004 2.459 24.275h105.72a39.251 39.251 0 01-1.115-9.19c0-12.081 7.807-39.725 7.277-42.455 0-8.062 3.638-14.098 3.638-26.356 0-10.84-11.154-43.115-15.463-54.644-3.623-9.688-3.104-25.347-.227-34.929 6.871-22.881-17.962-28.082-8.489-56.33 4.153-12.395 4.511-12.133-8.266-12.133-5.948 0-16.573 9.056-16.98 11.525-2.126 12.904-24.483 3.015-31.176-.227z" fill="#FF384B"/><path fill-rule="evenodd" clip-rule="evenodd" d="M127.103 284.053c-4.288-3.417-4.962-2.877-5.665-5.014.904.281 1.608 1.045 3.088.94 1.307-.096 1.678-.86 3.156-.497 1.1.271 9.319 10.221 25.526 15.21 3.039.933 12.923 1.73 12.906-1.903-.003-.715-3.15-4.916-3.825-5.731-3.87-4.67-7.573-4.224-15.338-12.309-1.576-1.64-5.664-4.397-7.885-6.299-1.173-1.005-1.243-.568-2.4-1.971-2.874-3.478-5.758-5.794-10.949-7.161 1.346-.89 2.017-.042 4.03.985 1.214.618 3.069 1.446 4.014 1.812 4.888 1.888 4.404 2.363 7.378 4.268l6.803 4.829c5.785 4.354 20.513 9.196 26.17 5.277 2.395-1.656 2.875-6.021 1.411-8.86-3.139-6.081-9.123-8.366-11.89-11.012-1.881-1.801-17.717-10.005-21.79-12.409-.683-.405-1.194-.606-1.899-1.014-7.079-4.105-8.185-6.102-13.314-12.513-3.446-4.309-3.068-.573-7.041-9.905 1.978.854 1.688 3.079 3.84 3.097 1.377.013.724-.797 2.877.202 3.492 1.621 7.426 5.468 10.108 7.375 2.631 1.866 6.479 5.091 9.709 1.775 2.263-2.323 3.999-5.883 2.865-10.392-4.417-17.55-9.625-14.991-20.336-29.088-3.305-4.348-3.494-3.813-4.987-5.565l-4.399-6.148c-4.255-6.775-12.539-10.453-19.113-6.419-7.878 4.836-10.09 7.804-5.095 17.155 2.95 5.521 8.178 8.429 11.341 13.78 2.995 5.062 4.556 5.419 7.682 8.77l.375.482c-1.806-.42-3.183-1.505-5.01-2.141.075 6.108.379 5.778-1.398 11.353-2.431 7.629-3.546 12.708.62 20.003 2.043 3.58 1.143 2.462 2.018 4.154.879 1.69 1.949 1.579 2.836 3.162-1.227-.633-1.743-1.18-2.993-1.902-5.2-3.012-4.016-.658-7.863-7.395-1.524 1.29-1.985 2.409-3.59 3.89-3.934 3.641-5.893 10.821-3.648 16.797 2.344 6.252 13.469 7.908 14.35 8.547 1.701 1.234-.649.608 2.096 1.577.585.207 1.986.427 2.816.753l-3.278 1.078c-7.556 2.412-5.392 8.625-.773 12.12.851.644 1.777 1.289 2.479 1.888l4.617 3.736c2.418 1.845 4.449 4.121 6.137 6.605 2.18 3.204 4.972 9.806 6.396 10.611.316-6.656 1.812-14.395 1.802-20.5-.005-3.082-3.107-4.601-4.967-6.083z" fill="#FF384B"/><path fill-rule="evenodd" clip-rule="evenodd" d="M172.569 256.815c.669-1.111.455-1.819.693-4.403 1.032-11.226 2.488-18.979 4.109-29.963-2.985.252-6.976 1.553-9.968 2.238-3.324.762-6.494 1.474-9.754 2.125-1.013 6.187-1.806 12.936-2.849 18.682 3.354 2.262 7.22 3.393 13.59 8.17l4.179 3.151zm-68.553-126.167l.102-2.194 2.338-.731-.846-4.484c-2.071-.924-2.028.965-2.687-1.984-.321-1.452-.955-2.815-.806-4.067l3.137-.488-1.523-5.764c-5.957-.14-.568-.811-7.91-.374-1.896.114-5.605 1.122-7.22 1.849-3.933 1.768-8.165 4.706-8.393 9.749-.278 6.148 2.617 9.142 8.013 10.092 3.08.543 5.206.476 8.253-.006 2.582-.407 4.969-1.473 7.542-1.598zm63.655 68.821c-2.199.244-1.798-2.854-2.559-7.56-.244-1.511.074-2.224-.909-2.803-1.567.885.118 2.669-.112 4.646-3.386 1.953-4.569-.497-3.109 6.924 2.186 11.114-.852 7.416-5.05 13.589 2.701 2.39 3.55 1.844 7.671 1.17 1.982-.322 7.203-.973 8.584-1.594l.133-20.427-3.37.471c-.979-1.509-.554-3.651-1.836-5.072l-.242.742c-.009.073-.026.192-.03.278-.013.205.059.972.092 1.218.3 2.213 1.401 6.507.737 8.418z" fill="#FF384B"/><path fill-rule="evenodd" clip-rule="evenodd" d="M163.732 281.815l7.218.864-.889 6.749c-.758-.642-2.507-3.407-4.59-5.545l-1.739-2.068zm73.897 43.184h-3.392c-.391-7.405-1.827-13.959-.789-21.924 1.379-10.593 4.117-13.652 6.137-22.136l-.649.674c-.041.042-.468.546-.539.634-3.309 4.076-2.922 3.922-7.276 7.618-2.115 1.797-7.937 4.821-11.272 5.286-7.217 1.007-8.166 3.616-18.651-3.704-1.64-1.144-2.901-3.208-3.132-5.189.937.419.247-.031 1.032.751l.409.719c.321.965-.943-.533.139.332 4.289 3.423 7.535 8.168 14.771 7.318 4.418-.519 16.073-7.047 18.001-9.31 3.917-4.59 8.019-12.083 9.547-17.711 1.498-5.52 3.455-18.196 2.779-24.02-.733-6.333-6.238-26.79-8.542-33.014-2.496-6.739-6.169-26.209-7.273-33.464-1.379-9.071-.122-16.914.209-26.045-1.028.872-1.506 2.176-2.59 3.954-1.162 1.907-6.223 6.209-8.337 4.457-.917-.758-.76-.715-.919-2.104 4.472.687 6.158-.911 7.972-3.988 1.073-1.822 3.069-6.423 2.697-9.039-1.33-9.379-7.576-16.679-10.201-25.567-1.319-4.458-.798-5.496.128-9.885 1.785-8.439 4.742-7.251 5.224-18.036-7.756-1.908-9.544-2.15-16.166 1.635-2.508 1.43-3.981 2.422-5.33 4.852-.976 1.76-2.31 5.62-2.02 8.002.348 2.856 1.257 5.92 1.732 8.824.49 2.974.994 5.737 1.427 8.695.448 3.047.709 5.926 1.295 8.876 1.125 5.649 2.802 13.239 1.291 18.798-1.825 6.702-6.257 11.627-6.114 14.131.519 9.005-1.954 16.24-7.182 23.143-2.299 3.038-1.74 3.369-6.439 1.706-1.241-.437-2.432-.925-3.491-1.612-1.372-.89-1.481-2.014-2.464-2.295-.195 3.523.865 9.141 1.192 12.944.563 6.522-3.28 5.798-6.477 7.988-.086 1.71-.358 4.978-.137 6.57l1.977 4.736c2.013.063 3.383-.504 3.639 1.803.096.866-.254 3.637-.389 4.649-1.209 9.032-2.613 18.954-2.791 28.07-.085 4.253-1.432 5.741.866 8.875 3.372 4.599 4.512 10.428 1.79 15.707-1.998 3.875-2.968 2.269-5.614 4.535-1.022 17.836-3.101 27.598-5.109 42.761h-2.83c.651-8.58 2.434-22.258 3.029-25.929-1.54.624.42.392-1.565 1.085-3.022 1.053-13.991 1.194-17.275 1.282-.248 2.341-1.921 15.881-3.215 23.562h-17.845l.847-8.564-4.004-5.204c-1.471-2.247-1.583-3.569-2.743-5.961-2.854-5.892-8.35-9.317-13.216-12.982-6.932-5.22-9.038-6.79-6.41-16.964-3.086-1.87-9.394-3.454-12.329-10.505-2.989-7.185.339-12.638 3.148-17.683 1.454-2.614 3.509-4.028 5.368-6.275 1.094-1.321 1.746-1.88 1.804-4.087.139-5.129 1.646-8.945 2.976-14.075.859-3.314 1.358-5.992 1.184-9.945-.217-4.904-3.565-3.491-7.957-9.379-3.988-5.348-10.049-11.871-9.58-19.018.37-5.65 4.233-12.813 7.258-15.843 4.94-4.95 9.778-5.661 16.275-3.447-.267-1.059-1.384-2.761-1.995-4.238-.689-1.662-1.382-2.562-1.764-4.449-1.025-5.064.113-6.242 2.973-8.768l-.832-3.222c-2.795.246-3.232 2.828-3.969-5.266l2.336-.956c-.627-.408.62-.566-1.368-.227-1.206.206-1.998.932-3.171 1.272-5.158 1.505-10.587.705-15.094-1.5-5.626-2.754-10.98-4.546-12.713-11.328-.762-2.987.079-7.406 1.274-10.113 1.335-3.025 2.966-4.989 5.49-6.524 5.247-3.187 9.157-3.006 14.977-3.075 2.438-.03 1.396-.492 2.87-.688l1.92.117c.179-1.756-.4-3.337-.934-4.937-3.56.025-3.545 1.09-3.654-5.254l2.716-.332-1.098-5.532c-2.56.278-1.104 1.41-3.084.976-1.007-.87-1.35-3.504-1.273-4.802 1.2-.393 2.182-.437 3.213-.805.06-1.322-.751-4.798-1.167-6.129-1.496-.143-.747.051-1.867.208-.477.067-1.297.406-1.5-.025-.237-.496-.65-.01-.688-2.066-.008-.334.083-1.429.215-1.724.663-1.498 1.261-.637 2.842-1.178.578-4.082-1.16-3.64-2.052-4.001-1.721-7.758-.402-18.195 2.953-24.204.735-1.316 1.97-2.912 2.848-4.071 1.019-1.348 1.8-1.872 3.639-3.279l3.799-3.115c1.192-1.02 3.477-1.175 5.443-1.404 5.863-.682 5.414-2.258 9.749-4.5 3.407-1.76 5.537-3.491 9.994-3.849 2.253-.179 4.588-.093 6.844-.185 1.965-.082 3.887-.776 5.65-1.092 6.095-1.095 19.499.208 25.383 1.604 6.132 1.452 12.688 2.742 17.354 7.047 3.505 3.23 3.947.947 5.085 11.966.436 4.226 1.203 8.545 1.534 12.699.338 4.235.535 8.842.779 13.116.202 3.585 1.869 22.645 3.189 24.242 4.483-5.952 10.816-9.768 19.17-9.18l8.494.89c4.999 13.252-4.9 22.812-3.331 30.695 1.274 6.409 3.655 11.432 6.706 16.558 8.477 14.251.663 25.129 3.006 44.998 1.335 11.302 7.345 33.737 10.965 44.736 6.506 19.773 8.175 34.383 1.267 54.457-.648 1.888-1.926 4.129-2.793 6.306-1.647 4.124-3.422 9.697-4.35 14.217-1.301 6.338-.251 19.315.131 25.846zm-65.06-68.184l-4.178-3.152c-6.37-4.776-10.237-5.908-13.591-8.17 1.043-5.746 1.836-12.495 2.849-18.682 3.26-.651 6.431-1.363 9.754-2.125 2.992-.684 6.983-1.986 9.968-2.237-1.62 10.983-3.076 18.737-4.109 29.963-.238 2.584-.024 3.291-.693 4.403zm-14.982-35.334c2.475-1.014 5.897-.531 8.633-1.26 1.857-.495 6.397-1.573 7.844-.923-.57 1.102-.411.779-1.905 1.019l-6.521 1.508c-2.779.767-5.251 1.854-8.046 2.592l-.005-2.936zm16.392-4.366c-1.893.671-15.283 2.852-16.971 2.52-1.259-.249-3.376-1.655-4.06-2.548l.871-1.261c2.56.1 2.577 1.618 4.068 2.171 1.248.465 4.114-.349 5.542-.573 1.875-.295 3.73-.666 5.554-.949.796-.122 2.265-.399 2.995-.439.811-.046.72-.209 1.419.221.753.459.346.15.582.858zm-30.111-14.585c-5.911-7.382-10.724-7.147-8.928-12.861 4.612-.67 7.38.262 9.559 3.128 1.64 2.161 2.085 8.355 1.152 11.276l-1.783-1.543zm23.803-3.062c.664-1.911-.436-6.205-.737-8.418-.032-.246-.105-1.013-.092-1.218.004-.086.021-.205.031-.278l.241-.742c1.282 1.421.857 3.563 1.837 5.072l3.369-.472-.132 20.427c-1.382.622-6.602 1.273-8.584 1.595-4.122.673-4.971 1.219-7.672-1.17 4.198-6.173 7.236-2.475 5.05-13.589-1.46-7.421-.277-4.971 3.109-6.924.23-1.977-1.455-3.761.112-4.646.984.579.665 1.292.909 2.802.761 4.707.36 7.805 2.559 7.561zm-48.082 21.307c3.973 9.332 3.595 5.596 7.041 9.904 5.129 6.412 6.235 8.409 13.314 12.514.705.408 1.216.609 1.898 1.013 4.073 2.405 19.91 10.608 21.791 12.41 2.767 2.646 8.751 4.931 11.889 11.011 1.465 2.84.985 7.204-1.41 8.861-5.657 3.918-20.385-.923-26.17-5.277l-6.803-4.829c-2.974-1.905-2.49-2.381-7.378-4.269-.946-.365-2.8-1.193-4.014-1.811-2.013-1.027-2.684-1.875-4.031-.986 5.192 1.368 8.076 3.684 10.95 7.162 1.157 1.402 1.227.965 2.399 1.971 2.222 1.902 6.31 4.658 7.886 6.298 7.765 8.086 11.468 7.64 15.337 12.31.675.815 3.823 5.016 3.826 5.731.017 3.633-9.868 2.835-12.906 1.903-16.207-4.99-24.426-14.939-25.526-15.211-1.478-.363-1.85.402-3.156.497-1.48.106-2.184-.659-3.088-.94.703 2.137 1.376 1.598 5.664 5.014 1.861 1.483 4.963 3.002 4.967 6.084.011 6.105-1.486 13.844-1.801 20.5-1.424-.806-4.216-7.407-6.396-10.611-1.689-2.484-3.72-4.76-6.137-6.605l-4.617-3.737c-.703-.599-1.629-1.244-2.479-1.888-4.619-3.495-6.783-9.707.773-12.12l3.277-1.077c-.829-.327-2.23-.547-2.815-.753-2.746-.969-.395-.343-2.096-1.577-.882-.639-12.006-2.295-14.35-8.547-2.245-5.976-.286-13.156 3.648-16.797 1.604-1.481 2.065-2.6 3.59-3.89 3.847 6.737 2.663 4.382 7.863 7.394 1.25.723 1.766 1.27 2.992 1.902-.886-1.582-1.956-1.472-2.835-3.161-.875-1.692.025-.574-2.019-4.155-4.165-7.294-3.05-12.373-.619-20.002 1.777-5.575 1.473-5.245 1.398-11.354 1.826.637 3.204 1.722 5.01 2.141l-.376-.482c-3.125-3.35-4.687-3.707-7.681-8.769-3.163-5.351-8.392-8.259-11.341-13.781-4.994-9.351-2.783-12.318 5.094-17.154 6.575-4.035 14.859-.357 19.114 6.419l4.399 6.148c1.493 1.752 1.682 1.217 4.986 5.564 10.711 14.098 15.92 11.539 20.336 29.088 1.135 4.51-.601 8.07-2.864 10.393-3.23 3.315-7.078.091-9.709-1.775-2.682-1.907-6.616-5.755-10.108-7.376-2.153-.998-1.5-.188-2.877-.201-2.153-.018-1.862-2.243-3.84-3.097zm54.643-16.236c-.648-5.109.979-13.822-1.451-17.832-2.622-.643-9.411.634-11.989 1.147-2.632.525-3.167.782-2.923 3.45.195 2.102.703 3.81.862 5.805.187 2.337.223 4.042.536 6.393.365 2.764.774 3.604-.755 5.38-1.155 1.347-5.439 5.922-7.25 5.545-.76-3.219 5.511-8.537 1.978-19.096-.488-1.46-1.027-2.988-1.715-4.112-2.348-3.844-4.633-8.564-1.872-13.317 2.115 1.055 2.832 2.951 7.809 1.957 9.037-1.811 7.188 4.104 13.988 4.922 3.685.442 2.829 1.218 5.151 2.488.814.446.582.16 1.349.717.104 3.734.493 7.038.665 10.768.071 1.529.215 3.299-.787 4.34-1.03 1.071-2.255 1.749-3.596 1.445zm-40.123-17.134l-2.156-6.527c1.72.36 11.456 6.087 14.277 8.37 2.887 2.338 5.755 4.571 5.81 10.397.038 3.787-.616 7.972-2.387 10.565-.745-.425-2.053-2.427-2.273-3.169-.319-1.077.366-2.672.585-3.983.928-5.552-.726-11.896-5.568-14.69-3.327-1.92-4.47-1.46-8.288-.963zm-2.618 2.906c-1.396-.87-6.053-6.868-7.232-8.908-1.334-2.307-5.261-8.082-5.922-10.276 1.731.62 3.159 1.947 5.362 2.857 2.444 1.01 3.373.637 4.514 3.442.963 2.367 3.079 10.226 3.278 12.885zm47.832-16.282c3.007-.659 5.872-.927 8.721-1.84 2.85-.915 4.943-2.356 7.003-3.1-.402 4.516-10.155 5.958-14.3 6.024-.569 1.558-.092 3.649-1.366 4.662-.43-1.568-.236-3.896-.058-5.746zm-75.307-43.381c-2.573.124-4.96 1.19-7.542 1.597-3.047.482-5.172.549-8.253.006-5.396-.95-8.291-3.944-8.013-10.092.228-5.043 4.46-7.98 8.392-9.749 1.616-.727 5.325-1.735 7.222-1.849 7.341-.437 1.952.235 7.909.374l1.523 5.764-3.137.488c-.149 1.252.485 2.616.806 4.067.659 2.949.616 1.06 2.687 1.984l.846 4.484-2.338.731-.102 2.195zM141.795 27.57c1.461-.94 3.979-1.283 5.841-1.147.523.896 1.418 1.711 2.04 2.579 3.45 4.812 5.908 18.886 13.477 15.739.913-4.952-.033-6.838-2.004-10.464-.828-1.524-1.359-3.036-2.273-4.293-.651-.898-2.212-2.679-2.558-3.455 2.02-.137 2.122-.119 3.222.976 2.272 2.26 3.607 5.364 5.089 8.015 1.956 3.495 2.964 9.419 8.02 9.128 4.733-5.41-3.006-13.555-3.723-16.717 2.726.24 2.468 1.019 3.54 3.382.74 1.637 1.48 2.743 2.167 4.363 1.229 2.897 2.342 7.924 6.301 7.106 1.466-1.807.817-4.24.184-6.346l-2.433-6.072c3.729.802 2.082 1.964 3.936 6.428 1.193 2.872 1.475 4.914 4.962 4.99.826-1.686.866-2.512.811-4.87.871.426.632-.1 1.353 1.133.907 1.55.861 3.737 1.045 5.463.823 7.701 1.726 15.092 2.157 22.984 1.343 24.619 4.871 36.651 8.08 58.848.344 2.381.535 5.084 1.003 7.366 1.011 4.921 2.024 9.848 1.852 14.931-.058 1.735-.273 5.531-1.852 6.538-1.492-2.905 1.461-6.195-1.819-8.083-2.477-.089-2.749 1.522-3.289 3.691-1.178 4.723.131 12.504-4.678 15.313-.048-1.897 1.467-3.564 2.03-5.562 2.783-9.861-2.35-16.665-6.502-11.977-1.741 1.967-1.843 9.499-2.591 12.699-.755 3.236-4.011 8.415-6.249 8.656.254-1.697 2.09-3.546 2.987-5.022 1.871-3.076 4.058-14.146-1.728-14.877-8.205-1.037-1.391 8.735-4.579 14.759-1.154 2.184-5.454 8.425-8.5 7.112-.635-1.678 5.135-7.651 6.45-11.717 1.691-5.229-1.124-11.955-6.804-10.13-4.95 1.592-2.483 9.208-3.92 14.705-1.857 7.092-9.034 8.096-10.344 7.533l3.294-4.052c1.099-1.407 2.09-2.584 2.947-4.305 3.088-6.2-1.446-14.67-7.124-9.333-3.334 3.138-1.833 13.282-6.689 14.648-.77-1.394 4.274-11.747 3.318-16.333-4.738.26-5.801 15.323-20.058 14.178.539-1.811 3.792-4.473 2.947-6.944-.978-2.858-4.718-.985-6.6.108-2.026 1.177-5.333 3.332-7.773 1.632-1.35-.938-3.354-4.193-3.787-6.23 3.976-1.429.901-1.468 4.739-2.595 2.167-.637 3.771-.952 4.698-2.582 1.08-1.906.609-3.81-.071-5.802-1.365-3.987-2.427-13.258-3.506-17.951-.901-3.918-2.243-7.52-2.914-11.262-.76-4.243-1.14-8.424-1.838-12.773-.62-3.854-1.932-7.867-2.451-11.798-.85-6.435-2.166-12.127-3.361-18.313-.969-5.006-3.442-4.963.994-9.09 2.146-1.995 8.643-2.036 11.897-3.372 1.527-.626 1.257-.211 1.275-1.814-2.877-1.337-10.704-.333-12.069-3.697l5.456-1.527c-1.345-6.289-6.718-1.374-8.969-4.595-1.214-1.74-.461-4.945-1.556-6.356-4.523.964-9.779 15.27-8.895 21.4.08.544.091.515.204.953.02.076.09.345.106.294.014-.05.062.199.115.288 2.363 1.325 3.137-.901 5.966 1.66 1.723 1.558 2.359 1.35 3.212 4.056 2.514 7.967 2.632 17.193 4.624 25.228 1.994 8.041 2.176 16.936 4.523 24.91 1.059 3.593 2.237 7.511 2.934 11.67.599 3.564 1.333 9.125 2.332 12.555 1.84 6.307-1.868 5.71-6.707 6.903-.306.495-.453 1.229-.636 1.48l-1.7 1.198c-.877.608-.755.688-1.977.762-.32-2.335.089-3.245 1.08-4.528 1.06-.74 7.797-.058 7.015-5.487-.629-4.362-5.497-2.055-8.895-1.704l-.364-2.728c3.248-.756 7.691-1.03 6.505-5.44-.805-2.984-5.078-3.237-8.035-2.319l-.652-2.735c2.791-1.3 7.084-2.489 7.117-5.92.055-5.46-6.281-2.354-8.474-2.653l-.106-2.439c2.082-.863 3.048-.973 4.512-2.362 2.751-2.606 1.518-6.834-2.721-7.189-2.526-.21-3.965 1.038-4.787-.269.978-2.368 7.757-.079 7.086-6.176-.557-5.064-5.932-2.916-8.784-3.218l-.146-1.52c1.342-.889 1.046-.304 3.051-.663 1.186-.215 1.641-.393 2.442-1.195.875-.876 2.197-3.308 2.061-4.982-.476-5.805-8.569-1.424-10.285-2.62.34-1.505 3.269-1.456 4.879-2.285 3.738-1.927 3.829-7.306-.563-8.702-1.84-.585-3.975.171-5.764-.102l-.53-.19c1.37-.938 3.65-1.097 5.07-1.886 4.769-2.644 4.221-6.233.689-7.116-1.706-.426-2.81.22-4.446.42l-1.008-.095c-.933-2.905-.262-11.775.555-14.91 1.128-4.323 3.066-7.64 5.2-10.427 1.186-1.55 2.646-2.599 4.245-3.752 1.749-1.26 2.497-2.31 5.146-2.848 4.542-.924 9.946-.741 12.97 1.69.805.65 1.479 1.122 2.216 1.79 2.176 1.963 6.135 8.595 10.323 9.717 6.865 1.838 7.87-12.241-3.045-17.732l-5.165-2.51c.221-.21.202-.317.857-.647.818-.41 1.725-.35 2.518-.162 7.158 1.708 10.913 11.606 15.253 16.78 2.37 2.82 8.409 1.705 3.973-8.347-3.342-7.573-6.47-6.606-8.594-9.443z" fill="#FFED00"/><path fill-rule="evenodd" clip-rule="evenodd" d="M168.649 55.755l3.697-.277 1.048 4.108c-1.17.59-2.287.692-3.735.805-.56-1.032-1.369-3.06-1.01-4.636zm-58.495 12.83c5.936 3.604 13.597.231 19.005-.742 13.508-2.433 25.971-2.932 40.307-5.61 2.563-.48 19.55-3.068 19.911-3.267.757-.903-1.294-6-2.06-6.845-2.592-.097-49.707 5.682-52.332 6.231-2.578.539-7.654 1.323-9.888 2.14-2.467.9-7.009 1.85-9.681 2.295-4.268.713-6.307 1.056-5.262 5.797zm69.529 42.419c.684 1.319 1.167 3.21 1.327 5.038l-3.387.325c-.32-1.714-1.185-3.187-1.402-4.785l3.462-.578zm15.842-4.449c-1.474-.151-16.95 2.797-19.553 3.368-11.936 2.611-32.123 3.437-39.853 5.566-3.315.912-6.234 1.141-9.389 1.946-2.528.645-6.276 2.261-5.032 5.363 1.553 3.873 3.988 3.26 8.321 2.714 8.717-1.102 19.965-3.34 29.094-4.793 6.863-1.094 13.2-1.665 19.952-2.626l18.388-4.209c.268-2.263-.901-5.694-1.928-7.329zm-19.959-28.564c.235 1.527.974 2.92.797 4.356l-2.585.039c-.578-1.352-1.103-2.324-1.116-3.829l2.904-.566zm16.604 2.814c.153-1.277.177-4.63-.322-5.578-.133-.25.314-.857-2.036-.674l-13.548 1.457c-3.176.462-6.164 1.385-9.77 1.826-3.65.444-7.433.612-11.045.968-5.957.581-37.777 3.05-40.408 6.97-.761 1.13-.095 3.595.652 4.514 1.961 2.405 11.17.422 15.133-.058 7.022-.849 13.7-1.743 20.617-2.96 7.011-1.237 14.289-1.337 21.156-2.565 6.312-1.128 14.615-1.243 19.571-3.9zm-18.716-13.478c.557 1.106 1.007 2.453.998 4.432l-3.543.401c-1.632-4.43-2.136-4.67 2.387-5.1.058.087.125.201.158.267zm-60.943 12.664c6.137 1.777 13.168-.215 19.826-.984 6.729-.772 13.066-2.033 19.858-2.712 9.075-.904 31.821-3.35 38.566-6.418.126-3.315-.304-4.132-.998-7.077-3.339-.413-7.363.64-10.42 1.37-5.184 1.235-24.335 4.051-30.51 5.114-7.764 1.336-24.7 2.644-31.427 4.28-4.173 1.016-5.682 1.685-4.895 6.427zm66.661 42.897c3.397-1.71 3.675-.205 3.95 2.631l-2.898.574c-.509-1.054-.886-1.941-1.052-3.205zm.14-2.011c-15.45 2.107-20.87 4.387-38.754 5.644-2.832.199-16.409 1.229-15.941 6.152.379 3.997 6.047 3.019 8.061 2.687 3.387-.56 6.422-.947 9.785-1.442 6.686-.984 12.471-2.06 19.146-3.081 7.023-1.074 32.758-4.956 37.865-6.429.091-1.505-.352-5.734-1.081-6.92l-19.081 3.389zm6.1 11.854l.727 3.6-3.749.477-1.123-3.481 4.145-.596zm-56.441 13.43c5.75.671 31.539-4.491 39.497-5.624l29.512-4.186c4.42-.675 3.217-5.156 2.233-7.219l-29.887 3.79c-8.618.858-21.019 3.232-29.287 4.966-5.917 1.243-16.795-.308-12.068 8.273zm38.16-49.35c.709-6.758 1.988-5.182 2.268-7.79-1.248-.255-22.176 3.123-26.663 3.41-5.46.348-23.636 1.332-24.989 5.494-.77 2.366.523 4.615 2.28 5.117 1.991.569 16.821-2.058 19.921-2.563 8.925-1.46 17.971-3.539 27.183-3.668zm-47.334 12.439c-.098 6.678 6.306 3.998 10.922 3.444l42.112-7.015c-.192-2.261-.463-1.969-1.733-3.142-1.186-1.092-1.15-1.741-2.167-2.918-1.047.078-4.096.989-5.951 1.219-7.466.923-32.227 4.232-38.042 6.042-2.897.903-2.772.894-5.141 2.37zm61.525-6.371l.479 1.999c1.525.204 12.322-1.559 13.949-2.05.152-2.24.04-4.982-.761-6.717-1.126-.31-3.298.63-9.044-.173-1.554 5.432-3.599 5.728-4.623 6.941zm-2.525-16.576c.214 2.432.729 1.526 2.337 2.924 1.767 1.534.914 1.828 1.984 3.464 1.54.26 9.251-.498 10.078-1.158 1.2-1.112.069-5.937-.679-7.103l-13.72 1.873z" fill="#FFED00"/></svg>