<svg width="207" height="207" fill="none" xmlns="http://www.w3.org/2000/svg"><path fill-rule="evenodd" clip-rule="evenodd" d="M.473 206.38V.723h205.62V206.38H.473z" fill="#FFED00"/><path fill-rule="evenodd" clip-rule="evenodd" d="M64.556 116.35c.817.033 2.02-.252 2.527-.673-1.162.102-1.633.203-2.527.673z" fill="#EEEEEB"/><path fill-rule="evenodd" clip-rule="evenodd" d="M114.174 93.241l.73-.187-.703-.442-.027.63z" fill="#EFEFEC"/><path fill-rule="evenodd" clip-rule="evenodd" d="M55.322 129.859c.139-.199.217.035.065-.33a.995.995 0 00-.09-.132c-.112-.141-.073-.07-.202-.177.108.791.191.599.227.639z" fill="#E5E5E2"/><path fill-rule="evenodd" clip-rule="evenodd" d="M77.122 109.025l.006.48.356-.684-.362.204z" fill="#D8D8D6"/><path fill-rule="evenodd" clip-rule="evenodd" d="M69.652.723c-.799 4.443-1.002 14.452 7.784 11.429 3.554-1.224.205 1.419.205 7.684 0 4.45 1.134 8.745 6.879 7.165 14.87-4.092 32.44-1.72 46.576 3.794 2.302.898 12.78 1.668 15.123-.286 2.274-1.896 2.494 1.5 2.494-3.495 0-9.195 6.539-20.487 10.148-26.29h-89.21zm73.3 86.127c-.703.072-2.405.904-2.293 2.096.05-.115.835-.957 1.021-1.123.957-.847.968-.713 1.272-.973zm-9.642 13.94c.076-.236.801-1.254.991-1.452l-.733-.383-.258 1.835zm-4.679 4.374c.233-.168.689-.863.792-1.11l-.747-.268-.045 1.378z" fill="#36AB4E"/><path fill-rule="evenodd" clip-rule="evenodd" d="M122.462 62.644c.422-.247.769-.71 1.219-1.067 1.462-1.166 2.183-1.971 3.853-3.051 1.841-1.188 3.833-2.292 6.267-3.006 3.289-.967 8.472-1.63 11.376.77a5.89 5.89 0 011.109 1.16c.426.59.549.943 1.125 1.233-.21-.714-1.029-2.014-1.384-2.828-.442-1.012-.828-1.961-1.249-2.977-.776-1.88-1.462-4.492-2-6.55-1.211-4.62-1.541-9.859-2.488-14.62-.796-4.002-1.342-6.8-1.804-10.867a74.565 74.565 0 01-.207-1.97c-.086-.98-.085-.94-1.182-.996-2.481-.126-5.261.522-7.672.904-4.509.713-8.407 2.479-12.174 4.832-3.547 2.217-8.033 4.062-7.746 9.326.04.747 1.81 5.279 2.19 6.346 1.505 4.243 3.23 8.074 5.114 11.891a60.77 60.77 0 012.578 5.973c.392 1.039.878 1.91 1.401 2.824.455.799 1.14 2.047 1.674 2.673zM95.888 186.883c-.131-1.321.172-2.557.327-4.167.122-1.275.382-2.881.632-4.109.524-2.578 1.288-5.096 1.805-7.578.98-4.696 1.533-6.621 3.597-10.623l1.652-2.985c.114.907-.009 1.493-.115 2.362-.077.626.078 1.418-.006 2.245a32.81 32.81 0 00-.14 4.737c.131 3.202-.56 5.985-.575 9.119-.016 3.286-.376 6.297-.125 9.639.068.899.205 1.299.849 1.618 2.149 1.067 4.77.486 6.603.738l-1.011.368c1.742.287 4.72.082 6.59.078 1.056-.002 2.322.193 2.388-.998.048-.85-1.208-7.128-1.362-8.663-.2-1.968-.496-3.889-.756-5.841-.581-4.345-.777-7.222-1.687-11.702-.442-2.176-.416-6.352-2.548-7.453-1.116-.575-4.228-.467-6.003-.693-1.123-.143-1.76-.458-2.727.003-1.556.742-2.016 2.111-2.629 4.077-.29.93-.57 1.654-.871 2.526l-1.401 5.189c-.183.884-.34 1.902-.578 2.723-.277.956-.596 1.544-.791 2.606-.354 1.939-.875 3.533-1.351 5.35-.235.894-.412 1.773-.647 2.658-.233.882-.496 1.745-.753 2.646-.197.691-.692 1.975-.76 2.548-.356 3.047-.876 3.393 2.393 3.582zm74.716-71.962c.172-.771.563-1.768.804-2.617.529-1.867.844-4.084.412-5.998-.212-.934-.519-1.865-.609-2.765-.105-1.049-1.506-4.017-2.016-4.8-1.74-2.672-6.014-4.239-9.361-4.348-2.268-.075-4.239.076-6.426.413-1.198.184-4.335 1.074-5.272 1.534-2.995 1.47-5.649 4.807-5.544 8.231.037 1.197 1.044 4.41 1.503 5.361.813 1.692 1.689 2.836 3.015 3.785.993.71 3.228 1.882 4.681 2.221 2.23.52 3.881-.056 5.9-.558 1.037-.258.442-.226 1.641-1.76.486-.624 1.079-1.283 1.826-1.679 2.728-1.446 6.78-.408 8.637 1.963l.809 1.017zm-100.476-9.043c1.072 1.29 1.837 4.478 2.92 6.374l2.496 3.791c.426.647.78 1.335 1.2 1.996.734 1.156 3.388 4.865 3.179 6.207-.319 2.028-3.396 2.493-5.982-.209-1.514-1.581-1.536-1.932-2.58-3.709-.419-.717-2.039-3.391-2.04-4.183 1.186 1.739 2.29 2.74 3.538 4.235l1.93 1.986c.722.595 1.173 1.218 2.438 1.479-.265-2.193-3.293-6.103-4.276-8.194-.332-.706-.74-1.308-1.094-1.998-.544-1.06-1.63-6.556-1.729-7.775zM89.331 117.2c-1.151.309-1.034.344-1.246.698-1.041 1.733-3.341 1.157-3.703.139-1.01-.01-1.72-.081-2.69-.199-1.134-.139-1.397-.257-2.104-.79-1.64-1.235-1.761-2.826-.256-3.372-.611-.63-.831-.281-1.67-1.47-.354.58-1.448.935-2.328.743-.663-.143-1.696-1.699.09-2.868.45-.295 1.232-1.52 2.293-2.5-1.082-.751-1.616-2.415-1.933-3.737-.24-1.001-.07-.709-1.424-1.356-.684-.326-1.286-.771-1.87-1.025-.314.283-.172.528-1.102.869-.563.208-1.134.297-1.742.136-1.407-.377-1.45-1.945-1.031-2.495.326-.43.753-.422 1.364-.6.492-.146.697-.617 1.065-.989.904-.918 1.33-.846 2.43-1.544-.016-.008-.06.07-.18-.17-.784-1.594.161-3.594-1.035-3.93-.145-.041-.35-.067-.511-.102a7.85 7.85 0 01-.967-.273c-1.277-.443-2.53-1.09-2.649-2.534-.077-.94.468-1.384.734-1.854l-3.132-.886c-.036.875.125 1.851.166 2.738l-.005 3.094c.004 2.063.152 4.118.185 6.183.044 2.788-.209 5.871-.015 8.592.038.533.217 1.31.189 1.755l-.973-2.416c-.933-2.935-1.453-6.35-1.45-9.477.001-3.782.841-7.077 1.343-10.66-3.35-.79-6.759-1.946-7.856-5.493-.508-1.642-.7-2.586-.34-4.315.158-.758.506-.507.177-1.181-1.238-2.534-.524-3.66.014-5.59l-.13.115c-.921.963-1.755 3.247-1.932 4.472-.391 2.7 1.015 8.596 2.151 10.993.367.773.784 1.421 1.133 2.156.382.804.641 1.573.994 2.411.18.432.47.61.708.942.24.331.441.648.63 1.022 1.608 3.195 1.515 3.99 2.157 7.732.7 4.089.116 7.953 1.418 11.875.84 2.526 2.66 7.174 4.184 9.009 1.378 1.657 5.353 4.943 7.33 5.965 1.573.813 3.09 1.512 5.21 1.321 2.95-.264 4.972-1.204 6.767-3.205.287-.32 1.222-1.457 1.388-1.913.734-2.023.29-3.929.153-6.016zm-1.077-84.418c-.624.544-1.388 2.626-1.86 3.149-.329.365-.478.696-.635 1.115-1.312 3.515-1.978 6.494-3.522 10.29-.32.79.224 1.773.522 2.546 1.72 4.468 3.442 6.88 7.48 9.728 1.094.773 3.276 1.908 5.013 1.854 1.642-.052 1.3-.243 1.959-1.421.631-1.132 1.998-3.111 2.784-4.124l3.976-4.572c.297-.324.503-.642.815-.941.61-.587 1.041-1.159 1.575-1.823l1.633-1.87c.713-.766.182-.994-.782-1.913l-.914-.837c-.355-.345-.651-.307-1.26-.497-1.722-.538-3.171-1.5-4.479-2.322-.852-.536-1.351-.678-2.095-1.302-1.852-1.553-6.9-5.025-9.161-6.4-.369-.222-.758-.527-1.05-.66zm34.929 45.267l6.861-1.967c1.122-.419 2.17-.704 3.205-1.225 5.496-2.76 8.767-1.933 14.02-3.702.842-.283 2.535-.737 3.299-1.11.064-.913-.894-4.32-1.137-5.535-.232-1.167-.163-1.865-.901-2.504-1.833-1.59-6.223.438-7.569 1.394-1.819 1.288-2.134 1.44-4.236 2.564-.769.412-1.568.613-2.303 1.002-.753.396-1.393.796-2.183 1.208-1.505.782-2.931 1.555-4.503 2.302-1.296.617-3.902 1.204-4.725 2.077-.702.746-.6 1.658-.538 2.855.043.797.292 2.102.71 2.64zM15.098 141.644c.3-.417.225-1.361.392-1.958.158-.562.386-1.201.585-1.783.468-1.367.96-1.882 1.246-3.487l1.835-7.761c.668 1.158.403 4.307.282 5.753-.158 1.907.54 3.783.356 5.921-.23 2.668-.317 3.829 2.716 3.522 2.06-.21 4.132.014 6.147-.225.335-1.527-.616-4.194-.942-5.665-.891-4.001-1.27-7.568-2.171-11.341a13.9 13.9 0 00-.368-1.273c-.245-.727-.167-.589-.91-.844-1.075-.368-1.698-.49-2.923-.368-.676.067-2.175.427-2.507.805-1.828 2.083-2.75 10.44-3.448 13.45-.424 1.829-1.566 4.609-.29 5.254z" fill="#36AB4E"/><path fill-rule="evenodd" clip-rule="evenodd" d="M134.393 112.98l.129-.123c.498-.561.676-1.107 1.661-1.47 2.644-.975 5.513 1.295 6.268 3.281 1.88 4.933-.047 6.308.78 8.288.979 2.349 1.871 4.983 4.884 5.149 1.011.055 2.014-.186 2.974-.36 3.134-.57 1.194-1.446 3.109-3.597.28-.315.553-.531.811-.835.82-.959-.063-.463 1.577-1.721 1.838-1.408 1.084-.631 1.163-3.764-1.385.257-2.182.672-3.758.678-3.564.014-7.208-1.493-9.644-3.57-2.662-2.269-3.762-4.937-4.664-8.421-.455-1.758-.371-2.215-.21-4.023-.936.777-3.268 4.367-3.975 5.632-.424.76-1.031 3.965-1.105 4.856zM63.267 66.32c2.427-.604 1.696 2.892 1.226 4.177-.613 1.678-1.138 3.303-3.235 3.365-3.272.099-1.223-3.352-1.028-3.923.164-.481.172-.784.443-1.205.17-.267.193-.225.387-.434.42-.455 1.011-1.684 2.207-1.98zm-4.85 9.248c1.432-.084 1.933-.275 3.155.452.662.394 1.676 1.4 2.469 1.64.822-.73 1.177-1.81 3.784-3.727 1.417-1.041 3.262-1.885 5.393-2.222-.5-1.268-1.037-2.326-.909-3.932.122-1.494.375-2.784.807-4.112.907-2.778.552-5.822.071-8.737-.3.37-.576.847-.855 1.25-.33.477-.655.79-1.017 1.25-2.062 2.62-3.518 2.357-5.468 3.392-.678.36-1.903 1.628-2.382 2.157-.161.178-.332.331-.5.527-.213.248-.25.334-.514.62l-2.179 2.359c-.465.524-.409.872-.575 1.689-.655 3.23-1.74 4.58-1.28 7.394zm98.169.875c.257-.86.228-1.895.241-2.894.006-.504-.182-2.396-.568-2.576-1.482-.687-3.88.507-5.047.93-1.538.556-3.104.988-4.632 1.55-1.579.583-2.941 1.12-4.678 1.503-2.408.53-2.679.64-4.386 1.8-1.545 1.048-2.051 1.401-4.147 2.03-1.611.485-3.203.998-4.958 1.229-2.053.27-5.703.606-6.733 2.643-.305.604-.07 2 .505 2.299 1.193.62 3.794-.42 4.895-.813 3.669-1.311 7.071-1.656 9.836-2.528.78-.244 1.482-.542 2.268-.824.771-.278 1.532-.485 2.307-.784.738-.285 1.506-.615 2.246-.85 1.125-.353 1.302-.122 2.372-.718 1.115-.62 3.093-1.43 4.516-1.67 1.982-.332 3.964.096 5.963-.327zm5.134 39.564c.273.441.545.502 1.103 1.474 1.148 2.004 1.565 3.713 1.841 6.091.368 3.167.257 4.728.274 7.688.004.827.118 1.781.077 2.571-.992-1.218-1.938-5.415-2.424-7.158-.218-.787-.565-1.677-.724-2.406-.036.943.316 2.352.457 3.298.151 1.003.13 2.524.422 3.391.968 2.863 1.933 5.37 4.825 6.607.878.375 2.283.079 2.911-.529 1.124-1.087 1.936-3.601 2.001-5.67.063-2.013-1.987-10.174-3.055-12.25-.655-1.277-1.944-3.633-3.078-4.543-.556-.448-1.943-1.038-2.866-.717-.516.179-1.541 1.551-1.764 2.153zM80.45 24.82c.806 1.145.599 1.19 1.543 1.816 4.586 3.04 15.426-.373 20.638-.65.071-.51-.219-1.866-.287-2.496-.11-1.003-.084-1.892-.062-2.906-2.194-.016-4.212-.036-6.401.088-5.608.314-8.731.207-14.065 2.23-.802.305-1.135 1.08-1.367 1.918zm6.533 5.534l2.78 1.185c2.893 1.32 4.906 2.437 7.592 4.156 2.048 1.31 1.73 1.801 4.424 3.409 1.495.891 3.667 2.6 4.984 2.771.15-.474-.674-2.943-.848-3.608l-1.553-5.253c-.977-2.395-.632-4.22-1.374-5.46-1.002.078-5.63 1.482-7.565 1.843-2.94.548-5.416.737-8.44.957zm51.682 26.363c-3.208.336-4.715 1.221-7.292 2.658-.922.515-1.019.485-1.746 1.148l-.711.408c-1.007.74-2.282 1.79-2.829 2.951-.32.68-.538 2.04-.016 2.656.992 1.176 2.922.318 5.099-.152 1.618-.35 3.291-1.114 4.706-1.887.673-.367 1.896-1.344 3.033-2.015.345-.203.739-.342 1.059-.59.967-.752 2.3-3.634 1.298-4.574-.73-.687-1.65-.702-2.601-.603z" fill="#36AB4E"/><path fill-rule="evenodd" clip-rule="evenodd" d="M73.701 71.628c1.405-.037 1.597.244 2.682.381-.46-2.685.839-3.66 2.544-4.801 3.14-2.102 4.975 2.348 7.734 4.224 2.647 1.8 4.433 1.34 6.06 1.669.465.094 1.896.356 2.294.301 2.291-.318 6.044-3.316 6.786-3.505-.891.46-3.24 1.28-4.478 1.327-2.082.082-3.463-.542-5.37-.637-2.16-.11-3.114.389-5.092-.593-1.534-.762-2.498-1.476-3.364-2.612-1.701-2.232-2.812-5.021-4.344-7.506-1.498-2.43-3.958-4.06-4.73-7.252-.993 1.661.305 2.903.859 4.323 2.802 7.174-1.746 7.598-1.58 14.68zm78.989 57.531c-2.474.643-4.349 1.788-7.205.408-2.743-1.325-3.373-4.346-3.756-4.867-1.74 1.839-1.892 2.433-.397 5.615.461.98.744 1.708 1.297 2.621.704 1.167 1.2 3.929 4.548 2.742 1.432-.506 1.255-.868 2.051-1.969 1.999-2.762 3.174-1.87 3.462-4.55zm-98.418-28.094c-.231-3.014 2.421-2.89 2.945-2.658 1.306.58 2.787 4.935 1.26 6.367-.72.675-3.213 1.188-3.79-1.156a18.353 18.353 0 01-.415-2.553zm1.556-7.018c-1.473.72-1.786 1.86-2.102 3.397-.788 3.826-.122 5.812 1.3 9.134.262.612.527 1.518.913 1.867 2.064 1.858 3.814.592 4.191-2.332.175-1.364-.133-3.844-.164-5.355-.074-3.569-2.763-7.383-4.139-6.71zm15.925-8.145c3.638.223 8.992 2.45 11.095 1.102.726-.464 1.252-2.256.473-3.16-.369-.428-1.012-.405-1.664-.505a43.803 43.803 0 01-1.832-.335c-1.249-.248-2.565-.376-3.84-.586-1.167-.193-2.835-.522-3.693.209-1.005.855-.942 1.85-.54 3.275zm-7.222-7.91c.66.196 1.226.57 1.876.815 1.969.743 5.158 1.231 7.076 1.095.054-2.214.748-5.13 2.155-6.813l.632-.638c-2.145-.26-4.879 1.334-6.406 2.179-.966.535-1.85.976-2.77 1.563l-2.563 1.799zM47.903 89.625c-.158-.884.297-1.255.347-2.89.032-1.056.725-1.556 1.625-1.79 2.22-.58 3.386 1.181 3.911 2.777.664 2.022.146 3.555-1.921 4.257-2.199.749-3.614-.414-3.962-2.354zm1.309-7.656c-.446.148-.522.156-.827.45-.8.77-1.138 1.284-1.326 2.58-.226 1.543-.222 3.318.35 4.669.75 1.776 2.549 6.051 5.079 4.79.921-.46 1.73-1.814 2.151-3.004.71-2.016.153-2.262-.56-4.026-.468-1.16-1.163-2.546-1.779-3.477-.414-.627-1.835-2.395-3.088-1.982zM89.471 99.63c-.24-1.15-.965-1.633-1.62-2.183-.749-.63-1.302-1.2-2.16-1.755-1.641-1.062-3.224-2.05-4.685-3.145-1.344-1.007-3.124-2.09-5.03-2.698-1.02-.325-1.872-.765-2.88-1.034-.733-.195-2.606-.663-3.319-.659-1.533 3.874 1.783 3.299 3.719 3.462 4.204.356 5.976.586 9.219 2.724l3.9 3.108c.226.25.272.359.481.547.315.284.817.444 1.25.71.52.322.74.666 1.125.922zm69.222-9.734c.281-.61.108-1.584-.312-1.982-.411-.39-1.145-.668-1.773-.905-1.254-.475-2.257-.2-3.399-.015-.463.075-.826.025-1.28.052l-4.058 1.2c-2.31.576-2.898.052-4.222 1.134-.245.201-.455.39-.57.67-.691 1.68 1.376.965 2.18.633 1.08-.445 2.72-1.122 3.911-1.34 4.704-.862 8.217.861 9.523.553zm-85.265 41.39c-.153 1.092-.403 2.027-.97 2.722-.51.623-1.722 1.14-2.646.446-.71-.533-.856-1.593-.981-2.703-.162-1.446.302-2.028.668-3.068-.201-.294-.423-.572-.733-.75-.238 1.137-1.34 2.214-.656 5.759.292 1.518 1.642 3.568 2.711 4.079 2.47 1.181 4.763-2.397 4.61-5.076-.046-.829-.106-.709-.787-.907-.458-.133-.829-.349-1.216-.502zm88.748 24.724c-3.039-.045-5.108-1.39-6.656-3.609-.244-.35-1.181-1.892-1.147-2.211-.09 2.169 2.862 9.216 4.2 10.804.713.85 1.282.243 1.779-.601.489-.83 1.586-3.367 1.824-4.383z" fill="#36AB4E"/><path fill-rule="evenodd" clip-rule="evenodd" d="M102.966 64.314c-1.282 1.847-1.903 2.083-4.366 2.782-1.186.336-1.77.485-3.012.144-1.554-.424-4.749.356-8.277-2.537-1.385-1.135-2.66-2.206-3.778-3.384.403 1.136 2.18 3.952 2.973 4.807 2.056 2.22 2.013 1.969 5.77 1.978 2.855.008 3.911 1.163 6.907.296 1.12-.324 1.998-.596 2.631-1.28.534-.576 1.326-1.602 1.152-2.806zm-26.053 67.879c-.067 2.524-.347 2.986-1.312 4.96-.627 1.278-2.087 2.542-3.496 2.804l.383.273c.964.442 2.16.342 3.071-.024 1.52-.611 1.662-.839 2.498-1.835 1.272-1.516 2.282-3.774 2.365-6.329-1.379.192-2.08.229-3.509.151zm91.129 10.159c-2.157-.3-2.944-1.069-4.423-2.377-.236-.208-.406-.296-.618-.519-.308-.324-.325-.417-.697-.599.25 1.972.187 2.431-.074 4.349-.171 1.246-.293 1.008.319 1.855.394.543.502.868 1.144 1.23 1.527.863 2.336.788 3.141-.539.324-.531 1.182-2.785 1.208-3.4zm-16.018-62.895c.255.627 1.165 1.317 1.998 1.478 1.141.221 2.092-.137 2.887.722.532.574 1.257 1.176.845 2.455-.237.736-1.069 1.514-1.656 1.864 1.974.602 4.253.532 4.49 3.24.131 1.487-.632 1.21-.723 2.005 1.212-.14 1.738-.18 2.98-.106-.179-.757-.296-1.487-.285-2.358-.934-.02-1.109-.38-1.504-.942-1.736-2.474-.838-3.66-2.007-5.516-.907-1.44-2.596-3.145-4.479-2.936-.846.095-1.695.08-2.546.094zM77.161 99.693c1.168.519 2.632.725 3.933 1.112 1.47.438 2.335 1.082 3.554 1.648.653-.439 1.07-1.665 3.296-2.095-.438-.707-4.052-3-4.945-3.372-1.185.921-1.09.87-2.776 1.507l-3.062 1.2zm58.619 14.412c3.287.048 4.592 6.91 3.506 10.124.864-.529 1.757-2.304 2.049-3.357.458-1.655.246-3.132-.194-4.688-.506-1.785-.905-2.454-2.219-3.245-.572-.342-1.17-.688-1.967-.369-.428.173-1.098.974-1.175 1.535zm-71.534 6.936c-1.873.217-2.289-.541-2.832-1.994-.504-1.351-.451-2.731.562-3.761l-1.276-3.819c-.602.759-.812 1.149-.884 2.48-.114 2.111-.047 3.884.818 5.88.752 1.73 1.103 3.063 2.576 4.327.504.433 1.536 1.036 2.485 1.034 1.192-.003.564-.151-.295-1.778-.31-.588-.859-1.96-1.154-2.369zm93.773 29.426c.241-1.756.39-3.361.557-5.16.118-1.27-.788-1.903-1.507-4.144-.456-1.422-.823-3.132-1.105-4.654-.23-1.24-.533-3.858-1.032-4.717-.492 2.835.864 13.178 2.201 16.729l.886 1.946zm-17.188-53.745c1.121-.747 1.874-1.288 3.324-1.988 1.505-.727 1.307-1.086 3.693-1.774.656-.19 1.404-.418 2.078-.595.774-.204 1.566-.288 2.305-.48 1.589-.408 3.008-.698 4.777-.707l-.516-.239c-3.463-.904-5.981-.882-9.347.39-2.173.822-5.897 2.826-6.314 5.393zm-67.604 4.549c1.596.864 5.235.616 9.41 3.451.629.426 1.32.769 1.955 1.24l3.679 2.712c.713.541 1.764.919 2.455.429-.204-.636-1.185-1.119-1.817-1.584l-6.243-4.162c-.78-.433-1.362-.805-2.193-1.212-.8-.393-1.598-.663-2.429-1.068-.599-.293-1.608-1.045-2.365-.843-.403.106-2.238.85-2.452 1.037zm50.264-14.016l1.979 4.408c.121.234.225.441.33.702.056.137.093.255.141.373l.237.457c-.273-3.089.217-5.47 3.802-4.567-.12-.779-.765-2.923-1.231-3.444-.342-.383-.772-.123-1.136.008-.998.36-3.409 1.467-4.122 2.063zm41.341 61.758c-1.128-.057-2.076-.226-2.995-.66-1.434-.678-1.345-.841-2.081-1.64-.229 4.058-2.883 4.86.129 5.658.675.179 1.208.172 1.917.083.965-.119.988-.127 1.469-.683.521-.599 1.46-1.672 1.561-2.758zm-85.027-38.387c-.3.127-1.769.968-1.963 1.156.552 1.103 4.573 1.762 6.011 2.032 1.396.262 2.23.216 3.565.006 1.304-.205 1.959-.537 2.364-1.642.146-.4.286-1.341-.087-1.631-.627-.486-1.165.143-1.404.449-1.353 1.719-3.727 1.917-5.846 1.03-1.838-.772-1.215-.556-2.64-1.4zm-4.752-32.391c1.49.018 2.819.075 4.282.33 1.056.186 1.185.29 1.663-.422.35-.522.755-.863 1.064-1.282-2.052-.917-4.038-1.626-5.101-3.56l-.246-.362c-.22.326-1.584 4.743-1.662 5.296zm12.252-3.862c-.513-.437-3.341-.85-5.485-3.456-.567-.689-.712-.933-1.463-1.444-.828.638-.947 1.715-.402 2.893.803 1.737 3.051 2.645 4.82 3.222 1.114.363 2.302-.25 2.53-1.215z" fill="#36AB4E"/><path fill-rule="evenodd" clip-rule="evenodd" d="M128.523 95.8c1.38-.434 1.42-.478 3.064-.551-.435-1.549-1.277-5.468-2.745-5.513-.946-.029-1.469 1.865-1.348 2.876.09.757.808 2.185 1.029 3.188zm4.327 24.431c-.034-1.202.158-2.317.144-3.402-.011-.868-.582-.85-1.488-2.034-1.332-1.741-1.335-2.906-1.762-5.374-.151.246-1.142 2.582-1.153 2.793-.013.274.96 2.403 1.156 2.895.443 1.102.818 1.85 1.381 2.74.485.768 1.149 1.746 1.722 2.382zm13.186-39.575c.352 1.255 3.024 3.41 4.253 4.222 1.714 1.131 5.687.87 5.973-1.319-1.71.84-3.195 1.23-5.046.29-1.338-.68-2.713-1.817-2.779-3.806l-2.401.613zm-12.382 11.941c.438-2.334.754-2.89 2.309-4.308.326-.296.767-.855 1.093-1.092-1.353.326-1.89.076-3.01-.5-.786-.404-1.822-1.434-2.3.265-.326 1.157.315 2.153.728 2.958.469.916.759 1.764 1.18 2.677zm-13.339-15.923c-.387-1.08-.389-.394-.706-2.238-.178-1.027-.007-1.758.453-2.46.387-.594.687-1.224 1.113-1.775.335-.435.975-1.19 1.088-1.94-.354-.313-.628-.524-1.438-.382-.701.124-1.487 1.255-1.932 1.792-.417.501-.47.592-.535 1.413-.116 1.486.103 4.856 1.957 5.59zm31.916-6.944c.646-.058.707-.172 1.084-.465 1.028-.797 1.43-.857.494-3.365-.548-1.47-1.618-3.262-2.711-3.76.002.752.217 1.136.287 1.857.085.899.097 3.435.257 4.062.118.463.428 1.108.589 1.671zM135.81 93.644c.167.477.644 1.744.045 2.265-.191.164-.137.081-.346.153l-.395.159.389.923c.357-.359.529-.475.834-.857.983-1.24 1.726-1.61 2.782-2.352-1.907-1.835.444-2.865.749-3.588-.306-.19-.793-.445-1.045-.532-1.021 1.31-2.177 1.291-2.439 2.599-.113.561-.362.882-.574 1.23zM73.4 99.126c.736-.17 1.506-.437 2.297-.619l4.708-1.065c.76-.408 1.064-.585 2.028-.762l-2.21-1.398c-.576-.328-.644-.118-1.251.204-1.98 1.052-.489.124-2.233 1.378a8.943 8.943 0 01-1.136.72c-.776.398-1.92.968-2.203 1.542zm83.691-20.184c1.806.917 2.702 1.256 3.821 3.35.908 1.702.125 3.64 1.521 5.775l.833.02c.888-1.621-.858-4.266-1.799-5.938-.394-.7-1.742-3.567-2.611-3.548-.327.007-1.421.24-1.765.34zm-77.203-23.24c-.171-1.209-.573-2.31-.674-3.694-.124-1.712.226-2.512.438-3.966-.82 1.179-3.59.964-2.635 3.666.73 2.071 1.735 2.839 2.87 3.994zm47.716 51.13c1.131-1.901.808-1.221.585-2.215-.108-.484.022-.664-.011-.994-.048-.512-2.484-1.334-1.895-4.408.217-1.135.277-.699.013-1.87-.152-.67-.371-1.04-.618-1.56-.124-.26-.25-.479-.393-.738-.073-.131-.105-.203-.182-.328l-.29-.39c.275 2.696 1.265 10.057 2.791 12.503zm-51.019 3.128c.727.145.873.42 1.263.882.409-.257.732-.613 1.206-.945 1.095-.767 3.078-2.064 4.28-2.428-.02-.019-.049-.075-.059-.057l-2.336-1.384c-1.175 1.131-2.697 2.337-3.816 3.377-.312.29-.34.217-.538.555zm84.252 32.056c.148-1.381.177-2.753.272-4.165.065-.979-.213-.875-.583-1.581-.259-.496-.359-1.129-.534-1.738-.46-1.612-1.284-3.267-1.537-5.056-.089-.635-.099-1.476-.427-1.83.087 1.155.422 2.422.543 3.661.144 1.477.186 2.411.509 3.833.197.865 1.13 5.92 1.592 6.665.093.148.072.115.165.211zm-31.384-44.993c.017.022.047.023.057.059.114.461.614-.488.611 2.748 0 .426-.251 1.723-.428 2.079-.192.384-.231.156-.343.599 1.055.466 1.251.283 1.75-.638.366-.674.593-1.408.717-2.267.11-.757.109-2.1-.212-2.739-.439-.871-1.877-.006-2.152.16zM76.155 48.426c1.39-.4 2.346-.71 3.364-1.44.645-.461.538-.679.72-1.663.13-.706.308-1.424.406-2.132-1.23.596-1.853 1.255-2.65 2.167-.402.46-.78.771-1.117 1.25-.245.347-.593 1.323-.723 1.818zm63.108 34.207c-.284 4.214-.562 2.98-1.337 4.114-.108.157-.161.448-.661 1.196-.442.66-2.685 3.954-2.129 5.083l.189-.225c.33-.623.113-.91 1.306-2.193.293-.313.611-.706.895-1.067 2.273-2.89 1.553-3.706 2.805-7.129l-1.068.221zm-64.499-2.636c1.964.34 3.885.374 5.789.847 1.885.468 3.507 1.2 5.576 1.206l-.2-.184c-.689-.517-4.754-1.543-5.376-1.66-2.097-.392-3.626-1.276-5.588-1.725l-.201 1.516zm6.497-1.384l3.034.855c1.275.448 1.468.735 2.265 1.24.198.127.062.113.304.127.174-1 .118-1.46-.265-2.23-.297-.6-.406-.394-1.8-.77-1.96-.527-1.379-.917-3.538.778zm-.385 36.393c.95 1.12 1.712 1.021 3.563 1.218 1.51.16 3.118.091 4.368-.379.393-1.886-.47-1.117-.787-1.003-2.057.743-6.054-.334-7.144.164zm60.013-30.357c.521-.242 1.064-.816 2.234-1.362 1.108-.517 1.8-.485 3.097-.507-.136-.314-.289-.602-.428-.927-.235-.55-.14-.585-.316-1.008-.008-.016-.021-.049-.036-.07-2.081.452-1.593.582-3.131 1.084-.828.269-.795.151-1.02 1.036-.142.561-.348 1.196-.4 1.754zm-77.276-.837c-.007-.472-.286-.896-.319-1.602-.028-.619-.031-1.31.097-1.862l-3.117-1.622c-.094 2.168 1.455 4.518 3.34 5.086zm-13.709 2.481c-.777.52-.721 5.499 1.438 4.235 1.12-.656-.033-5.175-1.438-4.235zm35.193 16.42c.046.069 1.597 1.588 1.97 1.695.448-.65 1.831-2.082 2.24-2.725-.41-.36-.726-.762-1.157-1.102-1.036.415-1.493.932-2.331 1.551-.224.167-.516.346-.722.581zm-28.167 1.113c1.006-.637.527-3.348.21-4.427-.136-.459-.14-.381-.29-.457-1.842-.929-1.435 1.21-1.085 2.362.271.895.39 2.197 1.166 2.522zm83.715-17.751c.781-.45 1.969-.85 3.046-.993 1.293-.173 1.943-.612 3.447-.676-.223-.485-.436-.676-.626-1.207-2.171.19-3.14.843-4.852 1.72-.84.43-.904.177-1.015 1.156zm-13.157 24.488c.089-.103.02.007.143-.198l3.569-6.437c-1.046.145-1.418-.058-1.774.805-.773 1.874-1.613 3.514-1.938 5.83zm7.278 6.433c1.985.022 2.351.601 2.58 2.489.1.818.137 1.554.034 2.395-.106.858.113 1.339.171 2.249.477-1.61.511-3.162.179-4.937-.263-1.401-1.093-3.237-1.862-3.782-.788.224-.843.734-1.102 1.586zm-1.76-9.025c.543-1.106.851-2.517 1.419-3.697.329-.682.535-1.055.978-1.601.484-.601.015-1.082-.11-2.083-1.261 1.99-2.367 4.377-2.287 7.381zM81.966 90.35l2.372 1.822c.898-.347 2.619-2.034 3.077-2.719-1.81.981-3.179 1.006-5.449.897zm51.503-6.702c.35.877 1.33 2.264 2.182 2.462.544-.827.419-1.802.296-2.788-.812-.033-1.871-.05-2.478.326zM84.78 92.539c.663.542 1.29 1.28 1.754 1.433.39-.5.874-.952 1.172-1.806.207-.597.638-1.686.728-2.212-1.044 1.605-1.973 1.867-3.653 2.585zm-2.312 16.255c.769.579 3.408 1.355 4.504.722l-3.288-1.843c-.317.401-.858.723-1.216 1.121zm4.899-27.412c.428.713.402.83 1.505.639.106-.295.017.052.049-.337.072-.911-.015-.489.34-1.254.153-.33.112-1.238.271-1.862l-1.214-.106c.172 1.387-.413 2.12-.95 2.92zm35.813 9.886l-1.234-2.87c-.267.133-1.681 1.213-1.357 1.963.277.643 1.64.845 2.591.907z" fill="#36AB4E"/><path fill-rule="evenodd" clip-rule="evenodd" d="M149.912 79.637c.565 1.123 1.008 1.334 2.095 1.976.735.432 2.157 1.047 3.118 1.104.203-.19.275-.195.367-.479-1.047-.64-3.769-.188-4.247-2.742l-1.333.141zm-78.96 53.769c.62-1.134 1.282-3.19-.421-3.788-.827.931-.238 3.448.42 3.788zm65.85-50.242c.009 1.093.154 1.85-.035 2.987 1.193-.486 1.83-1.625 1.517-3.282l-1.482.295zm-4.274 30.871l-.073-2.046c-.406-.29-.71-.247-.886-.758-.444-1.284-.334-3.323-.239-4.65-.062.067-.087.092-.162.191-.02.026-.119.171-.131.19-1.058 1.676-.803 1.478-.066 3.316.275.681.526 1.211.8 1.881.272.66.455 1.254.757 1.876zM76.356 95.71c1.09-.433 1.918-.531 3.04-.842-.475-.355-2.582-1.09-3.322-1.253l.282 2.095z" fill="#36AB4E"/><path fill-rule="evenodd" clip-rule="evenodd" d="M148.927 79.914c.1 1.218 3.1 4.225 5.032 3.219-.358-.332-2.041-.678-2.763-1.123-.407-.25-.836-.552-1.057-.897-.625-.97-.333-1.07-.722-1.362l-.49.163zm-5.975 6.936c1.788-.29 3.698-.651 5.582-.846-1.362-1.724-.934-.677-3.122-.013l-2.46.858zm-5.924 13.045c.58-.036.622-.162.863-.506.451-.638 1.301-1.146 1.294-1.5-.005-.305-.163-.614-.119-1.297l-.567.83c-.727 1.183-1.653 1.84-1.471 2.473zM86.733 94.25c.098.128 1.205 1.305 1.3 1.375l.163-2.236-1.463.861zm.489 10.55c.494.498.989.996 1.53 1.527-.178-.845-.354-1.38-.357-2.341l-1.173.814zm75.516-16.043c.198.741.424 1.702.919 1.996.067-.75-.094-1.448-.156-2.204l-.763.208zm-83.386 17.394c.4-.092.696-.264.958-.512a.664.664 0 00.061-.07c-.61-.225-1.22-.693-1.782-.965l.763 1.547zm55.331-10.931l.143-1.292-.688-.145.545 1.436zm.717-.073c.164-.387.23-1.034-.041-1.358-.296.29-.097 1.007.041 1.358zm-43.025 45.594l-.465-.26c-.363-.159-.249-.169-.66-.131.145.118.345.258.516.386.41.31.352.385.609.005zm-16.226-28.952c.13-.087.216.144.217-.296 0-.105-.099-.233-.136-.291-.21.288-.255.223-.081.587zm25.295-53.232l.169-.407c-.21.103-.176-.084-.302.215-.065.153-.066.038.133.192z" fill="#36AB4E"/><path fill-rule="evenodd" clip-rule="evenodd" d="M95.89 186.883c-3.27-.19-2.75-.535-2.394-3.582.068-.572.562-1.857.76-2.548.257-.901.52-1.764.754-2.646.234-.885.41-1.764.646-2.658.475-1.817.996-3.411 1.35-5.349.195-1.063.515-1.651.792-2.607.238-.821.395-1.839.577-2.724l1.4-5.189c.303-.871.583-1.595.873-2.525.612-1.966 1.073-3.334 2.629-4.077.968-.461 1.604-.146 2.727-.003 1.775.226 4.887.118 6.003.693 2.132 1.101 2.105 5.278 2.548 7.454.91 4.479 1.106 7.356 1.686 11.702.261 1.951.557 3.871.756 5.84.155 1.535 1.41 7.813 1.363 8.662-.066 1.192-1.332.997-2.389.998-1.869.005-4.847.21-6.588-.077l1.01-.368c-1.833-.252-4.454.33-6.604-.738-.643-.319-.781-.719-.848-1.618-.251-3.342.109-6.353.125-9.639.015-3.134.706-5.917.574-9.119a32.969 32.969 0 01.141-4.738c.084-.826-.071-1.618.005-2.244.107-.869.229-1.455.115-2.363l-1.651 2.986c-2.063 4.002-2.617 5.927-3.597 10.623-.517 2.481-1.282 5-1.806 7.578a43.255 43.255 0 00-.632 4.109c-.155 1.609-.457 2.846-.326 4.167zm59.631-34.482c1.548 2.219 3.617 3.565 6.656 3.609-.238 1.015-1.335 3.553-1.823 4.383-.498.844-1.066 1.451-1.781.601-1.337-1.588-4.289-8.635-4.199-10.805-.035.319.903 1.862 1.147 2.212zm9.312-3.389c-.101 1.087-1.04 2.16-1.56 2.759-.482.556-.505.563-1.469.683-.711.088-1.243.095-1.918-.083-3.012-.799-.358-1.601-.129-5.659.735.799.647.963 2.081 1.64.918.435 1.867.604 2.995.66zm-72.458-8.272c-.256.381-.197.305-.609-.005-.17-.127-.37-.267-.516-.385.411-.039.297-.029.662.131l.463.259zm71.245-.765c1.478 1.308 2.266 2.077 4.423 2.377-.027.614-.884 2.868-1.208 3.401-.805 1.326-1.614 1.401-3.141.538-.642-.362-.751-.686-1.143-1.23-.613-.847-.491-.609-.321-1.855.262-1.918.325-2.377.075-4.349.372.182.388.275.696.6.213.222.382.31.619.518zm-6.486 8.546c-1.338-3.552-2.692-13.895-2.201-16.73.498.859.801 3.477 1.031 4.718.282 1.521.65 3.232 1.106 4.653.718 2.241 1.625 2.875 1.507 4.144-.167 1.801-.317 3.405-.558 5.159l-.885-1.944zm-80.22-16.328c1.43.078 2.13.041 3.51-.151-.083 2.555-1.093 4.812-2.366 6.329-.837.996-.977 1.223-2.498 1.835-.911.366-2.106.465-3.071.023l-.383-.272c1.41-.262 2.87-1.525 3.496-2.804.965-1.974 1.246-2.437 1.312-4.96zm-5.961 1.213c-.659-.34-1.247-2.857-.42-3.788 1.702.598 1.04 2.654.42 3.788zm2.476-2.12c.387.152.758.369 1.216.501.68.198.74.078.787.907.152 2.679-2.14 6.257-4.611 5.077-1.069-.511-2.418-2.561-2.71-4.079-.684-3.546.417-4.622.655-5.76.31.178.532.457.733.751-.365 1.039-.83 1.622-.668 3.067.125 1.11.272 2.171.98 2.704.926.694 2.138.176 2.647-.446.567-.696.818-1.631.971-2.722zm87.681 6.565c-.095 1.413-.124 2.783-.273 4.164-.092-.095-.071-.063-.163-.21-.464-.746-1.396-5.8-1.593-6.666-.323-1.422-.366-2.356-.509-3.833-.121-1.238-.455-2.505-.543-3.66.327.354.337 1.195.427 1.829.253 1.79 1.077 3.445 1.537 5.057.174.608.275 1.241.535 1.737.369.707.647.603.582 1.582zm-8.419-8.692c-.288 2.679-1.463 1.788-3.462 4.55-.795 1.101-.62 1.463-2.051 1.969-3.349 1.187-3.844-1.576-4.549-2.742-.552-.913-.835-1.641-1.296-2.622-1.495-3.181-1.343-3.775.398-5.614.382.521 1.012 3.541 3.755 4.867 2.856 1.379 4.731.236 7.205-.408zm-17.924-12.163c.259-.852.315-1.363 1.102-1.586.77.545 1.599 2.381 1.862 3.781.332 1.776.298 3.328-.179 4.938-.058-.911-.278-1.391-.171-2.25.103-.84.065-1.577-.034-2.395-.229-1.888-.596-2.466-2.58-2.488zm28.718-3.143c.923-.32 2.309.27 2.866.718 1.134.91 2.422 3.266 3.078 4.542 1.068 2.076 3.118 10.238 3.055 12.25-.065 2.07-.877 4.584-2.001 5.671-.628.608-2.034.904-2.911.528-2.893-1.237-3.857-3.743-4.825-6.607-.292-.866-.272-2.387-.422-3.39-.141-.946-.493-2.355-.458-3.299.159.73.507 1.62.726 2.407.485 1.743 1.431 5.94 2.423 7.158.041-.791-.073-1.743-.077-2.572-.017-2.96.094-4.521-.274-7.688-.276-2.378-.693-4.087-1.842-6.091-.557-.972-.829-1.032-1.103-1.473.224-.603 1.248-1.974 1.765-2.154zm-99.237 7.187c.294.41.843 1.781 1.153 2.369.86 1.628 1.487 1.776.295 1.778-.95.003-1.98-.601-2.484-1.033-1.473-1.264-1.825-2.597-2.576-4.328-.866-1.996-.933-3.769-.82-5.88.073-1.33.283-1.72.885-2.48l1.276 3.82c-1.013 1.029-1.066 2.409-.562 3.76.543 1.453.959 2.212 2.833 1.994zm16.627-6.034c1.091-.498 5.087.579 7.146-.163.316-.115 1.18-.885.786 1.002-1.25.469-2.859.539-4.368.379-1.85-.197-2.613-.099-3.563-1.218zm54.907-.901c.076-.562.746-1.363 1.175-1.535.797-.32 1.395.026 1.967.369 1.314.79 1.712 1.459 2.218 3.244.441 1.557.653 3.033.194 4.688-.291 1.053-1.184 2.829-2.048 3.357 1.085-3.214-.219-10.076-3.506-10.123zm-2.931 6.126c-.573-.636-1.237-1.616-1.722-2.382-.563-.891-.938-1.638-1.38-2.74-.198-.492-1.171-2.622-1.157-2.896.011-.21 1.002-2.547 1.153-2.792.427 2.467.429 3.633 1.761 5.374.907 1.184 1.478 1.165 1.489 2.034.014 1.083-.178 2.199-.144 3.402zm-53.045-9.605c1.425.844.802.628 2.641 1.399 2.118.888 4.492.69 5.845-1.03.24-.304.776-.935 1.404-.448.373.29.233 1.231.087 1.63-.405 1.105-1.06 1.438-2.364 1.643-1.335.211-2.168.255-3.564-.006-1.44-.271-5.46-.93-6.012-2.032.194-.188 1.662-1.029 1.963-1.156zm-3.575.576c.038.058.136.186.136.291 0 .44-.086.208-.218.296-.173-.364-.128-.299.082-.587zm6.238-2.408c.357-.398.898-.72 1.216-1.122l3.287 1.843c-1.095.634-3.735-.142-4.503-.721zm-5.884 1.165c.198-.338.226-.264.538-.554 1.12-1.04 2.641-2.246 3.817-3.377l2.335 1.384c.01-.018.04.038.06.057-1.202.364-3.186 1.661-4.28 2.428-.476.332-.797.688-1.206.945-.39-.463-.536-.738-1.264-.883zm55.943 4.074c-.301-.621-.485-1.214-.756-1.875-.275-.669-.526-1.199-.8-1.88-.737-1.838-.993-1.64.065-3.315.013-.021.112-.165.131-.192.075-.099.1-.124.162-.191-.095 1.327-.205 3.367.24 4.65.176.512.479.47.885.759l.073 2.044zm37.269-.129c-1.857-2.371-5.909-3.409-8.637-1.963-.748.397-1.341 1.056-1.827 1.679-1.198 1.534-.603 1.502-1.64 1.76-2.02.502-3.67 1.078-5.901.558-1.453-.339-3.687-1.511-4.681-2.221-1.325-.949-2.202-2.093-3.015-3.785-.458-.951-1.465-4.164-1.502-5.362-.105-3.422 2.548-6.76 5.543-8.23.937-.46 4.074-1.35 5.272-1.534 2.188-.337 4.159-.488 6.426-.414 3.347.11 7.622 1.676 9.361 4.348.51.783 1.912 3.752 2.017 4.801.09.9.396 1.831.608 2.765.433 1.914.118 4.131-.412 5.998-.241.849-.632 1.846-.803 2.617l-.809-1.017zm-81.402-9.918c.003.96.179 1.496.357 2.34-.54-.531-1.035-1.029-1.53-1.527l1.173-.813zm-9.042 2.165l-.763-1.547c.563.272 1.172.739 1.783.965a.819.819 0 01-.062.07c-.262.248-.559.42-.958.512zm49.323-2.365l.747.267c-.103.248-.559.943-.793 1.11l.046-1.377zm-1.187 6.776c.325-2.315 1.165-3.955 1.938-5.83.356-.862.728-.661 1.775-.805l-3.57 6.438c-.123.205-.055.094-.143.197zm6.905 2.418c.074-.891.681-4.097 1.106-4.856.706-1.266 3.038-4.856 3.974-5.633-.161 1.809-.245 2.265.21 4.024.902 3.484 2.002 6.152 4.664 8.421 2.436 2.077 6.08 3.583 9.644 3.57 1.576-.006 2.373-.422 3.758-.679-.079 3.134.675 2.356-1.163 3.765-1.64 1.258-.758.76-1.576 1.721-.259.304-.532.52-.812.834-1.915 2.151.025 3.028-3.108 3.597-.961.174-1.964.416-2.975.36-3.012-.166-3.905-2.8-4.884-5.148-.827-1.98 1.099-3.355-.779-8.289-.756-1.985-3.626-4.256-6.269-3.281-.985.364-1.163.91-1.661 1.471l-.129.123zm-1.388-5.009c-.078-3.004 1.028-5.392 2.289-7.381.124 1.001.593 1.482.109 2.082-.443.547-.649.92-.977 1.602-.569 1.18-.877 2.591-1.421 3.697zm-47.908-5.258c.207-.236.498-.415.722-.581.837-.619 1.295-1.136 2.332-1.551.43.341.747.741 1.157 1.101-.41.643-1.793 2.075-2.24 2.725-.374-.106-1.924-1.625-1.97-1.694zm-29.27-8.666c1.376-.673 4.064 3.142 4.138 6.711.03 1.511.34 3.991.164 5.355-.377 2.924-2.127 4.191-4.19 2.332-.386-.348-.651-1.255-.914-1.867-1.422-3.323-2.087-5.308-1.3-9.134.317-1.537.63-2.677 2.102-3.397zm17.4 7.223c.214-.186 2.049-.93 2.452-1.037.756-.201 1.766.551 2.366.844.83.405 1.628.674 2.428 1.067.83.408 1.413.779 2.194 1.212l6.242 4.163c.633.464 1.613.947 1.817 1.584-.692.49-1.742.112-2.455-.43l-3.68-2.712c-.634-.469-1.325-.814-1.953-1.239-4.176-2.835-7.816-2.588-9.41-3.452zm6.996-2.778c1.686-.636 1.591-.585 2.776-1.507.893.373 4.507 2.666 4.945 3.373-2.227.429-2.643 1.656-3.296 2.095-1.22-.566-2.085-1.211-3.554-1.648-1.302-.387-2.765-.594-3.933-1.112l3.062-1.201zm53.345.462l.733.383c-.19.198-.915 1.215-.991 1.452l.258-1.835zm3.459.94c-.182-.633.744-1.29 1.471-2.472l.567-.83c-.043.683.114.99.12 1.296.006.354-.844.862-1.294 1.501-.242.343-.284.47-.864.505zm-7.676 2.614c.111-.444.151-.215.343-.6.176-.356.427-1.652.427-2.078.004-3.237-.497-2.287-.611-2.749-.01-.036-.04-.037-.057-.059.276-.165 1.714-1.03 2.152-.158.322.638.322 1.982.213 2.739-.125.859-.352 1.593-.717 2.267-.5.921-.696 1.103-1.75.638zM73.4 99.126c.284-.574 1.428-1.144 2.204-1.543a8.86 8.86 0 001.135-.72c1.745-1.253.253-.326 2.233-1.377.608-.322.675-.533 1.252-.205l2.21 1.398c-.965.178-1.268.354-2.028.762l-4.708 1.066c-.791.181-1.562.45-2.298.618zm54.78 4.496c.032.331-.098.511.01.995.223.994.546.313-.585 2.214-1.526-2.446-2.516-9.807-2.792-12.503l.291.39c.077.126.11.197.182.328.144.26.269.478.393.737.248.52.467.892.618 1.563.263 1.17.204.734-.013 1.869-.588 3.074 1.847 3.896 1.896 4.407zm7.221-8.475c-.137-.351-.337-1.07-.041-1.358.271.323.205.97.041 1.358zm-47.203-1.758l-.164 2.236c-.094-.07-1.201-1.248-1.3-1.375l1.464-.861zm-8.802 1.478c-1.121.312-1.95.41-3.04.843l-.282-2.095c.74.162 2.848.898 3.322 1.252zm54.743-1.084l.687.144-.143 1.292-.544-1.436zm-5.614 2.017c-.223-1.004-.94-2.432-1.03-3.188-.121-1.012.401-2.905 1.348-2.876 1.467.044 2.31 3.964 2.746 5.512-1.645.074-1.685.117-3.064.552zm12.307.922c.417-2.567 4.14-4.571 6.314-5.393 3.366-1.272 5.883-1.295 9.347-.39l.516.239c-1.769.008-3.188.298-4.777.707-.739.191-1.531.275-2.305.48-.674.177-1.422.405-2.079.594-2.384.69-2.187 1.047-3.692 1.774-1.45.7-2.203 1.242-3.324 1.989zm-5.022-3.078c.212-.35.462-.67.574-1.23.261-1.307 1.418-1.288 2.44-2.6.252.087.738.343 1.044.533-.304.724-2.656 1.754-.748 3.589-1.057.74-1.8 1.111-2.783 2.35-.304.383-.477.499-.834.857l-.39-.922.396-.16c.209-.07.156.011.347-.153.598-.52.121-1.788-.046-2.264zm-12.628-2.376c-.952-.061-2.315-.265-2.593-.908-.324-.749 1.091-1.829 1.358-1.963l1.235 2.871zm-38.401 1.27c1.68-.718 2.61-.98 3.653-2.584-.09.525-.52 1.615-.727 2.211-.298.855-.783 1.307-1.173 1.807-.465-.153-1.09-.892-1.754-1.434zm-2.066 1.803c-3.242-2.137-5.015-2.367-9.22-2.723-1.935-.164-5.25.411-3.718-3.461.714-.006 2.586.462 3.32.659 1.007.268 1.859.707 2.879 1.033 1.907.608 3.687 1.691 5.03 2.698 1.462 1.096 3.044 2.083 4.684 3.145.858.556 1.413 1.125 2.162 1.754.655.55 1.379 1.035 1.619 2.183-.384-.257-.604-.6-1.125-.922-.433-.267-.934-.426-1.25-.71-.21-.19-.255-.297-.481-.546l-3.9-3.11zm-.748-3.991c2.27.108 3.639.083 5.449-.896-.458.684-2.179 2.37-3.077 2.718l-2.372-1.822zm76.727-.454c-1.307.308-4.819-1.415-9.524-.553-1.191.218-2.83.895-3.91 1.34-.804.332-2.872 1.047-2.18-.634.115-.28.325-.468.57-.668 1.324-1.082 1.912-.559 4.221-1.134l4.058-1.2c.454-.028.818.022 1.28-.054 1.143-.184 2.145-.46 3.399.015.628.238 1.363.515 1.773.905.42.4.594 1.372.313 1.983zm4.808-1.346c.062.755.223 1.452.156 2.202-.496-.294-.722-1.254-.919-1.995l.763-.207zm-114.29-6.581c1.253-.414 2.674 1.354 3.09 1.982.614.93 1.31 2.317 1.778 3.477.713 1.763 1.27 2.01.56 4.026-.421 1.19-1.23 2.543-2.151 3.003-2.53 1.263-4.328-3.014-5.08-4.789-.571-1.352-.575-3.126-.35-4.67.188-1.296.526-1.808 1.327-2.58.304-.294.38-.302.826-.45zm74.28 5.286c.712-.596 3.124-1.703 4.122-2.063.363-.13.793-.392 1.136-.008.466.521 1.11 2.665 1.231 3.443-3.586-.903-4.076 1.479-3.802 4.568l-.238-.456c-.048-.12-.084-.237-.141-.375a7.314 7.314 0 00-.33-.702l-1.978-4.407zm10.164 5.342c-.422-.913-.712-1.762-1.181-2.677-.413-.805-1.054-1.801-.727-2.958.477-1.7 1.513-.67 2.299-.266 1.12.577 1.658.827 3.011.5-.327.239-.768.797-1.093 1.093-1.555 1.418-1.871 1.973-2.309 4.308zm9.296-5.748c-.303.26-.315.126-1.272.974-.185.166-.971 1.007-1.021 1.122-.113-1.192 1.59-2.023 2.293-2.096zm0 0l2.46-.858c2.188-.664 1.76-1.712 3.123.013-1.884.194-3.794.556-5.583.845zm-71.199-.948c-.403-1.425-.466-2.42.54-3.275.857-.73 2.526-.401 3.692-.21 1.276.212 2.591.34 3.84.588.612.122 1.211.239 1.833.334.651.1 1.295.078 1.663.506.78.904.253 2.696-.473 3.16-2.103 1.348-7.456-.88-11.095-1.103zm68.893.174c.111-.98.176-.726 1.015-1.157 1.712-.876 2.681-1.529 4.852-1.72.19.531.404.724.627 1.207-1.504.065-2.155.504-3.448.677-1.076.143-2.264.543-3.046.993zm-7.176-2.427c.607-.376 1.667-.358 2.479-.327.122.987.248 1.962-.297 2.789-.852-.198-1.832-1.586-2.182-2.462zm4.815-.78c.313 1.658-.324 2.797-1.516 3.283.188-1.137.043-1.894.034-2.987l1.482-.295zm2.605 1.78c.052-.557.257-1.191.399-1.753.226-.885.192-.767 1.02-1.037 1.539-.501 1.05-.632 3.131-1.083.016.02.028.054.036.07.176.423.082.458.317 1.007.138.326.292.613.427.927-1.296.023-1.988-.01-3.096.508-1.17.546-1.714 1.12-2.234 1.362zm-.559-2.237c-1.251 3.423-.532 4.239-2.805 7.13a18.1 18.1 0 01-.894 1.066c-1.194 1.285-.976 1.57-1.307 2.194l-.188.225c-.557-1.13 1.686-4.424 2.128-5.083.501-.748.553-1.04.661-1.196.776-1.134 1.053.1 1.337-4.114l1.068-.222zm8.107-2.368c.066 1.988 1.441 3.125 2.779 3.805 1.851.941 3.336.55 5.046-.29-.285 2.19-4.258 2.45-5.973 1.32-1.229-.813-3.9-2.968-4.253-4.223l2.401-.612zm1.702 1.07c.221.345.65.647 1.057.897.722.444 2.405.79 2.764 1.123-1.933 1.006-4.933-2.001-5.033-3.22l.491-.163c.388.293.097.393.721 1.363zM74.967 78.48c1.961.448 3.49 1.332 5.588 1.725.622.117 4.686 1.143 5.375 1.66l.2.185c-2.069-.006-3.69-.74-5.575-1.207-1.905-.473-3.826-.507-5.79-.848l.202-1.515zm80.159 4.235c-.961-.056-2.383-.67-3.118-1.104-1.087-.641-1.53-.852-2.095-1.975l1.333-.141c.478 2.553 3.2 2.1 4.247 2.742-.092.284-.164.288-.367.478zm5.931 5.098c.395.563.57.922 1.504.943-.012.87.105 1.6.285 2.357-1.243-.073-1.769-.034-2.98.106.091-.794.854-.517.723-2.005-.237-2.707-2.516-2.637-4.49-3.24.586-.35 1.418-1.127 1.656-1.864.412-1.278-.314-1.88-.846-2.455-.794-.86-1.745-.5-2.886-.72-.834-.163-1.744-.852-1.998-1.48.851-.014 1.7.001 2.547-.093 1.883-.21 3.57 1.495 4.478 2.935 1.169 1.856.27 3.043 2.007 5.516zM60.274 78.726l3.118 1.621c-.129.553-.125 1.244-.097 1.863.033.705.312 1.129.319 1.601-1.885-.567-3.433-2.917-3.34-5.085zm96.818.215c.344-.1 1.438-.333 1.765-.34.869-.02 2.217 2.848 2.611 3.548.941 1.672 2.687 4.317 1.799 5.936l-.833-.018c-1.396-2.136-.613-4.074-1.521-5.775-1.119-2.095-2.016-2.433-3.821-3.35zm-69.724 2.44c.538-.8 1.123-1.532.952-2.92l1.213.106c-.159.624-.117 1.533-.27 1.863-.356.765-.27.343-.342 1.253-.031.389.058.043-.048.337-1.103.192-1.076.074-1.505-.64zm-6.106-2.769c2.159-1.694 1.578-1.304 3.536-.777 1.395.376 1.504.17 1.802.77.382.768.438 1.23.264 2.23-.241-.014-.105 0-.303-.127-.798-.505-.99-.793-2.266-1.24l-3.033-.856zm-6.208-.377c.077-.553 1.44-4.97 1.661-5.296l.246.362c1.063 1.933 3.05 2.642 5.1 3.56-.307.419-.712.76-1.063 1.282-.479.712-.606.608-1.663.422-1.463-.256-2.793-.312-4.281-.33zm81.533-1.793c-1.999.423-3.982-.005-5.963.328-1.423.24-3.402 1.05-4.516 1.67-1.071.594-1.248.364-2.373.719-.74.233-1.507.563-2.245.848-.775.3-1.536.506-2.307.785-.786.282-1.488.579-2.268.824-2.765.871-6.167 1.216-9.837 2.526-1.1.393-3.701 1.434-4.894.814-.575-.298-.811-1.694-.505-2.298 1.03-2.037 4.68-2.375 6.733-2.644 1.755-.23 3.347-.744 4.958-1.228 2.096-.63 2.601-.982 4.148-2.031 1.706-1.159 1.977-1.27 4.385-1.8 1.738-.383 3.098-.92 4.678-1.502 1.528-.563 3.093-.995 4.632-1.552 1.167-.422 3.564-1.615 5.047-.928.386.18.574 2.072.568 2.575-.013 1 .016 2.034-.241 2.894zm-89.492-.25c.92-.586 1.804-1.029 2.77-1.563 1.527-.845 4.262-2.438 6.407-2.179l-.633.638c-1.407 1.684-2.1 4.599-2.154 6.814-1.92.135-5.108-.353-7.077-1.095-.65-.245-1.216-.62-1.876-.815l2.563-1.8zm20.211-1.819c-.228.965-1.417 1.578-2.531 1.215-1.768-.577-4.016-1.486-4.82-3.222-.545-1.178-.425-2.256.402-2.892.752.51.896.753 1.464 1.444 2.143 2.605 4.972 3.017 5.485 3.455zm2.026 42.827c.136 2.087.58 3.993-.155 6.015-.165.456-1.1 1.594-1.386 1.914-1.795 2-3.817 2.94-6.767 3.205-2.121.19-3.637-.508-5.21-1.322-1.977-1.021-5.953-4.308-7.331-5.965-1.524-1.835-3.345-6.482-4.183-9.008-1.302-3.921-.718-7.786-1.419-11.875-.641-3.743-.548-4.537-2.157-7.733a7.328 7.328 0 00-.63-1.022c-.237-.332-.527-.51-.708-.941-.353-.84-.611-1.608-.993-2.41-.35-.736-.767-1.385-1.133-2.157-1.137-2.398-2.543-8.293-2.151-10.993.177-1.225 1.01-3.509 1.932-4.472l.129-.115c-.538 1.93-1.251 3.055-.014 5.59.328.673-.018.424-.177 1.18-.36 1.73-.168 2.673.34 4.316 1.097 3.546 4.506 4.701 7.856 5.492-.502 3.583-1.341 6.878-1.344 10.661-.002 3.127.519 6.542 1.451 9.476l.973 2.417c.028-.446-.15-1.223-.189-1.756-.194-2.721.06-5.803.015-8.591-.033-2.065-.18-4.12-.184-6.183l.004-3.095c-.042-.886-.203-1.863-.165-2.736l3.132.885c-.267.47-.812.914-.734 1.854.118 1.444 1.371 2.09 2.648 2.533.337.117.604.195.966.274.16.034.368.06.511.101 1.197.337.251 2.337 1.036 3.93.12.241.164.163.182.17-1.1.699-1.528.627-2.432 1.545-.367.372-.573.843-1.065.988-.61.178-1.037.171-1.364.6-.418.55-.376 2.118 1.031 2.495.608.162 1.18.072 1.742-.135.93-.341.788-.586 1.102-.87.584.255 1.187.699 1.87 1.026 1.354.646 1.184.354 1.424 1.355.317 1.322.852 2.987 1.934 3.737-1.062.98-1.844 2.206-2.293 2.5-1.787 1.17-.754 2.725-.091 2.869.88.191 1.974-.164 2.329-.744.838 1.19 1.058.841 1.67 1.471-1.506.545-1.385 2.136.255 3.372.707.533.97.651 2.106.789.969.119 1.678.19 2.688.199.362 1.018 2.661 1.594 3.703-.139.212-.353.095-.388 1.246-.697zm33.852-39.151c-.418-.54-.667-1.845-.709-2.641-.064-1.197-.166-2.11.537-2.855.823-.873 3.428-1.46 4.725-2.077 1.572-.747 2.998-1.52 4.503-2.302.791-.413 1.429-.813 2.183-1.21.734-.387 1.534-.588 2.302-1 2.102-1.125 2.418-1.275 4.236-2.564 1.347-.956 5.737-2.984 7.57-1.395.738.64.668 1.338.901 2.505.242 1.214 1.201 4.622 1.136 5.535-.763.372-2.457.827-3.298 1.11-5.253 1.769-8.524.941-14.019 3.702-1.036.52-2.085.806-3.206 1.225l-6.861 1.967zm-2.868-1.375c-1.854-.735-2.073-4.105-1.957-5.59.065-.821.118-.912.535-1.413.445-.537 1.23-1.669 1.932-1.792.81-.142 1.084.069 1.437.381-.112.75-.752 1.506-1.088 1.94-.425.552-.726 1.182-1.113 1.775-.459.703-.63 1.434-.452 2.462.316 1.843.319 1.156.706 2.237zm33.494-10.776c.935 2.51.534 2.569-.494 3.367-.378.293-.439.406-1.086.464-.16-.563-.469-1.207-.587-1.671-.16-.627-.171-3.163-.258-4.062-.07-.72-.285-1.105-.286-1.856 1.093.498 2.163 2.289 2.711 3.758zm-50.844-1.585c.174 1.204-.618 2.23-1.151 2.807-.634.683-1.512.955-2.631 1.279-2.996.868-4.052-.287-6.908-.295-3.757-.01-3.713.241-5.77-1.978-.793-.856-2.57-3.672-2.972-4.808 1.118 1.18 2.392 2.25 3.777 3.385 3.529 2.892 6.723 2.112 8.278 2.537 1.24.34 1.825.192 3.012-.145 2.463-.699 3.084-.934 4.365-2.782zm-44.55 11.255c-.457-2.815.626-4.163 1.282-7.394.166-.817.11-1.166.575-1.69l2.178-2.36c.264-.284.302-.37.516-.618.167-.196.337-.35.498-.527.48-.53 1.704-1.797 2.383-2.157 1.95-1.035 3.406-.772 5.469-3.393.36-.46.685-.772 1.016-1.25.279-.402.555-.879.855-1.25.48 2.916.835 5.96-.07 8.738a17.43 17.43 0 00-.807 4.112c-.13 1.606.408 2.664.909 3.932-2.133.337-3.977 1.18-5.395 2.222-2.606 1.916-2.96 2.998-3.784 3.728-.792-.242-1.806-1.247-2.468-1.641-1.222-.727-1.722-.537-3.156-.452zm80.25-18.851c.95-.1 1.87-.084 2.601.603 1.001.94-.332 3.821-1.298 4.573-.321.249-.714.388-1.06.59-1.136.672-2.36 1.648-3.032 2.015-1.415.774-3.089 1.538-4.707 1.888-2.176.47-4.106 1.327-5.099.152-.522-.617-.302-1.977.017-2.656.546-1.162 1.821-2.211 2.829-2.951l.711-.408c.726-.664.823-.634 1.745-1.149 2.578-1.436 4.085-2.322 7.293-2.657zm-37.355 1.647c.126-.298.092-.111.302-.214l-.17.407c-.198-.154-.196-.04-.132-.193zm34.945 68.685c.981 1.728.431 2.875 2.622 5.618.387.484.682 1.101 1.022 1.66a7.383 7.383 0 002.813 2.65c2.058 1.108 2.856.524 4.32.167-.339 1.049-.879 1.514-.735 2.966.093.926.282 2.063 1.071 2.615 1.213.848 1.703-.252 2.143 1.568.646 2.667.6 2.929 1.546 5.772.153.459.239.973.498 1.356 1.392 2.064.741 1.787 1.259 4.207.237 1.106.505 1.753.832 2.704-.715-.009-3.675-1.044-4.608-1.304-.794-.221-1.604-.348-2.387-.598-.719-.228-1.37-.6-2.088-.901a62.233 62.233 0 00-4.364-1.612c-1.461-.483-3.023-.882-4.39-1.484-1.778-.781-1.756-.866-2.517-2.019-.945-1.431-2.853-2.228-4.318-3.1-1.402-.835-2.674-1.14-4.16-1.816-6.864-3.123-9.863-4.387-17.308-6.496-1.541-.436-3.183-.728-4.742-1.125-1.609-.408-3.196-.764-4.715-1.266-3.19-1.051-7.958-1.627-9.576-2.271-.703-.279-1.402-.584-2.148-.842-.563-.195-1.77-.419-2.195-.695l.182-.647c1.2-.183 3.489-1.17 4.33-1.748.977-.672 2.135-1.961 2.572-3.503.305-1.079.403-4.471.208-5.615-.382-2.242-1.298-3.308-1.6-4.459.87-1.125.718-1.298.155-2.673.768-.257 1.423-.993 1.68-1.852.143-.481.1-1.014-.047-1.508-.266-.89-.609-.96-.63-1.05-.01-.038-.04-.038-.057-.06 1.072-.53-.115-1.142-.395-1.727-.33-.688-.507-1.348-.791-2.094-.862-2.258-1.157-1.957-.302-3.106.193-.26.34-.636.582-.88.708-.463 2.385.108.335-2.605-.346-.455-.55-1.059-.886-1.588-.388-.612-.799-.83-.642-1.72.136-.785.256-1.447.087-2.271-.285-1.388-.315-.586.156-1.817.956-2.5-.075-3.621-.014-4.007.112-.718 5.142-4.338 4.261-6.09-.561-1.12-2.354-.457-2.627-.465-.163-.545.03-1.882.337-2.428.282-.503 1.245-.168 2.289-.486 2.195-.668 4.988-3.628 6.45-5.402 1.798-2.182 2.405-1.787 3.418-3.797.791-1.57 2.839-2.369 1.165-6.908-.219-.596-.492-1.072-.686-1.688-.4-1.273-1.416-2.527-1.591-3.15 2.752-2.82 6.336-9.082 6.896-9.55.425.497 1.595 4.117 1.942 5.044.649 1.726 1.306 3.336 2.11 4.897 1.109 2.152 2.757 4.45 4.248 6.264.463.562 1.128 1.391 1.507 2.014l-.962 1.428c-1.719 2.655-1.49 6.475.359 8.946l1.609 1.897c.362.324.363.22.544.63-1.516.353-2.716 1.31-3.233 2.546-.864 2.07 1.738 8.921 1.867 9.084.457.574 1.218.843 1.927.95 3.03.456 2.855-1.682 2.796 4.92-.022 2.41.578 6.873 1.494 9.04.675 1.598.919 2.551.595 4.47-.278 1.648-2.329 7.451-1.492 8.793.343.55 1.427.656 2.071.339.683-.337.691-.858.884-1.69.186-.799.737-3.814 1.001-4.231.819 1.703-.236 3.162 3.165 7.733.779 1.047 1.48 2.152 2.259 3.202.772 1.04 1.552 1.025 2.599 2.864zm-34.455-57.152c-.741.188-4.494 3.186-6.785 3.504-.398.055-1.83-.207-2.294-.3-1.628-.33-3.413.13-6.06-1.67-2.76-1.875-4.595-6.325-7.735-4.223-1.704 1.14-3.003 2.115-2.543 4.802-1.085-.14-1.277-.42-2.683-.383-.165-7.083 4.384-7.506 1.582-14.68-.555-1.42-1.852-2.662-.86-4.324.774 3.192 3.232 4.823 4.73 7.253 1.533 2.484 2.644 5.273 4.346 7.506.865 1.136 1.828 1.85 3.363 2.611 1.978.983 2.932.485 5.092.594 1.907.095 3.288.718 5.37.637 1.237-.047 3.586-.867 4.477-1.327zM79.888 55.7c-1.136-1.154-2.14-1.922-2.872-3.994-.954-2.701 1.816-2.487 2.635-3.666-.21 1.455-.56 2.255-.436 3.968.1 1.384.502 2.484.672 3.693zm8.366-22.92c.291.134.681.439 1.05.661 2.261 1.374 7.308 4.847 9.16 6.4.744.624 1.244.766 2.096 1.302 1.307.822 2.757 1.784 4.48 2.322.607.19.904.151 1.258.496l.914.837c.965.92 1.495 1.148.783 1.913l-1.633 1.871c-.535.664-.966 1.235-1.575 1.822-.312.3-.518.617-.816.942l-3.976 4.573c-.785 1.011-2.152 2.99-2.784 4.122-.659 1.179-.317 1.37-1.958 1.421-1.737.055-3.92-1.08-5.013-1.852-4.039-2.85-5.76-5.261-7.48-9.729-.299-.774-.843-1.757-.522-2.547 1.544-3.796 2.21-6.775 3.522-10.29.156-.419.306-.75.635-1.115.472-.522 1.235-2.605 1.86-3.148zM76.156 48.426c.13-.494.478-1.47.723-1.818.336-.478.715-.79 1.116-1.249.798-.913 1.42-1.57 2.65-2.167-.097.708-.275 1.425-.405 2.131-.181.985-.075 1.203-.72 1.664-1.018.73-1.974 1.04-3.364 1.44zm46.307 14.219c-.535-.627-1.219-1.875-1.675-2.673-.522-.915-1.009-1.785-1.4-2.825a60.78 60.78 0 00-2.578-5.972c-1.884-3.818-3.609-7.648-5.115-11.891-.379-1.067-2.149-5.6-2.189-6.346-.287-5.264 4.198-7.11 7.746-9.326 3.767-2.354 7.665-4.12 12.173-4.833 2.412-.381 5.192-1.03 7.674-.904 1.096.057 1.095.016 1.181.997.058.662.132 1.313.206 1.97.463 4.066 1.009 6.864 1.805 10.867.947 4.761 1.277 10 2.487 14.62.539 2.057 1.224 4.67 2.002 6.549.42 1.016.805 1.965 1.248 2.978.355.814 1.173 2.114 1.384 2.827-.576-.289-.699-.642-1.126-1.233a5.855 5.855 0 00-1.108-1.159c-2.904-2.4-8.087-1.737-11.376-.77-2.433.714-4.426 1.818-6.267 3.005-1.67 1.08-2.392 1.887-3.853 3.051-.45.358-.797.82-1.219 1.068zm-35.478-32.29c3.023-.22 5.5-.409 8.44-.957 1.935-.36 6.562-1.766 7.564-1.843.743 1.24.397 3.065 1.375 5.46l1.553 5.253c.174.665.998 3.133.848 3.607-1.318-.17-3.489-1.88-4.985-2.771-2.694-1.607-2.376-2.098-4.424-3.408-2.686-1.72-4.7-2.837-7.593-4.156l-2.778-1.186zM80.45 24.82c.232-.839.566-1.613 1.367-1.917 5.334-2.023 8.457-1.916 14.065-2.231 2.189-.123 4.207-.103 6.401-.087-.022 1.013-.047 1.902.062 2.906.069.63.358 1.986.287 2.495-5.212.278-16.052 3.69-20.638.65-.943-.624-.736-.67-1.544-1.816zM97.27 2.425c1.69-.323 3.331-1.037 4.753-1.699-.597-.032-1.508.237-2.17.32-2.911.368-3.487.328-6.574 1.166-2.52.684-5.43 1.554-7.43 2.769-2.129 1.292-4.039 2.77-5.876 4.327-.867.735-2.189 1.316-3.242 1.907-.73.409-2.817 1.25-3.828 1.22-.847-.89-1.355-3.376-1.676-4.812-.202-.903-.5-1.63-.688-2.502a31.072 31.072 0 01-.445-2.789c-.576.94-.702 3.27-.702 4.54.001 2.436-.505 5.96 1.123 7.337 1.915 1.619 4.793.17 6.62-.518-.675 4.224-2.7 6.917-.881 11.572.352.9.688 1.655 1.277 2.23.761.74 1.444.67 2.293 1.21 1.928 1.223 4.217 1.21 5.094 1.808 1.088.742.313 1.535-.144 2.25-1.259 1.97-3.09 4.546-3.462 6.942-.414 2.666-1.217 1.72-3.683 3.33-.467.304-.61.453-.962.789-.434.417-.534.406-1.01.742-2.634 1.864-3.731 7.38-6.435 10.98-2.1 2.796-3.982 2.163-6.42 4.092-.523.412-1.954 2.074-2.476 2.676l-.815.937c-1.784 1.718-3.162 3.715-4.785 5.62-2.472 2.901-3.36 6.833-2.547 10.751-2.528-.306-4.295.723-5.418 1.996-1.622 1.839-2.036 3.145-1.894 5.745.173 3.15 1.184 6.027 3.513 7.93 1.164.95 2.319.89 2.663 1.144 1.05.77-.702 3.868-.22 6.809.957 5.841 5.035 7.352 5.582 8.035 1.012 1.26.934 2.932 1.414 4.461.151.481.356.972.394 1.515.157 2.237.464 4.159 1.878 5.9.576.708 2.323 2.308 3.066 2.806.982.658 1.672.489 2.267 1.544.255.455.718 2.531.777 3.151.216 2.244-.906 3.177.514 6.79.615 1.562.653 1.199 1.432 2.359-.383-.155-.704-.379-1.072-.555-.521-.247-.615-.188-.85-.692-.663-1.43-1.126-3.083-1.567-4.619-.36-1.253-.167-1.526-.23-2.703-.432.252-.54.061-1.03-.155-2.141-.939-5.221-1.684-7.496-1.893-1.618-.149-3.11-.41-4.749-.582-1.525-.159-3.063-.333-4.445-.935 1.717-.172 2.767-.249 4.479-.068 1.153.121 3.306.21 4.26.508 1.437.449 2.822-.009 4.276-.113 1.605-.115 3.02.212 4.224-.532-.766-.183-1.567-.354-2.297-.614l-4.235-1.434c-.7-.248-1.262-.536-2.001-.782-2.465-.822-3.33-.388-4.92-.754-3.964-.914-7.604-.519-11.695-.747-2.046-.113-3.801-.782-5.523-1.398-1.184-.425-1.32-.683-2.209-1.294-1.516-1.045-5.471-2.795-7.202-2.997.879.952 2.073 1.646 3.158 2.404 2.318 1.619 1.219 1.239 2.67 2.789 1.33 1.418 3.41 2.368 5.206 3.14 3.515 1.513 2.772 1.901 5.184 3.06 1.929.925 3.959 1.535 6.075 2.172 2.099.633 2.434 1.882 5.263 2.874 1.705.598 6.538 2.637 7.417 3.61.364.402.973 1.014 1.47 1.311.587.351 1.19.67 1.824.96 2.428 1.105 11.127 3.336 13.346 3.125 1.17-.112 3-1.196 3.704-1.745 1.137-.885 1.897-1.538 2.574-2.85.646.254.56.365 1.458.57 1.298.297 3.052 1.291 4.151 1.941 1.379.814 2.574 2.298 3.767 3.343 1.896 1.657 1.34 2.678 5.287 3.779.763.214 2.732.497 3.281.739.667.295 1.131 1.72 1.747 2.266l-.371.159c-1.87.533-1.061.59-1.685 1.816-.238.468-.471.748-.701 1.36-1.058 2.801-2.506 10.893-3.66 14.167-.341.969-.477 2.211-.77 3.249-.274.957-.391 2.243-.832 3.044-.608-.968-2.776-2.928-4.283-3.449-2.339-.806-4.612-.393-4.662 2.237-.048 2.54 2.911 8.79 4.158 11.045.47.849 1.237 1.577 1.5 2.419.22.706.372.726 1.081.872 3.164.655 3.799 1.427 7.747 1.752 4.244.35 10.422.516 14.736.541 2.181.013 5.562.309 6.786-1.502.748-1.105.083-3.296-.187-4.62-.648-3.184-.943-6.322-1.345-9.59-.408-3.313-.543-6.43-1.281-9.64-.666-2.898-.874-6.338-1.563-9.196.521.156 1.797.757 2.342 1.004.782.354 1.659.609 2.547.852 1.842.501 3.563.824 5.319 1.479 4.009 1.496 6.107 2.72 11.08 2.73 1.931.004 3.917-.243 5.767.107 1.642.311 3.641.665 5.361.665 2.116 0 4.243-.308 6.35-.117.791.071.748-.056 1.235.416 2.244 2.177 6.092 1.432 7.108-1.631.512-1.543.794-3.723.964-5.428.508-.1.78-.337 1.19-.561 1.748-.963 2.033-2.806 2.321-4.688.246-1.61 1.429-1.331 2.26-2.888.561-1.05.474-1.631.647-2.857.543-3.834.359-2.147 1.827-3.326 2.601-2.089 3.594-5.236 3.341-8.718-.086-1.183-.005-2.082-.216-3.265-.171-.966-.394-1.844-.592-2.803-.208-1.005-.477-1.815-.737-2.775-.237-.873-.444-1.83-.689-2.71-.663-2.386-1.155-2.795-2.159-4.768.388-.896 2.827-3.102 3.603-6.522.772-3.4.735-5.453-.352-8.66-1.651-4.87-5.286-8.997-10.476-9.767.707-1.082.046-1.693-.293-2.764-.234-.737 1.177-.982-.083-4.746-.455-1.356-.981-2.063-1.672-3.07-.71-1.035-1.492-1.56-2.404-2.341 2.508-1.251 1.639-1.434 1.278-3.955-.083-.578-.141-1.094-.314-1.64-.778-2.444-1.124-3.943-4.118-3.928-.544-2.523-.682-5.501-2.15-7.015-.869-.897-1.707-1.146-3.39-1.278-.806-.062-.456-.856-2.739-1.764-1.001-4.339-1.38-9.565-2.341-13.424-.538-2.161-.887-4.343-1.256-6.572l-1.092-6.772c1.505.15 3.376-.073 4.387-.847.839-.643 1.009-2.553 1.321-3.83.693-2.84 1.15-5.69 1.961-8.452.395-1.345.882-2.637 1.253-3.997.379-1.39.764-2.651 1.178-3.977.567-1.814 2.321-6.371 2.349-7.953-.311.427-.674 1.084-.989 1.583-1.759 2.793-3.331 5.127-4.654 8.228-2.241 5.254-3.746 10.87-3.924 16.697-.033 1.077-.322 1.075-1.111 1.458-.413.202-.928.395-1.402.436l-.473-.059-1.81-6.723-2.172-6.302c.854.008 1.619-.244 1.977-.718.534-.709.164-1.216-.102-1.96-1.331-3.715-2.889-8.171-3.289-12.155-.637 1.752-.464 3.84-.467 5.716-.003 2.217.448 4.208.493 6.093-.115-.154-.32-.424-.344-.558l.077.642c-2.885-.069-5.713.449-8.496.916-2.373.397-4.546 1.101-6.855 1.384-2.518.309-13.107.869-15.689.872-1.757.002-3.474-.447-5.358-.45-2.095-.002-4.11.239-6.18.1-3.55-.24-8.271.193-11.588 1.363-1.377.487-3.417 1.113-4.524 1.734a16.11 16.11 0 01.035-2.618c.055-.499.254-.549.563-.775 1.293-.944.998-.636 2.275-1.848.448-.425.862-.873 1.336-1.34.757-.745 12.028-8.224 12.898-8.745 2.135-1.28 4.285-2.628 6.631-3.563l.464-.26c-2.8-.033-4.307.986-5.986 1.151.096-.446-.112-.24.347-.343-.382-.13-.29-.14-.443-.573zM15.1 141.644c-1.278-.645-.135-3.426.29-5.255.698-3.009 1.62-11.365 3.447-13.449.333-.379 1.831-.739 2.507-.805 1.225-.122 1.848 0 2.923.368.742.255.665.117.91.843.146.435.256.808.367 1.274.902 3.773 1.28 7.34 2.172 11.341.327 1.471 1.277 4.138.942 5.666-2.015.238-4.087.014-6.147.224-3.032.307-2.945-.854-2.716-3.522.183-2.138-.515-4.013-.356-5.921.12-1.446.385-4.596-.282-5.754l-1.835 7.762c-.287 1.605-.778 2.12-1.246 3.488-.2.58-.427 1.22-.586 1.781-.167.598-.09 1.542-.39 1.959zm-2.05-5.137c-.634-.314-1.19-.754-1.982-1.115-1.343-.615-4.124-1.237-4.32.615-.112 1.072.54 1.679.981 2.111l1.464 1.626c.741.931 1.53 1.567 2.568 2.073 1.876.914.772 2.382 8.859 1.841 2.016-.135 3.882-.174 5.916-.198 1.98-.023 4.502.303 4.59-1.683.074-1.647-.82-3.539-1.33-4.914-1.008-2.709-.756-2.467-.928-5.287-.107-1.73-.796-9.421-2.088-10.245-.758-.484-4.084-1.061-5.193-1.018-1.448.055-3.772.57-4.682 1.52-2.157 2.249-3.173 11.558-3.856 14.674z" fill="#FF384B"/><path fill-rule="evenodd" clip-rule="evenodd" d="M13.413 149.775c.021 0 1.717.493 2.08.571l6.59 1.449c3.008.57 6.579.886 9.707 1.097 9.976.67 20.869 1.271 30.908 1.594 3.4.109 6.588.567 9.897.893 4.841.476 15.637 1.022 19.877-.895-1.677-.137-3.338.035-5.092-.205-1.503-.206-3.032-.464-4.546-.706-4.419-.706-4.873-.782-9.405-1.126-1.579-.12-3.092-.394-4.658-.568-5.898-.657-9.465-.383-14.946-.688-10.008-.556-20.2-1.332-30.173-1.358-1.403-.004-9.018-.233-10.24-.058zm59.636-37.523c-1.083-1.896-1.847-5.085-2.92-6.373.098 1.218 1.185 6.713 1.73 7.774.354.689.762 1.292 1.093 1.997.984 2.092 4.012 6.001 4.276 8.194-1.265-.26-1.715-.883-2.44-1.478l-1.928-1.985c-1.248-1.496-2.352-2.497-3.537-4.237 0 .792 1.62 3.467 2.04 4.183 1.043 1.778 1.065 2.129 2.58 3.71 2.586 2.701 5.663 2.236 5.98.209.21-1.342-2.444-5.052-3.179-6.208-.42-.659-.773-1.348-1.198-1.994l-2.497-3.792zM63.268 66.32c-1.195.296-1.786 1.525-2.208 1.98-.194.21-.215.167-.387.434-.27.42-.278.724-.442 1.206-.194.57-2.244 4.021 1.028 3.923 2.097-.064 2.622-1.688 3.236-3.365.47-1.285 1.2-4.782-1.227-4.179zM49.905 86.292c1.405-.94 2.558 3.58 1.438 4.236-2.159 1.264-2.215-3.715-1.438-4.236zm-2 3.333c.346 1.94 1.762 3.103 3.96 2.354 2.068-.703 2.586-2.235 1.922-4.257-.525-1.596-1.69-3.356-3.911-2.777-.9.234-1.593.734-1.625 1.79-.05 1.635-.505 2.006-.346 2.89zm9.027 14.201c-.776-.325-.894-1.627-1.166-2.521-.349-1.154-.756-3.292 1.085-2.364.15.077.155 0 .29.458.317 1.079.797 3.789-.21 4.427zm-2.66-2.762c.056.735.241 1.846.415 2.554.577 2.345 3.07 1.831 3.79 1.156 1.527-1.431.047-5.787-1.26-6.367-.524-.232-3.176-.356-2.945 2.657z" fill="#FF384B"/></svg>