<svg width="107" height="107" fill="none" xmlns="http://www.w3.org/2000/svg"><path fill-rule="evenodd" clip-rule="evenodd" d="M0 0h106.667v106.666H0V0z" fill="#FF384B"/><path fill-rule="evenodd" clip-rule="evenodd" d="M11.709.001c-1.222.617-.15 2.615-.15 5.395 0 5.12 1.834 2.175.831 7.09-.574 2.822 2.515 2.728-.676 6.275-.56.623.94 11.334 9.841 11.334 2.263 0 6.587 1.04 7.303-1.508.21 0 7.24 7.812 4.298 10.755-7.17 7.168-1.447 5.073-14.293 7.332-1.432.252-5.295 5.662-7.811 7.657-1.247.988.136 6.055-2.494 10.15-1.381 2.15.971 9.495.971 13.688 0 4.166-1.202 15.7 1.523 17.846 4.946 3.895 11.295-.415 12.166-.251 6.442 1.21 1.74 3.522 2.213 10.643l.016.26h76.793c.463-4.321-.494-6.531-2.064-13.47-.28-1.239-2.434-12.688-.478-12.688 1.746 0 4.503.407 6.969.33v-26.69a17.096 17.096 0 01-1.555-1.157c-16.797-14.01-12.985-12.295-36.697-12.393-.086 0-12.416-6.949-11.18-8.628 1.171-1.589 2.2-3.74 2.2-5.767 10.76 0 6.507-1.715 7.598-12.01.515-4.851-1.338-.948-1.17-6.584.109-3.615.23-5.997.01-7.609H11.709z" fill="#FFED00"/><path fill-rule="evenodd" clip-rule="evenodd" d="M31.643 91.407l.017.016c-.001 0-.022-.011-.017-.016zM8.291 0H12.2c-.065.35-.232.678-.317 1.028A6.484 6.484 0 0011.73 2.4l-.046 2.93c.233 2.076.354 2.941 1.243 4.796.675 0 2.68-.174 2.923-.94l.167-.815c.031-.29-.15-.504-.271-.683-.763-1.128-.765-1.45-1.1-2.763-.072-.28-.101-.524-.176-.803-.595-2.206-.158-2.57-.13-4.122h.597c-.04 1.047-.443 2.44.08 3.303.244.406.498.767.913.991 1.656.896 3.134-.074 4.397-.698.875-.432 1.695-.89 2.665-1.142 1.594-.417 2.087-.24 3.443-.419 1.324-.176 1.924-.072 3.264-.546.916-.321 1.803-.689 2.628-1.178.174-.103.323-.213.481-.311h2.735c-.074.08-.155.152-.242.237-.162.16-.209.254-.353.408-.734.797-2.365 2.266-3.269 2.717-1.348.674-1.993.81-3.523.936-.918.077-1.649.337-2.372.62-1.07.422-2.186.741-3.128 1.39-.305.208-.6.352-.874.593L20.381 8.44c.359-.083 1.828-.968 2.1-1.166.34-.246.577-.47.936-.696 1.122-.702 2.56-.985 3.872-1.024.83-.024.656.052 1.47-.161 1.841-.485 1.784-.18 3.794-1.048 2.003-.865 1.385-.696 2.916-1.926a7.462 7.462 0 001.203-1.246l.92-1.092a.586.586 0 01.076-.08h4.294c-.082.088-.17.169-.253.278l-1.811 1.998c-.227.272-.605.429-.8.722.456-.106 1.973-1.063 2.317-1.326.209-.161.255-.296.443-.483.198-.198.99-.845 1.274-1.189h.947l-.615.728c-.146.146-.26.27-.408.407-.69.639-1.32 1.34-2.14 1.833-1.133.682-2.217 1.348-3.506 1.335-.43-.002-.417-.015-.716.1-.199.078-.354.126-.558.204-.883.344-2.903.87-3.808 1.035-.462.083-.936.098-1.368.209-.48.124-.752.28-1.33.304-.482.018-.957.113-1.305.27-.954.428-1.137.646-1.687 1.47a13.553 13.553 0 00-1.141 2.068c-.17.376-.276.795-.454 1.178-.173.374-.381.65-.563 1.016-.424.85-.747 1.354-.875 2.335-.07.537.036 1.024.04 1.51.009 1.053.19 1.667.653 2.556l1.547 3.242c.176.415.338.735.522 1.111.092.185.15.36.253.563l.691 1.648c.129.381.383.733.47 1.107.09.028.035-.076.109-.055.048.207.143.288.249.46.627 1.012 1.08 2.126 1.699 3.141.1.165.148.29.25.46.377.632 1.145 1.317 1.727 1.754l1.181.885c.769.576 2.13 1.546 2.908 1.935l3.823 1.727c1.327.504 2.21 1.186 2.865 1.324 1.39.287 2.056.648 3.555.424.555-.083 1.53.121 1.938.039l1.642-.43c.353-.123.656-.268.966-.394.672-.274 1.075-.755 1.617-1.157.337-.252.458-.396.663-.753l2.174-3.374c.638-.963 1.166-1.046 1.71-1.772l.91-1.16c.552-.751 1.144-1.923 1.275-2.858a18.21 18.21 0 00.186-2.59c.001-.318-.042-.4-.056-.652l-.053-2.014c.008-.872-.194-1.694-.22-2.555-.03-.965-.104-1.687-.105-2.67 0-.313-.05-.37-.058-.648-.007-.232.018-.465-.014-.695-.155-1.138.149-2.912-.155-3.98-.106-.371-.002-.906-.062-1.352-.05-.365-.095-.844-.145-1.213-.063-.468-.222-1.29-.405-1.718l-.686-1.383c-.15-.287-.332-.559-.507-.852-.102-.17-.165-.287-.257-.45-.164-.287-.429-.529-.628-.787-.3-.385-.668-.71-1.015-1.053-.76-.752-1.32-.79-2.055-1.813h1.083c.137.074.271.11.424.187 1.059.528 2.065 1.09 3.256 1.313.525.1 1.132-.133 1.596-.304.284-.105.305-.079.388-.263.121-.266.154-.618.161-.933h2.227c-.064.96-.68 2.102-.857 3.714-.05.447.05.717.047 1.132a7.2 7.2 0 00.068 1.131c.055.415.117.511.492.705.411.213.445.084.8-.094.568-.283 1.836-1.013 2.046-1.544.326-.824.28-1.735.35-2.587A9.047 9.047 0 0064.756 0h1.329c.023.61.169 1.054.11 1.75-.122 1.402-.064 2.786-.057 4.188.004 1.068-.246 1.074-.546 1.522.421.11.665.974.741 1.49.106.715-.017 1.456-.142 1.99.177.043.361.147.526.238.409.222 1.077.442 1.393.783.419.448.49 1.668.425 2.413-.112 1.272-.684 2.307-.812 3.595-.05.506-.097.8-.173 1.241-.11.644-.097 1.377-.192 2.038-.153 1.052-.259 2.146-.464 3.18-.182.916-.302 1.355-1.155 1.783-.976.492-1.442.072-2.486.072-.14.526-1.067.86-1.647.783-.625-.085-1.319-.274-1.835-.62 0 .657-.282 1.307-.497 1.898-.229.631-.364 1.07-.822 1.516a2.345 2.345 0 00-.282.317c-.279.357-.387.329-.32.798.028.196.011.366.04.563l.249 2.09c.218-.05.935-.106 1.195-.11 1.33-.018 1.788.35 2.785 1.082.495.36.898.798 1.383 1.172.149.115.206.203.341.313.594.48 1.123 1.068 1.85 1.36.6.238 1.073.608 1.658.9.58.287 1.217.48 1.831.724 1.743.693.291.741 1.602.956l5.57.794c1.504.17 3.128.322 4.746.37.274.008.3.054.594.058.216.002.442-.01.657-.004.274.008.301.054.594.059.198.002.406-.011.603-.005l1.234.072c.78.106 1.613.063 2.386.172 1.113.154 2.215.289 3.283.524 1.027.226 2.79.88 3.727 1.441.16.096.27.135.43.225.165.093.25.151.418.234 1.373.676 2.291 1.772 3.737 2.629.29.172.513.318.809.496.931.56 1.416.945 2.231 1.576l2.431 2.085c.543.507 1.143.961 1.61 1.546.22.276.525.582.822.865v1.408c-.817-.765-1.697-1.827-2.275-2.288l-2.988-2.561c-1.515-1.353-3.3-2.046-5.001-3.486-.123-.104-.16-.161-.287-.259l-2.831-1.682c-1.2-.53-2.448-1.027-3.76-1.246-1.835-.307-3.56-.529-5.49-.548l-3.838-.19c-.262-.039-.72-.065-.951-.082-.355-.026-.577-.048-.922-.057-.589-.015-1.258-.12-1.845-.17-1.878-.154-3.252-.332-4.971-1.067-.248-.104-.424-.217-.635-.343-.181-.111-.403-.327-.6-.379 0 .898.355 1.498.554 2.218.088.32.249.667.378.985l1.852 3.588c.712 1.176 1.37 2.078 2.135 3.359l1.075 1.646c.355.58.629 1.25.783 1.935.097.429.19.844-.14 1.066-.385-.09-.635-.505-1.034-.598 0 1.215.006 2.283-1.244 1.843a2.117 2.117 0 00-.527-.125c-.774-.12-1.377-.346-2.137-.474-1.047-.181-2.544-.053-3.436-.483 0 1.245-.287 1.685-1.269 2.27-2.215 1.317-2.827.62-3.465.995-.535.316-1.105.64-1.587 1.025-.592.474-1.024 1.693-1.024 2.511.291-.139 2.723-.88 3.445-1.287 1.364-.77 1.84-.88 3.308-1.372.952-.318 1.726-.757 2.679-1.074 1.423-.474 3.01-.633 4.41-1.194.274-.108.415-.198.676-.302.745-.303.997-.494 1.96-.815.905-.305 2.021-.533 2.944-.812.941-.28 1.629-.778 2.484-1.215 1.012-.516 2.722-.896 4.082-1.577.629-.313 1.213-.704 1.875-.952 1.364-.515 3.19-1.561 4.586-1.89 1.344-.317 1.532 1.194 1.204 2.13-.348.995-1.145 1.289-1.897 1.858-1.542 1.166-1.383 1.477-3.445 2.158-.428.14-.948.49-1.272.578v.108c.788 0 1.379.361 2.006.553.316.096.633.17.948.302.611.259 1.084.554 1.701.802.924.368 1.748.76 2.682 1.07.322.11.67.194.987.32.299.12.61.213.917.335.617.243 1.059.658 1.098 1.404.045.85-.398 1.283-.894 1.614-.67.445-.92.51-1.992.51-.011.531-.423 1.016-.719 1.294-.669.627-1.466.481-1.989.568-.543.089-.464.209-1.265.206-.649 0-2.485-.626-3.1-.872-1.424-.567-2.922-1.176-4.406-1.522.24.326 1.468.975 1.94 1.216.15.076.263.133.399.198.758.374 1.85.687 2.297 1.402.621.994.2 1.818-.54 2.531-.54.518-1.308.454-2.033.47-.41.006-.433.265-.775.422-.594.274-1.168.498-2.073.367-.202-.03-.445-.04-.592-.06l-1.553-.244c-1.626-.272-2.86-.261-4.501.03-.758.137-1.274.363-1.95.555-1.469.417-3.013.373-4.242.708-.589.161-1.14.529-1.762.685a7.81 7.81 0 01-1.053.198c-.395.04-.728.028-1.127.07-.35.037-.742.126-1.097.154-.394.033-.681.057-1.141.057-.074.152-.135.478-.178.694-.135.667.002.617.248 1.193.398.935 1 1.759 1.352 2.729.293.81.52 1.652.776 2.542.377 1.306.803 2.452 1.25 3.703l1.264 3.63c.628 1.803 1.16 2.597 1.785 4.8.242.854.553 1.665.827 2.491l3.176 9.989c.218.875.427 1.731.664 2.601l.173.636h-2.776c-.433-1.919-.838-3.83-1.468-5.705-.417-1.237-.84-2.452-1.195-3.702l-1.146-3.75c-.246-.85-.462-1.665-.733-2.476-.542-1.622-1.148-3.257-1.614-4.916-.242-.86-.459-1.724-.712-2.553-.3-.976-1.364-3.598-1.794-4.679-.311-.776-.686-1.498-1.043-2.222a20.749 20.749 0 01-.945-2.318c-.227-.65-.37-1.272-.485-1.963-.032-.19-.045-.466-.092-.67-1.482 0-1.777.372-2.742 1.013l-2.286 1.468c-.606.402-1.11.865-1.652 1.34-1.161 1.015-1.643 1.039-2.71 1.75-.63.42-1.107.843-1.671 1.322-1.012.854-1.853 1.165-2.99 2.233-.109.102-.275.248-.421.287 0 .776-.061 1.337-.107 2.013-.047.69-.17 1.196-.167 1.96.002.582.113 1.36.162 1.959.014.176-.006.367.003.54.012.238.042.201.055.436.009.176-.01.37 0 .545.06 1.151.532 4.836.775 6.08.352 1.8.586 3.653.793 5.518a62.59 62.59 0 00.83 5.48c.068.34.135.676.199 1.01h-2.4c-.123-.814-.27-1.601-.4-2.38-.29-1.737-1.06-6.897-1.102-8.691l-.196-3.722a12.11 12.11 0 01-.076-.903l-.386-6.468c-.023-.3-.05-.55-.05-.931-.002-.39.054-.598.054-.924-.156.041-.32.197-.46.302-.16.122-.272.216-.423.34l-1.705 1.341c-1.45 1.093-2.825 2.335-4.245 3.316-.621.428-1.168.832-1.746 1.302-.836.678-1.757 1.268-2.672 1.842-.333.21-.602.385-.925.6-.323.215-.577.402-.903.62-.92.615-1.85 1.145-2.797 1.718l-2.83 1.741c-.555.33-.37.111-.484 1.04-.203 1.639-.1 3.463-.122 5.155-.004.309-.058.376-.058.702 0 .55-.045.931-.05 1.475-.004.308-.058.375-.059.702 0 .232.01.478.004.711l-.056 1.112h-1.217c.01-.917.074-1.838.074-2.691 0-1.348-.132-2.379-.262-3.546-.159-1.427-.065-2.237-.065-3.582a57.4 57.4 0 00-.742.4c-.259.14-.468.277-.715.427-.472.285-1.018.572-1.541.746-1.188.393-2.39.55-3.965.55-1.971 0-2.518.054-3.936-.581-.872-.391-1.552-.478-2.254-1.174-.133-.133-.402-.433-.48-.607l-.629-1.656c-.173-.557-.165-1.25-.41-1.82-.305-.71-.25-.718-.289-1.453l-.24-2.535c-.107-.703-.017-1.546.026-2.199.043-.645-.237-1.271-.136-1.926.13-.835-.14-1.377-.141-2.098-.002-1.085.06-1.044.274-1.96-.299-.2-.263-.254-.272-.708-.006-.307-.056-.537-.055-.924 0-.326.001-.654 0-.981-.004-.617.145-1.255.11-1.848-.169-2.914-1.782-6.497-1-9.324.664-2.4 2.02-2.385 1.826-3.961-.213-1.714-1.43-3.914-1.155-5.54.057-.34.13-.461.227-.753.175-.522.201-.998.322-1.583.103-.502.309-1.006.48-1.478.599-1.66 1.25-1.744 2.522-2.864.508-.446.561-.578.729-1.176.162-.579.545-1.072.985-1.462.338-.297.746-.565 1.134-.826 2.754-1.833 2.64-1.467 5.866-1.913 1.159-.159 2.388-.166 3.564-.298l3.4-.518c.709-.14.794-.196 1.392-.513 0-1.185.28-1.89.965-2.57.422-.42.636-.798.952-1.118.221-.221.52-.471.685-.728.373-.576.515-1.291.976-1.798.26-.287.254-.509.611-.748-.214-.92-.68-1.828-1.026-2.674a9.192 9.192 0 00-.629-1.22c-.074-.126-.106-.185-.178-.314l-.283-.587c-.1-.195-.863-.84-1.117-1.167-.597-.77-.585-.826-1.046-1.674-.124-.229-.251-.377-.34-.585l-.475-1.266c-.003-.02-.012-.024-.02-.035 0 .64.062 1.09-.16 1.527-.206.404-.573.507-.96.672-.383.163-.61.365-1.08.552-1.042.417-4.463 1.633-5.295.826-.308-.295-.093-.159-.597-.221-.718-.092-1.104.6-2.01.165-.65-.313-1.707-1.333-2.162-1.92-.138-.178-.232-.246-.381-.435l-.75-.883c-.248-.28-.457-.63-.674-.959-.236-.356-.426-.598-.652-.978-.214-.363-.356-.711-.57-1.063-.208-.348-.44-.674-.66-1.027-.22-.35-.41-.654-.633-1a5.19 5.19 0 01-.533-1.098c-.382-1.08-.55-1.442.07-2.555a2.51 2.51 0 01.764-.867c1.127-.829.796-1.068.527-2.13-.258-1.015-.096-1.282-.56-2.756-.122-.39-.168-.979-.217-1.42-.056-.498.206-.926.406-1.209.392-.557.384-.459.06-1.102-.392-.777-.634-1.616-.783-2.481-.088-.51-.179-.883-.179-1.455-.254-.067-.202-.26-.283-.533-.164-.548-.61-1.03-1.008-1.439-.162-.167-.229-.27-.402-.413-.83-.69-1.196-1.735-1.191-2.835 0-.396-.074-.632-.013-.77zm23.516 91.299l.016.015s-.021-.01-.016-.015zM84.09 62.843l.016.017s-.021-.01-.016-.017zm-22.741-3.808c.005-.004.016.01.016.016l-.016-.016zm.054-.108l.016.015s-.021-.009-.016-.015zM42.47 54.03c.055.074.054-.115.054.163-.05-.067-.035.061-.054-.163zM27.454 66.218c.012.139.221.852.273 1.467-.2-.133-.104-.148-.273-.272.006.261.119.542.15.776l.123 2.762c.008.274.075.58.1.824l.065.916c-.025.688-.364 1.152-.438 1.47.08-.044.058-.027.164-.055-.227.472-.135.324-.653.598 0-1.042-.085-.54-.289-1.018-.085-.2-.315-2.524-.57-3.509-.07-.267-.13-.442-.197-.729-.082-.356-.06-.439-.09-.834-.164-2.136-.529-4.056-1.303-5.989-1.145-2.86-1.218-2.426-2.687-4.546l-1.492-2.155c-.357-.554-.629-1.172-.998-1.72-.123-.182-.254-.385-.48-.446-.129.192-.11.118-.11.435l.105-.05c.117-.037.2.374.244.572.38 1.696.769 2.288 1.75 3.636.224.309.412.606.622.902.654.929 1.42 1.75 1.858 2.822.46 1.122.85 2.19 1.177 3.392.412 1.512.204 1.383.346 2.755.046.455.202.903.21 1.368.03 1.428.219 2.746.52 4.103.125.561.22.667.117 1.268-.127.75-.03.565-.593.93-1.17.757-.984.524-1.535.305-.547-.22-1.27-.444-1.882-.46-.261-.006-.512-.058-.69-.039a6.11 6.11 0 01-.725.04c-.839-.004-2.145.302-2.825.16-1.633-.343-2.684-.012-4.252.11-.582.045-2.303.308-2.572-.305-.278-.635-.434-2.82-.776-3.849-.73-2.19-.915-2.735-.496-5.185.076-.444.228-.807.31-1.268.073-.415.508-.824.6-1.309.067-.361.026-.435.141-.944.115-.51.132-.782.132-1.391 0-.563-.018-.905-.124-1.455-.074-.387-.104-.954-.19-1.333-.145-.626-.174-.722-.024-1.357.244-1.032.418-1.291.94-2.163.828-1.385 1.22-1.322 2.053-2.57l1.13-1.918c.195-.191.719-.432.97-.607l1.05-.854c.512-.43.978-.802 1.55-1.17a3.297 3.297 0 011.11-.47c.99-.228 1.983-.019 2.936-.163.924-.139 1.963-.019 2.843-.258l1.151-.372c.407-.107.933-.15 1.314-.264.418-.123.698-.254 1.175-.35.58-.117.845.168 1.32.179 0 .617.156 1.224.218 1.796.067.609.043 1.315.132 1.935.296 2.076.004 3.018.592 5.012.107.363.072 1.013.145 1.433l.119.915c.112 1.061-.064 2.168 2.167.988 0 .373.103.747.149 1.047.073.483.045.994.567.7l.07-.038c.467-.203.19-.007.85-.4l1.696-1.188.617-.635c.772-.98 1.062-1.317 2.113-2.076.608-.437 1.588-.944 2.415-.772l.233.145c.001.005.065.133.072.148.062.14.09.23.135.355.082.228.152.432.247.676.37.961.65 1.881.852 2.903.248 1.24.322 4.04.321 5.335 0 1.634.436 2.715.436 3.375-.27.022-.644.203-.894.303-1.012.402-1.623.667-2.69 1.009-.617.197-1.253.352-1.905.543-.593.174-1.232.387-1.784.665-1.63.822-3.739 1.122-5.457 1.888-.567.252-1.094.582-1.633.87l-.153-2.08c-.205-1.615-.476-2.313-1.044-3.743-.192-.483-.484-1.264-.87-1.522zm60.227-10.011c-.783-.066-.891-.218-2.013-.218-1.451 0-2.555.32-3.83.742-.334.109-.852.27-1.012.509l2.72.054c.769 0 1.448-.163 2.23-.163.67 0 2.73.326 3.45.578 1.302.454 1.673.541 2.865 1.161l2.86 1.166c.306.102 2.795.765 2.795 1.23 0 .298-.229.374-.422.557-.429.41-1.123.804-1.754.857-.12-.444-.76-.642-1.18-.833-.989-.455-.814-.515-2.064-.929-.547-.18-.895-.434-1.398-.67-.94-.432-1.923-.758-2.81-1.269-.218-.126-.416-.263-.654-.38-1.451-.71-3.958-.605-5.547-.377-.316.046-.634.08-.978.111-.37.033-.566.142-.875.213v.109c.741 0 1.838.544 3.045.546 1.242.002 3.174-.041 4.236.606l2.458 1.188c.587.232 1.076.53 1.65.798.575.267 1.166.393 1.723.67.275.136.479.277.78.417.318.148.563.245.852.4-.128.478-.856.635-1.47.652-.425.01-.499.044-.963-.015-1.566-.198-2.624-.968-3.94-1.5-2.348-.95-2.61-1.675-5.392-.89-.258.074-.188.091-.385.083-.187-.01-.371-.061-.479-.063-.207-.007-.292.1-.428.1-.183 0-2.618-.885-3.567-.74-.958.146-2.698.186-3.288 1.066.824-.067.41-.2 1.654-.021.65.093 1.412.052 2.05.125.935.11 1.816.35 2.682.638.304.1.508.189.787.3.822.328 1.37.765 2.085 1.234.454.296.944.555 1.407.823.707.41 1.48.683 2.192 1.074.115.063.234.137.323.22.455.419.191.7-.221 1.004-.732.541-3.019-.057-3.623-.207-2.331-.58-4.475-1.435-6.943-1.435-1.262 0-2.58.013-3.588.6-.572.33-1.227.633-1.776.998-1.605 1.068-1.135.618-2.98 1.264-.353.124-.646.243-1.006.354-.353.11-.736.179-1.126.287-.754.215-1.414.498-2.2.633-.388.065-.815.07-1.236.122-.577.073-2.433.347-2.884.652-.215.146-.591.28-1.31.758-1.216.812-1.308.942-2.723 1.52-1.286.527-2.332 1.51-3.942 2.314-.471.237-1.007.4-1.442.68-.844.546-1.654 1.16-2.516 1.675-.157.094-.27.165-.45.257-.195.097-.259.156-.453.254-.648.326-1.186.67-1.744 1.085-.998.74-1.39 1.074-2.467 1.722l-5.553 4.24c-1.197.902-2.327 1.302-3.54 2.064-1.173.735-2.101 1.495-3.352 2.252-1.464.883-2.729 1.979-4.271 2.746-1.738.866-2.591 1.7-4.64 2.38-1.042.343-2.062.677-3.05 1.139-1.135.528-1.209.521-2.525.258-.863-.174-2.35-.413-3.011-.852-.274-.183-.498-.31-.694-.559-.229-.29-.895-1.294-.983-1.628-.267-1.02-.474-2.16-.648-3.214l-.318-2.892c-.011-.21.014-.442-.003-.65-.028-.337-.077-.868-.103-1.203-.152-1.95-.193-2.62-.06-4.68.029-.432.086-.638.236-.96.105-.226.093-.185.267-.333.438-.369 1.438-.752 2.034-.902 1.969-.491 4.053-1.024 6.116-1.011 1.14.006 2.17-.13 3.25-.341.335-.064.632-.148 1.048-.148-.15.204-2.216 1.652-2.416 1.772-.444.27-.91.435-1.362.706-.46.277-.774.615-1.18.942-.484.385-.968.922-1.649 1.453-.123.095-.196.147-.297.245l-.027.028c-.009.007-.02.02-.027.026l-.21.226c-.345.35-.64.794-.946 1.177-.225.28-.846.937-.917 1.204 1.063-.563.601.19 2.269-1.213.187-.156.253-.246.466-.404l3.94-3.08c.91-.539 1.687-1.243 2.527-1.878.412-.313.676-.378 1.136-.604 1.198-.592 2.243-1.305 3.48-1.799 1.012-.401 1.453-.512 2.485-.995.754-.355 1.705-.8 2.5-1.037.908-.268 1.872-.407 2.763-.72.877-.306 1.648-.68 2.527-1.01.853-.317 1.8-.52 2.668-.812a18.876 18.876 0 002.49-1.046c.408-.207.812-.329 1.263-.478 1.276-.427 2.588-.872 3.797-1.481 1.782-.898 2.164-.813 3.835-1.496.8-.329 1.544-.803 2.378-1.105 1.299-.47 2.764-.641 4.052-1.224.226-.102.394-.159.626-.245 1.112-.412 2.237-.712 3.403-1.005 1.932-.483 2.284-.902 3.807-1.416.802-.27 1.965-.517 2.809-.726 1.553-.384 2.454-.967 3.91-1.422 1.299-.407 2.742-.687 3.98-1.244 1.417-.637 1.708-.778 3.241-1.165.254-.065.457-.093.707-.163 1.969-.563 2.143-.965 3.77-1.509.835-.279 1.81-.483 2.6-.881.644-.324 1.147-.708 1.685-.98.212-.107.37-.192.58-.29l1.281-.515c.41-.167.752-.38 1.133-.609.497-.296.764-.341 1.323-.471-.109.408-1.433 1.035-2.298 1.891-1.31 1.3-2.78 1.026-4.067 2.95zm-47.278-7.29c.476.11.915.443 1.447.62.28.092.537.13.8.234.276.108.514.202.792.295 1.068.355 1.59.357 2.628.529.622.102.959.278 1.788.333.368.023.565.076.919.114.6.068 1.295.118 1.885.238 2.087.422 2.366.573 4.593.573 1.909 0 4.04-.24 5.55-1.25 0 .494-.11.666-.11 1.468l.001 1.633c0 2.13-.188 2.664-.39 4.451-.112.978.108.385-.23 1.402-.42 1.266-.142 1.877-.142 2.905l-1.757.692c-1.23.485-2.811.75-3.784 1.113-1.46.541-1.743.855-3.526 1.37-1.923.556-1.865.741-3.492 1.404-.537.218-1.14.557-1.75.699 0-.303-.05-.346-.054-.653-.017-1.2-.43-3.361-.719-4.557-.323-1.333-.768-4.18-1.01-5.03-.221-.78-.485-1.563-.594-2.398-.19-1.457-.529-3.34-1.502-4.483l-1.213-1.45a5.3 5.3 0 00-.065-.1c-.051-.092-.049-.122-.065-.153zm2.067 5.113l-.206-.337c-.087-.139-.149-.228-.231-.367-.59-.994-1.345-1.009-2.434-.753-.584.138-1.338.97-1.964 1.464-.242.191-.373.335-.592.55a6.508 6.508 0 00-.534.609c-.115.147-.14.163-.254.291-.38.426-.034.126-.573.57l-2.382 1.64c-.248.15-.495.255-.769.374-.291.127-.553.257-.941.257l-.17-1.733c-.168-1.107-.038-1.217-.117-1.79-.071-.524-.055-1.254-.131-1.771a17.455 17.455 0 01-.18-1.725l-.31-3.498c-.106-.829-.099-1.644-.274-2.555-.244-1.27-.378-.535.87-1.82.464-.478.745-1.379 1.111-1.992l.757-1.311c.182-.352.04-.083.298-.244.33-.206-.039-.224.479-.296.03-.004.093-.02.104-.021.088-.017.048-.117.217.487.212.757.69 1.779 1 2.537l.34.696c.08.078.02.07.1-.021l.04-.068c.034.387.817 1.746 1.1 2.166.157.23.264.437.414.674l.918 1.257c.294.36.672.972.955 1.276.1.109.176.163.267.276l.739.894c.505.676 1.203 1.437 1.484 1.835.315.443.87 1.922.87 2.448zm15.887-19.913l1.99.35c.544.14 1.024.594 1.459.881.469.309.335.285.631.511.758.58 1.773 1.598 2.556 2.122l1.513.827c1.073.648 1.768.743 2.897 1.239.446.195.247.5.436 1.359l.588 1.75c.244.735 1.08 2.381 1.541 3.138.436.717.58 1.222 1.274 2.263.176.264.318.448.49.707.161.243.315.457.454.69.266.44.585 1.045.888 1.45.79 1.056.782 1.239 1.29 2.3-.244-.057-.47-.285-1.093-.485-.402-.128-.82-.226-1.234-.343-1.01-.283-1.577-.444-2.732-.479-.472-.013-.923-.158-1.414-.163-1.032-.008-2.488-.322-3.623.024-.806.244-.005 1.155-.004 1.155.115.228.144.69.144.998 0 1.441-4.06 1.904-5.152 3.227-.135.163-.107.189-.288.31 0-.687.179-.606.269-.765.073-.128.054-.224.112-.376.306-.791.434-1.142.591-2.077.281-1.672.497-2.528.497-4.29l-.057-2.391c-.136-1.647-.403-2.851-.627-4.38-.38-2.595-.295-2.133-.295-4.71 0-.854-.02-1.647-.158-2.345-.197-.996-.802-1.777-1.784-1.968-.367-.072-.336.033-1.105-.148-.017-.209-.048-.141-.054-.38zm-1.034-2.937c-.004.18-.168 1.191-.163 1.796.004.378-.058.528-.055.924.001.374 0 .698.04.996.102.783.053.9.264 1.748.535 2.14 2.012 4.064 2.26 4.757.285.8.517 1.532.632 2.414.104.792.04 2.975-.171 3.718-.187.663-.416.761-.835 1.179-1.067 1.067-1.347 1.283-2.679 1.348-.302.013-.54.054-.926.052-.413 0-.615.057-.976.057-1.378.002-2.64-.013-3.976-.055l-1.902-.054c-1.166 0-.712.024-1.85-.163-.59-.098-1.58-.393-2.456-.537a4.958 4.958 0 01-.842-.192c-.678-.224-.65-.135-1.53-.485-.508-.202-.897-.382-1.448-.563-1.372-.448-1.286-.27-1.9-1.093-1.097-1.468-1.46-1.877-2.361-3.677-.361-.722-1.465-2.877-1.538-3.523a18.313 18.313 0 00-.279-1.733c-.112-.548-.537-1.987-.481-2.5.037-.344.169-.485.322-.713.228.052.182.067.35.193l4.017 2.02c1.152.461 1.27.448 2.325.996.716.37.556.459 1.518.657.31.063.598.14.91.232.469.14 1.297.315 1.916.246.636-.072 1.532.024 2.17-.063 1.23-.167 1.267-.041 2.665-.598a5.42 5.42 0 00.378-.165c1.165-.561.608-.287 1.657-1.118 1.396-1.106.841-.772 1.612-1.707.987-1.198.815-1.241 1.357-1.961.628-.833 1.109-1.852 1.975-2.433zm-29.107-3.373c-.055-.073-.054.114-.054-.163.05.066.035-.06.054.163zM11.46 20.354c.025-.307.52-1.462 1.535-.774.315.21 1.179 1.074 1.404 1.372.198.263.4.498.597.761.202.272.4.53.607.809.203.274.336.543.543.815.209.276.405.526.601.815l.902 1.166c.12.146.2.24.322.385l1.703 2.43c.113.2.312.81.369 1.047.05.206.061.332.085.571.045.45-.057.392-.177.455l-1.038.376c.168-.252.346-.337.38-.763.032-.4-.023-.737-.114-1.026a2.653 2.653 0 00-.364-.779c-.448-.709-.888-1.44-1.494-2.044-.186-.185-.404-.376-.569-.572-.182-.215-.312-.471-.496-.7-.178-.222-.385-.36-.561-.582-.202-.255-.348-.392-.577-.62-.687-.687-1.108-1.279-1.66-1.822-.503-.498-.225-.45-1.151-1.19-.296-.235-.45-.341-.847-.13zm1.904-1.47c.94-.02.88-.306 1.733.39.115.093.224.177.334.262.382.296.415.418 1.017.779.547.33.59.543 1.012 1.002.654.71 2.016 2.605 2.526 3.131.607.624.797 1.092 1.081 1.912.128.367.237.471.282.919.025.246-.107.787-.188.98-.145.346-.236.492-.616.581-.033-.393-.382-1.228-.598-1.524-.194-.265-.21-.228-.433-.6a7.688 7.688 0 00-.43-.659l-1.392-1.817c-.468-.622-.935-1.19-1.369-1.84-.158-.24-.272-.424-.441-.648-.169-.224-.305-.396-.462-.626l-2.056-2.242zm5.223-5.332c.432 0 1.514.648 1.944 1.049l.791.678c.274.26 1.1 1.427 1.273 1.72.199.34.42.563.639.883.225.328.317.66.501 1.021.105.207.194.303.291.473l.727 1.504c.419.841.554 1.29.907 2.085.258.579.695 1.386.955 2.035.154.387.26.74.411 1.114.304.745.646 1.3.646 2.4 0 .53-.466.487-1.023.826-.82.503-3.308 1.35-4.363 1.35.111-.21.22-.395.328-.597.596-1.127-.16-3.081-.636-4.099-.387-.828-.327-.822-.851-1.707-.175-.293-.343-.493-.543-.763l-.868-1.037a17.042 17.042 0 01-.29-.361l-2.54-3.172c-.116-.155-.177-.216-.296-.357-.38-.455-.818-1.066-1.256-1.357-.199-.13-.606-.426-.828-.476.178-.267.77-.568 1.042-.755.388-.267.468-.46 1.002-.847.89-.642.867-.757 1.492-1.23.055-.04.516-.38.545-.38zm-5.713 1.851c.531.28 1.105.441 1.632.163-.027.32-.257.407-.61.641-.207.14-.537.444-.75.5l-.272-1.304zm3.319-.979l-.055.053.055-.053zM64.83 23.4c0 1.548.037.883.326 2.122-.597.14-.598.028-1.076-.393-.291-.257-.274-.202-.479-.664-.354-.802-.566-.448-.566-1.718 0-1.339-.064-1.747.118-3.037l.32-2.128c.051-.364.074-.722.129-1.122.11-.81.183-1.753.63-2.416.328-.49.468-.924.652-1.198.864 0 2.265-.246 2.34.652-.39.091-.527.49-.67.855-.371.95-.51 2.838-.652 3.972-.113.914-.285 1.698-.495 2.55-.196.797-.577 1.39-.577 2.525zM12.275 12.14c0-.135.084-.32.151-.394.292-.323 1.522-.043 1.98.005.27.028.523.041.755.06.34.027.461.02.638.231.13.157.201.32.31.51.276.48.046.523-.278 1.13-.306.571-.744.641-1.456 1.048-.462.26-1.232.165-1.374.056-.13-.1-.187-.43-.225-.591-.162-.685-.5-.637-.5-2.055zm3.918 2.285c.142-.613 1.093-1.054.326-2.502.086-.129.145-.163.249-.296.124-.161.133-.195.295-.304.007.304.195.865.303 1.113.08.187.147.3.255.45.108.15.225.265.313.396-.803.426-.554.304-1.275.847-.16.12-.27.242-.466.296zm45.32 6.854c0 .52 0 1.13.093 1.594l.145 1.158c.147.714.614.996.36 2.09a.843.843 0 01-.25-.239c-.339-.437-.664-1.154-.817-1.687-.303-1.048-.682-5.63-.916-7.243l-.306-2.742c-.159-1.148-.544-2.418.058-3.757.619-1.377.912-1.252 1.74-1.252.875 0 1.613 1.182 2.123 1.524-.252.476-.376.537-.56 1.017-.59 1.533-.639 2.246-.958 3.83-.356 1.763-.713 3.917-.713 5.707zM13.744 10.832c-.346 0-.455.055-.816.055.068-.144.049-.059.054-.272.436.037.202.163 1.197.163.944 0 1.63-.25 1.958-.87.297.157.678.2.544.592a.995.995 0 01-.255.404c-.069.061-.316.215-.415.228-.132.016-.234-.093-.47-.139l-1.797-.16zm49.29-2.72c.236-.113.337-.139.56-.124.443.035.866-.193 1.247.276.198.246.255 1.044.26 1.374.007.394.11.414-.163.596-.507-.34-.78-1.478-1.903-1.741v-.38zm-24.21-5.005l.016.017c0-.002-.021-.01-.016-.017zm.272-.109l-.109.055.11-.055z" fill="#0074C7"/><path fill-rule="evenodd" clip-rule="evenodd" d="M95.733 69.047c0 .318.108.479.108.761 0 .518-.163 1.635-.163 2.558 0 2.237.083 1.787.337 3.853.05.415.107.846.176 1.293.256 1.672.675 3.031.849 5.025.32 3.681.608 2.666 1.445 6.01.346 1.379 1.715 8.593 1.882 9.978.212 1.764.58 4.767.991 6.408.139.557.255 1.144.37 1.735h2.642c-.292-1.57-.569-3.236-.844-4.609-.129-.644-.241-1.212-.372-1.86-.535-2.648-.652-4.583-1.382-7.486-.302-1.196-.567-2.407-.919-3.542l-2.02-6.903c.084.039.116.06.25.08.425.065.124-.237.684.183a8.41 8.41 0 001.904 1.034l3.275 1.077c.818.236 1.336.436 1.72.559v-4.898c-1.059-.036-1.98-.363-3.255-.873-1.914-.763-1.982-.783-3.575-1.972-.27-.203-.552-.4-.714-.703-.334-.623-.597-1.243-.938-1.835-.668-1.157-.834-1.596-1.34-2.794-.252-.597-.16-.53-.264-1.152-.074-.44-.143-.76-.226-1.187-.06-.309-.145-.875-.458-.957-.056.041-.163.133-.163.218zM51.828 24.27c-.086.128-.145.163-.25.296-1.036 1.317-.8 1.037-2.082 2.052-.795.628-.43.52-1.59.748-.824.163-1.127.31-2.01.385-.307.026-.735.04-1.055.087-.755.113-1.141-.054-1.887-.298l-1.85-.487c-.134-.046-.07-.03-.197-.076l-.666-.259c-.32-.104-.551-.208-.98-.217-.485-.011-.638-.109-1.089-.109v-.109c.268-.021.76-.202 1.013-.291.361-.128.712-.198 1.061-.3.41-.122.634-.17 1.12-.241a9.167 9.167 0 011.268-.092c.019.23.135.409.258.557.145.176.231.367.395.476.073-.317.187-.559.217-.924.595 0 1.012.054 1.632.054.097.415.319.313.475.614.125.238.147.604.342.745 0-.27-.028-.604.039-.83.162-.544-.04-.572.24-.685.136-.055.585-.129.754-.17.217-.054.522-.159.762-.163.27.51.055.335.283.641l.17.32c.059.146.087.21.091.398.174-.126.078.04.112-.215.087-.661-.343-1.216.279-1.353l3.145-.554zm-8.27-.109c-.79 0-1.361.074-2.078.261-.309.08-.436.13-.79.19-.558.092-1.068.269-1.632.382-.238.046-.658.057-.938.096-.756.104-.797.217-1.195.326-.326.087-.67-.422-.902.513-.04.161-.08.11-.08.245 0 .488.638.675 1.047.749.53.095.978.18 1.488.306.556.137.79.337 1.264.53 1.249.514 1.687.44 2.818.775 1.838.545 1.228.415 3.066.415.705 0 1.855-.017 2.497-.222l1.248-.548c1.116-.737 1.069-.87 1.927-1.717.347-.344.195-.24.412-.514.118-.15.289-.297.43-.439l.437-.49c.08-.09.136-.127.214-.22.798-.949 1.364-1.155 1.664-1.492.184-.207.263-.41.193-.655l-.025-.085c-.28-.985-.95.063-1.337.224-.208.087-.465.046-.736.079-.202.026-.466.069-.713.104l-2.815.504c-1.47.296-1.008.048-2.667.596-1.457.483-1.323.235-1.988.15-.3-.037-.48-.063-.808-.063zM36.214 6.7l.016.015c-.001-.003-.021-.011-.016-.015zM27.4 8.602l3.537-.544c1.425-.363 2.23-.313 3.552-.528l1.777-.291c.282-.033.336-.153.546-.05-.162-.699.907-1.633-2.557-1.633-.741 0-1.516.176-2.12.328-.382.098-.78 0-1.178.074-.923.167-1.666.8-2.143 1.555-.13.206-.491.402-.707.545a6.441 6.441 0 00-.707.544zm27.366-3.97l.12-.098c-.043-.048-.035-.037-.087-.1a1.828 1.828 0 01-.096-.122c-.53-.694-.558-.654-1.587-1.133a12.13 12.13 0 00-.534-.226c-.824-.34-.857-.424-1.892-.33-.423.037-.855.171-1.215.309-.224.082-.394.065-.63.13a2.525 2.525 0 00-.576.241c-.717.4-2.701 1.188-2.058 2.375.388.717 1.378-.098 1.995-.478.703-.435 1.579-.518 2.463-.64l1.434-.144c.182-.004.428.046.706.05.244.005.452.061.652.112.16.039.427.126.61.132.147.007.101-.026.309-.02.215.005.14.044.386.05.044-.073.075.068 0-.108zM46.442 16.87c0 1.131.412 1.581-.393 2.33-.222.205-.67.401-1.028.44-.752.083-1.211-.108-1.755-.408-.176-.098-.419-.103-.667-.057-.788.146-.648.75-2.311.53-.556-.071-.554-.395-.43-.93-.187.126-.879 1.263.754 1.859.344.126.907.242 1.351.083.273-.098.362-.229.505-.229.071 0 .477.146.578.213.354.238.468.405 1.166.418.364.006 1.01-.18 1.283-.298.13-.056.366-.215.466-.296.337-.276.027-.098.5-.317.567-.263.57-.409.96-.67.377.087.399.18.927.166.94-.026 1.692-1.249 1.032-1.69v.435c-.202.106-.383.243-.604.322-.235.082-.623.078-.81.167.062-.261.036-.085 0-.163-.218.104-.497.172-.708.272 0-.609.188-1.503-.816-2.177zM27.89 12.14c.01.006.025.008.03.024.05.186 1.448.713 1.623.772 1.347.447 1.672.404 3.082.402.774-.002 2.044-.094 2.726-.322a2.21 2.21 0 00.654-.324l1.147-.866c.585-.524.498-.5.886-.206.167.128.078.12.298.14.024.282-.052.097.109.162.167-.717.163-.02.163-.872 0-.21-.148-.383-.293-.47-.658-.393-.945-.034-1.455.355-.196.15-1.735.679-2.094.79-.641.195-3.286.224-4.032.32-.864.112-1.83.095-2.844.095zm22.85-2.666c-.362 0-.718-.024-1.073-.07-.47-.06-1.592-.184-1.987.11-.222.164-.13.343-.53.612 0-.73.36-.86.434-1.143-.366.176-1.037-.172-.817 1.417.12.868 1.028.015 1.077-.015 1.235-.8 2.474.966 5.54-.226.486-.19 1.49-1.37 1.49-1.938 0-.19-.175-.543-.326-.543-.523 0-.274.407-.854.833-.321.235-.28.26-.703.384-.41.118-.721.186-1.101.313-.23.077-.858.266-1.15.266zM13.255 55.828c.123.106.145.084.346.143.172.05.198.072.344.146.91.458 2.48 1.648 3.102 2.392.503.602 1.092 1.304 1.635 1.848.358.356.606.705.953 1.059l1.377 1.615c.116.155.339.487.458.577-.022-1.016-1.116-2.99-1.89-3.768-.174-.175-.25-.307-.435-.49l-.923-.983c-.634-.752-.576-.741-1.334-1.493-.686-.681-1.836-1.155-3.034-1.155-.258 0-.393.06-.599.109zm29.106 46.351c0-.546.764-1.15 1.838-.207.276.244.162.053.447.479-.214.407-.351.761-1.142.761-.7 0-1.143-.302-1.143-1.033zm-.652.38c0 .507.116 1.049.364 1.322.521.577 2.022.731 2.73-.13.663-.804.937-1.946-.024-2.685-.855-.659-1.724-.837-2.495.165-.249.322-.575.57-.575 1.328zm-.164-41.836l.38.055c0 .552.394 2.472-.91 1.509-.218-.161-.363-.252-.33-.568.053-.51.206-.996.86-.996zM39.86 61.92c0 .701.202 1.467.771 1.787.283.16 1.073.015 1.342-.164.797-.532.77-1.608.77-2.493 0-2.172-1.831-1.546-2.403-.718-.233.34-.48 1.029-.48 1.587z" fill="#0074BF"/><path fill-rule="evenodd" clip-rule="evenodd" d="M35.724 29.058c-.058-.698-.694-.93-.76-1.796-.084-1.135.208-1.713.65-2.611.072-.146.146-.29.218-.435l.436-.87c.24-.478.694-1.337.707-1.905-.173.063-.053-.008-.176.153-.362.47-.461.526-.835 1.067l-.97 1.261c-.669.968-1.18 2.282-.686 3.506.179.445.245.602.611.913l.805.717zm9.195 1.524c.056.05-.005.02.131.085.753.36 1.923.487 2.714.202a5.07 5.07 0 00.763-.324c.378-.213 1.118-.552 1.342-.887-1.83 0-2.332.27-3.775.63l-.85.238c-.168.028-.178.021-.325.056zM44.32 9.91c0 .623.142 1.267.306 1.76.165.499.385 1 .728 1.394 0-.26-.073-.52-.106-.763-.177-1.283-.314-3.486.032-4.75.057-.21.123-.34.128-.58-.186.068-.352.36-.458.52-.425.65-.63 1.575-.63 2.418zm11.643 14.577c0-1.917-.04-3.574-1.588-4.502-.111-.068-.199-.116-.306-.185-.38-.248-.419-.39-1.044-.535.223.332 1.61 1.674 1.888 2.193.3.564.697 1.905.906 2.631l.144.398zM41.11 12.521c-.014-.62-.164-1.766-.374-2.346-.227-.628-.596-1.346-1.095-1.68.088.376.188.693.283 1.078.174.7.72 2.607 1.186 2.948zm-6.256 2.122c.936 0 1.228.026 1.797-.38.23-.163.37-.326.487-.6.111-.261.195-.52.49-.598-.258-.461-1.442.493-1.578.598-.22.169-.35.36-.558.53-.117.096-.203.12-.344.2a4.498 4.498 0 00-.17.102c-.101.079-.077.015-.124.148zm16.049-2.557c.405.552 2.217.232 2.775-.6-1.039 0-1.448.271-2.078.425-.223.055-.498.157-.697.175zm-4.459 4.786v-.054l-.065.045.065.009zm-10.72 12.186v.055l.065-.044-.065-.011zm-8.269 37.16v-.055l-.063.046.063.009zm-.001 7.942H27.4l.046.064.008-.064z" fill="#0074BF"/></svg>