<svg width="355" height="355" fill="none" xmlns="http://www.w3.org/2000/svg"><path fill-rule="evenodd" clip-rule="evenodd" d="M0 355V0h355v355H0z" fill="#36AB4E"/><path fill-rule="evenodd" clip-rule="evenodd" d="M207.791 125.358c1.212 8.89-1.905 5.598 4.059 14.509 2.144 3.202 1.189 9.226-5.557 9.588-.626.034-12.037 4.009-12.82 6.527-1.539 4.952-15.243 7.01-18.465 11.383-1.361 1.846-27.801 13.435-28.676 11.898-2.206-3.877 4.719-34.512-14.725-30.56-9.585 1.95 1.719 11.209 1.719 19.744 0 8.326.414 12.03-7.707 12.674-15.935 1.266-10.309.511-16.963-15.098-2.365-5.554-3.537-19.265.073-24.742 4.027-6.109-.395-14.351-7.706.073-2.937 5.792-26.54 8.914-30.743 7.349-7.247-2.696-2.66 19.104-.923 22.618 2.742 5.545 16.18-3.721 25.139 2.657 7.584 5.402 4.423 1.685 9.33 7.757 9.709 12.011 2.852 21.33 10.745 25.211 8.251 4.055 15.158 17.959 33.716 19.411 35.25 2.758 22.62-6.2 49.945-13.999 1.002-.285 27.178-11.391 27.57-11.609 5.059-2.809 31.439-9.789 37.579-6.857 3.393 1.621 12.418-1.03.45 12.134-2.317 2.547-1.847 6.167-5.921 9.797-7.953 7.088-9.778 6.978-17.245 16.802-2.729 3.588-15.407 13.088.663 17.788 17.09 4.998 31.65-4.679 46.577-11.617 5.402-2.512 9.897-14.528 11.736-20.17 4.471-13.715 4.381-20.903 5.324-34.936.274-4.11-.53-23.373-3.773-24.808-13.252-5.865-27.094-.531-41.513.112-10.129.452-19.287 5.433-22.448-1.316-5.223-11.151-5.829-30.285-20.712-32.561-19.957-3.054-8.897-1.005-8.728.241z" fill="#0078BF"/><path fill-rule="evenodd" clip-rule="evenodd" d="M135.993 228.094l-.178-.189.178.189zm4.656 2.716l-.177-.19.177.19zm79.209-80.063c.228.427.198-.366.07-.133-.004.008-.38-.446-.07.133zm-1.482-78.84l-.211-.18.211.18zm-48.9 99.388l-.17.283.17-.283zm-99.284 6.11l-.17.227.17-.227zm105.262-14.257c-.332 0-.265-.099-.265.226.333 0 .265.099.265-.226zm-16.987 17.934c.02.029.063-.12.063-.085 0 .016.026-.035.025-.034-.005.008-.457-.372-.088.119zm51.229-15.501h-.16l.098.309.062-.309zM268.76 8.137l-.159.225.159-.225zm-67.743 6.789l-.159-.225.159.225zm89.97 7.864l-.16.283.16-.283zm-22.017 7.07l-.158-.224.158.225zm-126.593 5.603l-.158.282.158-.282zm-33.234 2.544l-.213-.226.213.226zm32.178 1.133l-.16.225.16-.226zm-40.276 2.035l-.159.17.159-.17zm35.404.056l-.158.17.158-.17zm-27.941.397l-.212-.227.212.227zm5.929-.058l-.212-.169.212.17zm17.092 2.774l-.159-.17.159.17zm72.451 1.923l-.159-.34.159.34zm87.007 3.169l-.16.339.16-.339zm-23.286 2.433l-.159.17.159-.17zm87.218 2.432l-.159.227.159-.227zm-.637 10.976l-.158.338.158-.338zM102.738 70.82l-.159-.226.159.226zm196.715 2.432l-.159-.17.159.17zm-83.036 8.657l-.159.226.159-.226zm-13.759.905l-.159-.17.159.17zm.633 3.394l-.158-.282.158.282zm11.432.227l-.159.226.159-.226zm81.291 2.037l-.159-.34.159.34zm51.652.227l-.158.225.158-.225zm-213.545 5.373l-.158-.17.158.17zm130.616 7.355l-.16-.283.16.283zm-132.572.17l-.159-.227.159.227zm144.163 2.489l-.159.283.159-.283zm-142.894 2.489l-.159-.226.159.226zm77.479 4.752l-.158-.226.158.226zm-4.18 1.187l-.16-.283.16.283zm-2.381 1.302l-.159-.282.159.282zm.212 1.585l-.16-.34.16.34zm137.441.056l-.159.17.159-.17zm-137.231 3.339l-.159-.227.159.227zm-123.362 4.751l-.16.225.16-.225zm3.333 2.49l-.16-.171.16.171zm20.586 1.074l-.211-.17.211.17zm15.454 1.244l-.158-.282.158.282zm208.73.849l-.212.171.212-.171zM98.77 131.467l-.211-.17.21.17zm110.503 1.132l-.212-.228.212.228zm6.562 3.791l-.211-.17.211.17zm67.741.281l-.212-.17.212.17zm2.965.907l-.212-.169.212.169zm33.024.677l-.211.227.211-.227zm-229.052.906l-.212-.227.212.227zm-3.175.905l-.211-.17.21.17zm208.094 1.132l-.212-.169.212.169zm-150.302.508l-.159-.283.159.283zm158.771.114l-.16-.17.16.17zm-161.364 1.866l-.16-.226.16.226zm83.247 1.36l-.158-.227.158.227zm89.758 3.45l-.264.17.264-.17zm-232.861 2.602l-.16-.17.16.17zm-13.812 2.772l-.159.169.159-.169zm-3.549.736l-.159.17.16-.17zm5.084 1.357l-.212.17.213-.17zm37.892 1.529l-.211-.226.211.226zM61.3 158.849l-.212.226.212-.226zm4.235 1.414l-.16.169.16-.169zm190.682 1.3l-.159.17.159-.17zm91.875 2.49l-.16.17.16-.17zm-164.435.68l-.211.17.211-.17zm-14.604 2.489l-.212.227.212-.227zm43.395.734l-.214.17.214-.17zm113.257.171l-.212.226.212-.226zm-218.044.451l-.159.227.159-.227zm93.567.397l-.211-.17.211.17zm-36.041.963l-.159.17.159-.17zm-90.337.452l-.212.17.212-.17zm95.893 0l-.158.225.158-.225zm57.158.056l-.212.17.212-.17zm-58.596 1.131l-.201.171.201-.171zm36.794.623l-.212.226.212-.226zm-95.739.453l-.16-.17.16.17zm181.737.905l-.264-.17.264.17zm-191.476.226l-.158.226.158-.226zm102.937.226l-.211.227.211-.227zm3.546.227l-.16.226.16-.226zm147.76 0l-.16.226.16-.226zm-281.286.735l-.16.17.16-.17zm128.497-.056l-.158.225.158-.225zm-93.992.905l-.212-.227.212.227zm226.513.962l-.159.17.159-.17zm-1.483.678l-.212.17.212-.17zm-78.96.905l-.211.17.211-.17zm-118.336.452l-.16-.282.16.282zm219.181.14l-.027.029.027-.029zm-131.382 6.593l-.159.226.159-.226zm-140.301.734l-.159.173.159-.173zm85.525 2.152l-.213-.171.213.171zm30.906.281l-.212.17.212-.17zm-133.366 1.36l-.211.17.212-.17zm-3.175 1.3l-.265-.17.265.17zm12.913.057l-.159.226.159-.226zm199.414.227l-.212-.17.212.17zM52.62 193.471l-.212.227.211-.227zm122.571 3.17l-.212-.17.212.17zm57.156 3.223l-.159.17.159-.17zm-186.078.622l-.211.17.21-.17zm101.665 0l-.263.17.263-.17zm-56.838 2.716l-.16.226.16-.226zm-26.25.226l-.16.227.16-.227zm228.047 2.037l-.159-.227.159.227zm-153.055.508l-.212.172.212-.172zm153.69.624l-.213-.227.213.227zm-265.517.452l-.16.226.16-.226zm267.422 1.754l-.16-.17.16.17zm-148.873.509l-.16-.17.16.17zm-2.275.227l-.212.226.212-.226zm59.273 2.319l-.211.169.211-.169zm70.494.623l-.159.225.159-.225zm10.585 1.357l-.159-.225.159.225zm19.9.17l-.16-.17.16.17zm-40.859.056l-.159.227.159-.227zm-62.713 1.81l-.159.17.159-.17zm-31.49 1.811l-.212.17.212-.17zm78.326 0l-.212.17.212-.17zm14.394.906l-.212.17.212-.17zm-101.401.677l-.211.171.211-.171zm92.934.68l-.16.226.16-.226zm-142.469.452l-.158.227.158-.227zm-39.586 1.64l-.16.17.16-.17zm-49.8.397l-.158.227.158-.227zm87.056.282l-.264.169.264-.169zm148.61 4.696l-.423.17.423-.17zm-71.764.509l-.213.17.213-.17zm-134.638 1.473l-.159-.17.159.17zm88.277.734l-.211-.227.211.227zm.848.452l-.212-.17.212.17zm-55.889.058l-.158.169.158-.169zm57.107.623l-.159-.17.159.17zm110.344.96l-.212.17.212-.17zm11.006.792l-.158-.17.158.17zm-161.944 2.149l-.211.17.211-.17zm-.423.851l-.158.225.158-.225zm195.394.904l-.212.226.212-.226zm8.254.904l-.212.171.212-.171zm-.21 7.072l-.16.17.16-.17zm-284.518 7.015l-.158.17.158-.17zm42.975 2.037l-.16.17.16-.17zm178.881 12.617l-.211-.17.211.17zm-28.418.226l-.159-.338.159.338zm45.142.281l-.211.17.211-.17zm-216.986 2.434l-.16-.226.16.226zm206.19-.057l-.211-.169.211.169zm7.62.453l-.212-.171.212.171zm-16.511 1.189l-.211-.17.211.17zm-218.308 2.941l-.158-.17.158.17zm202.854 0l-.159-.226.159.226zm8.891 4.47l-.264-.171.264.171zm17.572 7.127l-.265.17.265-.17zm-109.447-52.782c-.148-1.896-.308-1.553-.635-1.809.147 1.895.307 1.553.635 1.809zM306.651 79.194h.212l-.177-.264-.035.264z" fill="#FFED00"/><path fill-rule="evenodd" clip-rule="evenodd" d="M116.147 0h3.215a7.406 7.406 0 00-.058.895l-.16.226c-.149 1.663-.466 2.485-1.04 3.695-.567 1.194-.802 1.96-1.126 3.323-.947 3.988-1.909 2.69-1.909 7.013 1.909 1.078 2.651 1.817 4.385 2.554 2.298.978 7.952 1.962 10.767 2.52l5.595 1.035c.231-2.96.967-5.257 1.722-7.664 1.927-6.142 1.41-8.872 3.856-13.597h2.721l-.176.753c-.503 1.79-1.561 4.87-1.561 6.931l-.159.226c-.63 6.968-4.178 11.427-4.498 12.899 2.129 0 5.652-.167 6.438 2.197.327.99-.25 1.308-.453 2.163-.369 1.536-.25 3.768-.464 5.388-.215 1.641-.864 3.173-.864 4.905l-.159.282c-.176 1.557-.647 2.24-.898 3.396l-.16.225c-.132.398-.316.899-.459 1.155-.165.295-.133.7-1.082.799a1.875 1.875 0 01-.155.007c-.643.01-.944-.308-3.015-.095l-.158.17c-.444.101-.384.045-.688.227 2.469 4.99-1.854 6.543-2.408 7.616-1.109 2.147 1.135 2.165 1.155 5.506.021 3.215-1.682 6.037-4.887 6.112 0 1.511.125 3.76-.023 5.18-.128 1.242-.905 3.071-.978 3.915-.055.637.525 3.136.673 4.156.576 3.93.434 4.092 1.874 7.956.493 1.327.635 2.45 1.069 3.833 1.115 3.555 1.45 4.162 1.884 8l.159.17c.012.676 2.239 8.71 2.806 11.768a80.3 80.3 0 001.34 6.035c1.111 4.184 1.331 8.648 2.16 12.398l4.543 17.15.159.283 4.367 16.548c.816 2.662 1.3 5.901 1.939 8.563.498 2.073 2.028 6.594 2.162 8.324a67.794 67.794 0 003.18-.899c1.001-.308 1.78-.856 2.88-1.221.922-.304 2.368-.581 3.113-.973.615-.325 1.688-1.435 2.259-1.941l.158-.17c.642-.394 1.151-.932 1.757-1.347.632-.432 1.223-.762 1.895-1.142l.212-.226c.644-.365.972-.502 1.605-1 .521-.409.844-.711 1.366-1.029 1.073-.654 2.07-1.198 3.167-1.819.333 0 .265.099.265-.226 1.661-1.102 13.278-6.829 15.07-7.369 1.693-.51 2.213-1.777 3.624-3.82 1.113-1.612 2.673-2.271 4.247-3.38l4.186-3.219a24.93 24.93 0 014.697-2.674c.979-.432 1.43-.813 2.489-1.186.899-.317 2.004-.534 2.893-.755l-1.294-.654c-3.963-1.352-4.126-2.839-5.309-5.64-.309-.732-.619-1.018-.76-2.13-.677-5.378 1.031-4.942.729-6.629-.524-2.946-.747-1.312-1.252-6.897l-.159-.227-.053-3.168-.159-.34-.053-1.244-.158-.282c-.027-1.135-.399-2.07-.437-3.337-.043-1.472.213-2.079.222-3.626.011-2.093.605-4.995 2.12-5.428-.025-1.154-.459-2.641-.72-3.757-.826-3.521-1.758-7.57-2.086-11.178l-.158-.282c-.025-1.07-.366-1.897-.476-3.113l-.159-.17c0-3.12-.834-6.676-.856-8.647-.01-.923.073-2.015-.021-2.916-.404-3.846-.161-8.013.032-11.8.285-5.642-.467-18.04-.861-23.523-.736-10.252-1.158-12.122-2.62-21.863-.287-1.907-.189-3.719-.453-5.627-.387-2.793-.576-5.533-.473-8.267h2.083l.681 6.325.159.339c0 1.744.174 2.541.21 4.19.03 1.37.345 2.375.479 3.846l.159.225c0 1.636 1.239 8.816 1.547 11.246.106.843.34 2.706.363 3.683l.811 12.034c.135 1.282-.037 2.707.083 4.039l.159.34c0 1.32.004 2.642-.002 3.962-.009 1.573.265 2.24.228 3.618l-.226 7.469c.004 2.925-.216 4.633-.012 7.48.345 4.822.423 9.549 1.299 14.227.606 3.234.91 3.3 1.552 6.034.296 1.261.409 2.056.897 3.114 1.031 2.233 2.366 6.031 3.009 8.325.179.637.164 1.027.538 1.46.406.471 5.5 2.972 6.139 3.17 5.659 1.74 4.083.989 9.653.996 2.603.003 4.405.226 6.986.226l10.534-.507c.757-.225 1.279-1.223 1.903-1.811 2.916-2.745 2.173-2.691 3.488-3.967 2.307-2.232 1.226-1.565 3.5-3.952 2.24-2.354 3.522-6.978 4.573-10.726.593-2.114.818-4.447 1.378-6.446 1.724-6.151 1.544-8.627 2.607-12.83.532-2.108 2.164-6.288 2.28-7.292.095-.818.112-1.089.208-1.815l1.917-25.105c-.001-1.365.058-2.674-.121-3.943l-.271-11.184c.624-5.94-.575-8.16 1.072-14.47.087-.336.326-1.2.658-2.3h2.404a33.756 33.756 0 01-.854 3.982c-.386 1.396-.559 2.408-.559 4.155l-.159.225c-.096 1.069.243 1.536.155 2.697-.069.928-.218 1.258-.213 2.502.008 1.813.005 3.625.005 5.437l.265 10.637.158.225c0 4.61-.585 9.66-.626 14.04l-.643 7.968-.159.17c-.386 4.262-.983 8.088-1.317 12.225-.32 3.97-1.224 7.975-1.276 11.99-.017 1.32-.222 1.717-.217 3.16.02 4.694-.843 10.454-.842 15.847 0 1.135-.001 2.27-.011 3.406-.018 2.313.188 1.075.698 2.477l.16.283c.075.864.443 1.939.579 2.719.758 4.336.352 4.906.272 8.77-.05 2.386-1.422 7.836-1.679 10.878-.422 5.013-1.06 4.867-2.372 7.195-.697 1.236-.497 1.876-2.658 3.494-1.835 1.373-3.52-.441-3.033 5.811.643-.461.994-1.122 2.235-.833 2.132.495 4.456 2.132 4.963 4.453.727-.374.591-.105 1.422-.289l3.382-1.59c4.649-1.922 4.966-2.344 4.936-5.133-.037-3.53.052-6.529 2.421-7.595 1.053-.474 1.277-.787 1.071-2.229-.527-3.695-.811-12.887-.377-16.265l.269-6.444.159-.283c.23-2.552.375-5.153.648-7.51.169-1.455.308-2.132.529-3.509.397-2.483.029-6.562 1.505-10.611 1.579-4.327 1.529-4.968 2.533-9.285l1.748-6.278c.321-1.155.575-1.91.833-3.183l2.169-13.75c.526-4.645.287-7.261.709-11.462.653-6.518-.758-12.691-.238-19.486.308-4.001.871-10.638 1.56-14.4.412-2.254.577-3.254 1.282-4.61h2.676c-.619 3.215-1.44 6.646-1.667 8.415-.227 1.763.373 11.325.373 14.373l-.159.283-.061 10.192c.015 1.308.232 1.706.225 3.154-.011 2.458.196 4.08.209 6.57l-.214 6.448-.159.339-1.234 10.504c-.243 1.86-.275 3.64-.5 5.349-1.029 7.822-3.157 16.59-4.925 24.155l-2.051 9.573c-.542 2.931-2.129 6.298-2.146 9.473-.036 6.04-.613 13.132-.621 19.93-.002 1.24-.2 1.502-.218 2.481.804.072 1.126.285 1.764.603l4.72 1.744c1.197.379 2.168.54 3.382.91l9.329 3.831c1.848.981 3.993 2.623 5.412 3.321l.16.17c1.545 1.118 2.13.683 4.007.268 1.26-.28 2.674-.584 3.998-.933 1.343-.353 2.635-.896 3.894-1.267a19.784 19.784 0 003.555-1.405l.211-.226c1.029-.583 1.857-1.317 2.751-2.037.787-.632 1.881-1.298 2.595-1.98.918-.875 3.889-3.932 4.391-4.865l.212-.171c.962-1.534 1.853-2.808 2.796-4.48.505-.897.744-1.548 1.309-2.447 1.38-2.203 2.802-4.415 3.941-6.874 3.14-6.772 2.088-.558 4.36-10.276.857-3.667 1.868-7.919 3.768-10.91.696-1.095.735-.98 1.115-2.426.231-.872.641-2.044.706-2.867l.158-.225c.12-.686.333-1.315.447-1.86.257-1.234-.017-.504.068-1.52.093-1.122.454-.446.933-3.277 1.887-11.162 3.315-19.245 3.261-30.457-.018-3.852 1.473-11.97 2.623-16.658v14.676c-.079 1.403-.08 2.846-.08 4.698l-.16.227c-.166 1.845.076 3.746-.175 5.527-.196 1.384-.302 3.827-.302 5.222l-.158.339c-.23 2.544-.53 4.412-.954 6.731l-.793 6.394h.213c.835-.597 1.54-1.17 2.409-1.792v1.926c-1.332.48-2.62.982-3.045.77 0 1.206-.191 1.268-.212 2.264 1.06-.76 2.092-1.083 3.257-1.461v7.694c-1.558-.302-3.591-.575-4.526-.575-.022 1.05-.348 1.513-.424 2.488.382-.194 2.466-.37 3.003-.429.442-.047 1.162.053 1.947.226v35.83a71.421 71.421 0 01-1.986 4.654c-1.395 2.982-2.842 6.502-4.455 9.496-.313.582-.714 1.252-1.038 1.831a78.988 78.988 0 01-2.043 3.474c-3.472 5.566-5.283 7.622-10.316 11.827-.791.661-.897.588-1.168 1.695-.705 2.867-1.816 8.092-3.68 10.095-1.703 1.828-2.547 2.476-4.608 3.673-5.317 3.09-9.412 1.624-10.674 8.504l-1.807 9.384a139.338 139.338 0 01-.717 4.906c-.212 1.322.043 1.137.086 2.55.06 2.024-.718 3.223.076 7.826.448 2.605 1.181 13.646 1.181 15.936 0 3.19-.543 6.931-1.354 9.868-.261.944-.425 1.151-.676 2.218-.236 1.005-.354 1.205-.718 1.949-.724 1.474-6.2 8.439-7.202 9.329l-.16.17-6.554 5.494c-.201.238-.262.355-.359.507-5.557 4.53-11.024 9.189-14.876 14.63-2.494 3.521-6.088 8.838-10.042 12.739-1.248.89-2.438 1.699-3.924 2.463-2.349 1.209-6.094 2.273-8.944 2.886l-9.757 1.844-.266.17-6.51.453c-1.117.058-1.958.228-3.392.231-5.287.012-10.404-2.615-13.984-3.381-2.244-.48-2.275-.801-3.882-1.507-.558-.244-.732-.265-1.176-.552-1.047-.677-3.332-3.184-4.461-4.742-.289-.5-.561-1.017-.818-1.55-.655-1.938-1.862-6.704-1.975-7.96l-.159-.339v-4.188a1.234 1.234 0 00-.072.151l-.139.471c.137-1.958.308-3.836.459-4.183 2.269-5.199 1.718-6.367 5.455-11.164 2.363-3.031 6.648-5.424 8.076-7.575 2.13-3.206 4.682-4.262 6.903-6.599.612-.646 5.412-3.421 5.918-3.588 1.253-.411 2.348-2.162 2.845-2.645l.006-.005.019-.017.024-.021.021-.018c.65-.562.952-.763 1.391-1.467-1.696.041-8.32 4.723-8.888.428-.408-3.08 2.041-2.546 5.079-3.369.942-.255 2.342-.466 3.139-.944l4.693-3.865.212-.17c4.555-3.261 4.381-2.612 7.409-6.335-.673-1.071-2.485-2.629-1.465-5.64.682-2.013 1.87-2.727 3.723-3.713 6.695-3.566 5.424-.933 6.913-4.153.449-.973.978-1.532 1.202-2.561l-5.058 2.059c-1.881.63-2.748 1.766-4.65 2.498-1.642.632-3.675 1.153-5.35 1.75-1.822.649-3.167 1.354-4.842 2.066-3.288 1.399-6.653 2.632-10.133 3.875-1.665.595-3.703 1.094-5.321 1.782l-4.726 2.189c-4.668 2.314-5.247 2.418-9.729 4.307-3.365 1.417-7.328 3.704-9.542 4.509l-20.457 7.607-.213.17c-1.836 0-8.865 2.046-10.823 2.687-1.718.562-3.442 1.314-5.096 1.794-3.433.998-7.826 1.818-11.604 1.851-1.233.011-1.759.236-3.172.236-3.675 0-7.718-1.001-11.069-2.428-.762-.327-1.605-.813-2.32-.971l-.158-.17-.671-.283-.177-.189-.211-.038-.212-.17-.635-.282-.211-.227c-1.075-.607-2.141-1.259-3.211-1.81l-.177-.189c-1.346-.902-3.248-1.657-4.589-2.373l-4.176-2.777c-1.543-1.091-2.414-1.963-3.672-3.316-3.109-3.345-4.665-2.683-6.275-7.776-1.013-3.209-2.315-2.569-.757-5.059.899-1.436.329-3.651 2.066-5.033.278-.222.197-.139.546-.325.044-.022.101-.047.146-.071l.293-.15c.491-.239.831-.572 1.42-.149 1.122.802-.863.895 2.87 4.202 1.641 1.456.04.837 3.702 3.284l6.344 4.082c2.59 1.478 2.386 1.067 3.519 1.669 2.153 1.14 6.482 2.276 8.963 3.091 2.718.892 8.496 2.216 11.244 2.2.688-.002 2.06.145 3.124.035l.211-.17c3.504 0 5.24-1.081 8.468-1.415l.212-.17c4.035 0 5.856-1.182 8.278-2.012 1.312-.45 1.805-.268 2.519-.929-4.196 0-8.044 1.039-11.981-1.448-3.222-2.036-4.975-4.714-5.801-8.509-1.697 1.215-2.464 3.118-6.985 3.621-1.657.186-2.75.516-4.352.781-4.076.675-2.528.124-4.593.124l-.16-.17c-1.545-.31-.882-.302-2.116.397l-.212.226c-1.641.841-3.663 1.599-5.877 1.08-3.416-.801-3.091-1.665-4.713-2.658-2.276-1.395-4.198-1.392-6.714-4.591-.727-.924-.69-1.505-.69-3.11-.962-.085-2.49-.605-3.302-.995-.974-.47-1.745-1.169-2.466-1.889-.858-.854-3.671-3.638-4.606-3.905 0 1.357-.097.765-.322 1.693l-.31 5.551c.018 2.418-.485 4.853-.9 6.959-.196 1.006-.528 2.132-.822 3.194l-2.091 9.306-.159.226c-.719 1.139-.577 1.774-2.169 2.093l-.265.17c-1.112 0-1.25-.188-2.165-.383-1.977-.425-.866.037-2.411 5.391-1.307 4.533-1.956 4.375-3.204 7.268l-.211.17c-.16.302-.135.243-.212.68l-.158.226c-.497 1.506-2.023 4.487-2.805 5.659-1.311 1.963-1.661 3.197-2.75 5.432l-1.443 2.756c-.535.945-.951 1.773-1.484 2.715-3.042 5.386-4.696 7.702-8.203 12.502-10.048 13.759-31.142 29.851-48.653 23.3-4.958-1.854-7.225-3.638-10.525-7.305l-.107-.114c-.029-.033-.075-.079-.106-.112-1.457-1.546-3.544-4.863-4.261-7.042l-.159-.17c-.177-.906-.636-1.874-.925-2.914-.832-3.002-2.84-8.149-3.215-11.323-.501-4.247 1.051-7.781 1.374-12.311.35-4.932.887-8.749 1.722-13.094.373-1.943.946-4.149 1.42-5.948l1.53-5.609.158-.226c.891-2.707 1.76-5.442 2.807-7.918 1.016-2.393 2.042-4.96 3.172-7.244l.16-.226c.42-.663.62-1.217.967-1.964 1.863-3.997 6.658-11.601 9.218-15.039l2.328-2.942c2.425-3.516 2.007-1.575 4.686-5.853-.419-1.921-.781-2.273-.006-4.306.52-1.359.82-2.112 1.748-3.11 2.891-3.101 4-4.75 6.78-7.688 3.264-3.449.397-.982 4.844-4.778.429-.366.886-.722 1.293-1.108.506-.483.66-.787 1.218-1.187l.212-.226c1.116-5.121-.67-8.397 2.694-11.83 2.215-2.258 6.9-3.328 8.372-4.626 1.18-1.041.022-2.138 1.275-3.843 1.386-1.886.63-.073.556-3.01-.067-2.721 1.156-4.292 2.768-5.204-.69-3.162-.057-4.988 2.33-6.336 0-4.644-.865-3.988 2.693-6.849.911-.734.929-.729 1.207-2.106.394-1.951.699-3.764.998-5.721.703-4.598 2.659-10.641 3.73-15.929 1.442-7.126 1.022-4.447 2.665-10.5 1.547-5.692.88-4.172 3.013-10.132 1.206-3.372 1.722-6.85 2.504-10.674.515-2.523 3.341-10.656 3.511-13.01.087-1.213-1.458-5.108 1.27-7.734l.16-.17c.786-.484 1.693-.919 2.476-1.48 2.268-1.63 1.287-3.461 2.222-5.772.32-.791 1.314-1.566 2.128-1.798-.158-.73-.461-1.025-.548-1.885l.771-6.252c.152-.723.403-1.211.539-1.91.144-.735.043-1.325.168-2.086.713-4.381 2.222-3.909 2.837-5.34.811-1.893.322-3.078.971-4.845.457-1.239.99-1.954 1.379-3.277l1.08-3.653.16-.17c.497-.787.734-1.69.918-2.706zM48.124 290.9c.753-.433 1.529-.735 2.199-.773l-.172.246-2.027.527zm221.058-20.262l.064.067c-.005-.004-.084-.045-.064-.067zm-31.118.282l.211.17c3.643.323 5.119 2.489 15.453 2.489 6.477 0 5.332-.122 11.645-1.811.989-.264 2.599-.815 3.597-.904l-.768.536c-2.686 1.528-13.977 5.897-15.825 6.392-4.321 1.155-5.472 1.269-9.879 1.659-5.607.496-6.802-.538-10.785-.949l-.264-.171c-1.711 0-3.628-.903-4.727-1.68-.672-.475-1.168-.897-1.867-1.398-.786-.564-1.243-.774-2.034-1.221l-.158-.227c-2.642-1.302-4.125-3.228-5.348-5.878-.564-1.219-1.732-4.463-1.707-5.888.018-1.059.314-2.263.529-3.299.285-1.372.956-4.697 1.816-5.752 0 3.728.682 4.2 2.368 7.197.722 1.284 1.067 1.761 1.952 2.892.515.66 1.886 1.617 2.604 2.195 3.851 3.103 5.147 3.426 9.533 4.517 1.131.281 2.46.891 3.654 1.131zM62.199 254.118l.16-.17c.518-.962 4.28-4.026 5.558-4.312 1.428-.32 1.675.105 2.373.757 1.231 1.149 1.676 2.605 2.745 3.852 1.654 1.929 3.038.683 4.989 1.683-.897 1.43-3.873 4.479-5.028 5.714l-3.952 3.923c-.591.495-.965.799-1.539 1.297-3.164 2.747-8.923 6.733-13.402 7.848 0-7.122 1.067-11.062 4.835-16.554 1.005-1.464 2.16-2.621 3.261-4.038zm206.983-3.394c1.081 0 .351-.004.634.227-1.117 0-.315-.002-.634-.227zm1.06.227c.042-.032.117-.122.136-.079.027.056.148-.075.266-.169.218-.173.119-.057.341-.314l.526-.797c.113.517.163.521.212 1.132-.623.155-.647.227-1.481.227zm-1.06-.227c-.863-.077-.861-.116-1.058-.906.459.329.731.427 1.058.906zM40.978 269.506l-.16-.226c-2.172-6.596-1.303-4.786.526-7.529 1.53-2.291 3.532-5.497 4.574-8.009.878-2.113 1.657-3.821 2.72-5.691 1.283-2.249 1.654-3.534 1.654-7.058 2.197 0 5.725.887 6.492 2.792.377.934.404 1.89.017 2.806-1.009 2.377-2.8 2.911-5.33 7.428-2.85 5.089-5.373 11.616-4.75 17.946.092.934.397 1.871.397 2.973-2.958-.264-4.919-2.964-6.14-5.432zm200.05-3.112l.211.17c2.226 0 4.671.703 8.041.683l8.471-.005.211-.169c2.567-.265 5.733.141 9.082-.984 2.828-.951 4.937-1.74 7.854-2.467-1.922 3.068-16.557 6.647-20.11 6.28l-.212-.171c-2.677 0-4.946-.026-7.409-.282l-.211-.169c-2.017 0-8.192-1.96-10.558-2.745-4.552-1.509-4.394-.292-9.47-3.909-3.412-2.431-4.299-3.472-6.235-7.364-.725-1.458-.589-4.384.149-5.976l1.067-2.478c.357-.771.978-1.518 1.758-1.742-.409.915-.819 2.958-1.044 4.087-.347 1.733-.354 3.165.119 4.824.531 1.856.637 2.142 1.594 3.501 1.5 2.128.918 2.802 3.495 4.185 2.852 1.528.759 1.073 5.23 2.554 2.538.842 5.349 1.907 7.967 2.177zm-201.744-5.26c0-5.743 1.455-16.025 3.811-21.273 1.907.475 1.977.68 4.446.68.858 3.942-1.586 5.374-3.84 11.282-.974 2.547-1.893 3.002-3.328 6.854-.203.544-.273.759-.476 1.301l-.614 1.156zm237.943-21.273c.519-.117.552-.27.982.073.266.211.499.661.499 1.059 0 1.065-.82.512-1.481.453v-1.585zm-31.331-.905c2.868 0 4.672-.101 7.16-.493a62.47 62.47 0 013.43-.405c1.175-.108 2.322-.365 3.381-.46 1.704 2.72 1.192 1.6 2.753 4.753-.693 1.105-2.728 4.354-3.599 4.977-1.836-.522-4.15-4.14-5.642-5.057-1.211-.745-2.368-1.093-3.736-1.663l-3.747-1.652zm-11.854-1.132c0 2.188 1.467 1.415 1.905 3.169-1.868.465-4.003 1.798-5.547 2.896-3.82 2.718-1.684 1.189-4.615 2.76-.354.191-.373.211-.634.454 2.934 0 1.389.927 7.012-1.103.888-.322 1.505-.47 2.471-.753.387-.113.853-.333 1.278-.447 1.198-.323 4.763 1.039 7.232-2.902l7.563 3.231c1.875.794 1.885.868 3.18 2.256 1.046 1.121 1.574 1.778 2.806 2.659-.234 1.073-.893 1.665-1.36 3.979-.445 2.209-.545 3.48-.545 5.752 0 2.569.636 3.718 1.058 5.658-4.929.626-7.068-.209-11.914-.844-3.189-.417-6.362-.719-9.337-1.784-3.153-1.128-5.648-1.335-7.39-3.869-.863-1.256-3.112-4.165-3.303-5.294-.431-2.559-.141-5.44.996-7.715l3.344-4.345 6.011-4.888c-.11.507-.211.52-.211 1.13zm4.022-.904v-.453c1.138-.284.816-.678 2.329-.678v.678c-1.029.256-.957.453-2.329.453zm27.52 2.716c-.211-.97-.465-1.491-.847-2.264 1.892-.169 2.812-1.849 4.022-2.715.33.525.675.892.846 1.584-.75.537-1.343 1-2.068 1.635l-1.953 1.76zm38.527-1.812l-.211.171c-.551 1.021-3.874 2.887-5.039 3.722-.924.663-1.588 1.136-2.49 1.862-.673.54-1.922 1.737-2.632 1.941l3.803-4.76c1.679-1.273 2.818-1.628 5.124-3.575 1.091-.924 1.793-2.168 2.927-2.981-.238 1.097-1.019 2.687-1.482 3.62zm-63.083-1.583c-.081-.18.184-2.208-2.118-2.263l3.811-2.941c1.045 2.328.498 1.205 2.117 2.035l-1.538 1.979c-.605.783-1.257.937-2.272 1.19zm40.645-3.395c.631.252.329-.486.423.679-.256-.301-.229-.287-.423-.679zm-30.061-.453l.212-.17c1.018-.904.415-.918 3.717-.409 1.402.215 3.042.127 4.538.127v.905c-4.431 0-6.395.906-9.737.906l1.27-1.359zm33.447 1.132c0-.952-.088-.913.212-1.584l.838.254c-.215 1-.061 1.084-1.05 1.33zm-22.229-.509l-.158-.17-.063-.905c3.134-.003 1.421-.012 3.187-.452l.67.87c-.657 1.025-1.638 1.393-3.21 1.393-.198-.303-.249-.411-.426-.736zm9.528.736c-.739-.529-.852-.74-1.27-1.584 1.069-1.707 2.125-3.726 2.328-6.336 2.421 1.369 2.327 1.253 3.811 3.62-.132.267-.199.451-.373.733l-4.496 3.567zM246.53 229c.032 1.529.068.482.322 1.053.154.351 1.218.53-1.379.53-1.624 0 .765-2.262 2.329-2.262.596 0 .392.097.635.452-.558.246-.9-.191-1.907.227zm49.326 7.92l-.212.225c-2.661 1.906-5.69 6.492-7.047 9.892l-2.81 5.597-4.784 5.748c-5.151 3.838-10.686 4.698-16.729 6.33-2.334.63-4.677.721-7.581.721 0-1.431-.278-2.653-.131-3.746.721-5.385.042-3.605 2.369-7.665.312-.542.434-.798.725-1.262 2.27 1.625.709 2.003.319 4.206-.736 4.155 6.1 5.157 6.053-.814-.012-1.319-.208-2.027-.958-2.617-1.589-1.244-.472-.47-1.567-1.944-.563-.759-1.231-1.202-1.73-1.999.157-.625 2.079-3.893 2.964-4.526 2.527 4.034 2.509 2.1 1.915 4.543-.483 1.987.955 4.286 1.922 4.933.955.637 5.122 1.856 5.07-3.599-.029-3.153-.667-1.086-3.95-5.744l-1.993-2.848c1.554-.879 2.801-2.446 3.81-3.168l1.76 1.966c1.058 1.138.114 3.48 3.406 4.072 2.019.364 4.052-1.207 4.158-3.333.056-1.104-.432-2.14-1.025-2.978-.756-1.067-1.304-.769-2.569-1.1-.752-.198-1.464-1.294-1.92-2.021.712-1.04 3.769-2.21 4.235-4.074.947.236.679.45 1.481.678-.668 3.071.887 1.897 1.391 5.53.503 3.627.394 4.933 1.996 5.334 1.591-1.478.847-2.625.847-6.112 4.372-1.087 3.379-8.128.635-8.372.438-2.006 4.155-2.992 4.233-6.788.905.707.991 2.662 2.766 2.927 2.107.317 3.436-.135 3.797-1.797 2.054 1.471 1.711 4.137 4.883 4.305 2.399.124 4.806-1.912 4.854-4.305.63.494.394-.07.412 1.081.004.168-.034.484-.034.531l.003.336c.049 2.804-2.957 6.483-5.073 7.97-.691.487-1.374.751-2.071 1.181-1.398.859-2.519 1.775-3.82 2.706zm-26.674-7.242c-1.501-1.075-4.381-6.213-5.292-2.037h-.634c.09-1.178 2.891-5.895 3.176-6.108.315-.237 1.699-1.029 2.115-1.133.856 1.367 1.472 2.93 2.752 3.847-.891 4.094-.322 2.566-2.117 5.431zm-11.643-2.262l-.423.169-1.058.067 4.208-3.657c.495-.307 1.349-.508 1.93-.652-.894 1.425-1.151 2.866-1.694 4.073h-2.963zm-3.97-7.243l.159-.225c.438-.247.503-.314 1.06-.453-1.581 2.524-.84.584-2.513 2.972-.866 1.234-3.17 4.025-3.627 5.854-.816-.639-.391-.982-1.906-1.358l3.445-3.335c.961-1.025 1.618-2.366 3.382-3.455zM84.216 230.81l.158-.17 1.34-3.377a50.248 50.248 0 001.386-3.271c.442-1.165.858-2.307 1.267-3.398.483-1.293.893-2.195 1.389-3.493.787-2.065 2.704-4.259 4.834-4.575 1.595-.237 2.452.389 2.992 1.449.546 1.075.912 4.395.347 5.969-2.961 8.259-4.154 10.664-7.978 18.185l-3.46 6.032c-1.425-.355-1.796-1.174-2.75-2.491-1.802-2.488-3.918-3.98-1.544-7.304l2.019-3.556zm208.463-12.899c0-.723.909-.988 1.483-1.131.468 1.043 1.482 3.595 1.482 4.752-1.084-.557-1.17-.214-1.916-1.347-.221-.339-1.049-1.786-1.049-2.274zm3.812-2.49c2.418-.215.757-1.234 3.721.097 1.898.851 4.324 1.91 4.324 4.655 0 2.521-.834 3.396-2.965 3.396-1.146 0-1.328-.652-1.784-1.488-.41-.755-2.904-3.385-3.296-6.66zm-24.768 3.848l-1.956-1.984 2.167-3.447-.211 5.431zm2.168-6.563l.16-.226c0-3.184.725-4.883 3.795-4.284.959.187 1.412 1.259 2.13 1.797.784.588 1.596 1.103 1.979 2.186.769 2.186-.167 5.868-.775 7.244-.742 1.682-1.836 4.091-1.836 6.409-1.6-1.146-3.226-2.904-5.293-4.074 0-1.509-.004-3.018.001-4.525.006-1.791-.304-2.932-.161-4.527zm10.745 1.132l-.159-.225-.063-.905c1.81 1.285 2.018 7.11-.463 9.902-.455.512-.619.634-1.008 1.185-.392.556-.502.733-1.059 1.131.672-3.084 2.752-5.001 2.752-11.088zm7.197-.906c.459.565.555.477 0 .906v-.906zm-3.81 0l.064.069c-.006-.006-.085-.045-.064-.069zm3.81 0l-.244-.441.244.441zm12.703 1.076l-.16-.17c-.546-.337-1.187-.625-1.534-1.132 1.28-.318 1.591-.998 2.375-1.512.883-.578-.183.135.799-.299-.295 1.363.182 4.239.212 5.658l-.759-1.224c-.331-.551-.51-.914-.933-1.321zm-17.36-3.113l.062.069c-.003-.006-.083-.045-.062-.069zm-24.98 7.695l-.212.17c-1.433.288-2.516 1.054-4.022 1.188.253-1.155 1.339-2.678 2.061-3.457.657-.708.696-.886 1.562-1.271.76-.337 1.238-.586 1.934-.929l.16-.227c.653-.37 1.102-.589 1.785-1.033.677-.439 1.033-.699 1.739-1.083 1.405-.76 2.235-1.32 3.885-1.731-.285.455-.527.68-.85 1.129-3.051 4.244-1.018 1.808-4.791 6.193-.726.844-1.736 1.014-3.251 1.051zm21.169-11.315c1.815.162 3.448 1.73 3.811 3.394-.68-.486-1.138-1.114-1.743-1.758-.409-.437-.408-.462-.919-.827-.238-.172-.352-.23-.523-.346-.038-.025-.093-.059-.131-.087l-.495-.376zM61.3 205.916c-.433 1.987-1.078 3.182-1.26 5.67-.154 2.107.262 7.017-1.23 9.548-1.548 2.624-2.494 1.163-4.923 1.081-1.666-.056-1.448-.36-2.749-.683l3.43-6.066c.477-.764.824-1.231 1.315-1.988.903-1.394 1.599-2.495 2.543-3.844.574-.817 2.29-3.299 2.874-3.718zm75.363-.451c1.073.607 1.332.68 2.964.68l.212-.172c.77-.153 1.619-.489 2.302-.761 1.44-.573.982-.834 1.931-1.104.136.622.287 1.187.423 1.808-1.89 1.354-4.008 1.814-6.33.885-.64-.258-1.307-.551-1.502-1.336zm122.781-.227c-.558.891-1.455 1.66-2.116 2.715-.657-.162-.614-.289-1.27-.452.185-.74.348-.744 1.477-1.36.617-.338 1.166-.718 1.909-.903zm-122.781.227l-.213-.227.213.227zm127.016 1.81l1.533-1.754a12.187 12.187 0 001.43-1.866c.9.223 1.839.371 2.841.583 1.068.227 1.791.548 2.875.548v.227c-1.609 0-3.054.566-4.369.988l-4.31 1.274zm-116.643-2.489l.062.067c-.004-.004-.083-.045-.062-.067zm-10.161-.905c.247-1.135 1.185-2.007 2.109-2.515.553-.303.44-.283.967-.282 1.963.004 2.432.553 3.698 2.571-3.712 0-3.727.496-6.774.226zm-72.029-.454l-.16.228-.672 4.937c-.158 1.485-.35 3.816-.116 5.637.201 1.567.157 3.583.149 5.497-.008 2.17.795 8.584-.303 10.756-1.996 3.951-11.255-.814-12.606-1.086l-.158-.17c-1.514 0-2.626-.082-3.862.226.662-1.341 2.017-4.916 2.963-5.657 1.407.351 1.327 1.401 3.467 1.951 3.152.811 4.569 2.122 7.037-1.812 2.417-3.853 1.689-11.009 2.286-14.527.627-3.696.652-7.254 2.664-8.695-.223 1.02-.555 1.526-.689 2.715zm210.475-11.935l.212.17c1.188.294 3.116 1.389 4.023 2.035 4.077 2.904 5.882 3.148 7.771 4.365.811.522.873.773 1.859 1.181.945.39.324-.099.927.592 1.471 1.68 2.235 2.31 3.618 4.279 1.78 2.535 6.376 4.132 8.537 5.374 1.275.733 1.92-.241 3.748-.402v.453c-1.896.168-6.07 2.217-8.403.836a14.947 14.947 0 01-2.18-1.571l-.16-.17c-1.344-.83-1.035-.602-1.745-2.037l-.213-.227-.422-.905-.159-.227c-.68-1.072-1.063-1.534-2.194-2.012-1.735-.734-.894.047-2.951-1.145-2.222-1.286-4.198-.301-6.469.305-3.631.969-2.165 2.805-8.621-.692-.738-.4-2.023-1.13-2.894-1.208.072-.923.696-1.509 1.064-2.259l1.968-4.684c.366-.923.434-2.017.779-2.787.939.083 1.058.417 1.905.736zm-144.375 5.374l4.178 2.324c.607.55.508.837 1.326 1.07-.185.744-.284.66-.79 1.19-1.02 1.065-2.044 2.809-2.173 4.466-1.129-.808-2.877-2.894-3.754-4.133-.728-1.03-1.401-1.188.362-3.79.327-.483.548-.642.851-1.127zm-3.598-.68l-.115.487.115-.487zm73.617 19.688l-.16.17c-.87.175-1.678.478-2.373.686-2.997.901-3.797 1.189-6.801 2.69-8.93 4.46-14.745 4.723-23.806 7.363-2.819.821-3.212 1.427-4.277-.272.321-.397.287-.281.423-.907 2.205 0 3.307-.812 4.958-1.488 2.73-1.117 5.096-1.412 7.506-2.386.799-.324 1.43-.759 2.322-1.138 1.515-.647 3.148-1.2 4.782-1.903 5.928-2.549 3.97-1.617 9.673-3.464.963-.309 1.402-.629 2.272-.966 1.924-.745 5.871-2.183 7.863-2.232l.211-.17c1.511-.302 2.269-.847 3.676-1.331l7.33-2.575c1.284-.507 2.497-.822 3.785-1.383 1.977-.863 4.773-2.444 6.599-3.583 1.014-.631 2.267-1.098 3.381-1.59l3.859-1.361.16-.17c1.533-.639 3.479-2.848 8.8-4.454 1.71-.516 3.209-1.022 4.678-1.793 1-.525 1.135-.864 2.033.007.592.574 1.208 1.246 1.425 2.109-.603.879-2.787 2.256-3.729 2.579-5.779 1.983-7.374 3.821-13.895 5.285-7.982 1.796-6.787 2.902-12.144 4.897-2.832 1.055-7.428 2.023-9.681 3.23-2.374 1.27-6.009 3.919-8.87 4.15zm39.663 11.788l-.201.015c-.153.013-.525.167-1.064.372.405-.106.825-.234 1.265-.387zm-113.28-31.476v-1.583c.503.361.22.274.847.452-.376.759-.157.639-.847 1.131zm-27.097-6.109h.424c.029 1.401 1.058 3.776 1.058 10.635 0 3.918-.732 7.175-1.428 10.694l-.9 3.337c-.015-.702-.105-.832-.202-1.389-.178-1.014-.164-.5.014-1.295.272-1.211.097-1.806.194-3.194.067-.958.442-1.943.572-2.782.978-6.362-.593-12.053.268-16.006zm47.683 10.409l-.263.17c-.994.374-1.242.536-1.482 1.641-1.114-.798-.378-.782-2.687-2.106-.501-.288-2.087-2.29-3.79-3.643-.567-.451-.979-.672-.95-1.703.049-1.646 1.256-2.135 2.083-3.014 1.318-1.4 3.813-3.66 5.678-4.113 4.362-1.064 4.766-1.974 7.336-2.568 4.352-1.003 4.204-.102 6.302 2.89 3.946 5.631 3.473 5.995-4.866 9.96-.515.245-.99.514-1.559.823-2.578 1.401-2.658 1.58-5.802 1.663zm-30.958-8.655l.248.495c-.332-.25-.134.027-.248-.495zm.423-2.207c0-.497 1.367-.678 1.905-.678.908 0 5.439 3.566 6.356 4.294 2.561 2.028.622 4.95.418 5.889-1.574-1.127-5.106-6.301-8.045-6.563-.028-1.358-.634-1.871-.634-2.942zm-41.44 2.038l.16-.227c1.377-2.785 1.939-2.417 2.963-2.943-.08 1.023-.925 2.983-1.239 3.881l-3.842 11.508c-1.112-.027-.808-.232-1.692-.454 0-1.912.317-5.388.91-6.719.797-1.787 2.112-3.14 2.74-5.046zm-23.339 1.809l-.21.226c-1.241.888-2.157 1.965-3.232 3.109-.635.674-.864 1.124-1.479 1.814-.418.467-1.126 1.381-1.43 1.866l-.21.17c-.345.64-.744 1.087-1.183 1.734-1.895 2.785-1.489 3.583-4.598 7.53-2.48 3.148-1.704 2.608-3.494 5.772-.751 1.327-1.372 2.522-2.119 3.844-2.256 3.988-2.261 4.776-3.852 8.555a110.584 110.584 0 01-1.903 4.302c-1.843 3.904-1.837 6.024-2.88 9.367-.894 2.864-2.407 6.505-2.785 9.47l-.692 11.721c.005 1.358.212 1.643.228 2.925l4.497 14.269-.397 1.759-4.745-5.327c-1.649-1.181-4.13-17.748-4.3-19.949l-.17-6.551.159-.17c0-14.945 6.05-27.239 12.143-40.371.407-.877.777-1.415 1.203-2.335 1.897-4.097 9.179-16.022 12.44-18.609.765-.604 1.111-1.048 1.76-1.74 2.05-2.186 2.861-4.992 5.723-2.384.736.672 1.158.937 2.128 1.345 1.303.547 3.44 1.509 3.845 3.133-.565.901-1.344 1.497-2.064 2.32l-2.383 2.205zm62.873-5.883l-.254-3.164c1.091-.004 1.221.034 2.016.376l1.626.75c-1.618.145-2.571 1.034-3.388 2.038zm108.122-2.038l-.159.227c-1.373.777-2.377 1.467-3.681 2.4-1.252.895-2.458 1.56-3.716 2.365-4.379 2.805-3.072 1.747-6.626 5.591-.846.915-4.588 3.704-5.177 3.968-1.362.606-2.351.131-6.626 2.422-1.47.788-2.588 1.39-4.235 2.037-2.851 1.12-6.465 1.517-9.691 2.311-4.881 1.198-6.83.577-10.904.019-2.123-.29-6.152-1.324-7.293-3.295-2.135-3.694.519-1.342.164-8.999-.065-1.372-.43-1.285-.43-2.934.745.212.811.606 2.029 1.451 2.189 1.519 4.916 3.068 7.709 3.357l.211.17 3.754.29c1.697.249 2.08-.078 3.863-.069 6.385.028 15.622-1.307 21.383-4.071l5.901-2.518c2.04-.817 3.798-2.123 5.818-2.833 1.179-.414 2.1-.592 3.228-1.074 1.126-.482 1.675-.961 2.914-1.411 2.396-.874 4.431-.988 7.545-.988v.228c-2.382 0-4.572 1.043-5.981 1.356zm6.192-1.81h1.059v.226h-1.059v-.226zm2.118-.226c-.397.268.473.255-.424.187-.451-.033-.19-.028-.423-.187h.847zm0 0c.647-.439 3.951-1.336 4.868-1.357-.919.854-3.685 1.357-4.868 1.357zm-73.395-2.517c0-.035-.042.113-.063.084l.063-.084zm-.486-3.593c-.337.679-2.092 3.495-2.54 3.847-1.206-.681-.847-.532-.847-2.49 1.184-.294 2.335-1.263 3.387-1.357zm-50.542-8.599l.158-.227c.049-.611.099-.615.212-1.13.432.529.576 1.381 1.148 2.393.496.88.974 1.575 1.181 2.641l.159.17c.409 2.327 2.447 8.335 2.364 11.537-.004.08-.025.31-.025.379.003.921.091.03.236 1.212l.443 11.54c-.063 1.334-.439 2.788-.637 4.073-.194 1.265-.634 2.762-.634 4.072h-.212c0-1.603.098-2.586.202-3.859.136-1.695-.207-2.506-.21-4.053-.012-8.973.416-10.841-2.292-19.049-.443-1.347-.885-1.685-1.511-2.684l-.212-.226c-.869-1.388-1.606-.916-1.283-2.93.273-1.703.426-2.379.913-3.859zm-41.121 21.272l-.212.17c-.894.795-1.296 1.303-2.963 1.13l-.266-.169c-1.506-.489-1.698-2.481-3.067-3.906-.703-.731-.983-1.192-1.53-1.983-1.336-1.922-1.717-.865-4.121-2.837-.41-.339-.608-.512-.976-.768-2.625-1.81-2.568-.341-4.023-1.131-1.03-.56-.448-1.235-1.895-1.595 1.547-3.124 1.255-2.007 2.918-3.67l3.058-3.972c.8-.932 1.542-1.25 2.313-2.281.688-.918 1.215-1.838 2.079-2.529.86-.687 1.654-1.33 2.518-2.06 2.495-2.108 1.866-2.012 5.161-4.044l.16-.17c.837-.744 1.526-1.342 2.357-2.061.708-.613 1.604-1.571 2.3-2.068l.212-.17c.674-.599 1.88-1.618 2.75-1.867.758.542 3.12 3.092 3.689 3.977 1.061 1.651 1.858 3.165 3.018 4.694 3.174 4.179 1.068 1.546 1.876 3.879.138.399.467.609.714 1.275.768 2.089.316 6.964-.318 8.67-.605 1.625-6.01 5.208-7.231 6.527-3.146 3.394-4.316 3.333-6.437 5.115-.658.553-1.468 1.403-2.084 1.844zm131.884-16.294c-.081-1.041-.828-2.235-1.27-2.941.986 0 1.99.021 2.973.009 1.203-.017 1.459-.236 2.743-.236l-4.446 3.168zm-97.643 0l-.159.227c-.718 3.296-5.876 17.11-7.226 21.467-.612 1.975-1.937 5.48-2.14 7.724l-.16.226c0 2.162-1.032 5.677-1.755 7.63l-5.587 13.263c-1.689 3.608-2.21 5.92-4.66 9.502-.93 1.361-3.447 3.893-4.85 4.32-2.193.668-2.544.49-3.602-.403-1.85-1.56-1.587-5.889-1.163-8.087.555-2.881 1.71-4.69 2.193-7.442l.16-.17c.146-2.072 2.057-7.027 2.751-8.881.532-1.42 1-2.857 1.455-4.328 1.449-4.664 3.039-7.458 4.475-13.322l2.053-6.63c.315-.849.578-1.44.75-2.422l.158-.172c.082-1.14.717-2.823 1.028-3.71l2.428-6.91c.574-1.233 3.2-4.176 4.255-4.955l5.697-3.414c1.731-.943 1.513-.755 3.952-.755.545 2.5 2.152.548-.053 7.242zm191.211-.396l.265.17c1.508 0 7.043.925 10.32.908 3.807-.023 7.623-.002 11.432-.002-1.44 2.299-2.557 4.251-2.952 7.48-.254 2.073-1.231 5.531-1.647 9.103-.62 5.347-.327 4.154-2.249 8.231-1.307 2.774-3.182 4.107-6.579 3.57-2.82-.446-1.813.402-3.692-1.259-.545-.481-.833-.781-1.362-1.26-2.831-2.56-3.61-4.162-6.993-6.104-2.303-1.321-4.526-2.302-6.692-3.707-.905-.588-6.411-3.084-7.209-3.156l1.923-10.617c.741-3.945 1.344-7.195 1.04-11.106 1.561.444 4.456 3.902 6.048 5.076 1.453 1.072 6.317 2.412 8.347 2.673zm-63.084-7.749c.021-.023.063.034.063.066-.003-.004-.084-.045-.063-.066zm-19.052-.057l-.062.309-.098-.309h.16zm-20.535-1.529c.427.335.689.726.847 1.359-.836-.074-.992-.226-2.116-.226.485-.774.51-.702 1.269-1.133zm12.068 4.923l-.212-.17c-.869-.076-2.108-.637-2.938-.934-3.454-1.231-4.478-.997-5.534-2.682-.212-.337-.561-.864-.832-1.147-.416-.435-.731-.58-1.07-1.12 1.118-.32 2.039-1.473 2.97-2.031.495-.297 3.271-1.071 4.016-1.137.285.633.131.842.506 1.497.307.537.734.722 1.063 1.126 1.004 1.23.299 4.17 4.156 3.742 1.432-.158 2.435-.605 3.589-.708 0 1.147-.211 1.232-.211 2.489-1.62.916-1.722 1.445-2.361 1.79-.772.417-2.063-.498-3.142-.715zm-17.572-4.242l-.211.17c-.947.628-3.176.439-3.933 1.281-.36.4-.15.159.08.521.142.223-4.03 2.554-7.155 2.554l1.572-1.263c1.559-1.096 4.246-1.939 5.748-2.906 2.551-1.646 3.435-1.516 6.017-2.621.643-.276 1.481-.747 2.117-.905-.253.745-3.598 2.807-4.235 3.169zm4.235-3.169c.042-.032.112-.127.133-.083l1.48-.681c.539-.166 1.409-.354 1.984-.368v.453c-1.253.03-2.882.995-3.597.679zm21.804 4.017c.069-3.001 1.119-2.711 3.633-4.659 1.58-1.225 2.291-2.693 3.4-4.287l.089-.13c.29-.405.112-.157.288-.372 0 3.625 1.013 1.347-1.148 4.883-.338.553-.491 1.027-.763 1.448-.421.655-5.285 3.084-5.499 3.117zm10.584-6.281c1.069-2.16 2.54-5.124 2.54-8.372.656.512.622 1.445 1.138 3.082.306.975.906 2.527.98 3.481-1.41.351-2.913 1.655-4.658 1.809zm8.68-4.978c.225-.241.803.358.236.118-.005-.001-.591.261-.236-.118zm-160.093-.453l-.159.17c-.822.31-1.294.633-1.998 1.09-.616.398-1.446 1.066-2.024 1.229.14-.638.27-.953.475-1.583l.16-.17c.235-1.2.378-2.72.636-3.903 1.946 0 5.131 1.102 5.927 2.263-1.543.037-1.882.652-3.017.904zm150.143 1.584c-.775-.22-.444-.237-1.058-.678.256-1.175 1.107-3.275 1.905-3.847 0 1.85-.735 3.08-.847 4.525zm-113.467 2.717c.45 1.002.337 1.698-.375 2.313-.233.204-.595.456-.861.665-.265.209-.631.49-.881.642-.928.567-13.754 3.273-15.02 3.162-3.347-.291-3.49-1.424-4.876-4.296-1.547-3.205-5.961-7.746-6.778-9.05.778.222 1.842 1.392 2.62 1.95l6.107 2.979c1.404.348 2.472.488 3.845.868 1.98.547 5.837.843 8.364.517.828-.105 3.589-1.219 5.342-1.531.776-.139 1.301-.186 1.878-.483.171.346.333.644.504 1.071l.169 1.063a.413.413 0 01-.038.13zm-28.79-6.564l-.213-.226.212.226zm138.024-.678l-4.022 6.789-.561-.533c-.018-.028-.044-.1-.074-.145-.13 1.264-.074.317-1.268.906-.589.293-.783.722-.85 1.582-4.405.392-2.581 0-5.081 0l.755-1.23.11-.109 1.413-1.431c.355-.335.396-.316.716-.593l2.21-1.711c1.447-.947 4.944-3.1 6.652-3.525zm5.151-.314c.128-.234.158.56-.071.133l.071-.133zm-117.984-.591c.58-.131.419-.233.87-.01.99.484.833 2.074-.657 2.5 0-1.261-.094-1.504-.213-2.49zm151.996 28.513l.211-.17c2.352-2.088 4.711-6.57 4.864-10.019.065-1.439.154-1.567.348-2.796.143-.913.083-1.847.035-2.781-.201-3.777.973-8.971 2.932-11.925.34-.512.086-.32.742-.564.307-.115.831-.211 1.197-.304.742-.192 1.532-.381 2.313-.696.77-.312 1.312-.488 1.968-.838.662-.354 1.237-.831 2.114-.909-.067.848-.284 1.141-.474 1.983-1.128 5.027-.268 7.016 1.829 10.373 2.343 3.752 2.773 2.906 2.684 4.827-.139 2.961-1.36 7.828-2.266 10.736-.446 1.427-.818 2.519-1.139 3.989-1.157 0-3.35.664-5.022.966-1.815.328-2.938.843-4.639 1.377-.883.279-1.429.458-2.286.726l-4.396 1.638c-.902.269-1.59.446-2.438.786-1.524.613-2.765 1.2-4.267 1.775l-6.411 2.653c-1.985.852-6.562 3.287-8.433 3.882-5.039 1.603-10.097 4.029-14.819 6.562l-14.697 6.468c-1.136.504-1.12.548-2.661.548l2.785-2.227c.632-.325 1.019-.334 1.654-.722 3.238-1.971 4.123-3.935 6.511-6.391 2.263-2.329 3.487-2.473 6.471-3.718 4.565-1.904 6.695-3.764 10.951-4.133 2.241-.195 10.449-2.14 12.247-2.751 2.208-.748 5.192-1.856 7.08-3.067 3.866-2.481 3.813-4.421 5.012-5.278zm-145.646-21.045l-.211-.226c-.706-1.127-.724-1.37-1.906-2.037.214-.854 1.362-2.18 1.287-5.21-.037-1.443-.543-1.892-.581-2.52-.048-.804.682-1.237.776-2.453h.424c.351 1.609.454 3.409.843 4.981l3.839 13.548c.819 2.619 2.232 5.937 2.532 9.061.238 2.46 1.673 7.401 2.524 9.295-1.257 0-1.815.205-2.753.227-.254-3.285-1.892-10.7-4.176-13.187-.611-.666-.756-.835-1.295-1.557-1.815-2.423-1.361-.341-.924-3.646.158-1.191-.122-1.529-.133-2.232-.017-1.149.452-.706.376-1.977-.026-.451-.455-1.698-.622-2.067zm147.922 4.073l-.159.169c0 1.39-1.369 7.945-1.833 8.959-.508 1.111-4.06 4.052-5.911 4.546-1.421.378-2.717 1.027-3.928 1.232-9.958 1.678-8.073-1.356-22.486 3.117-4.297 1.334-10.432 4.038-14.602 6.116-1.305.651-2.448.932-3.771 1.4-1.36.482-2.512 1.301-3.78 1.616l-.212.169-7.107 2.643c-2.062.851-5.295 1.626-8.258 1.167-2.605-.402-6.097-.615-8.106-1.516l-7.224-2.745-.213-.171-4.968-1.476c-.49-.26-.679-.661-1.169-1.013.193-.892.229-1.082.213-2.26-.036-2.541.267-2.141 2.286-5.477a48.448 48.448 0 001.806-3.274c.511-1.018 1.466-2.499 2.31-3.019l.201-.17.169-.283c.486-.348.534-.394 1.111-.679l.159-.225c2.4.213 3.597 2.482 9.318-.222l4.838-2.194c.437-.011 3.123.843 3.672 1.009.879.264 2.954.768 3.5 1.238l2.223 2.601c.872.933 1.706 1.619 2.276 2.772-1.145.819-1.962 1.671-2.913 2.769-1.635 1.885-3.506 5.19-4.408 7.51-2.209 5.689-.062 2.54-.107 3.221-.002.01-.348-.358.272-1.209.344-.473.706-.909 1.066-1.376l4.339-5.319c.433-.483.693-.777 1.205-1.202.588-.488.878-.857 1.392-1.227 0 2.743.083 1.547-.552 3.031-1.568 3.656 3.228 7.961 6.133 1.576.396-.869.844-1.983.358-3.027-.639-1.375-1.511-.779-2.073-1.636-.152-.233-.377-.891-.544-1.229-.348-.696-.439-.655-.782-1.204.756-.215.561-.442 1.959-1.131l.159-.225 1.271-.679.211-.227c.84-.475 1.558-1.033 2.328-1.584l.212-.226.84-.466c.006 1.092.179 1.797.166 2.503l-.16.226c-.442 2.028-.692 3.337.673 4.711 1.073 1.078 3.17 1.353 4.24.086 1.774-2.095 1.617-8.112-1.736-8.192-.068-.872-.213-.73-.213-1.809 1.047-.262 1.492-.894 2.328-1.133l.213-.169c1.84-.693 3.869-2.322 4.658-2.546-.118 1.485-.658 1.336-1.516 2-5.068 3.917 1.684 10.332 5.112 4.56 1.147-1.931.975-4.804-.422-5.203.323-4.156.104-3.931 1.694-4.072-.479.699-.541.303-1.059 1.13 2.722-.064 4.587-2.061 5.294-2.262-.289.64-.109.901-.516 1.487-.145.208-1.985 1.381-2.407 3.996-.554 3.436 1.714 4.238 4.403 3.568l.212-.17c1.097-.456 2.426-2.182 2.796-3.405.736-2.438-.024-3.721-1.526-4.571.315-1.443.315-2.63 0-4.074.897-.506 1.951-1.483 2.755-1.84 2.326-1.036.926 1.917.844 2.293 1.072 0 1.089-.153 1.905-.226.474 2.175-.799 2.665.143 5.28 1.414 3.932 6.426 1.273 5.929-2.697-.106-.848-.39-1.852-.833-2.299-.864-.872-.874.145-1.851-1.415h1.481c-.677-1.368-1.423-2.263-3.387-2.263.522-.763 3.093-1.359 4.235-1.359l3.88 7.167c.753 1.547 1.319 2.29 2.965 2.176 4.749-.329 7.18-3.141 8.524-8.075.796-2.925.084-7.782.084-10.999 2.455.612 2.427 4.909 2.09 8.347-.137 1.41-.702 2.999-1.034 4.325-.432 1.725-.495 2.648-.685 4.754zm-32.338-15.785v.114c-.277.074-.212.134-.212-.17l.212.056zm-120.24.396c.017-.847.345-2.261 1.011-1.548.612.654-.505 1.262-1.011 1.548zm91.874 10.183c.363-1.662 2.016-1.884 4.391-4.358 1.764-1.838 5.165-3.653 7.759-5.509 2.646-1.893 2.663-2.035 6.074-2.785l3.581-.924c.349.558.729 1.058 1.058 1.583-2.213 1.253-.391.487-2.99 1.33-1.41.458-7.39 3.476-8.614 4.369-1.002.732-1.455 1.164-2.311 2.057-.779.811-1.484 1.274-2.525 1.826-1.415.748-4.61 2.369-6.423 2.411zm-122.781-12.22l.063.068c-.005-.004-.085-.044-.063-.068zm142.68-2.715c.119 0 .345-.004.41.015.383.119.225.063.436.211-.117 0-.344.006-.408-.015-.375-.114-.235-.073-.438-.211zm-.847-.225c.246-.263 1.208.381.266.091-.026-.007-.633.302-.266-.091zm-109.656 0c.322-.718.212-1.032.212-2.037 1.102.315 1.353 1.636-.212 2.037zm119.395-.905l.062.067c-.003-.004-.084-.046-.062-.067zm111.138 4.752c0-3.041.177-7.542 1.058-9.504.708.505 2.329 1.128 2.329 4.072 0 2.008-1.688 4.216-3.387 5.432zm-104.153 1.583c-.362-1.453-2.88-1.878-3.938-1.726l-1.221.194c-.394 0-.052.095-.345-.051l-.159-.226c-.023-1.174.548-.997.364-2.69-.138-1.28-.546-1.257-1.051-2.063 1.117-.027 1.2-.435 2.109-.437.804-.001 1.286.335 2.514.181 3.497-.441 6.407-1.047 8.208 2.38.7 1.332.927 3.055.364 4.741-.293.879-.606.928-1.177 1.457-.707.654-3.313 3.594-4.682 3.791-.619.09-2.552-1.77-3.193-2.286-.778-.625-2.234-1.55-2.61-2.188-.019-.031-.244-.58-.262-.625 2.118 0 2.961-.452 5.079-.452zm52.076-10.127l.212.17c.645.015.772.103 1.27.226h.265c.565.161.629.288 1.218.511l.212.169c1.229.306 3.02 1.299 4.23 1.812 1.435.608 2.922 1.065 4.449 1.639l.212.17c1.445.36 3.232 1.538 4.434 2.273 4.625 2.829 3.164 2.923 9.452 4.38 2.585.597 5.238.609 5.96.814l.263-.17c1.44-.148 2.983.085 4.335-.177 2.551-.494 9.341-3.929 10.273-3.953.245 1.124.198 2.141.575 3.234 2.035 5.902.971 11.16-1.019 16.658-.561 1.55-2.622 3.089-4.001 3.869l-.212.227c-1.295.733-2.609 1.107-4.149 1.674-1.41.52-3.815.364-5.409.555l-11.611-.192c-4.319 0-16.816-.605-20.277-3.67-.669-.589-.959-.801-1.58-1.481-2.801-3.063-6.294-4.171-8.122-7.159-.696-1.143-1.987-2.665-2.161-4.039-.444-3.512 2.381-7.205 3.009-9.361l1.101-5.035c-.107-3.741.752-2.987 1.144-4.783 1.133 0 2.107.25 3.129.502.929.23 1.757.745 2.798 1.137zm-29.849 17.142c0 1.197-1.326 3.626-1.915 4.289-1.158 1.302-2.981 1.368-4.645 1.368-.316-1.44-1.707-3.012-2.891-5.509l-1.495-2.702c-.93-1.155-1.177-1.066-3.025-1.066 1.666-3.365 2.158-7.133.424-10.637 8.464 0 4.219-.46 10.584-1.583 1.33-.234 2.028-.62 3.175-.906-.775 1.727.341 3.901-.308 8.042-.313 1.996.096 5.771.096 8.704zm-37.681-17.254l-.211-.17c-.759-.067-2.769-1.053-3.531-1.43-1.554-.766-1.721-1.404-2.819-2.19l-.212-.228c-1.619-1.202 2.148-4.169 6.053 1.449.75 1.079 1.385 1.786 1.568 2.625l-.848-.056zm-125.322 2.772l-.212-.227c-1.233-.698-5.079-2.112-6.774-2.263.57.909 2.653 2.386 3.6 3.226l.21.169c.462.33.483.452.91.838l3.409 2.468c1.774.754 3.701 1.447 6.056 1.447-.61 1.229-1.704 2.226-3.477 1.925-2.283-.387-11.02-3.501-12.612-4.642.262 1.206 1.555 2.35 2.39 3.102.68.611 2.455 2.23 3.138 2.53 3.116 1.371 3.556 2.968 8.232 2.968-.543 1.093-.993 1.68-2.24 2.133-2.49.902-4.805.544-7.368-.236-1.19-.363-1.928-1.061-3.094-1.502l-.16-.169c-1.964-.438-6.412-3.874-6.944-5.984-.084-.331-.268-1.749-.29-1.984-.248-2.533 1.634-1.505 1.696-4.928.032-1.775-.781-2.7.358-3.673 2.914-2.485 1.954-2.483 1.954-6.513.42-.301.585-.412 1.058-.679.77 3.544 3.403 4.836 4.921 6.507 1.305 1.437 3.034 2.18 4.89 2.693 3.981 1.096 2.151 2.115 9.24 2.115-.078 1.011-1.241 2.138-2.328 2.274-1.618.2-5.002-1.206-6.563-1.595zm-9.262-15.389l.161-.225c.585.167 1.005.642 1.566 1.042.723.514.967.708 1.608 1.277l.159.17 6.458 3.109c1.208.298 2.6.619 3.619 1.111.994.483 2.431.906 3.736 1.041l.211.17 5.713-.233c1.21-.003 3.891-.255 2.007 1.918-1.065 1.228-3.439 1.56-5.269 1.855-1.581.257-3.976-.453-5.175-.854-.714-.239-1.557-.41-2.332-.675L89 131.954c-1.96-.706-3.034-2.19-3.706-2.6-.806-.494-1.292-.751-1.98-1.277-2.06-1.575-2.239-2.342-2.062-4.305zm260.594-8.146l.16-.169c.045-.642.096-.662.211-1.189l3.195 2.243c.81.8 1.369 2.815.997 4.727-.394 2.034-3.079 2.142-5.181 3.286-.688.374-1.141.757-1.975.834.081-1.034.969-3.528 1.296-4.727.407-1.494 1.012-3.381 1.297-5.005zM132.006 101.37l.159.226c.209 1.855.98 3.066 1.111 4.752l.158.227c.266 1.509.763 3.034 1.112 4.526.369 1.582.715 3.07 1.101 4.705l6.287 25.186c.17.896.425 1.529.444 2.468l.159.226c.271 1.539.763 2.806 1.112 4.299.35 1.504.598 3.025.972 4.619.722 3.066 1.533 5.715 2.248 8.685.687 2.858 1.172 6.227 1.815 9.148.178.808.299 1.364.543 2.136.271.852.538 1.261.695 2.198l.501 5.122c-2.011 0-4.842 1.503-7.281 2.401-1.702.627-4.909 3.413-5.21 4.615h-.423c-.022-1.075-.486-3.045-.722-4.206a27.573 27.573 0 00-.47-1.987c-.212-.749-.435-1.128-.501-1.898l-.159-.282c-.189-1.074-.612-2.141-.899-3.168-.272-.971-.699-2.1-1.028-2.975l-4.238-11.99c-.667-2.135-1.145-4.237-1.851-6.394-.684-2.095-1.302-3.871-1.899-6.116l-3.306-12.985c-.25-.973-.534-2.136-.802-3.217-.227-.918-.77-2.434-.848-3.336l-.158-.282c-.82-4.658-1.274-3.614-1.782-9.016-.397-4.221-1.061-2.993.001-9.802.368-2.354.886-3.81 1.318-6.058.351-1.824.758-4.14 1.282-5.873 1.508-4.988.67-4.879 3.179-11.536.525-1.389 1.311-4.112 1.452-5.916l.178.487c.521 1.85.399 2.357 1.445 4.565 1.041 2.193 2.132 7.99 2.91 10.921.419 1.578 1.36 3.814 1.395 5.525zm-26.674 25.74l-.211-.169-6.14-.679c-4.816-.304-5.654-1.481-8.236-2.059-1.976-.443-5.647-1.767-6.794-3.598.505-2.314 2.189-5.441 2.33-7.242.773.952 1.42 1.796 2.838 2.169 4.055 1.065 3.544 2.139 7.526 1.911 1.634-.093 3.641.073 4.941-.163 5.291-.965 5.046-1.518 9.201-6.005.821-.886 1.521-2.276 2.377-2.89-.052 2.558-2.086 6.769-2.835 9.189-.507 1.645-.761 3.103-1.096 4.938-.359 1.962-.984 3.152-1.361 4.881-1.34 0-1.45-.141-2.54-.283zm101.401-14.596l-.159-.283-.695-6.555c-.022-.807.007-1.68.007-2.496 4.286 0 2.512.92 6.9 3.714.504.322.773.555 1.268.906 2.751 1.95 6.634 2.385 10.252 2.396h12.064l11.846-.914 10.129-2.529c2.949-1.004.994-.131 3.005.047 0 1.368.027 1.847-.212 2.942-1.407-.125-2.13-.975-5.176.351l-4.35 2.364c1.641 0 2.723-.257 3.781.486.897.63 1.598 1.188 2.296 2.069 1.889 2.387 1.637 3.581 1.159 7.219-.349 2.664-1.149 3.953-3.209 5.62-.885.714-1.482 1.25-2.543 1.808a32.454 32.454 0 00-2.873 1.68c-1.893 1.231-4.006 1.767-6.502 2.103-1.509.203-2.373.211-3.965.286-1.457.069-2.327.651-3.802.69-4.426.115-3.394-.553-7.813.925-1.591.532-3.261.707-4.829 1.627-.616.361-.829.654-1.549.833-.292-1.339-1.715-3.121-2.497-4.12-.694-.889-.642-1.216-1.096-2.222-1.051-2.326-2.913-3.991-5.082-5.203-2.205-1.231-2.477-1.151-5.298-.9-.012-.648-.191-2.249-.3-3.073a64.231 64.231 0 01-.321-3.278l-.256-4.935c-.069-.69-.18-.604-.18-1.558zm-89.757-15.897l-.118.487.118-.487zm-14.395-26.024l.158.227c3.115 2.451 3.531 3.406 5.685 6.427 2.266 3.177 2.071 5.835 3.229 9.22.445 1.301.877 1.541.887 3.35.007 1.307.07 3.038-.02 4.3l-1.193 7.098a57.507 57.507 0 01-1.265 2.947l-1.49 2.708c-.784 1.673.05 1.446-1.358 2.621-3.856 3.217-3.233 2.41-8.71 3.589-2.073.446-4.997.134-6.65-.698-1.033-.52-2.014-.553-2.828-1.049-.824-.5-1.634-1.471-1.694-2.493l4.583-20.455c.706-2.27 1.358-4.074 2.011-6.449.734-2.668.758-3.553 1.82-6.43l1.754-6.722c2.54 0 1.822.384 3.901 1.26l1.18.55zm248.315 20.594h-1.271c.289-.421.033-.374.572-.351.5.023.616.289.699.35zm-233.92 5.43c0-4.889-.364-10.149-1.246-14.734-.668-3.467-1.734-7.21-4.207-9.534-2.569-2.412-4.25-4.411-7.802-5.69-.392-.143-1.14-.341-1.417-.522-.584-.381-.453-.592-.792-1.192-.544-.964-1.477-1.075-1.146-2.572.478-2.16 2.068-7.624 2.849-9.205l8.183 4.38c1.056.548 2.016.717 3.101 1.21 4.064 1.842 1.118.991 6.264 2.129 2.235.494 5.471.202 8.067.202-.934 2.084-.605 3.028-2.54 6.11-1.89 3.011-1.188 4.217-2.086 6.822-.505 1.466-1.195 2.87-1.696 4.297-.521 1.487-.726 3.012-1.217 4.583-.519 1.665-.978 2.888-1.485 4.523-.503 1.63-1.822 7.953-2.83 9.193zm14.394-52.443l.159.17c.195 2.148.601.856-.928 3.25-.982 1.538-4.51 1.472-6.334 1.83-2.442.478-3.402.243-5.61-.089-1.628-.247-4.158-.465-5.916-.465v.453c.859.075 4.057 1.847 5.007 2.34 2.093 1.09 2.733.823 4.435 1.144 1.196.226 2.543 1.077 4.828.455 1.617-.44 3.672-2.674 4.742.408.331.948.199 2.393.041 3.12-1.699.422-3.798.723-5.728.893-3.475.306-5.77-.111-8.524-1.499-1.458-.736-3.102-1.021-4.811-2.099-.752-.472-1.476-.79-2.318-1.142l-3.323-1.653c-.456-.203-.792-.26-1.254-.47-.879-.4-1.183-1.041-1.825-1.67-.731-.719-3.073-2.55-2.13-3.946 1.192-1.764 4.816-1.48 5.568-4.934.446.35.54.642.846 1.131l.212.227c2.257 3.603 11.376 4.98 15.242 4.98l-2.051-1.43c-2.684-1.595-4.164-2.44-7.263-3.607l-.212-.17c-1.081-.269-1.877-.803-2.71-1.4-.432-.312-.856-.567-1.252-.926-.49-.447-.588-.688-1.117-1.068l-.213-.226c-.471-.58-1.185-1.103-1.269-2.063-.083-.963.589-1.87 1.057-2.238l2.206 1.942c3.559 2.72 3.444 3.661 7.663 5.162l6.861 1.508c1.26.048 2.353-.583 3.722-.15.778.248 1.846 1.575 2.199 2.232zm2.54-12.73c0-3.644 5.081-3.212 5.081 0 0 3.29-5.081 3.198-5.081 0z" fill="#FFED00"/><path fill-rule="evenodd" clip-rule="evenodd" d="M210.756 111.1l.159.227c2.775 1.368 7.564 5.33 10.902 5.827 2.489.369 5.062.207 7.192-.346 2.138-.555 4.074-2.087 6.302-2.087-.335-.491-.426-.471-1.127-.605-1.106-.214-4.904.127-8.698-.431-1.296-.191-2.202-.137-3.379-.464-2.379-.661-1.685-.762-5.622-1.683-.931-.217-1.805-.601-2.847-.804-1.264-.246-2.279-.004-3.517-.312.25.74-.276.163.635.678zm-72.824 48.2c-.076-.997-.308-.857.323-1.675.449-.581.862-.86 1.583-1.04v1.81c-.745.533-.659.796-1.906.905zm-2.963-2.715c0 2.073.321 3.351 1.434 5.255 2.994 5.121 8.794.724 5.701-6.773-1.948-4.722-7.135-.895-7.135 1.518zM74.85 170.389l-.213.17c-1.83.69-2.415 1.261-4.091 2.245-1.511.888-2.913 2.232-4.143 3.492l-.212.225c-1.384 1.545-4.284 5.178-4.678 6.992 1.402-1.002 2.75-1.958 4.191-2.986l4.317-2.896.17-.227c1.2-.678 2.047-1.534 3.229-2.263l.158-.17 6.775-5.261c-4.34-.386-1.52-.314-5.504.679zm195.603-50.464c-.145-.646.032-.34-.423-.679.147.662-.027.327.423.679zm-55.887-18.102v.225l.247-.187-.247-.038zm55.886 18.102v.227l.246-.189-.246-.038zm-164.908 38.246v-.227l-.248.187.248.04zm125.746-11.542v.225l.246-.187-.246-.038z" fill="#FFED00"/><path d="M107.232 221.416c-1.453 7.007-3.697 14.028-6.607 20.779-2.907 6.748-6.496 13.252-10.64 19.234-5.283 7.623-11.106 13.908-17.095 18.726-7.487 6.025-15.26 9.788-22.604 11.056-7.458 1.289-14.481.016-20.338-4.04-2.108-1.461-4.06-3.281-5.819-5.466-7.616-9.462-10.252-24.107-8.354-40.125 1.881-15.885 8.224-33.179 18.574-48.118a99.74 99.74 0 015.548-7.288 89.305 89.305 0 015.994-6.483l1.782 1.835a86.581 86.581 0 00-5.81 6.292 96.648 96.648 0 00-5.41 7.096c-10.107 14.584-16.298 31.465-18.134 46.965-1.819 15.365.64 29.322 7.803 38.223 1.606 1.994 3.375 3.647 5.277 4.966 5.28 3.657 11.653 4.795 18.457 3.619 6.919-1.195 14.288-4.776 21.431-10.525 5.807-4.672 9.834-13.177 14.97-20.588 4.035-5.824 6.055-10.484 8.905-17.099 2.847-6.607 8.15-12.756 9.564-19.578l2.506.519z" fill="#FFED00"/><path d="M103.77 221.834c-.974 4.62-2.364 9.339-4.127 14.036a110.913 110.913 0 01-6.345 13.896c-8.062 14.864-18.646 26.577-29.233 33.492-10.807 7.059-21.685 9.153-30.06 4.613-8.374-4.541-12.548-14.803-12.526-27.712.02-12.646 4.065-27.904 12.126-42.768 3.28-6.05 7.08-11.727 11.213-16.811 4.132-5.077 8.606-9.563 13.241-13.23l1.582 2.003c-4.478 3.544-8.818 7.897-12.84 12.84-4.017 4.939-7.722 10.485-10.942 16.421-7.862 14.497-11.807 29.313-11.827 41.545-.02 11.965 3.71 21.398 11.196 25.458 7.483 4.058 17.426 2.04 27.445-4.503 10.24-6.689 20.509-18.076 28.37-32.572a108.268 108.268 0 006.205-13.564c1.714-4.569 3.067-9.162 4.017-13.664l2.505.52z" fill="#FFED00"/><path fill-rule="evenodd" clip-rule="evenodd" d="M289.094 65.628c-1.03 7.822-3.157 16.588-4.926 24.156l-2.051 9.572c-.542 2.931-2.129 6.297-2.146 9.473-.036 6.039-.613 13.132-.621 19.93-.002 1.239-.2 1.503-.218 2.481.804.072 1.126.285 1.764.603l4.72 1.744c1.198.379 2.168.539 3.382.911l9.329 3.831c1.848.98 3.993 2.622 5.413 3.321l.159.169c1.545 1.118 2.13.684 4.007.268 1.26-.279 2.674-.585 3.998-.932 1.343-.354 2.635-.896 3.894-1.269a19.71 19.71 0 003.555-1.405l.211-.225c1.029-.583 1.857-1.316 2.751-2.038.787-.631 1.881-1.297 2.595-1.978.918-.876 3.889-3.933 4.391-4.867l.212-.17c.962-1.534 1.853-2.808 2.796-4.48.505-.897.744-1.549 1.309-2.447 1.381-2.203 2.802-4.415 3.942-6.874 3.139-6.772 2.087-.558 4.36-10.276.856-3.668 1.867-7.92 3.767-10.91.696-1.095.735-.98 1.116-2.426.23-.872.64-2.044.705-2.866l.158-.227c.121-.685.333-1.314.447-1.86.257-1.232-.016-.505.068-1.518.094-1.122.454-.447.934-3.278 1.886-11.162 3.314-19.245 3.26-30.457-.018-3.852 1.473-11.97 2.623-16.66V0H292.28c-.618 3.216-1.44 6.649-1.667 8.417-.227 1.762.373 11.323.373 14.373l-.159.282-.061 10.192c.016 1.309.232 1.706.226 3.155-.012 2.457.195 4.08.208 6.57l-.214 6.448-.159.339-1.234 10.503c-.243 1.862-.275 3.638-.499 5.349zm17.77 13.565h-.213l.035-.264.178.264z" fill="#0078BF"/><path fill-rule="evenodd" clip-rule="evenodd" d="M309.318 147.851c-6.288-1.458-4.827-1.55-9.452-4.38-1.202-.734-2.989-1.913-4.434-2.273l-.212-.171c-1.527-.573-3.014-1.028-4.449-1.638-1.21-.512-3.001-1.507-4.23-1.811l-.212-.171c-.589-.221-.653-.349-1.218-.509h-.265c-.498-.124-.625-.211-1.27-.227l-.212-.169c-1.042-.393-1.869-.908-2.798-1.136-1.022-.253-1.996-.504-3.129-.504-.392 1.798-1.251 1.042-1.144 4.784l-1.102 5.034c-.627 2.156-3.452 5.85-3.008 9.361.174 1.375 1.464 2.896 2.161 4.041 1.828 2.987 5.321 4.095 8.122 7.158.621.68.91.891 1.58 1.48 3.461 3.066 15.958 3.67 20.277 3.67l11.61.193c1.595-.192 4-.036 5.41-.555 1.54-.569 2.854-.942 4.149-1.676l.212-.225c1.379-.781 3.44-2.32 4.001-3.871 1.99-5.496 3.054-10.755 1.019-16.658-.377-1.092-.33-2.109-.575-3.233-.932.024-7.722 3.461-10.273 3.953-1.352.263-2.895.029-4.335.177l-.263.171c-.722-.204-3.375-.218-5.96-.815z" fill="#0078BF"/><path fill-rule="evenodd" clip-rule="evenodd" d="M302.418 174.465c-3.276.018-8.812-.907-10.32-.907l-.264-.17c-2.031-.262-6.894-1.602-8.348-2.673-1.591-1.175-4.487-4.632-6.047-5.077.304 3.913-.299 7.161-1.041 11.107l-1.922 10.616c.797.073 6.303 2.568 7.209 3.156 2.166 1.404 4.389 2.387 6.691 3.708 3.384 1.941 4.163 3.544 6.994 6.104.529.479.817.779 1.361 1.26 1.88 1.66.872.813 3.693 1.257 3.396.538 5.272-.794 6.579-3.568 1.922-4.077 1.628-2.885 2.249-8.232.416-3.571 1.393-7.03 1.647-9.103.395-3.229 1.512-5.18 2.952-7.48-3.81 0-7.625-.02-11.433.002zm-48.95-78.355c2.239-2.353 3.522-6.977 4.573-10.724.593-2.116.818-4.448 1.378-6.447 1.724-6.151 1.544-8.627 2.606-12.83.532-2.108 2.165-6.289 2.281-7.291.095-.82.111-1.09.208-1.816l1.917-25.105c-.001-1.366.057-2.673-.122-3.942l-.27-11.185c.623-5.94-.575-8.16 1.072-14.47.087-.336.325-1.2.658-2.3h-68.438l.68 6.325.16.339c0 1.744.174 2.541.21 4.19.03 1.37.345 2.375.479 3.846l.158.225c0 1.636 1.239 8.816 1.547 11.246.106.842.341 2.706.364 3.683l.811 12.034c.134 1.282-.037 2.707.083 4.039l.159.34c0 1.32.004 2.642-.003 3.963-.009 1.572.266 2.238.229 3.617l-.226 7.468c.004 2.926-.217 4.635-.013 7.481.346 4.82.423 9.548 1.299 14.227.606 3.234.911 3.3 1.552 6.033.297 1.262.41 2.056.898 3.115 1.03 2.232 2.365 6.031 3.009 8.324.179.638.163 1.029.538 1.461.405.47 5.499 2.972 6.139 3.169 5.659 1.741 4.083.991 9.653.997 2.603.003 4.405.225 6.985.225l10.534-.506c.758-.225 1.28-1.223 1.904-1.811 2.916-2.745 2.172-2.692 3.488-3.967 2.307-2.232 1.226-1.565 3.5-3.953zm-38.902 5.712l.247.038-.247.188v-.226z" fill="#0078BF"/><path fill-rule="evenodd" clip-rule="evenodd" d="M248.217 109.282l-11.847.915h-12.064c-3.618-.012-7.501-.445-10.252-2.397-.495-.351-.764-.583-1.268-.905-4.388-2.794-2.614-3.714-6.9-3.714 0 .816-.028 1.689-.007 2.497l.695 6.553.159.283c0 .955.112.867.181 1.559l.255 4.933c.058.81.193 2.321.321 3.28.109.824.288 2.425.301 3.072 2.82-.251 3.093-.331 5.297.9 2.169 1.212 4.031 2.878 5.082 5.204.454 1.006.403 1.333 1.096 2.221.783 1 2.205 2.782 2.497 4.121.72-.18.933-.471 1.55-.834 1.567-.919 3.237-1.095 4.828-1.627 4.419-1.478 3.388-.81 7.814-.925 1.475-.038 2.344-.621 3.801-.69 1.592-.075 2.457-.083 3.966-.286 2.495-.335 4.608-.871 6.501-2.103a32.717 32.717 0 012.874-1.68c1.06-.558 1.657-1.095 2.542-1.809 2.061-1.665 2.861-2.954 3.209-5.618.478-3.638.73-4.833-1.159-7.219-.697-.881-1.398-1.439-2.296-2.07-1.058-.742-2.14-.485-3.781-.485l4.35-2.364c3.046-1.326 3.77-.476 5.177-.351.238-1.096.212-1.574.212-2.942-2.012-.178-.057-1.051-3.006-.047l-10.128 2.528zm-19.208 7.527c-2.13.553-4.703.715-7.192.345-3.338-.497-8.127-4.458-10.902-5.826l-.159-.227c-.911-.514-.385.062-.635-.679 1.238.309 2.253.067 3.517.313 1.042.203 1.916.588 2.847.804 3.937.921 3.242 1.022 5.622 1.683 1.177.328 2.083.272 3.378.465 3.795.558 7.593.216 8.699.429.701.135.792.114 1.127.605-2.228 0-4.164 1.533-6.302 2.088zm21.545 20.994c-6.365 1.123-2.12 1.584-10.584 1.584 1.734 3.503 1.242 7.271-.424 10.636 1.849 0 2.096-.088 3.025 1.068l1.496 2.701c1.183 2.497 2.574 4.067 2.89 5.508 1.664 0 3.487-.064 4.645-1.368.589-.662 1.916-3.091 1.916-4.289 0-2.932-.41-6.708-.097-8.703.649-4.141-.466-6.314.309-8.042-1.148.286-1.846.671-3.176.905zm11.778 13.044c-1.959 2.953-3.133 8.148-2.932 11.923.048.935.108 1.868-.035 2.78-.194 1.23-.283 1.358-.348 2.797-.153 3.449-2.512 7.931-4.863 10.018l-.211.171c-1.2.858-1.147 2.798-5.013 5.278-1.888 1.21-4.872 2.32-7.08 3.069-1.798.61-10.006 2.554-12.247 2.748-4.256.371-6.386 2.231-10.951 4.135-2.984 1.244-4.208 1.388-6.471 3.717-2.388 2.457-3.273 4.422-6.511 6.392-.635.388-1.022.398-1.654.72l-2.786 2.228c1.542 0 1.526-.044 2.662-.548l14.697-6.467c4.722-2.533 9.78-4.959 14.819-6.563 1.871-.595 6.448-3.028 8.433-3.881l6.411-2.653c1.502-.576 2.743-1.162 4.267-1.775.848-.34 1.536-.517 2.438-.787l4.397-1.637c.856-.269 1.403-.448 2.285-.726 1.701-.534 2.824-1.048 4.639-1.377 1.672-.303 3.865-.968 5.022-.968.321-1.468.693-2.56 1.139-3.988.906-2.907 2.127-7.774 2.266-10.734.089-1.923-.341-1.078-2.684-4.829-2.096-3.356-2.957-5.345-1.829-10.372.19-.842.407-1.134.474-1.984-.877.079-1.452.556-2.114.909-.656.349-1.198.526-1.968.838-.781.315-1.571.504-2.313.696-.366.093-.89.188-1.196.305-.657.243-.403.052-.743.565z" fill="#0078BF"/><path fill-rule="evenodd" clip-rule="evenodd" d="M204.189 192.79c-5.761 2.764-14.998 4.098-21.383 4.071-1.782-.008-2.165.318-3.863.067l-3.753-.288-.212-.171c-2.793-.288-5.52-1.837-7.709-3.356-1.218-.845-1.284-1.239-2.029-1.451 0 1.648.366 1.562.43 2.934.356 7.656-2.299 5.305-.163 8.999 1.14 1.971 5.169 3.005 7.292 3.295 4.074.558 6.023 1.179 10.904-.018 3.227-.794 6.841-1.193 9.692-2.312 1.647-.647 2.765-1.249 4.234-2.037 4.275-2.292 5.264-1.816 6.626-2.422.589-.263 4.331-3.053 5.177-3.969 3.555-3.843 2.247-2.785 6.626-5.59 1.258-.804 2.464-1.47 3.716-2.365 1.304-.933 2.309-1.623 3.682-2.4l.158-.227c1.409-.313 3.6-1.356 5.981-1.356v-.228c-3.114 0-5.149.115-7.544.988-1.24.449-1.789.929-2.914 1.412-1.128.481-2.05.659-3.229 1.073-2.02.711-3.778 2.016-5.818 2.832l-5.901 2.519z" fill="#0078BF"/><path fill-rule="evenodd" clip-rule="evenodd" d="M189.082 188.991c.042-.004.066.025.061.103a.247.247 0 01-.061-.103zm-4.913 3.707c2.963.459 6.196-.315 8.258-1.166l7.107-2.644.212-.17c1.268-.315 2.42-1.134 3.78-1.615 1.323-.469 2.466-.75 3.771-1.399 4.17-2.079 10.305-4.783 14.602-6.117 14.412-4.473 12.528-1.44 22.486-3.117 1.211-.204 2.507-.854 3.928-1.232 1.851-.494 5.403-3.436 5.91-4.546.465-1.014 1.834-7.569 1.834-8.96l.159-.168c.189-2.106.253-3.029.685-4.754.332-1.326.897-2.915 1.034-4.325.337-3.438.364-7.734-2.09-8.347 0 3.217.712 8.074-.084 10.998-1.344 4.935-3.775 7.747-8.525 8.076-1.645.115-2.212-.63-2.964-2.176l-3.88-7.167c-1.142 0-3.713.597-4.235 1.359 1.964 0 2.71.895 3.386 2.263h-1.48c.977 1.559.987.542 1.851 1.415.443.447.727 1.451.833 2.299.497 3.97-4.515 6.629-5.929 2.696-.942-2.614.331-3.104-.143-5.279-.816.072-.833.226-1.906.226.083-.377 1.483-3.328-.843-2.293-.804.358-1.858 1.334-2.755 1.84.315 1.443.315 2.631 0 4.074 1.502.849 2.261 2.133 1.525 4.571-.369 1.223-1.698 2.949-2.795 3.405l-.212.17c-2.689.67-4.957-.131-4.404-3.568.422-2.615 2.263-3.788 2.408-3.996.407-.586.226-.847.516-1.487-.707.201-2.573 2.197-5.294 2.263.518-.828.579-.432 1.059-1.131-1.59.141-1.371-.084-1.694 4.073 1.397.398 1.569 3.271.422 5.203-3.428 5.771-10.18-.645-5.113-4.561.859-.663 1.399-.515 1.516-2.001-.788.226-2.817 1.855-4.657 2.546l-.213.17c-.836.239-1.281.871-2.329 1.133 0 1.079.146.936.214 1.809 3.353.08 3.51 6.097 1.736 8.192-1.07 1.267-3.167.992-4.24-.086-1.366-1.374-1.115-2.683-.673-4.711l.16-.226c.013-.706-.16-1.41-.166-2.503l-.84.466-.212.226c-.77.551-1.488 1.108-2.328 1.583l-.211.228-1.272.679-.158.225c-1.398.689-1.203.916-1.959 1.131.343.549.434.508.781 1.205.168.338.393.996.545 1.227.562.859 1.434.262 2.073 1.637.486 1.044.038 2.157-.358 3.027-2.905 6.385-7.701 2.081-6.133-1.576.635-1.484.552-.288.552-3.031-.514.37-.804.739-1.392 1.227-.512.425-.772.719-1.205 1.202l-4.34 5.319c-.359.468-.721.903-1.065 1.376-.428.589-.395.945-.333 1.106-.332.029-1.788 1.915.168-3.118.902-2.321 2.773-5.625 4.408-7.51.951-1.099 1.768-1.95 2.913-2.769-.57-1.153-1.404-1.84-2.276-2.772l-2.223-2.602c-.546-.469-2.621-.973-3.5-1.237-.55-.166-3.235-1.019-3.673-1.009l-4.837 2.193c-5.721 2.704-6.918.437-9.319.223l-.158.225c-.578.286-.625.331-1.111.679l-.17.283-.2.17c-.844.519-1.8 2.001-2.31 3.018a47.78 47.78 0 01-1.807 3.274c-2.018 3.336-2.322 2.938-2.286 5.479.017 1.178-.019 1.367-.213 2.259.491.352.68.753 1.17 1.013l4.968 1.477.213.168 7.224 2.747c2.009.9 5.5 1.113 8.106 1.516z" fill="#0078BF"/><path fill-rule="evenodd" clip-rule="evenodd" d="M231.288 146.627l.246.04-.246.188v-.228zm-4.817 1.079c.376.637 1.832 1.562 2.609 2.187.642.516 2.575 2.376 3.193 2.288 1.369-.198 3.976-3.139 4.683-3.792.571-.53.884-.579 1.177-1.457a6.093 6.093 0 00-.364-4.742c-1.801-3.426-4.711-2.821-8.208-2.379-1.228.153-1.711-.183-2.514-.182-.909.001-.992.411-2.109.438.505.806.912.782 1.05 2.062.185 1.694-.387 1.516-.363 2.69l.159.226c.293.147-.049.051.344.051l1.222-.194c1.058-.151 3.576.273 3.938 1.725-2.118 0-2.961.453-5.079.453.018.046.243.594.262.626zm-1.533 9.784c-.074-.953-.673-2.505-.98-3.48-.515-1.638-.481-2.57-1.137-3.081 0 3.247-1.47 6.21-2.54 8.371 1.745-.155 3.248-1.458 4.657-1.81zm-14.182.227l4.022-6.788c-1.708.424-5.205 2.577-6.652 3.524l-2.21 1.71c-.32.277-.361.259-.716.593l-1.413 1.432c-.031.032-.079.077-.11.108l-.755 1.231c2.5 0 .676.391 5.081 0 .067-.86.261-1.289.85-1.581 1.194-.592 1.138.356 1.268-.908.03.045.056.118.074.146l.561.533zm5.974-1.081c-1.109 1.592-1.82 3.061-3.4 4.286-2.514 1.948-3.565 1.658-3.634 4.659.214-.033 5.079-2.462 5.5-3.117.272-.421.425-.895.763-1.448 2.161-3.537 1.147-1.258 1.147-4.883-.176.214.002-.033-.287.372a2.719 2.719 0 00-.089.131zm-13.376 9.483c-3.856.428-3.151-2.512-4.156-3.743-.328-.404-.755-.588-1.063-1.126-.375-.655-.22-.862-.506-1.496-.745.066-3.521.839-4.016 1.137-.93.558-1.852 1.711-2.969 2.03.338.54.653.687 1.069 1.121.272.283.621.809.833 1.146 1.056 1.685 2.079 1.452 5.533 2.683.83.296 2.069.856 2.938.934l.212.17c1.08.217 2.37 1.133 3.142.716.64-.347.741-.875 2.362-1.79 0-1.259.211-1.344.211-2.491-1.154.104-2.158.551-3.59.709zm-3.386 4.731c-.983.014-1.987-.009-2.973-.009.442.706 1.189 1.899 1.27 2.942l4.446-3.168c-1.284 0-1.54.219-2.743.235zm19.889-19.921c-.797.57-1.649 2.671-1.905 3.846.615.439.283.458 1.058.678.112-1.445.847-2.675.847-4.524zm-13.084-.865c1.224-.894 7.203-3.913 8.614-4.371 2.599-.842.777-.076 2.99-1.328-.329-.525-.71-1.026-1.058-1.584l-3.581.924c-3.412.751-3.428.892-6.074 2.785-2.594 1.857-5.995 3.672-7.759 5.51-2.375 2.473-4.028 2.696-4.391 4.358 1.813-.042 5.008-1.664 6.423-2.412 1.041-.55 1.746-1.014 2.524-1.826.857-.892 1.31-1.324 2.312-2.056zm-18.88 11.499c-.636.16-1.473.631-2.117.906-2.581 1.104-3.465.974-6.016 2.621-1.502.967-4.189 1.809-5.749 2.906l-1.572 1.262c3.125 0 7.297-2.33 7.156-2.552-.23-.364-.44-.123-.08-.522.756-.842 2.986-.652 3.933-1.282l.211-.171c.637-.36 3.981-2.423 4.234-3.168zm65.835 112.016c-10.334 0-11.81-2.165-15.453-2.488l-.211-.17c-1.194-.24-2.524-.849-3.654-1.13-4.386-1.092-5.683-1.415-9.533-4.518-.718-.579-2.089-1.537-2.604-2.196-.886-1.131-1.23-1.607-1.952-2.892-1.686-2.995-2.369-3.469-2.369-7.198-.859 1.056-1.53 4.382-1.815 5.754-.215 1.036-.512 2.238-.529 3.299-.025 1.423 1.142 4.669 1.706 5.888 1.224 2.65 2.706 4.576 5.349 5.878l.158.226c.791.447 1.248.656 2.034 1.222.699.5 1.195.922 1.867 1.398 1.098.775 3.016 1.681 4.727 1.681l.263.169c3.984.411 5.179 1.447 10.785.95 4.408-.39 5.559-.504 9.88-1.661 1.847-.493 13.139-4.862 15.825-6.391l.768-.535c-.998.089-2.608.639-3.597.904-6.313 1.687-5.169 1.81-11.645 1.81z" fill="#0078BF"/><path fill-rule="evenodd" clip-rule="evenodd" d="M243.931 264.589c4.846.636 6.985 1.47 11.914.845-.422-1.941-1.059-3.09-1.059-5.659 0-2.27.101-3.542.546-5.751.467-2.314 1.126-2.906 1.36-3.98-1.232-.881-1.76-1.536-2.806-2.658-1.295-1.39-1.305-1.461-3.18-2.257l-7.563-3.231c-2.469 3.942-6.034 2.58-7.232 2.902-.425.114-.891.335-1.278.448-.966.283-1.583.43-2.471.752-5.623 2.031-4.078 1.103-7.012 1.103.261-.242.28-.263.634-.454 2.931-1.571.795-.043 4.615-2.759 1.544-1.098 3.679-2.431 5.547-2.895-.438-1.756-1.905-.983-1.905-3.171 0-.609.101-.622.211-1.131l-6.011 4.888-3.345 4.346c-1.136 2.275-1.426 5.156-.995 7.716.19 1.129 2.44 4.038 3.303 5.295 1.742 2.533 4.237 2.741 7.39 3.868 2.975 1.064 6.148 1.367 9.337 1.783z" fill="#0078BF"/><path fill-rule="evenodd" clip-rule="evenodd" d="M257.75 267.243l-8.471.004c-3.37.02-5.815-.684-8.041-.684l-.211-.169c-2.618-.27-5.429-1.335-7.967-2.177-4.471-1.481-2.378-1.026-5.23-2.554-2.577-1.383-1.995-2.057-3.495-4.185-.957-1.358-1.063-1.645-1.594-3.501-.473-1.659-.466-3.09-.119-4.825.225-1.128.635-3.17 1.045-4.086-.781.224-1.402.97-1.758 1.742l-1.068 2.478c-.738 1.592-.874 4.518-.149 5.976 1.936 3.892 2.823 4.933 6.235 7.364 5.076 3.617 4.919 2.4 9.47 3.909 2.367.784 8.541 2.745 10.558 2.745l.211.17c2.463.253 4.733.282 7.409.282l.212.169c3.553.369 18.189-3.21 20.11-6.279-2.917.727-5.026 1.516-7.854 2.467-3.349 1.125-6.515.719-9.082.984l-.211.17z" fill="#0078BF"/><path fill-rule="evenodd" clip-rule="evenodd" d="M256.691 265.435c2.905 0 5.248-.092 7.581-.723 6.043-1.631 11.579-2.491 16.73-6.329l4.784-5.75 2.81-5.595c1.356-3.4 4.386-7.987 7.046-9.892l.212-.225c1.301-.932 2.422-1.847 3.82-2.706.698-.431 1.38-.694 2.071-1.181 2.116-1.487 5.123-5.166 5.074-7.971l-.004-.335c0-.048.039-.364.034-.533-.017-1.148.219-.585-.411-1.079-.049 2.394-2.455 4.429-4.854 4.304-3.173-.168-2.829-2.833-4.884-4.304-.361 1.663-1.69 2.113-3.797 1.798-1.774-.268-1.861-2.221-2.765-2.929-.079 3.797-3.795 4.783-4.234 6.79 2.744.243 3.738 7.282-.635 8.371 0 3.486.744 4.633-.846 6.111-1.603-.401-1.494-1.706-1.997-5.334-.503-3.632-2.059-2.459-1.391-5.529-.801-.23-.534-.442-1.481-.678-.465 1.865-3.522 3.035-4.234 4.074.456.725 1.168 1.824 1.919 2.02 1.265.332 1.814.034 2.569 1.1.593.838 1.081 1.874 1.026 2.978-.106 2.128-2.139 3.699-4.159 3.333-3.291-.592-2.348-2.932-3.406-4.072l-1.76-1.965c-1.009.722-2.255 2.288-3.809 3.167l1.993 2.848c3.283 4.66 3.92 2.591 3.95 5.745.051 5.454-4.115 4.236-5.07 3.597-.968-.645-2.406-2.944-1.922-4.931.594-2.445.611-.509-1.916-4.543-.885.634-2.807 3.901-2.963 4.525.498.796 1.166 1.241 1.729 1.999 1.095 1.474-.021.7 1.568 1.945.749.59.946 1.298.957 2.617.047 5.97-6.788 4.969-6.052.814.39-2.202 1.95-2.581-.319-4.206-.292.464-.413.719-.725 1.262-2.327 4.06-1.649 2.28-2.369 7.665-.148 1.093.13 2.316.13 3.747zm40.85-24.675l-3.804 4.759c.711-.203 1.96-1.4 2.632-1.94.903-.726 1.567-1.2 2.491-1.862 1.164-.835 4.488-2.702 5.039-3.722l.211-.171c.463-.934 1.244-2.524 1.482-3.62-1.135.813-1.836 2.059-2.928 2.98-2.305 1.948-3.445 2.304-5.123 3.576z" fill="#0078BF"/><path fill-rule="evenodd" clip-rule="evenodd" d="M299.787 222.081c.456.836.638 1.488 1.784 1.488 2.132 0 2.965-.875 2.965-3.396 0-2.745-2.426-3.804-4.324-4.655-2.963-1.331-1.303-.312-3.721-.097.392 3.275 2.886 5.905 3.296 6.66zm-18.667-19.695c2.271-.605 4.247-1.59 6.469-.303 2.057 1.191 1.216.408 2.951 1.143 1.131.479 1.514.941 2.194 2.013l.158.226.423.907.213.225c.71 1.435.401 1.209 1.745 2.036l.16.171c.62.552 1.445 1.137 2.18 1.572 2.333 1.381 6.507-.669 8.403-.837v-.453c-1.828.162-2.473 1.135-3.748.402-2.161-1.242-6.757-2.838-8.537-5.374-1.383-1.969-2.147-2.599-3.618-4.278-.603-.691.018-.201-.927-.592-.986-.41-1.048-.66-1.859-1.183-1.889-1.215-3.694-1.459-7.771-4.363-.907-.646-2.835-1.742-4.023-2.036l-.212-.17c-.847-.319-.966-.652-1.905-.736-.345.771-.413 1.864-.779 2.788l-1.968 4.684c-.368.749-.991 1.336-1.064 2.258.871.078 2.156.808 2.894 1.208 6.456 3.497 4.99 1.662 8.621.692zm.834 9.794c-.383-1.084-1.195-1.598-1.979-2.186-.718-.538-1.171-1.611-2.13-1.797-3.071-.599-3.795 1.099-3.795 4.284l-.16.225c-.143 1.597.167 2.736.161 4.526-.005 1.508-.001 3.018-.001 4.527 2.067 1.169 3.693 2.928 5.293 4.074 0-2.319 1.094-4.727 1.836-6.41.608-1.375 1.544-5.057.775-7.243zm2.682 1.658c0 6.088-2.08 8.004-2.752 11.088.557-.398.667-.575 1.059-1.131.389-.55.552-.674 1.007-1.185 2.48-2.792 2.273-8.616.463-9.903l.063.906.16.225zm8.044 4.073c0 .489.827 1.937 1.048 2.274.745 1.135.832.791 1.915 1.347 0-1.156-1.013-3.708-1.481-4.752-.574.142-1.482.409-1.482 1.131zm10.162-5.205c.347.507.988.794 1.534 1.132l.16.171c.423.406.602.769.932 1.32l.76 1.224c-.03-1.42-.508-4.295-.212-5.658-.982.435.083-.28-.799.299-.784.514-1.095 1.194-2.375 1.512zm-40.223 29.645c-1.561-3.154-1.049-2.033-2.753-4.752-1.059.095-2.206.351-3.381.459-1.031.096-2.476.255-3.43.406-2.488.392-4.292.492-7.159.492l3.746 1.653c1.368.57 2.525.919 3.737 1.662 1.491.917 3.805 4.534 5.641 5.059.871-.625 2.906-3.872 3.599-4.979zm-107.324-44.352c8.339-3.963 8.812-4.328 4.866-9.959-2.097-2.992-1.95-3.893-6.302-2.889-2.57.594-2.974 1.503-7.336 2.568-1.865.453-4.36 2.713-5.678 4.113-.827.879-2.033 1.368-2.083 3.015-.029 1.028.383 1.251.95 1.701 1.704 1.353 3.289 3.356 3.79 3.645 2.309 1.323 1.573 1.306 2.688 2.105.24-1.106.488-1.267 1.481-1.641l.263-.171c3.144-.082 3.224-.261 5.803-1.662.569-.31 1.043-.579 1.558-.825zm-6.611-27.561c-.644-2.922-1.128-6.29-1.816-9.149-.714-2.969-1.525-5.62-2.248-8.684-.374-1.595-.622-3.116-.972-4.619-.349-1.494-.841-2.759-1.111-4.299l-.16-.227c-.018-.938-.274-1.571-.444-2.468l-6.287-25.186c-.386-1.634-.731-3.124-1.101-4.705-.349-1.49-.846-3.017-1.112-4.526l-.158-.227c-.131-1.685-.902-2.897-1.111-4.752l-.159-.226c-.035-1.71-.976-3.946-1.395-5.523-.778-2.932-1.869-8.729-2.91-10.923-1.045-2.208-.924-2.715-1.445-4.563l-.178-.49c-.141 1.805-.926 4.529-1.451 5.917-2.51 6.658-1.672 6.549-3.18 11.537-.524 1.733-.93 4.048-1.281 5.873-.433 2.247-.95 3.702-1.319 6.058-1.062 6.807-.398 5.58-.001 9.802.509 5.402.962 4.357 1.782 9.015l.158.282c.079.902.621 2.418.849 3.337.267 1.08.551 2.244.801 3.215l3.306 12.987c.597 2.245 1.215 4.019 1.9 6.116.706 2.155 1.183 4.258 1.85 6.394l4.238 11.99c.329.874.756 2.004 1.028 2.974.287 1.026.71 2.095.899 3.168l.159.282c.066.771.29 1.15.502 1.899.189.676.323 1.278.469 1.988.237 1.16.7 3.129.723 4.205h.423c.3-1.203 3.507-3.989 5.209-4.616 2.439-.897 5.27-2.4 7.281-2.4l-.501-5.123c-.156-.937-.424-1.344-.695-2.198-.244-.772-.364-1.327-.542-2.135zm-13.716-13.853c0-2.413 5.188-6.24 7.135-1.517 3.093 7.496-2.707 11.893-5.701 6.773-1.113-1.904-1.434-3.183-1.434-5.256zm-13.676-73.682c.491-1.571.696-3.097 1.216-4.584.502-1.426 1.191-2.832 1.697-4.296.897-2.606.195-3.812 2.085-6.823 1.935-3.083 1.606-4.025 2.54-6.11-2.595 0-5.832.292-8.066-.202-5.147-1.138-2.201-.288-6.265-2.13-1.085-.492-2.045-.662-3.101-1.21l-8.183-4.379c-.781 1.581-2.37 7.045-2.849 9.205-.33 1.497.602 1.608 1.147 2.572.338.6.208.812.791 1.192.277.18 1.025.38 1.417.52 3.553 1.282 5.234 3.28 7.803 5.692 2.472 2.322 3.538 6.067 4.206 9.533.883 4.586 1.246 9.846 1.246 14.736 1.009-1.241 2.327-7.563 2.831-9.195.506-1.634.965-2.857 1.485-4.521z" fill="#0078BF"/><path fill-rule="evenodd" clip-rule="evenodd" d="M112.54 89.819c-.01-1.81-.443-2.05-.887-3.35-1.158-3.386-.964-6.044-3.229-9.221-2.155-3.021-2.571-3.976-5.685-6.427l-.159-.227-1.179-.547c-2.08-.88-1.361-1.262-3.901-1.262l-1.755 6.721c-1.062 2.878-1.085 3.763-1.82 6.431-.653 2.376-1.304 4.177-2.01 6.45L87.33 108.84c.06 1.022.87 1.993 1.694 2.493.814.497 1.795.529 2.829 1.049 1.653.832 4.576 1.144 6.65.698 5.476-1.179 4.853-.373 8.709-3.588 1.408-1.176.574-.949 1.359-2.621l1.489-2.71a56.233 56.233 0 001.265-2.946l1.193-7.098c.091-1.263.027-2.994.021-4.3z" fill="#0078BF"/><path fill-rule="evenodd" clip-rule="evenodd" d="M110.786 111.275c-4.155 4.487-3.91 5.04-9.201 6.004-1.3.237-3.307.07-4.941.164-3.982.227-3.471-.846-7.526-1.91-1.418-.374-2.066-1.219-2.838-2.17-.142 1.801-1.825 4.927-2.33 7.242 1.147 1.831 4.818 3.156 6.794 3.599 2.582.577 3.42 1.754 8.236 2.057l6.14.68.211.169c1.09.141 1.2.282 2.54.282.377-1.729 1.002-2.917 1.361-4.88.335-1.835.589-3.293 1.096-4.938.748-2.42 2.782-6.631 2.835-9.189-.857.615-1.556 2.004-2.377 2.89zm19.435-91.049l5.595 1.036c.231-2.962.967-5.258 1.722-7.665 1.927-6.142 1.41-8.872 3.856-13.597h-22.032a7.406 7.406 0 00-.058.895l-.16.226c-.149 1.663-.466 2.485-1.04 3.695-.567 1.194-.802 1.96-1.126 3.324-.947 3.986-1.909 2.69-1.909 7.012 1.909 1.08 2.651 1.817 4.385 2.554 2.298.978 7.952 1.962 10.767 2.52zm1.149 23.948c-.353-.657-1.421-1.984-2.199-2.23-1.369-.435-2.462.195-3.722.148l-6.862-1.508c-4.218-1.5-4.104-2.443-7.662-5.162l-2.207-1.94c-.467.366-1.139 1.273-1.056 2.235.084.96.798 1.485 1.268 2.064l.213.227c.53.38.628.62 1.118 1.067.395.36.82.613 1.252.925.833.598 1.629 1.133 2.71 1.401l.212.17c3.098 1.167 4.578 2.012 7.263 3.608l2.051 1.427c-3.866 0-12.985-1.375-15.242-4.977l-.212-.228c-.306-.489-.4-.781-.846-1.131-.752 3.454-4.376 3.171-5.568 4.935-.943 1.394 1.398 3.226 2.13 3.945.642.629.946 1.27 1.825 1.67.461.21.798.267 1.254.47l3.323 1.653c.842.354 1.566.67 2.318 1.143 1.709 1.077 3.353 1.362 4.811 2.098 2.754 1.388 5.048 1.806 8.524 1.499 1.93-.17 4.029-.47 5.727-.893.159-.727.291-2.172-.04-3.12-1.07-3.082-3.125-.848-4.742-.408-2.285.621-3.632-.229-4.828-.455-1.702-.321-2.342-.056-4.436-1.143-.95-.494-4.147-2.266-5.006-2.341v-.453c1.758 0 4.288.218 5.916.465 2.208.333 3.167.567 5.61.089 1.824-.358 5.351-.293 6.333-1.83 1.53-2.394 1.123-1.103.929-3.25l-.159-.17zm2.54-12.729c0 3.198 5.081 3.29 5.081 0 0-3.211-5.081-3.644-5.081 0zM76.843 158.073c-.569-.885-2.93-3.435-3.688-3.977-.87.25-2.077 1.268-2.75 1.867l-.213.17c-.696.498-1.591 1.455-2.3 2.069-.83.719-1.52 1.316-2.356 2.06l-.16.17c-3.296 2.032-2.666 1.935-5.161 4.043-.865.731-1.658 1.375-2.519 2.061-.863.692-1.39 1.611-2.079 2.529-.77 1.03-1.513 1.348-2.313 2.281l-3.058 3.972c-1.662 1.663-1.37.546-2.917 3.671 1.446.36.865 1.034 1.895 1.594 1.455.79 1.398-.679 4.023 1.131.368.255.565.428.975.767 2.405 1.973 2.786.917 4.12 2.838.548.791.828 1.252 1.531 1.983 1.37 1.425 1.562 3.417 3.068 3.907l.265.168c1.668.173 2.069-.335 2.963-1.131l.213-.169c.615-.442 1.425-1.29 2.084-1.843 2.12-1.783 3.29-1.722 6.436-5.117 1.221-1.319 6.627-4.9 7.231-6.526.634-1.706 1.086-6.581.318-8.67-.247-.667-.575-.876-.713-1.275-.808-2.333 1.298.301-1.877-3.879-1.16-1.529-1.956-3.044-3.018-4.694zm-2.205 12.486l.212-.169c3.983-.994 1.164-1.067 5.503-.679l-6.774 5.261-.159.169c-1.182.729-2.029 1.585-3.228 2.263l-.17.226-4.318 2.897c-1.44 1.029-2.79 1.984-4.191 2.986.394-1.814 3.295-5.447 4.678-6.991l.212-.226c1.23-1.26 2.632-2.603 4.143-3.493 1.676-.983 2.26-1.555 4.092-2.244zm30.907-12.39l-.248-.038.248-.188v.226zm-28.791-6.562c.816 1.302 5.23 5.844 6.778 9.049 1.385 2.873 1.529 4.006 4.876 4.295 1.266.112 14.092-2.594 15.019-3.162.251-.151.617-.434.881-.641.267-.21.628-.461.862-.665.711-.615.824-1.31.375-2.314a.432.432 0 00.038-.128l-.169-1.064c-.172-.427-.334-.725-.504-1.071-.578.297-1.103.344-1.879.482-1.753.313-4.513 1.426-5.341 1.532-2.528.326-6.384.03-8.364-.517-1.373-.38-2.442-.52-3.846-.868l-6.106-2.979c-.779-.558-1.843-1.728-2.62-1.949zm23.923 14.935c-2.44 0-2.222-.189-3.953.754l-5.697 3.414c-1.054.778-3.681 3.721-4.255 4.955l-2.428 6.91c-.311.887-.947 2.57-1.028 3.711l-.158.171c-.172.983-.435 1.574-.75 2.422l-2.053 6.63c-1.436 5.864-3.026 8.66-4.475 13.322a78 78 0 01-1.455 4.328c-.694 1.854-2.605 6.81-2.751 8.882l-.16.171c-.483 2.75-1.638 4.56-2.193 7.441-.424 2.197-.688 6.526 1.163 8.087 1.058.892 1.409 1.07 3.602.402 1.403-.427 3.92-2.959 4.85-4.32 2.45-3.581 2.971-5.895 4.66-9.501l5.587-13.264c.723-1.952 1.755-5.468 1.755-7.629l.16-.227c.203-2.243 1.528-5.747 2.14-7.724 1.35-4.357 6.508-18.171 7.227-21.468l.158-.225c2.205-6.695.598-4.742.054-7.242z" fill="#0078BF"/><path fill-rule="evenodd" clip-rule="evenodd" d="M84.013 145.206c-.835-.752-2.128-1.897-2.39-3.103 1.592 1.141 10.328 4.256 12.611 4.642 1.773.3 2.868-.696 3.477-1.925-2.355 0-4.281-.693-6.056-1.448l-3.408-2.468c-.427-.384-.449-.507-.91-.837l-.21-.169c-.948-.841-3.031-2.317-3.6-3.226 1.695.151 5.54 1.565 6.773 2.263l.213.227c1.56.389 4.944 1.795 6.562 1.595 1.087-.136 2.25-1.263 2.329-2.275-7.09 0-5.26-1.018-9.24-2.114-1.856-.513-3.585-1.256-4.89-2.693-1.519-1.672-4.15-2.963-4.922-6.507a9.257 9.257 0 00-1.058.679c0 4.03.96 4.028-1.953 6.513-1.14.974-.327 1.898-.359 3.673-.061 3.423-1.943 2.395-1.696 4.929.023.234.207 1.652.29 1.984.533 2.109 4.98 5.546 6.945 5.984l.16.168c1.166.44 1.903 1.138 3.094 1.502 2.563.78 4.877 1.138 7.367.236 1.247-.453 1.698-1.04 2.24-2.134-4.676 0-5.116-1.596-8.231-2.966-.684-.301-2.46-1.92-3.138-2.53zm12.031-11.052c1.2.401 3.595 1.109 5.176.853 1.83-.294 4.203-.627 5.269-1.855 1.883-2.173-.797-1.92-2.007-1.918l-5.713.233-.21-.17c-1.306-.135-2.743-.558-3.737-1.041-1.018-.492-2.411-.812-3.62-1.11l-6.457-3.11-.159-.17a15.07 15.07 0 00-1.608-1.278c-.561-.399-.981-.874-1.566-1.041l-.16.225c-.178 1.963.001 2.73 2.06 4.305.689.526 1.174.783 1.98 1.277.672.41 1.746 1.894 3.707 2.6l4.714 1.524c.775.265 1.618.437 2.331.676zm-42.822 51.659c-.97-.406-1.393-.673-2.129-1.345-2.861-2.607-3.673.199-5.723 2.384-.648.692-.995 1.137-1.759 1.741-3.262 2.586-10.544 14.512-12.441 18.608-.425.92-.796 1.46-1.202 2.337-6.094 13.131-12.144 25.425-12.144 40.369l-.069.073c-.223 12.063 2.468 22.745 8.31 30.05-3.072-5.194-4.6-12.047-4.586-19.871.02-12.646 4.066-27.903 12.126-42.768 3.28-6.05 7.08-11.727 11.214-16.81 3.764-4.627 7.81-8.761 12.008-12.234-.707-1.268-2.472-2.057-3.605-2.534zm3.561 57.972c-.766-1.905-4.294-2.79-6.492-2.79 0 3.524-.37 4.808-1.652 7.057-1.065 1.87-1.843 3.578-2.72 5.691-1.044 2.512-3.046 5.718-4.575 8.009-1.83 2.743-2.698.933-.526 7.529l.16.225c1.221 2.469 3.182 5.17 6.14 5.432 0-1.102-.306-2.04-.397-2.973-.624-6.329 1.9-12.857 4.75-17.945 2.53-4.516 4.321-5.051 5.33-7.429.387-.915.36-1.871-.018-2.806zm-5.644-14.389c1.35.272 10.61 5.038 12.606 1.086 1.098-2.171.295-8.584.302-10.754.009-1.916.053-3.932-.148-5.499-.234-1.82-.042-4.152.115-5.636l.674-4.938.16-.227c.133-1.189.464-1.696.688-2.716-2.013 1.44-2.037 4.999-2.664 8.695-.597 3.518.13 10.673-2.286 14.528-2.469 3.934-3.885 2.622-7.038 1.81-2.14-.548-2.06-1.598-3.466-1.95-.946.741-2.301 4.318-2.964 5.658 1.236-.31 2.35-.227 3.862-.227l.159.17zm48.271-20.53c-.096 1.387.079 1.982-.193 3.194-.178.794-.192.281-.014 1.295.097.556.187.686.201 1.388l.901-3.337c.696-3.517 1.427-6.776 1.427-10.693 0-6.859-1.028-9.235-1.057-10.635h-.424c-.861 3.953.709 9.643-.268 16.005-.13.838-.505 1.824-.572 2.783zm-26.374 45.381c-1.069-1.249-1.514-2.706-2.745-3.854-.698-.651-.945-1.076-2.373-.756-1.279.286-5.04 3.349-5.559 4.312l-.159.169c-1.101 1.418-2.256 2.575-3.26 4.038-3.77 5.494-4.835 9.433-4.835 16.554 4.478-1.114 10.237-5.101 13.401-7.849.574-.497.948-.801 1.539-1.296l3.952-3.923c1.155-1.235 4.131-4.284 5.028-5.713-1.951-1.001-3.336.246-4.989-1.682zm9.16-19.881c-2.374 3.326-.258 4.816 1.544 7.305.954 1.317 1.325 2.136 2.75 2.491l3.46-6.032c3.824-7.521 5.017-9.926 7.978-18.185.565-1.575.199-4.895-.347-5.969-.54-1.061-1.398-1.686-2.992-1.451-2.13.317-4.047 2.513-4.835 4.576-.495 1.299-.906 2.2-1.388 3.494-.409 1.091-.826 2.234-1.267 3.398-.37.972-.9 2.243-1.386 3.271l-1.34 3.377-.158.17-2.019 3.555zm94.24-12.637c-2.41.975-4.776 1.27-7.506 2.387-1.651.675-2.753 1.488-4.958 1.488-.136.626-.102.511-.423.907 1.065 1.698 1.458 1.093 4.278.273 9.061-2.64 14.875-2.903 23.805-7.364 3.004-1.5 3.804-1.789 6.801-2.689.695-.209 1.503-.512 2.374-.687l.159-.17c2.862-.23 6.496-2.88 8.87-4.15 2.253-1.207 6.849-2.175 9.681-3.23 5.357-1.995 4.162-3.101 12.144-4.896 6.521-1.466 8.116-3.302 13.895-5.286.943-.323 3.126-1.7 3.729-2.578-.217-.863-.833-1.536-1.425-2.109-.898-.871-1.033-.532-2.032-.006-1.47.77-2.969 1.275-4.679 1.792-5.321 1.605-7.267 3.814-8.8 4.453l-.16.17-3.859 1.361c-1.113.492-2.367.959-3.381 1.59-1.826 1.139-4.622 2.721-6.599 3.582-1.287.562-2.501.878-3.785 1.385l-7.33 2.574c-1.406.485-2.165 1.028-3.676 1.332l-.211.17c-1.992.048-5.939 1.486-7.863 2.231-.87.337-1.309.658-2.272.967-5.703 1.846-3.745.914-9.673 3.463-1.634.705-3.267 1.256-4.782 1.902-.892.38-1.522.815-2.322 1.138z" fill="#0078BF"/></svg>