<svg width="355" height="355" fill="none" xmlns="http://www.w3.org/2000/svg"><path fill-rule="evenodd" clip-rule="evenodd" d="M0 355V0h355v355H0z" fill="#36AB4E"/><path fill-rule="evenodd" clip-rule="evenodd" d="M294.778 0c-1.03 1.023-2.158 2.284-3.441 3.706-13.974 15.498-8.148 28.135-13.765 34.913-6.772 8.175 3.674 34.94-5.459 47.337-3.817 5.18-17.353 4.119-26.916 4.119-53.756 0-46.458-15.412-88.92-29.824-17.315-5.878-11.538-14.281-46.222-14.281-23.396 0-43.394-1.476-43.394 27.706 0 22.91-6.6 28.519-2.78 54.234 2.468 16.607 2.583 42.439 7.206 56.029 3.274 9.622 2.144 2.264 4.573 14.186 3.138 15.398-6.15 5.904 4.426 35.574 19.544 54.839-16.22 53.063 7.738 88.92 5.44 8.142 29.097 8.732 40.471-.047 21.105-16.289 48.091 14.044 15.832-35.01-6.86-10.429-19.674-67.64-19.226-82.557.145-4.817-7.843-1.486-.145-22.197 2.088-5.619 4.674-49.962 6.415-48.822 14.385 9.421 16.292.539 27.513 9.999 7.024 5.923 18.317 8.281 33.038 22.005 12.97 12.091 23.675 17.863 35.672 33.831 13.616 18.121 13.484 31.999 25.766 47.868 11.618 15.009 27.104 16.33 46.32 17.159 10.34.446 35.125 1.673 55.52.855V0h-60.222z" fill="#FFED00"/><path fill-rule="evenodd" clip-rule="evenodd" d="M120.202 310.597c0 2.882.665 7.849 1.917 10.46-3.176 0-4.845-.349-8.368-.349.484-.914.701-.865 1.51-2.499a47.71 47.71 0 011.446-2.739c.58-1.01 2.653-4.31 3.495-4.873zM290.755 0h12.359l-.21.17c-2.037 1.65-4.52 3.153-6.344 4.985-1.204 1.208-2.975 3.81-3.847 5.217-1.19 1.92-2.122 3.852-3.288 5.775-.607 1.004-.97 1.928-1.476 3.058-1.986 4.442-3.257 8.99-4.381 13.748-1.426 6.053-3.879 12.778-1.894 19.601.835 2.867 1.276 4.018 2.357 6.709.457 1.136.803 2.1 1.304 3.227 1.963 4.415 1.937 4.87 4.648 8.948.913 1.376 2.906 5.489 3.137 5.754-.069-.831-3.691-9.128-4.3-10.343-.904-1.804-1.661-2.908-2.348-4.973-1.376-4.144-2.368-7.483-2.591-12.053-.099-2.055-.796-4.364-.449-6.725.458-3.128.623-6.394 1.601-9.379.271-.833.729-1.962 1.288-2.371-.03 1.339-.445 2.283-.35 4.01l.303 3.882c.181 1.37.166 2.829.341 4.015.359 2.41.889 4.682 1.545 6.997.409 1.447 1.077 1.512 1.276 2.909.26 1.841 3.044 7.132 4.137 8.761.599.894 1.074 1.695 1.639 2.543 1.143 1.715 2.102 3.506 3.082 5.461.495.992.871 2.07 1.275 3.082.396.984.809 2.052 1.196 2.987a42.688 42.688 0 001.363 2.995c.279.558.374.89.633 1.459.112.245.213.448.362.683.159.254.301.412.455.591-.043-1.855-.801-4.024-1.177-5.794-.437-2.076-.795-3.532-1.464-5.336-1.634-4.405-3.194-6.072-4.432-9.338-1.414-3.732-2.587-5.96-3.243-10.529-.838-5.856-.819-12.886 1.276-18.482l5.13-12.126c.766-1.845 1.825-3.929 3.387-5.158 1.611-1.265 2.011-3.579 3.36-5.178 1.346-1.592 2.903-2.98 4.089-4.627.648-.902 1.181-2.411 2.139-2.917 0 2.775-.642 4.443-1.569 6.275-3.856 7.637-6.456 9.35-7.945 19.073-.35 2.28-.749 4.517-.779 6.892l-.171 3.662c-.075 2.458.232 4.846.496 7.184.771 6.832 3.064 11.453 5.66 17.525.78 1.824 1.571 3.596 2.196 5.475l2.01 5.657c.749 1.935 1.416 3.604 2.468 5.378 1.955 3.296 3.451 6.732 5.188 10.15 1.463 2.877 1.456 4.487 3.252 4.069 0-2.953-1.681-4.753-2.905-7.204l-1.275-2.56c-.246-.473-.463-.744-.705-1.214l-1.239-2.77c-.354-.982-.595-1.98-.883-3.126-.672-2.66-.705-4.389-.487-7.008.123.192.022-.037.165.359l.197.846c.093.446.186.715.309 1.087.593 1.76 5.232 11.618 6.475 13.046 0-5.41-3.884-11.6-5.229-16.558-.605-2.227-1.633-4.299-2.107-6.61-.608-2.97-1.373-6.005-1.703-9.102-.385-3.624.235-6.464.322-9.914.073-2.834.846-4.96 1.746-6.967.666-1.483 1.627-2.68 2.327-4.124.267-.55.375-.966.634-1.457.749-.233-.636-.291.15.107.082.041.119.249.436-.18.452-.609.176-.55.809-.974-.198 2.37-1.343 4.109-1.669 6.52-.329 2.412-.564 4.9-.762 7.26-.234 2.795.965 12.153 1.523 14.497 1.47 6.17 4.404 11.377 6.95 17.104l2.15 4.998c.145.289.163.307.349.521-.015-.755-.261-1.746-.397-2.566-.967-5.8-2.253-11.305-2.73-17.316-.04-.505.023-1.045-.019-1.549-.247-3.044.033-1.522.009-3.846-.037-3.343.603-6.966 1.395-10.11a85.94 85.94 0 01.62-2.34c.177-.62.355-1.537.774-2.017 0 1.365.18 2.132.181 3.308.004 2.374.325 4.18.522 6.448l.765 9.346c.293 2.126.465 4.021.796 6 .767 4.583 1.55 8.118 3.489 11.852.225.433.355.67.622 1.121l2.414 4.386c.44.739.84 1.376 1.494 1.816-.08-.982-.675-2.516-.982-3.55-3.02-10.17-3.782-16.752-2.231-27.904.764-5.48 1.158-10.821 2.184-15.945.969-4.842 1.4-6.465 2.88-10.715.268-.765.896-2.656 1.461-3.07 0 3.492-1.598 14.556-2.101 18.116-.415 2.95-.391 6.708-.788 9.324-.696 4.614.999 13.025 1.845 18.057.967 5.76 2.632 15.139 4.424 20.677.362 1.118.9 2.161 2.374 2.504.047-2.1.853-1.371.511-5.913l-1.805-11.793c-1.194-7.753-4.484-18.167-2.992-26.497.101-.559.185-.928.305-1.44.153-.658.017-.723.495-1.072 0 2.686.634 5.382 1.023 7.69.422 2.5.65 5.16 1.068 7.652.8 4.802 1.927 9.645 3.176 14.079.617 2.192 1.204 4.544 1.944 6.771 1.375 4.129 3.215 5.475 3.247 9.512v13.039c-.658-.442-.538-.673-1.045-1.047-.702.47-1.39 1.099-2.115 1.578l.198.689c-1.248-.333.104-.644-2.34.799-4.19 2.474-6.069 1.383-7.332 2.081-1.52.84-2.455 1.118-4.614.946-1.04-.083-2.205-.434-3.157-.503-6.196-.441-12.099.283-17.933-.542-.977-.14-2.291-.415-3.177-.498-.924-.087-3.043.599-6.971.185a66.572 66.572 0 00-6.948-.379c-2.772-.016-3.899.377-5.983 1.512-1.438.782-3.251 2.051-4.344 3.154-1.815 1.834-2.182 2.429-2.527 4.97-.146 1.067 1.127 9.547 1.183 11.803.09 3.666 1.077 7.58 1.593 11.305.434 3.125 1.515 4.718 1.083 6.022-.446 1.353-1.293 1.038-2.158.456 0 4.251-2.325 10.117-4.01 14.121l-.969 3.56c-.443 2.049-.63 2.028-1.052 3.481-.497 1.706-3.475 15.459-2.657 17.159 1.472 3.066 2.673 7.627 4.401 11.462l1.663 2.871c3.019 5.045 5.338 8.829 8.9 13.587l6.141 7.455c2.309 2.336 3.95 4.317 6.624 6.798l10.02 7.933c.902.673 1.665 1.297 2.53 2.003l2.421 1.958.153.174.523.347.175.175.37.174.153.175c.539.287.843.513 1.45.816l7.557 3.598c1.027.477 1.887.942 2.904 1.455 5.128 2.585 9.109 2.498 15.107 2.498-.55-.75-2.067-.767-2.789-1.394 2.489 0 4.511-.349 6.972-.349v3.834c-1.295.108-2.878.535-4.207.674l-9.384.019c-1.771-.053-2.903.191-4.536.181-1.92-.013-2.787.153-4.543.007-1.59-.133-2.995-.027-4.507-.196-2.752-.306-5.323-1.068-8.208-1.38-2.781-.302-5.382-.961-8.092-1.497-2.949-.583-4.716-1.467-7.08-2.51-2.23-.985-4.636-1.704-6.944-2.64-2.167-.878-4.131-2.268-6.175-3.411-2.06-1.151-4.247-2.102-6.188-3.399-1.56-1.044-9-6.917-10.624-8.551-1.612-1.624-3.808-2.541-5.573-4.014-.49-.409-.739-.818-1.131-1.309-1.38-1.729-3.608-1.075-5.716-1.082-5.897-.024-12.499 1.522-17.205-1.275-1.985-1.181-3.562-2.863-5.456-4.129.299 1.281.814 2.9 1.238 4.164.435 1.278 1.129 2.474 1.726 3.679l2.61 5.406c1.454 2.95 2.956 5.747 4.779 8.471a63.904 63.904 0 002.247 3.156c.413.548.711.945 1.121 1.494.439.592.709.865 1.165 1.449.433.551.922.791 1.458 1.332.474.48.827.831 1.306 1.31.974.974 1.791 1.682 2.786 2.615 1.396 1.309 3.047 2.305 4.567 3.454 1.542 1.161 3.087 2.285 4.805 3.213 1.11.6 2.143 1.284 3.208 2.02 4.393 3.044 2.867 1.759 7.204 3.429 1.363.526 2.482 1.047 3.828 1.576 4.463 1.756 9.536 1.725 14.203 1.199 1.75-.197 3.114-.39 5.026-.38 4.546.022 9.206-1.144 13.493-2.369 4.039-1.154 5.642-.654 9.441-1.19 3.217-.457 6.541-.473 9.637-.996 2.717-.463 6.343-1.226 9.437-1.199 3.252.029 7.007-.347 10.284-.347v14.469l-4.999-.752c-.622-.092-1.926-.279-2.667-.297-1.132-.029-1.559-.177-2.617-.175l-5.418-.341c-1.068-.094-1.497.173-2.595.174l-8.373.17c-2.613-.006-8.691.132-10.882.448-.72.105-1.936.216-2.543.246-1.092.054-1.576.161-2.613.175l-8.043.499c-2.771.312-11.355.459-13.894.176-6.186-.694-13.759-.311-19.192-3.47-1.493-.867-3.142-1.55-4.409-2.739-.358-.336-.424-.319-.776-.619-.549-.464-.921-.816-1.501-1.286-2.637-2.131-5.193-4.392-7.996-6.296-2.102-1.428-1.634-1.348-3.079-2.5-1.021-.812-1.977-1.868-2.792-2.962l-2.263-3.314c-.429-.578-.738-1.003-1.128-1.66-2.641-4.445-2.103-3.324-3.584-7.748-1.877-5.613-3.852-10.997-6.479-16.182-.436-.865-.288-1.357-.584-2.378-.594-2.043-1.367-4.21-2.255-6.114-1.364-2.935-2.592-4.497-4.995-6.334-1.576-1.204-3.37-2.33-4.762-3.778-.97-1.01.193-1.062-2.56-3.193-3.157-2.445-5.939-5.907-7.222-6.898-1.614-1.247-3.803-3.277-5.104-4.832-3.239-3.873-4.236-3.818-6.543-6.181-2.105-2.153-10.994-9.226-13.863-11.588-.553-.454-1.014-.763-1.569-1.219-1.249-1.026-1.991-1.417-2.882-2.87-.586-.953-1.905-2.012-2.86-2.72-2.145-1.592-4.675-2.896-6.824-4.506-2.659-1.99-3.544-2.918-6.593-4.736-2.365-1.411-4.379-3.175-6.642-4.688-1.203-.804-2.224-1.5-3.58-2.173-.656-.327-1.242-.563-1.936-.854-4.39-1.828-6.062-3.279-9.274-4.844-3.772-1.839-4.286-1.776-8.235-3.097-2.732-.914-5.177-2.307-7.692-3.637 0 1.798-.001 3.076-.207 4.674-.352 2.773.201 6.373-.19 9.222-.142 1.046-.308 3.188-.302 4.403.031 5.244-.137 8.461-.534 13.586-.516 6.684-2.095 13.05-4.323 19.21-1.003 2.778-1.461 4.567-1.939 7.473-.336 2.053-1.395 6.168-1.395 8.019.699.059 2.137.631 2.733.925 1.561.771 2.812 2.17 3.689 3.635.396.659.727 1.666.965 2.522 1.022 3.702.882 8.679-.877 12.152-.668 1.319-.894 1.083-.288 2.429.373.826.717 1.639 1.098 2.393.806 1.592 1.607 3.132 2.099 5.051.335 1.312 1.879 11.006 1.912 12.378.057 2.233.567 4.426 1.043 6.28l2.615 8.191c.355.893.72 1.525 1.076 2.411.68 1.692 1.136 3.507 1.948 5.199.817 1.698 1.311 3.297 1.967 5.18.641 1.844 1.534 3.058 2.394 4.753l4.645 9.649c1.12 0 2.094-.297 3.137-.35 4.343-.23 8.588.218 12.905.344.79.022 2.315.214 3.005.306 1.062.144 2.171-.046 3.239.073l4.732.324c.505.027 1.067-.015 1.576-.008 1.958.021 4.184.376 6.268.356 1.334-.014 1.891.185 3.135.176l25.795.875c3.688.111 23.96-.305 26.43.068 2.063.313 4.367-.068 6.512.111 1.749.145 11.561.453 12.984.237 2.028-.306 13.241-.08 16.485-.073 1.308.003 2.047-.167 3.132-.18 2.342-.029 4.147.18 6.454.18 4.792 0 13.714-.852 18.643-1.23.856-.066 2.337-.222 3.173-.313l7.818-.548c6.859-.343 13.62-.871 20.569-.871 3.304 0 18.549.375 19.697-.175v40.615h-13.42l-6.45-.179c-1.036.062-1.841.179-3.138.179l-16.561.174c-2.37 0-4.093.174-6.449.174-10.944 0-20.558 1.283-31.51-1.088-2.974-.644-3.197-.333-5.96-.298-2.2.027-4.428-.008-6.631-.008-8.94 0-17.405.348-26.322.348h-13.247c-4.552 0-8.407.538-12.902.519-1.24-.006-1.806.187-3.134.179l-34.688 1.918c-2.26.123-4.193.1-6.456.168-1.037.031-1.841.181-3.131.18l-6.45.173c-.978-.001-2.358-.078-3.287.027-1.908.214-4.297.148-6.474.148-7.642 0-15.39-.031-23.01.348l-6.302.498c-.721.081-2.531.075-3.239-.021-1.811-.249-4.387-.129-6.497-.127-10.381.005-13.107-2.813-17.254-2.792-2.584.015-3.927-.032-5.701-.924-3.074-1.544-4.82-3.883-6.33-6.918-1.973-3.968-2.609-4.772-4.03-9.217-1.203-3.756-1.522-6.72-1.552-11.703-.021-4.065.926-7.912 1.574-11.849.496-2.998 2.948-17.597 2.589-20.718-.549-4.795-.514-3.8-1.915-8.021-.597-1.797-1.022-3.369-.722-5.651.288-2.208.758-7.118.752-9.369-.01-2.781-.64-6-1.467-8.469-.576-1.716-1.047-3.317-1.565-5.06-.928-3.119-3.266-7.498-3.63-9.62-.412-2.423.13-9.421 2.819-10.139-.881-3.786-1.66-7.884-2.423-11.696-.382-1.92-.965-3.734-1.37-5.602-.874-4.041-1.34-7.908-2.01-11.936l-1.742-12.203c-.512-3.852-1.499-7.818-2.424-11.52l-1.81-8.649c-.663-2.982-1.224-5.938-1.455-9.004-.182-2.414-.417-3.988-.81-6.162-.646-3.563-.832-5.891-.94-9.521-.087-2.901-.708-7.206-.28-10.029.34-2.255.027-4.421.519-6.626.42-1.883 1.119-3.408 1.605-5.371 1.105-4.47 1.847-5.636 1.979-10.22.025-.834.14-.796.181-1.561.213-3.922-.38-7.125-.01-11.865l.353-6.62c.024-.834.139-.794.179-1.563.13-2.365-.03-4.619.32-6.654.347-2.003.745-3.967 1.394-5.577.979-2.418 2.581-4.36 4.343-6.116l1.832-1.655c2.055-1.96 5.571-4.375 8.009-5.938 1.494-.96 2.894-1.664 4.497-2.475 5.376-2.715 17.902-4.406 24.277-3.533 2.087.286 4.534.008 6.649.322.968.145 2.301.193 3.233.255 4.615.31 10.149 1.592 14.454 2.98 2.607.84 5.096 1.727 7.515 2.94 8.821 4.426 9.018 3.854 17.671 6.733 5.85 1.946 8.507 4.2 13.65 7.269 3.019 1.802 6.102 3.057 9.177 4.768 1.437.8 2.967 1.763 4.252 2.719 3.334 2.478 5.495 3.136 8.798 5.146 2.248 1.37 7.113 3.302 9.494 4.454l2.4 1.085c.868.36 1.592.663 2.426 1.063 1.635.786 3.219 1.332 4.945 2.025 1.731.695 3.378 1.261 5.127 1.845 1.774.59 3.501 1.047 5.316 1.657 1.282.432 4.08 1.609 5.166 1.807 2.137.391 3.933.566 6.405.566 1.028 0 2.484.085 3.46-.023.881-.1 2.259-.101 3.237-.25 1.799-.272 4.888-.085 6.735-.24 1.346-.111 2.213.14 3.296.17 3.403.104 6.948-.09 10.282.179 2.09.17 4.097.61 5.934 1.037 0-3.47 1.102-5.562 1.054-8.897-.058-4.077-1.517-8.361-1.08-12.395l.651-5.452c.529-2.82 1.099-6.017 2.199-8.26l1.235-3.121c.54-1.261 1.004-2.104 1.581-3.3 2.215-4.62 3.685-9.785 4.958-14.741.348-1.363.689-2.407.98-3.9.272-1.392.527-2.653.867-4.015.502-2.02 1.306-3.597 2.08-5.414.278-.653.351-1.165.508-1.932.29-1.39.772-2.544 1.2-3.852.38-1.15.827-2.41 1.323-3.563.491-1.138 1.14-2.264 1.864-3.19 1.188-1.514 2.798-2.57 4.189-3.875zm-159.05 320.533c-2.97 0-2.099-.727-3.835-.872.555-1.048 1.166-1.601 1.533-2.826l1.104-3.427c.712-1.985.376-2.108 2.241-2.293.703-.067 3.609-.325 4.013-.518-.429 1.84-.966 4.173-1.64 5.858-.403 1.005-2.154 4.078-3.416 4.078zm6.451-1.569c-2.163 0 .315-3.05.558-3.8 1.042-3.247-1.194-2.355 3.052-8.115.59-.8 1.558-1.481 1.055.888-.368 1.732-1.875 9.082-3.237 10.19-.221.181-1.169.837-1.428.837zm-1.395-8.542c-2.102-1.112-5.884-4.078-7.602-.978-.515.933-1.227 3.161-1.291 4.462-.042.88 0 1.902.004 2.795.008 1.218-.176 1.656-.176 2.786-.809-.188-2.296-.881-2.823-1.36-.553-.5-.981-2.193-1.246-3.11-.173-.592-.287-1.159-.439-1.654-.174-.564-.37-1.072-.509-1.582-1.167-4.222-1.552-2.455.866-6.032.969-1.432 2.869-3.591 4.121-4.595.454-.367.911-.56 1.417-.851 1.906-1.1 5.82-3.141 7.917-2.499 4.335 1.33 2.343 3.293 4.294 4.601-1.588 2.997-2.762 3.983-3.668 5.746-.372.729-.522 1.554-.865 2.271zM123.339 290.9l.051.052c-.003-.005-.069-.036-.051-.052zm.173-.698c0-.446.277-.027.105 0-.002.001-.105.487-.105 0zm.175-.696c0-.447.277-.03.105 0-.003 0-.105.486-.105 0zm.175-.699c-.064-.328.22-.618.109-.109-.002.012.004.717-.109.109zm.175-.697c0-.445.274-.027.104 0-.004 0-.104.488-.104 0zm163.331-58.569l-.175-.174.175.174zm-1.223-1.046l-.174-.173.174.173zm-166.816-4.009c0 1.084.824 2.562 1.026 3.68l2.984 11.659c-2.406 0-4.31-.87-5.753-.87l.873-.698c-.995-.082-2.189-.55-3.207-.802l-6.719-1.299c-1.154-.162-2.559-.394-3.688-.498-2.546-.236-4.983-.063-7.359.28-3.141.447-4.467 1.273-7.79 1.273-1.104 0-1.466-5.166-1.699-6.321-1.186-5.915-1.886-8.634.884-14.192 1.083-2.176 4.17-5.906 6-7.769 1.473-1.498 1.311-.82 3.578-1.129l11.108-.572c.771 0 3.141.995 4.124 1.282 1.815.529 4.899 2.547 7.306 3.5.552.221 1.57.496 1.918.872 1.761 1.904-.182 4.971-1.204 7.012-.625 1.247-.303 1.246-1.46 2.029-.745.504-.922 1.599-.922 2.563zm-43.054-8.193l.174-.173c.469-2.012 2.379-2.737 4.058-4.141.694-.582 1.12-.577 1.868-.219.726 3.114-1.934.113-1.918 8.542.001 1.283.447 6.353.814 7.206.311.719.617 1.135 1.033 1.756 1.805 2.684 2.223 4.232 2.17 8.651-.026 2.136-.649 3.011.161 4.528.595 1.115 1.517 2.338 2.597 2.985 1.091.655 3.067.83 4.573.518 11.686-2.419 10.337-3.675 23.522-3.512 2.807.034 4.849.861 7.148 1.044l2.259-.019c.545.03.647 3.265.726 4.007.15 1.416.493 2.37.907 3.624.448 1.353.712 2.034 1.385 3.15.654 1.082 1.016 1.969 1.63 3.073 2.17 3.909 1.253 1.311 2.707 6.53.659 2.364 2.254 5.529 3.35 8.159l1.951 5.02c1.065 3.051 1.393 2.6 2.704 6.534l2.357 6.884c.565 1.639 1.117 5.762.126 7.672a.81.81 0 01-.064.108c-.997-4.282-.526-2.082-2.669-3.954-1.453-1.273-6.819-2.57-7.369-2.429-.984.25.098.458-2.185 1.134-1.42.418-3.42 1.382-4.51 2.111 0-2.782 1.441-3.259.273-8.814-.144-.673-.273-2.327-.273-3.038-.185.136-.094.052-.255.267l-.076.101c-.018.029-.049.08-.069.106-.016.028-.048.088-.062.11-.015.023-.038.078-.062.112l-.284-.586c-.017-.041-.032-.087-.048-.128-.065-.169-.052-.184-.134-.387a6.6 6.6 0 00-.107-.242l-.124-.225c-.374 1.602-.164 1.951-.917 2.917-.586.748-1.102 1.635-1.523 2.485-2.876 5.797-4.673 12.946-8.567 18.8-.39.586-1.361 1.121-2.199 1.81-2.611 2.143-1.828 1.898-4.875 2.973-.882.312-2.019.696-2.938.894-2.201.475-3.711.354-6.871 1.148-.9.228-2.307.698-3.311.698-.13-.482-.38-.69-.672-1.072l-2.328-3.076c-3.344-5.311-4.52-9.919-5.444-16.171-.149-1.017-.371-2.144-.445-3.055-.083-1.038 1.78-7.56 2.11-8.678a67.85 67.85 0 00.748-2.739c.986-3.907 1.194-9.208.21-13.076-.626-2.466-1.473-6.856-2.256-8.552-1-2.155-.18-4.015-.112-6.328.156-5.185-.848-7.656-2.338-12.14-.33-.99-.517-1.869-.826-2.834-.712-2.222-.04-.814-1.082-2.58-1.787-3.031-1.368-7.025-2.167-10.382-.153-.655-.335-.866-.39-1.529-1.682-.14-1.527-.855-1.895-2.113-.759-2.587-.24-1.512-.196-3.465zm202.899-29.806h.175v1.569h-.175v-1.569zm-35.56-9.762c-.299.037-.245-.515-.01-.234l.005.017.005.051c.002.014.146.148 0 .166zm44.451-30.157c-.063-.33.219-.619.11-.11-.002.011.004.719-.11.11zm-15.514 63.972c-.394-.452-.659-1.384-.874-1.916-1.454-3.638-.37-3.792-.943-7.596l-1.145-16.11c.008-1.164-.181-1.504-.182-2.611-.002-.948.059-2.04.006-2.969v-2.44c.055-.94-.074-2.005.026-2.937.68-6.316 3.046-15.817 5.146-21.881.28-.813.25-.3.324-1.036.259-2.563 1.895-6.288 2.874-8.483.591-1.327 1.287-2.437 1.866-3.884.598-1.504.884-2.833 1.268-4.486h.349c.353 1.326 2.671 3.798 3.491 5.4l2.085 4.539c.804 1.557 1.522.83-.29 5.11l-1.967 3.088c-2.321 4.013-1.68 3.838-2.772 7.339l-2.271 7.664c-.64 2.037-1.851 10.156-2.284 12.707-.725 4.299-1.623 8.129-2.372 12.793-.132.834-.15 1.353-.291 2.149-.113.641-.233 1.241-.356 2.087-.423 2.947-.248 3.221-.92 6.574-.427 2.14-.768 4.781-.768 6.899zm-146.249-76.174h.174v.872h-.174v-.872zm196.799-49.157c.016-.017.054.028.054.052l-.054-.052zm-29.284-6.45c.017-.016.05.03.05.052l-.05-.051zm-.175-.348l.053.052c-.006-.003-.07-.035-.053-.052zm-.173-.523l.199.34-.199-.34zm-.176-.348l.176.348-.176-.348zm-.173-.348l.173.348-.173-.348zM85.512 97.412l-1.357-1.256c.003 2.747 6.103 9.266 8.01 11.862.295.402.48.707.792 1.124.34.452.577.743.889 1.202 1.11 1.621 1.991 3.253 3.103 4.916.294.444.463.78.74 1.179 3.64 5.218 4.884 8.704 7.461 14.501 2.667 5.999 4.036 11.959 5.169 18.714.179 1.07.185 2.38.368 3.637.291 1.974.377 7.247.445 9.496.025.878.176.962.185 1.904.029 2.408.36 5.083.345 7.499l-.008 13.954c.014 1.256.51 7.677.885 8.705.158.444.044.161.167.353l.844-3.864c.425-1.321 3.415-4.767 4.887-9.403 1.345-4.241 2.703-11.098 3.344-15.66.489-3.489.511-5.393.511-8.899 0-6.038.328-12.776-.378-18.621-.243-1.996-.718-3.96-1.263-5.884-.203-.72-.485-1.217-.624-1.817 1.393.933 3.019 1.545 4.357 2.441 0 3.69-.17 7.589.302 11.205.344 2.659.262 5.712.229 8.499l-.522 8.193c-.156 1.967-.161 3.469-.41 5.344-.214 1.625-.407 3.477-.784 4.969-.362 1.441-.831 3.368-1.429 4.495.118-.03.333-.133.368-.141.422-.112.012-.171.33-.032-.62 1.29-1.35 10.679-1.668 12.974-.424 3.048-1.296 10.429-1.296 13.523-1.422-.332-3.282-1.081-4.882-1.061-1.04.014-1.556.197-2.786.189-3.527-.019-1.654.45-5.092-.49-5.541-1.516-13.75-.692-18.866.763-1.8.51-2.715.945-4.228 1.7a17.5 17.5 0 00-1.868 1.092c-.68.444-1.2.928-2.02 1.117-.073-3.208-1.994-12.31-2.66-15.471-1.035-4.925-2.428-9.852-3.486-14.816l-2.187-10.014c-.776-3.281-1.274-6.794-1.939-10.089-1.373-6.814-2.71-13.684-3.774-20.628-1.247-8.119-1.825-13.94-.627-22.268l.58-5.523c.205-1.943.086-3.356.69-5.409 2.139-7.267.927-5.728 1.596-10.606.532-3.896-.442-8.693.025-11.827.735-4.902.069-12.942 1.445-16.86.6-1.714 1.889-3.106 3.246-4.25 3.531-2.985 3.017-6.26 8.075-8.83 1.402-.715 3.153-.836 4.838-1.266 2.377-.6 7.188-2.47 9.511-2.518 2.11-.04 3.779-.353 5.752-.344 2.098.007 3.933-.02 5.923-.18 2.672-.215 2.576-.21 5.164.256 5.113.92 10.457 1.484 15.437 2.867 2.085.578 6.433 2.453 8.716 3.31l17.226 7.181 7.711 4.49c1.265.765 2.49 1.382 3.858 2.067 5.559 2.778 10.288 5.539 15.421 8.984a50.314 50.314 0 003.811 2.291c.661.36 1.252.67 1.904 1.06 3.275 1.953 7.765 4.027 9.976 5.362 4.171 2.519 7.436 4.378 12.301 6.002 3.807 1.27 8.339 2.083 12.629 2.535 2.998.316 2.827.704 5.489 2.181.429.239.575.358.992.579-.027 1.115-.394 1.992-.237 3.013.24 1.577.439 1.568 1.106 2.564l-1.111.981c-.243.274-.14.02-.282.413.981 0 1.943-.1 2.689.278 1.114.561 1.542.144 2.359-.281 1.136-.594 3.686-.746 5.079-1.025.911-.182 1.52-.48 2.426-.539.904-.053 1.952-.1 2.913-.223 3.083-.393 24.931-3.452 26.718-4.31.262 1.122 1.36 3.113 1.906 4.02 3.266 5.414 3.17 8.204 3.658 14.47.255 3.266.454 8.11 1.456 10.572.517 1.275 3.052 6.819 4.137 8.067-.246.364-.302.373-.579.818-1.294 2.086-3.135 3.758-4.408 5.875-2.115 3.516-2.698 8.651-4.477 13.13-.323.815-.566 1.271-.846 2.119-.74 2.244-1.522 4.417-2.102 6.786-1.014 4.142-1.585 3.029-2.358 9.322-.058.467-.037.819-.117 1.275l-.759 3.775c-.884 4.412-.406 18.459-.388 22.969.004 1.188-.188 1.591-.182 2.781l.178 5.756c.036 1.256.267 1.641.349 2.616-3.325-3.824-4.239-9.807-3.686-14.843.215-1.962-.02-4.083.247-6.028.322-2.355.202-5.487.595-7.771.636-3.681 1.054-7.046 1.84-10.711l3.128-13.604c.227-.907.816-2.509.838-3.522-.123-.213-.107.058-.089-.295l.089-.402c-1.26.845-2.823 3.626-3.67 5.047-.626 1.049-1.468 2.129-2.499 2.902l-4.29 2.858c-4.782 3.149-7.097 6.02-13.781 7.485-1.592.349-7.574 1.272-9.317 1.128-.897-.071-2.177-.419-2.989-.654-4.599-1.324-9.771-4.716-13.682-7.582-1.535-1.125-5.663-6.104-6.636-7.659l-4.553-7.822c-1.192-2.174-.728-1.696-.477-4.262.124-1.242.115-1.935-.162-3.12.788.018.921.198 1.57.35l-.973-1.294c-2.207-2.206-6.306-3.212-9.237-4.36-.942-.371-6.636-1.104-8.342-1.419-5.099-.945-10.218-2.47-14.866-4.31-1.623-.643-3.162-1.009-4.864-1.582-3.266-1.101-6.459-1.899-9.579-3.147-3.1-1.24-5.655-2.826-8.741-4.158-3.255-1.404-5.497-2.306-8.452-4.274-3.568-2.379-4.425-2.84-8.456-4.444-4.614-1.832-8.129-4.486-12.242-6.932-1.297-.771-2.769-1.598-4.021-2.428-3.125-2.076-6.41-4.184-9.411-6.452l-3.802-2.648c-1.873-1.268-3.627-2.782-5.382-4.206l-8.638-7.396c-.656-.57-.932-1.118-1.569-1.744-1.57-1.542-2.868-3.433-4.262-5.153-.54-.666-.952-1.171-1.415-1.896-1.234-1.932-2.347-4.348-2.964-6.623-.198-.73-.194-2.19-.73-2.581-.163.7-.35.834-.35 1.741-1.012-.74-.35-1.973-1.742-2.09-.455.68-.402 1.346-.351 2.267.252 4.348 1.801 11.523 3.12 15.184 1.348 3.747 3.609 6.715 5.946 9.741.42.542.76.833 1.198 1.419.397.529.695.993 1.092 1.522 3.139 4.167 7.315 7.474 10.663 11.476.235.282.427.448.689.707.477.476.829.827 1.306 1.306 3.546 3.545 7.84 6.101 11.822 9.094 1.073.806 1.892 1.474 2.941 2.29 3.707 2.882 3.084 3.136 7.709 5.364.639.307 1.182.496 1.85.766 1.286.518 2.5.929 3.852 1.376 2.61.86 5.009 1.909 7.553 2.906 3.764 1.474 5.736 2.707 9.064 4.009.683.267 1.212.474 1.901.712l11.447 4.242c2.478.994 4.788 2.08 7.043 3.416 2.153 1.275 4.128 2.853 6.129 4.331 4.034 2.98 8.252 5.561 11.923 8.995l1.395 1.221c.439.411.948.766 1.453 1.16.57.445.82.834 1.341 1.273.473.399 1.042.725 1.522 1.093 3.563 2.736 4.788 4.685 8.468 7.221 2.288 1.571 4.605 3.147 6.399 5.28 2.201 2.618 4.883 4.771 6.993 7.474.873 1.12 2.853 2.738 3.982 3.861 1.314 1.308 2.389 2.818 3.576 4.271 1.605 1.967 3.608 3.285 5.619 4.838 2.73 2.108 3.705 4.362 6.572 6.501.553.412.948.734 1.467 1.147.996.795 1.902 1.515 2.901 2.329.582.478.852.744 1.392 1.222l2.133 1.704c3.591 2.52 9.2 4.728 13.325 6.372 1.458.582 4.204 2.197 5.828 1.988.902-.117 1.048-.659 1.941-.866-1.964 2.931-2.943 2.786-6.876 2.17-2.734-.428-5.346-1.257-7.48-2.284-3.294-1.589-6.653-2.918-9.528-5.112l-2.585-2.297c-3.134-2.522-6.292-4.943-9.307-7.6-.443-.389-.8-.793-1.223-1.22-3.88-3.915-2.716-1.361-7.35-7.29-2.054-2.628-3.802-2.676-7.04-7.428-1.332-1.958-3.013-3.435-4.693-5.069-1.336-1.299-4.165-2.612-5.823-3.938-.934-.745-1.742-1.435-2.714-2.169-2.889-2.171-6.135-2.828-9.157-5.309-4.643-3.817-3.382-2.913-8.467-6.176a29.41 29.41 0 01-1.456-.985c-.535-.393-.852-.7-1.342-1.097-3.74-3.048-7.72-4.915-11.395-7.953-3.719-3.073-8.53-4.478-12.675-6.849-.495-.283-.968-.609-1.522-.918-.565-.315-1.089-.548-1.626-.817-1.108-.554-2.116-1.093-3.31-1.568a33.121 33.121 0 00-3.525-1.182c-4.871-1.355-8.794-4.141-13.213-6.311-.552-.27-1.027-.52-1.622-.818-2.844-1.424-5.157-2.53-7.739-4.462-2.716-2.032-6.053-3.566-8.461-6.006-.498-.51-.691-.714-1.276-1.167-.527-.406-.781-.745-1.248-1.194l-2.659-2.218c-.919-.706-1.673-1.542-2.415-2.465-.386-.478-.699-.782-1.127-1.314-2.182-2.712-4.953-4.808-6.992-7.652-1.015-1.415-2.203-2.611-3.455-3.865-1.24-1.24-2.243-2.596-3.404-3.919l-3.627-3.706c-.437-.532-1.15-1.204-.773.045.445 1.472 2.13 3.58 2.442 4.922zm202.203-22.836c-.897-.238-5.209-4.15-5.902-5.077-1.413-1.889-2.662-4.921-3.611-7.373-.906-2.338-1.66-6.164-1.649-9.344.005-1.545.367-3.318.606-4.798.226-1.398.168-2.235.663-3.521.008-.02.204-.489.207-.49.21-.412.06-.178.273-.424 0 3.45.324 6.292.746 9.364.356 2.597 1.545 5.162 2.516 7.594.74 1.853 1.49 3.444 2.103 5.395.239.763.352 1.238.635 1.978.958 2.489 1.206 2.924 2.467 5.03.309.515.818 1.185.946 1.666zM278.302 43.2l.052.053c-.002-.004-.068-.035-.052-.053z" fill="#0078BF"/><path fill-rule="evenodd" clip-rule="evenodd" d="M291.201 154.587c0 4.402.657 7.955 1.677 11.921.329 1.289.439 2.723.59 4.116.595 5.538 3.112 12.512 5.254 17.755.856 2.098 2.302 3.882 3.459 5.781 1.018 1.672.758 2.204 2.471 4.5.911 1.221 1.497 3.058 2.56 4.411 1.53 1.946 2.986 3.068 4.518 4.722 1.467 1.588 3.017 3.163 4.748 4.49.804.616 1.593 1.458 2.415 2.117l2.539 2.169c.934.73 1.586 1.322 2.54 1.99.924.652 1.765 1.283 2.716 1.992 1.864 1.393 3.211 2.803 4.823 4.414l2.177 2.354c.421.413.732.706 1.14 1.127.481.502.61.804 1.128 1.313.887.873 1.215 1.617 1.935 2.596.704.963 1.362 1.684 2.317 2.392 2.509 1.862 3.662 3.22 5.031 4.208 2.393 1.729 6.618 3.578 9.761 1.916v-4.184c-.626-.166-1.966-1.192-2.579-1.601-2.179-1.454-4.333-2.703-6.764-3.697-.869-.355-.731-.401-1.343-.923-1.729-1.467-2.667-2.856-4.089-4.452l-6.269-6.455c-.459-.444-.703-.509-1.145-.949-.726-.729-1.263-1.588-2.113-2.243l-3.539-2.913c-1.278-.946-1.955-2.124-3.053-3.221l-6.609-6.291c-.434-.348-.616-.63-1.093-.998-4.245-3.284-3.85-4.624-7.107-9.8-.57-.907-1.144-1.758-1.653-2.708a212.845 212.845 0 01-2.903-5.635c-3.055-6.107-5.132-16.226-6.81-23-.542-2.187-1.463-4.663.036-6.725.535-.737.93-.8 1.482-1.83 1.039-1.938 1.622-1.225 4.826-1.972l-1.593-.673c-1.726-.639-2.853-1.207-4.11-2.687-1.009-1.189-3.043-5.748-2.091-7.92.392-.889 2.023-1.008 2.947-1.237.735-.179 1.431-.32 2.061-.554 2.68-.99 1.247-1.09 4.106-.278.834.236 1.288.469 2.144.644.97.202 1.48.026 2.287.504 1.867 1.103 3.901 1.9 5.867 2.849 1.641.789 2.471.873 4.521 1.231 1.648.288 2.93.893 4.408 1.345.671.206 1.438.371 2.161.628 5.095 1.804 7.178 1.584 11.806 2.662.377-1.62.089-2.677-.278-4.255-.141-.608-.19-.806-.616-1.135-.519-.406-.623-.239-1.146-.291-.557-.054-.847-.204-1.345-.347-.988-.282-1.78-.449-2.786-.702-2.406-.598-2.949-1.077-4.984-1.985-3.073-1.373-5.213-.908-10.229-3.716-1.687-.947-3.193-1.434-5.005-1.967-3.06-.902-3.936.585-8.923-3.279-.428-.331-.675-.569-.944-.975.103-1.249.542-3.392.968-4.433 1.549-3.773 1.873-3.819 4.954-5.853 6.131-4.044 11.189-2.885 18.147-3.469 1.914-.16 2.878-.538 4.866-.538-.407-.771-.068-.345-.982-.76-.586-.263-.713-.403-1.228-.69-2.63-1.473-5.496-2.315-8.593-2.39-1.259-.03-2.208-.072-3.415-.243-4.621-.663-9.125.307-13.746-.378-1.237-.183-2.025.103-3.238.103-3.08 0-3.045-.484-6.203.768-2.379.942-4.476 3.783-4.759 6.397-.182 1.67-.173 5.207.008 6.925l1.049 10.109c.438 3.633 2.343 8.846 1.62 13.183-.356 2.123-.78 4.381-.78 6.72zm18.654-99.707c0-.446.275-.028.103 0-.001 0-.103.487-.103 0zM339.087 0h4.468l-2.391 4.086-6.074 7.871c-1.514 1.634-5.352 4.54-7.529 6.242-1.493 1.166-6.42 6.459-8.967 8.466-1.834 1.446-2.531 3.368-3.584 5.131-1.26 2.112-1.815 3.56-2.606 5.935-.582 1.74-1.168 3.556-1.158 5.815.004 1.138.063 2.331-.098 3.387L310.9 56.97c-.592-.681-.473-1.168-.871-1.742v1.394c-.188-.216-.086-.065-.291-.404l-.583-1.335c-2.228-4.966-2.787-10.733-2.787-16.215 0-4.062 1.19-6.75 2.291-9.735 1.055-2.854 1.12-2.948 2.666-5.006.221-.295.393-.551.595-.8.271-.332.481-.484.75-.818l6.445-6.977c2.334-1.736 5.297-2.621 7.753-4.273 1.773-1.193 5.292-3.65 6.825-5.204.562-.567 1.003-1.004 1.567-1.571L339.087 0z" fill="#0078BF"/><path fill-rule="evenodd" clip-rule="evenodd" d="M342.973 170.451c0 5.042-.807 7.404-1.591 12.003l-1.517 7.373c-.266.813-.873 1.302-1.076 2.064h-.522c0-.628.197-2.315.695-2.791-1.119 0-1.234.338-1.714 1.074-1.041 1.602-1.09 4.531.654 5.565 4.899 2.911 3.314 1.048 8.164 5.957 1.859 1.882 2.767 2.222 4.925 2.222 1.103 0 3.991-.494 4.008-1.387v-1.925c-.172 0-.345.009-.515-.018-1.711-.271.044-.156-2.447-.156-3.07 0-4.977-3.718-5.784-6.246-.715-2.242.042-6.417.032-8.047-.009-1.607.049-2.84.248-4.285.829-5.961 1.45-16.777.031-22.318-1.238-4.85-.543-7.904-5.844-8.972-1.615-.326-4.787-2.164-5.7-1.337-.561.508-.164.106-.039.428l.338.543c.8 1.074 1.872 1.866 2.837 2.756.436.404.52.323.888.856 1.431 2.075 3.416 7.19 3.402 9.671-.005 1.075.225 2.385.324 3.335.135 1.301.203 2.266.203 3.635z" fill="#0078BF"/><path fill-rule="evenodd" clip-rule="evenodd" d="M316.304 150.403h2.267c.503 1.052.124.798 1.295 1.495 2.237 1.332 3.935.134 3.935-2.018 3.606 0 3.394 1.019 6.199 2.166.693.282 1.455.829 1.993.972 0 .93-.015 1.245-.477 1.791l-1.044 1.22c-1.888 1.977-4.381 1.685-7.376 1.692-3.037.002-4.037.711-8.014-.865-3.206-1.271-3.688-3.611-3.845-3.844-.256-.38-.175.064-.576-.636-.392-.685-.454-2.668 1.983-2.668 4.79 0 1.019 1.233 3.965 4.4 1.525 1.642 2.714 3.015 5.396 1.649 1.03-.525 2.029-1.617 2.548-2.682.344-.703.292-1.341.292-2.323-.658.483-.107.298-.602.966-.779 1.055-2.802 1.476-4.104 1.476-.717 0-1.782-.722-2.243-1.069-1.807-1.368-1.051-.594-1.592-1.722zm-7.843-4.357l-4.614-.445c-.744-.171-1.492-.798-1.368-.03.08.489.602.778.827 1.795.725 3.275 1.091 1.634 1.933 3.123.775 1.374 1.29 3.143 2.827 4.668l2.516 2.539c2.378 1.498 1.621 1.869 4.699 2.969 3.414 1.22 6.239 1.006 9.713.518 1.888-.264 1.978-.564 3.368-1.162.558-.243 4.722-1.615 5.551-1.433l.817.112c2.989.254 3.137-2.664 1.244-4.26-.631-.533-.382-.543-.814-1.105-.408-.531-.544-.367-1.005-.912-.591-.7-1.115-1.491-1.771-2.063-2.591-2.263-2.985-1.711-4.723-3.121-.765-.619-1.562-.841-2.713-1.121-1.6-.393-.898-.443-2.991-.845-2.637-.506-2.734-1.054-5.711-.157-1.264.382-3.733.105-6.519.628-.178.032-1.119.302-1.266.302zm19.868 60.31c0 1.423 1.26 1.348 1.694 1.448.361.082.422.136.756.288 1.675.757 10.831 3.245 13.045 3.688l7.355 1.021c1.047.092 2.836-.262 3.821-.342v-1.744l-10.212-.942c-2.937-.427-9.121-2-11.651-3.518-1.446-.867-4.808-1.701-4.808.101zm-1.391-174.311c0 3.72.018 4.022.869 7.67.024-.038.05-.145.056-.12l1.324-5.125c.722-3.618.71-4.529.71-8.179 0-1.368-.173-1.981-.173-3.31-.196.225-.081.057-.289.407l-.734 1.531c-.287.712-.597 1.37-.823 2.142-.424 1.456-.94 3.227-.94 4.984zM355 219.769c-.061-.601-.288-.48-1.027-.531-.659-.043-.872-.088-1.556-.185l-5.819-.808c-.902-.312.596.248-.252-.107l-.828-.32c-1.26-.011 3.121 3.459 3.876 3.734 1.5.543 3.521 1.016 5.606 1.016v-2.799zm-2.092-3.301c0 .765.266 1.686.874 2.091 1.018-.682.725-2.56.486-3.624-.186-.822-.151-.893-.837-1.256-.449.669-.523 1.818-.523 2.789zm-5.755-1.046c0 1.399.265.715.351 1.743.812-.594.997-2.187.889-3.234-.058-.563-1.24.513-1.24 1.491zm2.966.35c0 1.561.235.488.524 1.567h.348c.101-1.212.495-2.281 0-3.312-.396.21-.872.306-.872 1.745zM82.374 233.203c-.078-.948-.401-2.416-1.22-2.964.057.677.727 2.396 1.22 2.964zm141.718-15.515h.347c-.018-.805-.172-.584-.172-1.22h-.175v1.22zm-106.506-5.229c.18.179.631-.251.203-.095-.004.002-.495-.198-.203.095zM352.039 105.43v.174l.204-.145-.204-.029zm-84.544 47.414h.175l-.146-.204-.029.204zM76.45 216.12l-.174.173.174-.173zm246.128 23.184l-.152-.175.152.175zm.697.522l-.175-.175.175.175zm.526.349l-.154-.175.154.175zm-38.368-118.428h9.117v16.684h-9.117v-16.684z" fill="#0078BF"/></svg>