<svg width="355" height="355" fill="none" xmlns="http://www.w3.org/2000/svg"><path fill-rule="evenodd" clip-rule="evenodd" d="M0 355V0h355v355H0z" fill="#FF384B"/><path fill-rule="evenodd" clip-rule="evenodd" d="M299.259 139.909c.741-2.984.839-7.776.311-10.927-1.521 2.089-.504 8.173-.311 10.927zm-76.408-75.432c-.539-.193-.184-.506-1.674-1.409-.787-.48-1.618-.725-2.467-1.114-1.823-.832-2.875-1.817-4.368-2.71.719 1.489 1.87 2.604 3.461 3.401.848.426 1.695.624 2.668.91.913.269 1.712.79 2.38.922zm-23.446 241.295c.65.274.816-.091 1.05-.291-.246-.958-.705-1.136-1.563-.589.045.567.065.693.513.88zm29.248-199.869c-1.173-4.004-.705-3.927-3.311-8.46-1.394-2.423-2.844-5.503-4.338-7.54.422 1.23 1.265 2.714 1.835 3.996.622 1.409 1.187 2.633 1.784 4.038l2.552 6.186c.51 1.334.185 1.58 1.478 1.78zm28.017 31.433c1.158.18 1.308-.41 1.314-.413-1.752-.602-2.192-1.672-3.147-3.262-.149 1.023.133 2.355.73 3.018.238.264.633.583 1.103.657zm-18.631-28.129l.45-1.433-3.455-.132c.795 1.205 1.228 1.453 3.005 1.565zm-9.164-.466l1.288.073c-.375-1.758-.391-2.015-2.076-2.494l.788 2.421zM128.042 29.209c-3.177.282-4.199-.034-7.305.799-1.911.512-4.883.758-6.896 1.154-8.199 1.612-18.18 6.796-24.358 11.938-.682.57-1.609 1.207-2.247 1.799-4.032 3.74-8.157 8.231-10.802 13.38-1.414 2.747-3.31 8.746-4.231 11.909-2.401 8.228-4.538 17.864-5.387 26.909-2.852 30.342 6.934 64.23 22.575 89.494 1.067 1.723 2.119 3.25 3.15 4.917.738 1.197 2.576 3.949 3.433 4.725l8.722-.57c-.412-.87-1.408-2.082-1.992-2.897l-6.03-9.207a136.15 136.15 0 01-7.019-13.149c-4.361-9.385-7.98-18.856-10.572-29.741-5.5-23.081-5.239-48.881 4.2-69.258 4.596-9.929 10.744-17.23 17.8-22.527 23.158-17.38 53.103-10.676 75.212 5.3l8.518 6.722c1.076.977 1.635 1.596 2.798 2.47.634-5.413 2.525-3.555-2.375-8.055l-6.162-5.93c-4.779-4.229-4.85-4.767-10.201-7.949-.395-.234-1.631-.987-2.03-1.126-3.188-1.108-2.347-1.342-5.727-3.002-4.37-2.147-8.118-3.919-12.95-5.41-5.528-1.706-14.936-3.636-21.172-2.993.644-.109.691.101.714.11.048.018.126.07.167.087.039.02.114.063.167.1zm137.743 86.818c-1.356-1.297-2.745-4.49-2.649-6.591 1.44 1.781 2.328 3.677 2.649 6.591zm-27.986-68.424c-1.449-1.48-5.056-7.491-5.367-10.373 1.982 1.406 4.722 6.737 5.367 10.373zm33.435 72.873c.771-.321 1.923-.547 2.529-.97-.819-1.992-1.879-4.045-2.776-6.098-2.34-5.348-10.001-27.684-11.383-32.97-3.081-11.759-4.394-21.74-12.236-32.135l-6.208-7.019c-2.381-2.468-4.363-4.223-5.461-7.752-.72-2.32-1.411-4.598-2.363-6.605-.926-1.953-2.275-3.663-3.314-5.237.928.614 1.826 1.288 2.734 1.867l-2.365-13.26c-2.176.5-3.27 1.516-4.902 2.35l.39 1.626-.821-1.183c-1.193.53-3.21 2.035-4.377 2.823-3.189 2.15-10.053 6.633-11.491 9.933 1.683 3.365 9.239 14.448 11.682 17.144 6.435 7.094 6.514 8.564 9.462 18.991.376 1.333.564 2.654.976 3.944 3.26 10.22 4.243 13.254 10.398 22.99 1.255 1.985 2.227 4.132 3.623 6.016 4.526 6.11 7.275 9.614 11.75 16.704.684 1.087 1.316 1.761 2.034 2.894l3.308 6.104c.518 1.004.871 2.32 1.398 3.282 4.198-1.412 5.043-2.455 7.413-3.439z" fill="#0078BF"/><path fill-rule="evenodd" clip-rule="evenodd" d="M193.373 240.345c.023-.084.089-.092.131-.14-.975.245-2.105.877-3.11 1.297-.968.404-1.893.73-2.941 1.093-31.84 10.94-65.468-8.548-85.417-30.569l-3.04-3.224c-2.564-2.559-7.58-9.842-9.026-11.366l-2.221-3.379c-8.226-12.073-16.798-29.667-20.805-44.178-1.84-6.661-3.419-12.998-4.493-19.945-.281-1.806-.328-5.774-.994-7.101-.712 8.259 2.016 22.193 3.936 29.951 2.862 11.58 8.166 26.844 13.747 37.117 5.704 10.496 18.996 29.793 29.39 38.038 8.817 6.996 9.402 8.068 19.891 13.728 3.679 1.988 7.461 3.734 11.651 5.146 13.96 4.7 28.525 5.374 42.536-.551.551-.232 10.517-5.008 10.765-5.917zm94.501-101.928c.545 6.109-2.081 8.721-3.873 12.789-.394.896-.118.583.387 1.249-.945-.182-.918-.287-1.304.698a23.651 23.651 0 00-.612 1.869c-.88 3.017-.508 6.026 3.43 5.213 4.63-.958 7.906-1.909 12.818-2.04 3.14-.083 5.947-.118 7.652-1.902 1.649-1.728 2.169-4.762.517-7.315-1.238-1.915-9.382-1.767-13.782-5.934-1.442-1.366-3.419-3.663-5.233-4.627zm-90.467-8.554c-2.93-1.159-4.643-2.429-6.949-4.023-5.97-4.138-3.942-.542-8.381-2.159-6.685-2.433-4.69-10.654-3.975-15.827-2.088-1.844-5.174-.466-5.88 1.344.951 1.047 2.566 1.615 1.95 3.813-.446 1.585-1.646 2.603-2.236 3.826-.549 1.14-.101 4.198.66 5.127.74.902 2.308 1.883 3.466 2.584 4.043 2.455 4.425.165 7.59 4.733.808 1.167 2.181 2.23 4.564 1.601.981-.26 1.919-1.508 2.396-2.305l.565-.883c.076 3.187-.89 4.54-3.616 5.212-2.904.72-5.021.129-6.689-1.515-.388-.385-.689-.674-1.064-1.177-1.562-2.102-1.962-1.551-4.047-2.455-2.518-1.092-3.908-3.281-5.093-3.883.018 1.595.403 2.185 1.167 3.114l1.75 2.072-3.392-1.893c1.262 2.259 8.237 9.346 12.253 9.591 5.589.34 13.278-.811 14.961-6.897zm25.442-65.386c-.668-.131-1.466-.653-2.379-.923-.974-.285-1.821-.483-2.669-.909-1.591-.797-2.742-1.912-3.461-3.4 1.493.892 2.545 1.877 4.369 2.709.849.389 1.679.635 2.467 1.114 1.49.903 1.135 1.216 1.673 1.409zm4.364 9.787l-3.985-13.468c-.63-1.377-3.911-.959-8.304-4.915-.584-.527-1.835-1.707-2.455-2.057l-2.297 2.5c-.033-1.875 1.213-3.784 1.958-5.267 1.369-2.722 1.985-3.055 2.789-4.553l-12.533-1.754c.744 2.582 3.03 7.414 4.243 9.34 2.17 3.458 4.379 7.182 6.178 10.842 1.658 3.37.683 1.684 7.235 2.87 1.867.339 3.638.766 4.597 2.111.991 1.389.611 3.862 2.574 4.351z" fill="#0078BF"/><path fill-rule="evenodd" clip-rule="evenodd" d="M264.502 125.23c-.034.631 1.076 3.48 1.35 4.514.452 1.711.835 3.224 1.014 5.01 1.971-.574 3.979-1.901 6.49-1.322 1.507.351 3.91 2.34 4.528 3.099 1.741 2.131 5.522 5.915 8.006 7.112 1.09-2.283 2.407-5.775-.151-7.104.039 1.81.09 3.238-.377 4.914-.391-2.053-.004-4.102-.198-5.465-.422-.462-1.141-.959-1.802-1.568-5.344-4.915-6.833-10.516-8.839-13.289-1.265.281-3.347 1.775-4.675 2.443-1.778.894-3.135 1.453-5.346 1.656zm-82.163-17.07c1.583.571 2.173.376 2.564-1.453.887-4.154 1.006-6.667 2.329-12.004.67-2.707.95-5.42 1.502-8.125.546-2.656 1.142-5.003 1.668-7.974.469-2.652 1.259-5.043 1.749-7.647.537-2.868.673-5.503 1.413-8.23.525-1.925 4.257-14.53 2.677-15.953-.467-.422-1.267-.383-1.696-.105-.587.377-.513.975-.574 1.816-.171 2.365-1.818 9.757-2.49 11.939-.84 2.726-1.267 5.023-1.631 8.003l-3.264 15.785c-.7 2.706-.936 5.355-1.511 8.121-.569 2.723-3.49 13.802-2.736 15.827zM210.301 125c6.456 2.458 12.627 4.707 19.54 6.931 3.318 1.071 6.654 2.173 9.702 3.522l8.762 4.387c-.273-.836-.678-1.481-.802-2.468-.346-2.667-.057-2.3-3.027-3.724l-11.996-4.805c-3.367-1.388-5.922-2.861-9.046-4.384-1.565-.763-2.981-1.357-4.57-2.159l-4.503-2.452c.211 4.195-.068 4.461-4.06 5.152zm-58.134 113.948c.967-1.337 2.943-3.778 4.092-4.483l-2.107-.869a1.89 1.89 0 00-.463-.074c-.719-.027-.184.262-.915-.276-.671-.492-2.882-1.205-3.812-1.602-3.423-1.461-1.942-.439-7.706 1.393.958-1.202 2.384-2.035 3.694-3.158-1.06-.686-2.556-1.325-3.7-1.94-.683-.37-1.267-.629-1.924-1.001-.519-.294-1.252-.82-1.682-1.023-1.078-.505-2.998.777-4.252 1.153-1.559.469-3.275.521-4.982.725.469.828 4.127 2.879 5.234 3.49 3.772 2.088 14.968 7.599 18.523 7.665z" fill="#0078BF"/><path fill-rule="evenodd" clip-rule="evenodd" d="M152.166 238.948l.622.292c.231.083.464.13.704.192 3.34.841 6.694 1.428 10.148 1.713 10.64.877 24.061-1.835 32.02-8.013-1.43.337-3.303 1.19-4.996 1.699-1.831.555-3.486.951-5.361 1.332-4.106.838-7.96 1.089-12.264 1.01l-.897 3.058-.033-3.071c-1.094-.114-2.179-.188-3.293-.307-2.723-.3-3.201 2.801-6.428 3.813 1.194-1.76 2.097-2.85 3.693-4.076l-8.277-1.764c-.972.78-1.462 1.481-2.652 2.353-.943.692-1.951 1.265-2.986 1.769zM252.167 44.952c.338 1.78 6.108 8.98 7.673 10.592.703.72 1.115 1.24 1.78 2.026 3.125 3.684 2.141 4.457 4.276 4.055.947-4.813.658-9.488-2.134-12.69-3.517-4.032-4.195-4.79-11.595-3.983zm2.095 100.867c1.591 1.001 3.293.96 4.561-.561l1.006-1.516c.315-.371.07-.118.433-.407.048 2.249-.922 3.997-.363 5.584.679 1.924 1.276 2.454 2.257 3.867l-1.353-13.76c-3.571 1.424-7.831 1.201-7.887-3.39-.07-5.593 5.791-3.946 6.934-2.798.1-3.662-2.17-6.928-3.263-9.558-.348.626-.565 1.754-.892 2.484-.386.864-.791 1.423-1.197 2.257l.292.205c.04.03.105.068.147.102.679.493.643.392.695.948-1.288-.49-1.493-.594-2.719.2-.675.436-1.565.986-1.925 1.671-1.788 3.414 1.404 9.648 2.857 11.051 1.668 1.612 4.341.216 5.425-.672-.519 5.479-5.816 2.993-7.051 2.837l1.1.847c.328.206.578.379.943.609zm-91.15-39.559c.464 1.321 1.676 1.961.78 4.099-.629 1.495-1.908 1.515-.789 3.397 1.409 2.375 3.523 3.607 4.48 6.195.073-6.387.773-4.052 1.456-7.838-1.736-1.71-2.932-3.141 1.154-5.988 3.171-2.208 4.92-1.244 8.222-.284l.688-2.864c-4.383-1.028-4.896-2.583-6.512-2.697-.862-.059-2.27-.097-2.717.382-.678.725.802 4.33-6.762 5.598zm-56.865 102.624c.598 1.214 9.925 10.018 11.526 11.132l5.884-4.161-7.745-7.228c-3.44.141-6.113.341-9.665.257zM218.819 85.75l-4.806-9.908c-.902-1.608-1.906-2.965-2.787-4.608-2.562-4.795-5.393-9.429-7.527-14.433-.753-1.765-1.581-3.295-2.361-5.036-.755-1.697-1.392-3.419-2.236-5.017-.433 1.702-.667 4.82-.781 6.664-.284 4.547-.413 2.714 1.756 5.445 1.155 1.462 2.318 2.631 3.473 4.144 3.641 4.78 5.958 7.92 9.422 13.21l5.463 9.124c.23.283.165.21.384.415zM97.66 198.522c.254.299.5.839.882 1.324l6.316 7.802 8.571-1.668c-.491-.78-.768-1.004-1.559-1.761-.621-.602-.934-1.137-1.569-1.798-4.442-4.641-.194-3.506-12.642-3.899zm28.334 19.343c-1.156.414-2.32 1.122-3.582 1.581-1.142.416-2.826.699-3.788 1.335l8.846 6.72c2.778-.985 2.927-1.941 8.18-2.709l-9.656-6.927zm74.583-106.892c.905 2.909 1.798 6.745 2.171 9.964.184 1.571-.162 1.726 1.075 2.055 3.137.836 3.674 1.103 7.132-.693.104-1.286-.101-3.829-.773-4.76l-9.605-6.566zm100.506 57.517c2.732 5.865 6.766 7.853 8.221 9.667 1.693 2.119 5.416 5.851 8.27 3.898.802-.547 1.106-1.493.224-2.525-.902-1.06-3.922-.053-7.652-4-1.624-1.714-5.143-6.587-5.79-9.745-.935.801-1.221 2.063-3.273 2.705zm-120.066-20.318c.244-2.086.923-2.732-.36-4.023-3.485-3.503-7.372-2.81-7.811 2.496-.314 3.766.709 5.171 2.196 7.61.566.927 1.378 2.181 2.975 1.61.849-.3 1.455-2.247 1.72-3.226-5.468 1.503-5.186-5.171-1.772-5.376 1.694-.103 2.016.428 3.052.909zm35.835-45.135c-.399-2.57-7.428-15.982-9.042-18.753-1.522-2.614-9.104-14.522-11.358-16.655-1.168 3.265-1.126 3.892-.015 4.95 1.954 1.852 8 9.877 9.722 12.233 2.01 2.76 9.864 15.422 10.693 18.225zm-27.802 8.625c.061.039.14.067.187.089.919.38 1.576.372 1.957 1.022.413.703.21 1.939.075 2.603l-1.395.321c.406.879.541.982 1.819.896.958-1.127.626-1.939 1.258-3.189.322 1.089.883 2.207.484 3.417-.388 1.183-1.171 1.222-2.297 1.716 2.13.151 4.228.616 6.074 1.13-.043-2.367-1.596-7.349-2.44-9.351-.917-2.173-.572-2.074-2.823-2.997-1.338-.549-2.784-1.295-4.15-1.65-.344.794-1.237 3.335-.867 3.978.49.093 1.231-1.369 3.514-.836 1.315.303 2.239 1.392 2.074 2.892-.782-1.116-1.075-1.907-3.021-1.47l-.449 1.429zM169.105 96.29c2.455-.272 4.236-.78 6.689.073 2.291.798 2.458 2.305 4.195 2.97l1.601-6.998c-2.547-1.019-4.143-3.095-7.279-1.13-1.788 1.118-4.395 3.262-5.206 5.085zm45.68 43.264l8.767.891c-.172-1.297-.451-2.479-.723-3.746-.134-.619-.267-1.241-.41-1.82-.232-.953-.127-.939-.72-1.295-2.836-1.709-3.56-1.445-6.691-1.23.107 1.356.74 2.076.657 3.737-.072 1.508-.8 2.393-.88 3.463zm-17.555-36.456l5.093-.01c-3.913-4.075-8.495-9.713-10.97-16.726-.591 1.387-.562 3.52-.861 5.136-.378 2.048-.651 1.206 1.807 4.04 2.616 3.015 3.122 4.462 4.931 7.56zm53.697 25.187c1.107-.194 1.353-.006 1.641-.937 1.357-4.428-.848-12.185-3.816-12.249-3.062-.065-1.796 4.764-1.141 6.907.603 1.979 2.473 4.534 3.316 6.279zm27.318 22.226c-1.183-.477-2.089-1.105-3.271-1.496.234 4.767 1.282 7.579 4.492 11.034 1.332 1.434 1.14 1.168 3.588.684-1.115-1.113-2.458-1.471-2.452-4.024.005-2.244.73-3.261 1.334-4.983-1.074-.241-2.628-.787-3.691-1.215zm-83.295-29.615c-1.468-.888-4.414-2.37-6.041-2.775.229 2.766 1.031 3.122-.805 5.082l-.411.478c3.71.533 7.023 2.635 10.304 3.13.093-3.53-.837-4.575-3.047-5.915zm91.494-85.649c3.588-1.267 1.589.485 5.244 2.394-.04-4.228 1.365-8.326-2.823-8.292-1.2.01-2.46.269-3.769.318.039 3.3-.04 3.27 1.348 5.58zm-54.526 78.252c-1.355-3.531-.765-3.763-2.766-4.123l3.398 10.665c.443 1.462.675 4.271 1.823 5.122.668.495 3.594 2.089 4.231 2.329-.649-1.841-1.345-2.935-2.233-4.554l-4.453-9.439zm43.013 24.866c-.549-.576-.996-1.591-1.616-1.239-1.03.584.234 4.047.622 5.149 4.803.058 7.036 3.467 10.541 4.77l1.184-2.874c-4.38-1.533-5.759-1.523-8.909-4.258-.628-.546-1.254-.958-1.822-1.548zm-80.163-48.737c.355-.692 1.023-6.915 1.261-8.792.143-1.147.216-.7-.322-1.472-.432-.615-1.234-1.614-1.834-2.18-.033.04-.078.057-.089.129l-.55 1.448c-.157.593-.298 1.183-.454 1.783-1.239 4.774-1.529 3.791.099 6.571.438.75 1.281 2.048 1.889 2.513zm-12.43-1.388c.221-1.745.37-3.624.606-5.43.187-1.429 1.016-3.989.973-5.1-3.312-.845-4.717 1.08-4.704 4.158.008 1.803 1.877 5.762 3.125 6.372zm-2.542-12.217c2.317-.256 2.731.152 4.592.759.331-1.817.925-3.909 1.343-5.747.246-1.08.724-2.02.2-2.727-.357-.485-1.445-1.373-1.914-1.635-.634 1.234-1.117 3.336-1.845 4.837-.784 1.62-1.797 2.86-2.376 4.513zm21.816 57.446c1.975.194 3.545 1.136 4.956 2.02 1.208.758 3.033 2.144 4.147 2.619l.263-5.529-8.794-.981-.572 1.871zm47.992-91.348c.322.778.366.588.736 1.177.913-.245 10.307-6.762 10.961-7.37l-2.238-1.601c-6.778 3.899-5.808 5.11-9.459 7.794zm-2.165 89.73c.121-.263.258-.493.381-.75.727-1.534-.91-5.013-1.102-5.282-.916-1.273-4.738-1.003-4.145 4.137l4.395 2.79.471-.895zm-38.786-19.085c-.281-1.455-1.423-4.602-2.882-4.944-1.836-.429-5.077-.88-7.021-1.177.791 3.065 1.442 2.807 4.104 3.882 1.902.768 3.75 1.536 5.799 2.239zm80.63 14.291c-.355 1.25-.018 2.339 1.117 2.796.863.348 2.065-.547 2.749-.903 1.558-.812 5.266-1.583 6.013-2.055l-3.132-2.454c-1.087.347-1.997 1.037-3.204 1.494-1.18.448-2.613.637-3.543 1.122zm-6.735 23.764l1.644-3.501c-4.268-.378-5.717-2.405-9.799-2.395l.36 2.615c1.624.167 2.943.736 4.248 1.319 1.281.58 2.504 1.506 3.547 1.962zm-122.054-30.814c-1.43 1.254-2.081 3.184-.956 5.39 1.084 2.126 1.337 1.805 5.091 1.593-.291-.81-.61-1.312-.931-2.175-.253-.679-.391-1.504-.639-2.052-.209-.453-2.009-2.501-2.565-2.756zm99.859 40.74c-.305-1.188-4.594-13.717-7.045-11.158-1.008 1.051.132 2.235.766 3.143 1.295 1.855 4.333 6.842 6.279 8.015zm-58.937-26.799c-.808 1.015-1.031 1.643-1.892 2.416-.803.721-1.715 1.2-2.527 1.967l9.691.428c-.388-.521-4.254-4.25-5.272-4.811zm87.697 32.836c.552 2.985 3.274.951 6.91-.23 3.046-.991 5.23-1.076 6.844-3.349-2.579.711-3.788 1.402-6.982 1.852-2.075.296-5.453.551-6.772 1.727zm-50.433-49.592c.845-1.126.889-2.329 2.139-3.613.535-.551 2.299-2.356 3.107-2.444-1.408-.239-2.923-.17-4.357-.239-1.843-.091-1.675.383-3.364.801l2.475 5.495zm33.59-87.3c-.58-.845-2.124-2.387-2.963-3.272-.407.422-4.345 5.248-4.027 5.826.701 1.275 6.24-2.106 6.99-2.554zm-57.705 102.493l-3.287.099c.854 3.68.371 2.854.101 6.27.866.5 1.208.803 2.547.595.498-2.869.504-4.023.639-6.964z" fill="#0078BF"/><path fill-rule="evenodd" clip-rule="evenodd" d="M292.547 130.922c-2.153.123-3.186.201-4.095-1.375-.995-1.727-.136-2.522.959-3.235.392-.257.217-.129.449-.308-1.173-3.267-4.892-.164-2.759 3.784 1.596 2.96 3.791 4.845 5.446 1.134zm-58.052-24.689l2.06.261c-.919-2.766.777-3.714 1.163-4.191-.89-.717-1.599-1.953-2.557-.209-.663 1.207-.789 2.595-.666 4.139zm-60.011-18.862c2.2-.331 2.74-.051 4.752.023-1.593-1.249-1.819-2.196-3.004-4.166l-1.748 4.143zm9.811 31.428c.483-.353.491-.54.983-.943.356-.29.824-.434 1.215-.817.854-.835-.004-1.649-.156-2.994-.472.234-.263.072-.658.396-.135.11-.21.183-.333.355-.568.805-.13 1.225-.99 1.918l-.749.554.688 1.531zm-4.253 30.955c.89-.118-.349.581.386.132.296-.178.3-.435.343-.802-.868-.745-1.376-.789-2.542-.424-.354 1.022-.312 1.751-.233 2.889 1.487.178 1.528-.487 2.046-1.795zm51.248-48.889c.272.948.981 2.088 1.414 2.908.521-1.206.676-2.048 1.609-2.757.559-.423.545-.064.703-.678-1.329-.243-2.683.141-3.726.527z" fill="#0078BF"/><path fill-rule="evenodd" clip-rule="evenodd" d="M238.806 106.698c.054-.744.047-1.335-.093-2.011-.051-.232-.148-.664-.233-.881l-.472-.753c-.672.703-1.979 4.141.798 3.645zm-50.266-4.243l2.733.576-2.207-3.272-.526 2.696zm-20.027 28.076c.458 1.365 1.596 2.4 2.799 2.899-.334-.665-.692-1.217-1.132-1.871-.448-.662-.821-.751-1.667-1.028zM52.515 30.622c.71.4.688.432 1.567.174-.02-.722-.043-.98-.732-1.063-.682-.078-.812.269-.835.89zm17.123 290.662c1.069-.386 2.624-1.489 3.3-2.125a10.41 10.41 0 00-1.852.859c-1.731.975-1.155.679-1.448 1.266zm112.725-179.969l-1.502.216c.302.624.683.937 1.088 1.461l.414-1.677zm100.518 25.881l-1.247.2.811.883c.478.353.337.287.895.517l-.459-1.6zm-24.922-30.91c.231-.621.03-1.67-.63-2.116-.24 1.028.239 1.543.63 2.116zm-72.373-16.313c.347-.262.372-.775.444-1.321-.324.144-.721.249-.923.611-.338.609.252.61.479.71zm-4.142-6.387c.923-.892.928-.325 1.047-2.078-.05.054-.12.062-.145.164-.123.555-1.01.941-.902 1.914zm-24.933-10.473c1.196-.748.194-1.164-.157-2.108l.157 2.108zm5.858 27.148c.016.009.316.5.75.307.408-.181.23-.401.297-.667l-1.047.36zm73.397-19.493c.365.297-.076.723.832 0-.064-.04.352-.214-.391-.165-.48.03-.227.041-.441.165zM273.05 0c2.793 3.083 10.956 16.597 10.832 20.254-.532 15.67 1.305 9.078 5.983 18.283.126.248-3.806 8.029-10.6-2.905-1.293-2.085-4.168-2.552-5.894-6.85-.016-.044-5.056-5.996-6.676-9.512-.81-1.764-11.373-17.204-12.64-16.359-.33.22-7.8 9.722-7.991 10.306-2.218 6.795-3.408 2.619-9.34 2.299-7.528-.403 2.641-9.875-8.472-3.94-3.475 1.854-22.565 6.43-23.637 9.528-.504 0-9.987-12.826-17.342-21.104h85.777zm-93.292 0c1.773 4.593 5.344 8.342 7.712 14.179 1.726 4.253-.173 13.391 2.694 16.506 1.336 1.454 8.719 12.773 7.723 13.608-13.539 11.364-3.619 21.013-22.026-4.422-5.372-7.422-13.648-10.142-24.011-25.72-4.747-7.137-7.779-10.65-9.759-14.151h37.667z" fill="#0078BF"/><path fill-rule="evenodd" clip-rule="evenodd" d="M152.167 238.948c1.036-.504 2.043-1.077 2.987-1.769 1.19-.872 1.68-1.573 2.651-2.353l8.277 1.764c-1.596 1.226-2.498 2.316-3.692 4.076 3.226-1.012 3.705-4.113 6.428-3.813 1.113.119 2.199.193 3.293.307l.033 3.071.896-3.058c4.304.079 8.158-.172 12.264-1.01 1.875-.381 3.53-.777 5.361-1.332 1.694-.509 3.567-1.362 4.996-1.699-7.959 6.179-21.38 8.89-32.02 8.013-3.454-.285-6.807-.872-10.148-1.713-.24-.062-.472-.109-.704-.192l-.622-.292zM143.551 0h1.433c1.055 1.49 2.106 3.126 2.76 4.095l14.2 17.166c2.106 2.062 5.561 6.67 7.284 8.176l14.209 13.795a106.54 106.54 0 016.855 5.407c1.155-1.734 2.053-8.502 2.913-11.141.597-1.827.483-1.652-.334-3.244-1.85-3.627-4.383-8.615-5.973-12.408-2.741-6.534-5.607-12.977-8.123-19.66-.132-.352-.373-1.2-.644-2.186h1.503l4.618 7.462c2.541 4.119 4.01 9.295 6.147 13.575a134.334 134.334 0 012.179 4.548c.725 1.584 1.58 2.94 2.172 4.362l1.729-5.08c.318-.975.361-1.868.498-2.877.18-1.345.495-1.643.739-2.642-1.243-1.965-9.03-10.249-10.795-11.862-.617-.563-.922-1.054-1.46-1.685-1.417-1.664-2.832-3.656-4.102-5.801h4.719c1.799 2.022 3.989 3.638 5.997 5.462l4.269 3.805c2.441 2.08 5.521 5.81 7.432 8.244 1.086 1.382 1.999 3.175 3.238 4.454 3.477-4.767 6.717-5.845 11.939-8.902 1.107-.65 3.674-1.565 4.43-2.23-.506-1.204-2.133-3.319-2.96-4.588-1.016-1.564-2.517-3.848-3.942-6.245h3.011c2.259 3.52 4.185 7.366 5.068 10.397 2.284-.568 2.939-1.157 5.755-1.21-.101-2.276-1.553-6.027-2.989-9.187h16.368l-3.534 4.696c-1.174 2.304-1.947 8.02-1.834 10.973 1.094-.137 1.368-.319 2.596-.09.944.887.259 1.243 1.792 1.143.878-.76 1.111-2.818 1.572-4.09.78-2.134-.035-2.773.613-4.768.614-1.89.973-2.074 1.231-4.396.121-1.096.183-2.316.28-3.468h.73c.342 1.68.11 3.778.725 4.793.42-.462.196-2.665.051-4.793h1.161c.214.792.403 1.552.541 2.128.892 3.727.454 2.755-.473 5.811.852-.529 1.805-1.782 2.444-2.567 2.153-2.645 1.198-3.683.163-5.372h1.255c.971 1.21 2.026 2.312 2.811 3.1.473.473.549.725 1.126 1.346 4.942 5.306 7.028 4.916 11.343 14.41 2.885 6.346 3.86 7.444 8.94 11.905 3.533 3.101 2.26 5.525 3.55 6.75.796.756 2.294 1.187 3.255 1.903 1.346 1.005 1.166 2.155 2.142 2.995 1.187-.227 2.353-1.568 2.928-2.223-.902-1.698-2.611-2.757-2.657-4.938-3.615-2.178-3.179-7.06-3.327-11.87-.12-3.84-1.737-9.275-3.449-11.868-2.166-3.279-4.831-5.36-7.062-8.17-.954-1.202-1.465-2.186-2.13-3.34h1.834c.38.478.766.933 1.187 1.33 4.791 4.527 9.689 8.755 11.467 15.865 1.366 5.453.24 7.177.131 12.226 2.16-.251 5.389-2.162 7.586-.226.798.704 1.276 1.803 1.645 3.057.583 1.979.167 2.373.222 4.35.026.833.227 1.673.192 2.482-.049 1.149-.388.835.281 1.65 2.302 2.805.73 5.368-2.175 3.54-1.083-.684-1.461-1.403-2.415-2.311-1.258.297-3.606 2.792-5.707 1.022-2.186-1.844-.245-2.373-3.81-4.026-2.941-1.362-2.178-1.4-3.533-4.322-.764-1.648-2.611-2.878-3.977-3.855-.694.334-1.659 1.286-2.388 1.865-3.575 2.844-7.505 3.114-8.755 4.016-1.445 1.042-8.494 6.537-9.194 7.576 2.839-.244 4.873-1.6 8.084-.312 1.936.78 3.761 2.729 4.883 4.084 3.797 4.587 2.353 8.89.943 13.91 3.109 4.093-.228 3.277 2.283 6.832 1.29 1.833 2.52 3.368 3.862 5.103 1.869 2.421 3.605 5.548 6.027 7.412 2.537 1.952 4.718 4.166 6.916 6.523l2.082 2.403c11.477 14.319 21.039 31.303 27.661 48.523 3.45 8.973 6.497 17.776 8.892 27.175 1.012 3.964 2.908 10.985 2.726 15.241-.065 1.508-1.144 6.062-1.782 7.199l-3.778 5.191c-4.594 5.513-18.137 14.367-24.837 19.97l-2.32 2.166c-.854.771-1.613 1.25-2.498 1.974-1.666 1.365-3.056 2.696-4.896 4.07-1.851 1.383-3.555 2.336-5.321 3.643-2.538 1.869-7.869 6.481-11.02 6.855.443-.427 1.075-.77 1.656-1.209 1.613-1.22 3.078-2.796 4.581-4.163l3.054-2.773c.539-.499.877-.991 1.414-1.491.527-.491.942-.808 1.328-1.368-.772.391-1.529 1.115-2.303 1.299 1.353-.901 2.793-3.096 4.023-4.272l4.009-4.516c3.433-3.748 14.026-12.267 18.619-15.209 1.275-.816 8.759-5.996 9.781-7.068-2.536-1.469-2.741-.072-7.086-3.488-2.083-1.638-3.545-3.099-5.33-4.975-2.025-2.131-2.963-2.691-4.824-5.481l-2.104-3.055c-.8-1.032-1.269-2.34-1.986-3.149-2.878.745-5.746 2.532-9.013.927-.91-.448-.776-.642-1.919-.992-4.469-1.376-3.535-2.723-4.638-3.626-1.402-.482-3.447-.298-4.945-.897-1.084-.437-1.128-.743-1.787-1.136-2.22-1.32-4.527-.309-7.113.041-2.131.287-3.715.042-5.765.085-3.326.067-7.741.917-10.957.615-2.715-.255-1.655-.861-4.692-.164-1.846.421-2.952.475-4.898.671.581 7.913 1.101 14.822.073 22.754-2.129 16.477-6.237 30.658-16.279 43.302-1.579 1.989-3.916 4.616-5.251 6.74.66-.237 1.038-.501 1.622-.843-1.459 2.637-6.116 7.352-8.829 9.427-6.598 5.043-6.125 3.817-11.244 7.132-7.651 4.95-7.178 3.362-12.387 5.986-.965.485-2.154 1.186-3.191 1.504-1.126.35-2.486.537-3.649.834-8.343 2.107-15.813 2.681-24.481 2.434-1.307-.037-3.221.07-4.393-.335-1.175-.402-.348-.381-1.87-.318-2.202.089-7.995-1.014-9.947-1.533-3.003-.799-10.27-3.847-13.149-5.229-4.383-2.107-7.637-3.075-12.424-5.715-4.209-2.322-7.736-4.498-11.338-7.045-2.631-1.856-10.772-8.227-12.615-10.458-.64-.778-5.52-5.35-6.772-6.896l-4.335-4.845c-1.419-1.455-2.75-3.379-3.982-4.988-23.004-30.122-35.814-73.333-31.367-113.285 1.441-12.969 3.492-17.629 7.77-28.97 3.689-9.79 7.882-16.251 13.228-23.29 2.125-2.799 4.3-4.834 6.227-7.667 2.627-3.856 7.706-8.474 11.374-11.474 4.811-3.936 5.724-4.312 11.4-6.977 1.996-.935 11.08-4.257 13.354-4.788 8.715-2.032 10.089-.413 16.802-.736 13.174-.633 26.108 2.789 37.788 8.2 1.928.898 4.179 2.353 5.789 2.975-1.078-.679-6.2-6.648-7.248-8.009l-3.743-4.1c-2.652-2.828-7.732-9.799-9.834-13.247-.807-1.326-2.453-4.657-3.628-7.347zm8.616 238.948c-3.554-.065-14.75-5.576-18.522-7.665-1.107-.61-4.765-2.662-5.234-3.489 1.707-.205 3.423-.257 4.982-.726 1.254-.376 3.174-1.658 4.252-1.153.43.203 1.163.729 1.682 1.023.657.372 1.241.631 1.923 1.001 1.145.615 2.641 1.255 3.701 1.94-1.31 1.123-2.736 1.957-3.694 3.158 5.764-1.831 4.283-2.853 7.706-1.393.93.398 3.141 1.11 3.812 1.602.731.538.196.249.915.277.189.008.264.024.463.073l2.107.87c-1.149.705-3.125 3.145-4.093 4.482zm-26.171-21.083l9.656 6.927c-5.253.768-5.402 1.723-8.179 2.708l-8.847-6.719c.962-.636 2.646-.919 3.788-1.335 1.262-.459 2.426-1.167 3.582-1.581zm32.889-2.456c.778-3.232 1.842-6.519 2.694-9.909 2.559-10.187 5.238-20.204 7.566-30.551l.401 14.692c.125 4.878.554 9.548.753 14.377.198 4.868.255 9.594.582 14.472.289 4.331 1.421 9.894 1.209 13.89-4.027.033-14.477-2.045-17.431-3.753.092-1.893.597-1.514.869-1.565l.219-.02c-1.038-1.491 1.152-5.901 1.755-7.683.448-1.327.51-1.442 2.779-2.372 1.329-.544 2.724-.912 4.068-1.304-.656-.462-1.651-.512-2.502-.541-1.013-.033-2.016.104-2.962.267zm-52.636-6.525c3.551.085 6.225-.115 9.664-.256l7.746 7.228-5.884 4.16c-1.601-1.114-10.928-9.917-11.526-11.132zm21.804 3.673l-6.045-5.444c.689-.564 2.485-1.296 3.428-1.897 1.038-.661 2.198-1.356 3.181-2.027.032 1.146-.35 3.004-.415 4.381a155.757 155.757 0 00-.149 4.987zm-30.392-14.035c12.448.393 8.2-.742 12.642 3.899.635.662.947 1.196 1.569 1.798.79.758 1.067.981 1.558 1.762l-8.571 1.668-6.315-7.802c-.383-.486-.628-1.025-.883-1.325zm203.422-30.031c2.052-.642 2.338-1.904 3.273-2.705.647 3.158 4.166 8.031 5.79 9.744 3.73 3.948 6.75 2.94 7.652 4 .882 1.033.578 1.979-.224 2.525-2.854 1.954-6.577-1.778-8.27-3.898-1.455-1.813-5.488-3.801-8.221-9.666zm-19.448-1.094l1.247-.2.459 1.6c-.558-.23-.417-.164-.895-.517l-.811-.883zm7.479-.612c1.318-1.176 4.696-1.431 6.771-1.727 3.195-.451 4.403-1.141 6.982-1.853-1.614 2.274-3.798 2.359-6.844 3.35-3.636 1.181-6.358 3.215-6.909.23zm-90.509-3.811c1.895.314 5.564.232 6.831.759 2.771 1.156 4.963.11 7.022.823 1.578.547 4.653.643 6.949.945 1.253.16 2.467.03 3.697-.214.644-.127 1.565-.379 2.273.002.813.437.63.547.634 2.169.023 11.409-2.899 25.087-7.75 35.379l-1.793 3.571c-.028.045-.065.1-.095.144l-.326.419c-.573-3.071-2.724-8.533-3.94-11.368a905.648 905.648 0 01-4.587-10.874 202.858 202.858 0 01-4.198-11.036c-2.482-7.133-3.378-7.336-4.717-10.719zm-4.602-1.215c.195 1.237 4.407 8.674 5.306 10.577 3.427 7.242 2.172 5.196 4.107 12.015 3.154 11.128 2.745 12.961 8.338 23.93 1.936 3.798 1.644 3.275.051 5.337-9.196 11.889-21.366 18.907-37.726 18.867.74-5.173 1.857-9.554 2.129-15.061.276-5.627.011-10.962-.173-16.576-.182-5.588-1.083-10.6-1.34-16.084-.242-5.185-.627-10.727-1.341-15.84-.101.362-.516 1.496-.768 1.894-.824-3.794-.9-8.405-.788-12.453 3.09 1.623 5.3 3.03 9.924.513 1.054-.573 1.099-.26 2.432-.055.757.114 2.351.128 2.987.322.772.231 1.069.945 1.921 1.479.834.525 1.591.569 2.284 1.007.58 4.821.754 9.765 1.334 14.648a350.543 350.543 0 011.441 14.693c.542 7.035 1.22 14.856 2.501 21.722.378 2.01 1.118 4.987 1.215 6.851l-1.967-13.1c-1.727-14.408-.993-23.699-1.494-37.421-.061-1.656-.552-6.022-.373-7.265zm-40.957 66.229c-2.618-.424-9.374-4.388-11.835-5.838-2.604-1.535-8.433-5.445-10.534-7.414.677-.865 3.887-3.176 4.951-4.259.862-.878 1.117-.794 1.622-1.608-2.285.611-7.554 3.92-8.966 4.036.594-3.373 2.711-9.583 4.563-12.379.434-.658.606-.608.854-.923.705-.893-.208.39.151-.788.233-.772 1.829-3.596 2.33-4.593a277.22 277.22 0 008.669-18.882c2.686-6.474 4.867-13.435 7.525-20.035 3.837-9.53 4.06-11.633 7.049-20.732.904.227 1.899.593 2.828.876 1.606.493 1.314.446 1.694 2.107.46 2.005 1.114 4.066 1.661 5.96 1.172 4.058 2.259 7.704 3.868 11.372 1.324 3.021 1.404 1.958.117 5.536-2.111 5.885-4.086 10.525-6.032 16.816-1.275 4.117-1.766 8.265-2.718 12.517-1.888 8.437-7.547 30.981-7.797 38.231zm134.83-89.57c1.815.964 3.792 3.261 5.234 4.626 4.399 4.168 12.544 4.02 13.782 5.934 1.652 2.554 1.132 5.587-.518 7.316-1.704 1.783-4.512 1.818-7.651 1.902-4.912.131-8.188 1.082-12.818 2.04-3.939.813-4.31-2.197-3.43-5.214.173-.605.397-1.312.612-1.868.386-.985.358-.88 1.304-.699-.505-.666-.781-.352-.387-1.248 1.792-4.068 4.418-6.68 3.872-12.789zm-27.521 22.329c-1.947-1.173-4.985-6.16-6.28-8.015-.634-.908-1.773-2.092-.766-3.143 2.452-2.559 6.74 9.97 7.046 11.158zm14.62-11.732c1.183.392 2.088 1.019 3.272 1.496 1.063.428 2.617.975 3.69 1.216-.603 1.722-1.328 2.739-1.333 4.983-.007 2.552 1.337 2.91 2.452 4.023-2.448.484-2.256.75-3.589-.683-3.209-3.456-4.257-6.268-4.492-11.035zm-94.932.739c-.517 1.309-.558 1.974-2.045 1.795-.08-1.138-.122-1.867.232-2.889 1.166-.365 1.675-.321 2.542.424-.042.367-.046.624-.343.802-.734.449.505-.25-.386-.132zm.976-1.582c-1.036-.48-1.358-1.011-3.052-.908-3.414.204-3.696 6.878 1.772 5.376-.265.978-.871 2.925-1.72 3.226-1.597.571-2.409-.684-2.975-1.61-1.487-2.44-2.51-3.845-2.196-7.61.439-5.306 4.326-6 7.811-2.496 1.283 1.291.604 1.936.36 4.022zm93.375-3.246c4.082-.01 5.531 2.016 9.799 2.395l-1.643 3.501c-1.044-.456-2.266-1.382-3.548-1.962-1.305-.584-2.624-1.153-4.248-1.32l-.36-2.614zm-83.314 12.88c-5.422-2.025-3.714-.303-7.886-.625 1.794-8.553-.6-12.948.06-16.031 3.859-.851 5.333.437 12.302-2.274 1.707-.664 3.871.481 5.635.866 7.927 1.722 6.421-.602 11.152 3.419 2.852 2.428 5.201 4.267 8.426 6.355l4.549 2.924c.523 1.873.638 5.748.679 7.88-1.441.004-2.537.266-3.96.375-1.54.122-2.425-.251-3.965-.258-5.065-.02-1.343-.938-7.624-.723-2.94.101-.962-1.093-7.394-.827-3.273.137-3.95-.935-7.267-1.185-1.254-2.236-2.484-5.294-3.49-7.712-.999-2.4-1.666-5.394-3.386-7.415l-.247-.266c.206 1.937 1.049 5.317 1.493 7.35.439 2.017.894 6.04.923 8.147zm23.682-16.347l8.887.118c.984 1.598 1.475 7.76 1.609 9.999-1.151-.618-1.885-1.524-2.866-2.331l-7.63-7.786zm-32.812 1.534c-.405-.524-.786-.837-1.087-1.462l1.501-.215-.414 1.677zm54.814-4.033c1.5.313 2.789.898 4.173 1.37 1.595.545.918-.061 2.238 3.136 1.125 2.721 2.025 4.946 3.474 7.284 1.579 2.546 4.778 7.211 7.052 9.075.672.552 2.476 1.858 2.97 2.594-1.537-.053-3.642-.196-5.134-.464-2.057-.369-2.009-1.13-4.68-.64-8.68 1.592-7.197.23-7.657-2.441-1.121-6.48-1.581-13.313-2.436-19.914zm48.899 5.211l-1.184 2.874c-3.505-1.303-5.738-4.712-10.541-4.77-.388-1.102-1.652-4.564-.622-5.149.62-.352 1.068.664 1.616 1.239.568.59 1.194 1.003 1.822 1.548 3.15 2.735 4.529 2.726 8.909 4.258zm-84.245-10.222c1.018.561 4.885 4.29 5.273 4.811l-9.692-.428c.812-.767 1.724-1.246 2.527-1.967.861-.773 1.085-1.401 1.892-2.416zm-36.865 2.328c2.8.447 3.214 1.528 5.203 2.868.688.465 1.256.68 1.798 1.299-1.872 1.04-1.691 2.359-2.452 3.654a1.477 1.477 0 01-.105.157c-.583-2.342-3.442-5.503-4.444-7.978zm90.284-2.616c.955 1.59 1.395 2.66 3.147 3.262-.006.003-.156.594-1.314.414-.47-.074-.865-.393-1.103-.658-.597-.663-.879-1.995-.73-3.018zm2.492.509c.66.446.86 1.495.63 2.116-.391-.573-.871-1.088-.63-2.116zm-138.097 70.274c-.976-1.412-3.16-3.219-4.96-5.843.84-1.512.962-1.114 2.772-1.783l10.293-3.792c-2.977-.154-7.369.687-10.329 1.071.487-1.261 1.573-2.57 2.281-3.767.792-1.341 1.405-2.738 2.083-4.191 1.741-3.719 2.852-5.256 4.304-8.25 2.023-4.155 1.808-3.978 4.636-7.908 5.399-7.504 10.286-13.919 15.671-21.741 2.539-3.683 4.715-7.545 7.413-11.41.887-1.272 1.608-2.572 2.437-3.813l2.136.974c-1.362 2.64-2.678 4.041-4.898 8.556-3.31 6.731-5.99 11.648-8.429 18.912-3.074 9.155-8.135 20.264-11.655 29.346-.494 1.273-3.305 9.61-3.688 9.983-.496.478-9.056 3.604-10.067 3.656zm82.954-72.846l8.795.981-.263 5.53c-1.114-.476-2.94-1.861-4.148-2.62-1.411-.883-2.98-1.826-4.955-2.019l.571-1.872zm9.094.887l3.287-.1c-.136 2.942-.141 4.095-.639 6.964-1.339.208-1.682-.094-2.548-.595.27-3.416.754-2.589-.1-6.269zm3.73-.131c3.131-.215 3.854-.479 6.69 1.23.593.356.488.342.721 1.295.143.579.276 1.201.409 1.821.272 1.266.552 2.448.724 3.745l-8.767-.891c.08-1.069.808-1.955.88-3.463.083-1.661-.55-2.38-.657-3.737zm-105.169 60.587c-2.575-2.666-11.676-17.139-12.233-19.433.852-1.137 1.927-2.068 3.137-2.843 1.414-.911 2.399-1.654 3.654-2.62 2.341-1.797 6.315-4.939 8.259-7.2.526-.608.868-1.032 1.573-1.568 3.805-2.881 10.638-7.68 14.015-10.859 2.802-2.636 10.238-8.571 13.625-11.239l7.07-5.478c.679-.587 2.91-2.551 3.49-2.829 1.075 1.652.287 1.697 2.051 3.086-.363.746-.115.365-.768.944-.313.282-.503.423-.831.728l-4.813 5.049c-4.074 4.314-23.462 31.92-27.757 38.333-1.974 2.941-8.117 13.867-10.472 15.929zm58.673-62.41c.846.277 1.22.367 1.667 1.028.441.654.799 1.206 1.132 1.871-1.203-.499-2.341-1.534-2.799-2.899zm-6.145-.27l1.047-.359c-.067.266.111.486-.297.667-.434.193-.734-.298-.75-.308zm84.601 2.485l-4.396-2.789c-.593-5.141 3.23-5.41 4.146-4.137.191.269 1.828 3.748 1.102 5.281-.124.258-.261.487-.382.751l-.47.894zm-185.512-9.913c.666 1.328.713 5.296.994 7.101 1.075 6.948 2.653 13.284 4.493 19.945 4.008 14.511 12.58 32.105 20.805 44.178l2.221 3.379c1.447 1.525 6.462 8.807 9.026 11.367l3.041 3.224c19.948 22.021 53.576 41.509 85.416 30.568 1.048-.363 1.973-.688 2.941-1.093 1.005-.42 2.135-1.052 3.11-1.297-.042.048-.108.057-.13.14-.248.909-10.214 5.685-10.766 5.918-14.01 5.924-28.576 5.25-42.536.55-4.189-1.412-7.972-3.158-11.651-5.145-10.489-5.66-11.074-6.733-19.891-13.728-10.394-8.246-23.686-27.542-29.39-38.038-5.58-10.274-10.885-25.538-13.747-37.117-1.92-7.758-4.648-21.693-3.936-29.952zm240.616 5.189l1.269-.561c.992 1.247 1.944 3.29 2.827 4.761 4.162 6.944 4.023 9.726 6.499 16.577 1.429 3.945 2.432 7.399 3.685 11.552 1.158 3.836 2.916 8.259 1.72 12.407-.474-.864-.792-2.098-1.183-3.086l-4.279-9.157c-1.246 4.192 5.113 12.193 4.827 14.017-1.983 1.168-6.678-3.338-7.842-4.732-1.699-2.041-4.557-4.443-5.044-8.161 2.116-1.217 5.148-1.793 6.447-5.87.544-1.704.142-3.62-.374-5.147-.758-2.25-1.43-2.473-2.232-4.047-2.585-5.087-3.153-8.869-4.732-13.865-.293-.93-1.549-4.102-1.588-4.688zm-47.575 0c.406-.834.811-1.393 1.197-2.257.327-.731.544-1.859.892-2.484 1.093 2.63 3.363 5.895 3.263 9.558-1.143-1.148-7.004-2.795-6.934 2.798.056 4.591 4.316 4.813 7.887 3.39l1.353 13.76c-.981-1.413-1.578-1.943-2.257-3.867-.559-1.587.411-3.335.363-5.584-.363.289-.118.036-.433.407l-1.006 1.515c-1.268 1.522-2.97 1.563-4.561.562-.365-.23-.615-.403-.944-.609l-1.099-.847c1.235.155 6.532 2.642 7.051-2.837-1.084.887-3.757 2.284-5.425.672-1.453-1.403-4.645-7.637-2.858-11.051.361-.685 1.251-1.236 1.926-1.671 1.226-.795 1.43-.691 2.719-.201-.053-.555-.017-.454-.695-.947-.042-.034-.107-.072-.147-.102l-.292-.205zm-51.391-4.247c.57.35.795.805 1.592 1.038.95.277 1.204.042 2.156.526 1.071.542 2.296 1.475 3.439 2.168.854.518 6.627 3.913 6.969 3.959-3.038.247-8.073-1.027-14.89-.411.386-3.146 1.113.995.734-7.28zm86.177 3.282c.93-.485 2.363-.674 3.543-1.122 1.207-.457 2.117-1.147 3.204-1.494l3.132 2.453c-.747.473-4.455 1.244-6.013 2.056-.684.356-1.886 1.251-2.749.903-1.135-.457-1.472-1.546-1.117-2.796zm3.264 3.865c-1.655 3.711-3.85 1.826-5.446-1.134-2.134-3.948 1.585-7.051 2.759-3.784-.232.179-.057.051-.449.308-1.095.713-1.954 1.508-.959 3.235.909 1.576 1.942 1.498 4.095 1.375zm-28.045-5.692c2.212-.203 3.568-.762 5.346-1.656 1.328-.668 3.41-2.162 4.676-2.443 2.005 2.773 3.495 8.375 8.839 13.29.661.608 1.38 1.105 1.802 1.567.193 1.363-.194 3.413.197 5.465.468-1.676.416-3.103.377-4.914 2.558 1.329 1.241 4.822.151 7.105-2.484-1.198-6.265-4.981-8.005-7.113-.619-.759-3.022-2.747-4.528-3.098-2.512-.58-4.519.747-6.491 1.321-.179-1.786-.562-3.299-1.014-5.009-.274-1.035-1.384-3.884-1.35-4.515zm-54.202-.229c3.992-.691 4.271-.958 4.06-5.152l4.503 2.452c1.589.801 3.005 1.395 4.57 2.158 3.124 1.524 5.679 2.996 9.046 4.385l11.996 4.805c2.97 1.423 2.681 1.057 3.027 3.724.124.987.529 1.631.802 2.467l-8.762-4.387c-3.048-1.348-6.384-2.451-9.702-3.521-6.913-2.224-13.084-4.473-19.54-6.931zm-49.806-4.994c.556.256 2.356 2.304 2.565 2.757.248.547.386 1.373.639 2.051.321.864.64 1.366.931 2.176-3.754.212-4.007.532-5.091-1.593-1.125-2.206-.474-4.136.956-5.391zm25.09-.034c-.226-.099-.817-.101-.478-.71.202-.361.599-.466.923-.61-.072.545-.098 1.059-.445 1.32zm3.324-1.851c1.628.405 4.574 1.886 6.041 2.775 2.211 1.34 3.14 2.385 3.048 5.915-3.281-.495-6.594-2.597-10.304-3.13l.411-.479c1.836-1.959 1.034-2.316.804-5.081zm62.018 10.163c-.843-1.745-2.713-4.299-3.316-6.279-.656-2.143-1.922-6.971 1.14-6.906 2.968.063 5.174 7.82 3.816 12.248-.287.932-.533.744-1.64.937zm-66.631-9.485l-.688-1.532.749-.553c.86-.693.422-1.113.99-1.918.123-.172.198-.245.333-.355.395-.324.186-.162.658-.396.152 1.345 1.01 2.159.156 2.994-.391.383-.859.527-1.215.817-.492.403-.5.59-.983.943zm-2.852-5.213c-.108-.973.779-1.359.903-1.914.024-.103.094-.11.145-.165-.12 1.753-.125 1.186-1.048 2.079zm19.134-2.614l9.605 6.567c.672.931.876 3.474.772 4.76-3.457 1.796-3.995 1.528-7.131.692-1.237-.328-.892-.483-1.076-2.054-.372-3.22-1.266-7.055-2.17-9.965zm38.102 6.219l-2.475-5.494c1.689-.418 1.521-.893 3.364-.801 1.434.069 2.949 0 4.357.239-.808.087-2.572 1.893-3.107 2.443-1.25 1.285-1.294 2.487-2.139 3.613zm-2.916-6.424c.214-.123-.04-.135.441-.164.743-.05.327.124.391.164-.908.724-.467.298-.832 0zm-6.613-1.391c2.001.359 1.411.591 2.766 4.122l4.453 9.439c.888 1.619 1.585 2.713 2.233 4.555-.637-.241-3.563-1.835-4.231-2.33-1.148-.851-1.38-3.66-1.823-5.122l-3.398-10.664zm-15.829-1.277l4.274 8.718c-.912-.194-1.955-.675-2.781-1.003-1.54-.611-1.353-.346-1.774-2.026-.467-1.878-1.702-4.194-1.936-5.628l2.217-.061zm-26.389 1.547c-.371-.643.522-3.183.866-3.978 1.367.355 2.813 1.101 4.151 1.65 2.25.923 1.905.824 2.822 2.997.844 2.002 2.397 6.984 2.44 9.352-1.846-.515-3.943-.979-6.074-1.13 1.126-.494 1.91-.534 2.298-1.716.399-1.211-.162-2.329-.484-3.418-.632 1.251-.301 2.062-1.259 3.189-1.278.087-1.413-.016-1.818-.895l1.394-.322c.135-.663.339-1.9-.075-2.603-.381-.649-1.037-.642-1.956-1.022-.048-.021-.127-.049-.188-.088l.449-1.43c1.946-.436 2.24.354 3.022 1.471.164-1.501-.76-2.59-2.074-2.892-2.284-.534-3.025.929-3.514.835zm10.473 20.217c-1.683 6.085-9.371 7.237-14.961 6.896-4.015-.245-10.991-7.331-12.252-9.591l3.392 1.894-1.751-2.072c-.764-.929-1.148-1.519-1.167-3.114 1.186.602 2.575 2.791 5.093 3.883 2.085.904 2.486.353 4.048 2.455.374.502.675.792 1.063 1.176 1.668 1.644 3.785 2.236 6.689 1.516 2.726-.672 3.693-2.025 3.617-5.212l-.565.882c-.478.798-1.415 2.046-2.396 2.306-2.384.629-3.757-.434-4.564-1.602-3.166-4.568-3.548-2.277-7.59-4.732-1.159-.701-2.726-1.682-3.466-2.584-.762-.929-1.21-3.987-.661-5.127.591-1.224 1.791-2.242 2.236-3.826.617-2.198-.999-2.767-1.95-3.813.706-1.81 3.792-3.188 5.88-1.344-.715 5.173-2.709 13.394 3.975 15.827 4.44 1.617 2.411-1.979 8.381 2.158 2.307 1.595 4.019 2.865 6.949 4.024zm-42.281-21.955c-.125 1.566-.688 3.554-.969 5.276-.203 1.242-.931 3.471-2.033 4.174-.441-.912-6.208-8.114-7.436-9.18l10.438-.27zm82.915 1.299c-1.777-.112-2.211-.36-3.005-1.566l3.455.132-.45 1.434zm-29.387 3.558c-2.049-.703-3.897-1.471-5.799-2.239-2.662-1.074-3.313-.817-4.104-3.881 1.944.296 5.185.747 7.021 1.176 1.459.342 2.601 3.49 2.882 4.944zm21.51-3.952l-1.287-.073-.789-2.421c1.685.479 1.701.736 2.076 2.494zm8.643-2.116c-2.778.497-1.471-2.941-.799-3.644l.472.753c.086.217.183.648.233.881.14.675.147 1.266.094 2.01zm-75.694-.437c7.564-1.268 6.084-4.874 6.762-5.598.447-.479 1.855-.441 2.718-.382 1.615.114 2.128 1.668 6.511 2.697l-.688 2.864c-3.302-.96-5.051-1.925-8.222.284-4.086 2.847-2.89 4.278-1.154 5.988-.683 3.785-1.383 1.451-1.456 7.838-.957-2.588-3.071-3.82-4.48-6.196-1.119-1.881.16-1.901.789-3.396.896-2.138-.316-2.778-.78-4.099zm71.384-.027c-.124-1.544.003-2.932.666-4.139.958-1.744 1.667-.508 2.556.209-.386.477-2.082 1.425-1.163 4.191l-2.059-.261zm-45.429-6.474l2.207 3.271-2.733-.575.526-2.696zm-32.714 1.245c.351.944 1.352 1.36.156 2.108l-.156-2.108zm74.938-.14c1.042-.386 2.397-.77 3.726-.527-.158.615-.144.256-.704.679-.932.709-1.087 1.551-1.608 2.756-.433-.819-1.142-1.96-1.414-2.908zm-68.206-2.196c-.476.66-3.94 2.064-4.849 2.529-.42-2.514-1.684-5.055-1.96-7.87 1.137.816 2.125 1.85 3.377 2.824.759.592 2.86 1.91 3.432 2.517zm34.144 4.429c-1.809-3.097-2.315-4.545-4.931-7.56-2.458-2.833-2.185-1.991-1.807-4.04.3-1.617.27-3.75.862-5.136 2.475 7.013 7.056 12.652 10.969 16.727l-5.093.009zm-28.123-6.807c.811-1.823 3.418-3.967 5.205-5.085 3.136-1.965 4.732.111 7.279 1.13l-1.601 6.999c-1.736-.666-1.904-2.173-4.195-2.97-2.452-.853-4.234-.346-6.688-.074zm41.878 7.344c-4.708.137-3.58.229-6.581-3.165l-7.075-7.49c-1.726-1.742-1.389-1.935-1.015-2.828 1.282-3.052 1.256-4.705 1.218-8.25 1.791 2.18 5.515 7.824 7.164 10.424 1.152 1.816 2.131 3.573 3.236 5.502.807 1.4 2.565 4.291 3.053 5.807zm17.669 2.269c-1.293-.201-.968-.447-1.479-1.781l-2.551-6.185c-.597-1.405-1.162-2.63-1.784-4.038-.57-1.283-1.413-2.767-1.835-3.996 1.494 2.036 2.944 5.117 4.338 7.539 2.605 4.534 2.138 4.457 3.311 8.461zm-52.419-22.676c1.185 1.97 1.411 2.917 3.004 4.166-2.012-.074-2.553-.355-4.752-.023l1.748-4.143zm18.535 6.4c-.608-.464-1.451-1.763-1.889-2.512-1.628-2.78-1.338-1.797-.099-6.571.156-.6.297-1.19.454-1.783l.55-1.448c.011-.072.056-.09.089-.129.6.566 1.402 1.564 1.834 2.18.538.772.465.324.322 1.472-.238 1.876-.906 8.1-1.261 8.791zm-12.431-1.387c-1.248-.61-3.117-4.57-3.125-6.373-.013-3.078 1.392-5.003 4.704-4.158.043 1.112-.786 3.672-.973 5.101-.236 1.806-.385 3.684-.606 5.43zm82.225-13.432c.365 1.449 6.546 9.962 7.707 11.78 2.835 4.451 8.62 14.57 11.298 18.273 1.396 1.934 2.698 3.756 4.059 5.802l7.609 12.064c-.266-.648-8.168-7.931-9.619-9.156l-7.963-6.374c-.858-.728-1.75-1.645-2.998-2.08.314.589.097.254.528.737l4.052 4.686 16.364 13.636-5.635 1.367c-2.186-4.287-7.155.032-4.94 4.3 2.561 4.932 7.4 5.784 7.541.965 1.468-.396 4.459-2.24 6.417-2.99 1.282-.493 1.191-.016 2.429.211.375 4.541 1.653 10.136 3.747 14.16.695 1.338 1.604 2.702 2.135 4.02-1.907-.708-3.549-.899-5.547-1.499-1.826-.549-3.378-1.43-5.023-2.141-4.759-2.062-4.169-2.993-7.758-6.591-5.026-5.04-7.164-12.385-10.013-18.669-3.38-7.464-5.311-12.543-8.016-20.43-1.282-3.738-6.621-18.702-6.374-22.07zm-47.71 28.228c-.829-2.803-8.683-15.464-10.693-18.225-1.722-2.356-7.768-10.38-9.723-12.232-1.11-1.058-1.152-1.686.016-4.951 2.254 2.134 9.836 14.042 11.358 16.655 1.614 2.771 8.643 16.183 9.042 18.753zM94.219 166.741c-4.276-8.717-7.942-20.51-10.063-30.927-4.609-22.666-3.444-48.408 8.198-68.326 4.416-7.56 12.312-16.157 20.857-19.832 1.535 2.087 4.151 5.005 5.952 6.755.851.827 2.073 2.474 2.955 3.55.519.633.952 1.07 1.44 1.695.51.648.974.989 1.527 1.604 3.658 4.07 6.832 6.447 9.728 9.541l8.787 10.266c.524.662 1.08 1.059 1.637 1.714 2.023 2.37 3.517 2.835 4.33 5.083 1.116 3.085 2.444 6.163 3.369 9.411.45 1.59.888 3.22 1.559 4.708 1.106 2.458 1.529 1.767.987 4.696-1.92.034-7.277-1.28-9.629-1.63-1.023-.15-4.153-.483-4.793-.839l-16.316-14.817c-.676-.57-.858-.653-1.543-1.373-.932-.974-2.041-1.656-2.927-2.676-2.076-2.394-9.304-8.454-12.057-10.572-1.103-.846-2.041-1.654-3.147-2.456-1.114-.809-2.097-1.79-3.327-2.423.337.749.463.771 1.044 1.354l3.214 3.055c1.434 1.437 2.697 2.722 4.126 4.162 2.749 2.78 5.454 5.706 8.13 8.678l4.223 4.285c1.379 1.41 3.026 2.568 4.327 3.969 1.51 1.619 2.718 2.636 4.239 4.05l2.084 2.167c.73.703 1.51 1.197 2.061 2.004-7.535-.254-15.224-1.332-22.819-1.697-4.753-.229-18.8.184-23.137 1.028 1.636.66 8.78 1.184 11.121 1.438 3.721.398 7.413.941 11.091 1.435 7.287.98 15.41 2.059 22.838 2.068 7.371.017 5.207-.262 10.059 4.242l7.37 6.664c-.832 4.381.069 4.651.366 8.571-2.113.549-6.272 3.175-8.17 4.232-5.225 2.914-9.869 6.12-14.496 9.7-3.847 2.983-8.78 5.168-14.396 10.022-1.904 1.645-4.594 3.109-7.003 5.098-1.208 1-1.961 1.766-3.38 2.669-1.225.78-2.473 1.827-3.629 2.421-1.378.705-1.28 1.15-3.376 2.672-1.055.763-2.347 1.996-3.41 2.561zm85.578-90.717c.58-1.652 1.593-2.894 2.377-4.514.727-1.5 1.211-3.602 1.845-4.836.468.262 1.557 1.15 1.914 1.634.524.708.045 1.647-.201 2.728-.417 1.838-1.011 3.93-1.343 5.746-1.86-.606-2.274-1.014-4.592-.758zm38.379.362a80.545 80.545 0 01-1.851-3.973c-.554-1.273-1.502-2.898-1.817-4.06 1.309.32 2.407.8 3.836 1.14.859.209 3.151.747 3.873 1.054 1.012.432 1.384 1.972 2.114 2.812 1.701 1.957 1.414.862 3.136 1.785l4.758 9.595c1.719 3.24 3.532 5.927 5.221 8.895 1.871 3.287 3.789 5.498 5.916 8.419 1.112 1.531 5.222 7.171 5.735 8.575-1.992-.182-3.189.022-5.153-.422a56.733 56.733 0 00-4.411-.831l.996-1.648 1.555-.197-1.404-.283c.688-3.649-.401-5.845-2.577-7.328-3.342-2.276-3.876-1.25-7.486-.367l-12.441-23.166zm43.629-12.4l5.122 7.328c5.794 7.668 5.281 8.168 10.039 15.5l5.255 7.52c2.498 3.808 2.847 4.084 5.311 7.457.939 1.288 1.832 2.097 2.734 3.537 2.476 3.949 5.393 7.469 7.531 11.731.752 1.499 1.264 2.79 2.131 4.155 1.087 1.714 2.014 1.692 1.959 4.684-2.122-.222-2.666-1.343-3.583-2.836-1.699-2.764-2.406-4.577-4.628-7.921-2.878-4.343-4.324-6.907-7.689-11.579-5.605-7.786-9.12-15.468-14.818-23.495l-5.124-7.652c-.861-1.269-1.844-2.177-2.678-3.591-.406-.683-1.423-3.917-1.562-4.838zm-42.984 21.765c-.219-.205-.154-.133-.384-.415l-5.464-9.125c-3.464-5.29-5.78-8.43-9.421-13.209-1.155-1.513-2.318-2.682-3.473-4.144-2.169-2.732-2.04-.899-1.756-5.445.114-1.844.348-4.962.781-6.665.844 1.599 1.481 3.32 2.236 5.018.78 1.74 1.608 3.27 2.361 5.035 2.133 5.005 4.965 9.639 7.527 14.433.881 1.643 1.884 3 2.787 4.609l4.806 9.908zm-6.039-32.287c.754-1.191 1.21-1.514 1.91-3.21.412-1 .791-2.811 1.362-3.582.777.208.791.498 1.345 1.131.411.47.65.748 1.106 1.36.694.934 1.257 1.926 1.85 3.089.738 1.443 2.218 5.45 2.345 7.104-.46-.393-1.702-1.05-2.337-1.516-4.056-2.988-6.851-3.84-7.581-4.376zm-30.443 54.697c-.754-2.025 2.167-13.104 2.736-15.827.575-2.765.811-5.415 1.511-8.12l3.264-15.785c.364-2.981.791-5.278 1.631-8.004.672-2.182 2.319-9.574 2.49-11.94.061-.84-.013-1.438.574-1.815.429-.278 1.229-.317 1.696.105 1.58 1.424-2.152 14.028-2.677 15.953-.74 2.727-.876 5.362-1.413 8.23-.49 2.604-1.28 4.995-1.749 7.647-.526 2.97-1.122 5.318-1.668 7.974-.552 2.706-.832 5.418-1.502 8.125-1.323 5.337-1.442 7.85-2.329 12.004-.391 1.829-.981 2.024-2.564 1.453zm-68.14-60.963c2.732-1.779 10.107-3.495 13.981-3.925 1.229-.14 7.853-.458 8.662-.015.678.374.804 2.569.989 3.48 1.272 6.313 2.777 11.47 4.51 17.66l4 13.634-9.679-10.195c-2.332-2.595-3.418-3.412-5.843-5.803l-8.266-7.651c-.768-.749-1.381-1.217-2.084-1.95-2.438-2.534-3.903-3.17-6.27-5.235zm149.565 1.737c2.792 3.203 3.081 7.878 2.133 12.69-2.134.402-1.15-.37-4.276-4.055-.664-.786-1.076-1.305-1.779-2.025-1.565-1.613-7.336-8.812-7.673-10.593 7.4-.807 8.077-.048 11.595 3.983zm-36.549 25.33c-1.964-.49-1.584-2.963-2.575-4.351-.959-1.345-2.73-1.773-4.597-2.112-6.552-1.185-5.577.5-7.235-2.869-1.799-3.66-4.008-7.384-6.178-10.842-1.213-1.927-3.499-6.758-4.243-9.34l12.533 1.753c-.804 1.499-1.42 1.832-2.789 4.554-.745 1.482-1.991 3.392-1.958 5.267l2.297-2.5c.62.35 1.871 1.53 2.455 2.056 4.393 3.957 7.674 3.538 8.304 4.915l3.986 13.469zM163.4 97.739c-.511-.474-8.512-10.06-8.871-11.035-.903-2.472-1.424-5.165-2.397-7.68-2.666-6.886-2.978-7.528-5.159-14.78-2.409-8.025-4.074-10.708-7.264-17.611-.51-1.105-1.238-2.188-1.62-3.306 7.925.523 17.965 4.262 24.786 7.921l6.815 3.921c-2.24 6.95-1.522 5.022-1.595 12.58l-.302 18.075c.374-.566.388-1.128.444-1.838.359-4.488 1.003-8.102 1.558-12.504.692-5.438-.105-10.447.444-15.74 1.524.533 10.344 7.396 11.006 8.419-.494 1.11-1.761 2.51-2.578 3.833-2.995 4.854-7.612 14.39-9.065 20.072-.88 3.44-1.497.942-3.845 5.786-.638 1.316-1.734 2.36-2.357 3.887zm36.662-59.093c.27-1.794.835-4.082 1.41-5.646.696-1.894.96-4.006 1.812-4.929.682.77 1.38 2.272 1.94 3.228l6.135 9.168c-1.703-.3-3.444-.964-5.192-1.357-2.272-.512-3.819-.307-6.105-.464zm49.544 3.475c3.652-2.684 2.682-3.895 9.46-7.794l2.237 1.602c-.653.607-10.047 7.125-10.96 7.37-.37-.59-.415-.4-.737-1.178zm36.839-6.873c-1.388-2.31-1.309-2.28-1.348-5.58 1.309-.05 2.57-.309 3.77-.318 4.187-.034 2.782 4.064 2.822 8.291-3.655-1.908-1.655-3.66-5.244-2.393zm-14.173-5.356c-.75.448-6.289 3.83-6.99 2.554-.318-.577 3.62-5.404 4.027-5.826.839.885 2.383 2.427 2.963 3.272zm-144.228-.683a1.454 1.454 0 00-.167-.101c-.041-.017-.119-.069-.167-.088-.023-.008-.071-.218-.714-.109 6.236-.643 15.644 1.287 21.171 2.993 4.833 1.491 8.581 3.263 12.951 5.41 3.379 1.66 2.539 1.893 5.727 3.002.399.139 1.635.892 2.029 1.126 5.352 3.182 5.423 3.72 10.202 7.948l6.161 5.93c4.901 4.5 3.01 2.643 2.376 8.057-1.163-.875-1.722-1.494-2.799-2.472l-8.518-6.721c-22.108-15.976-52.053-22.68-75.211-5.3-7.056 5.298-13.204 12.598-17.801 22.527-9.438 20.377-9.7 46.177-4.2 69.258 2.592 10.885 6.212 20.356 10.573 29.741a136.15 136.15 0 007.018 13.149l6.03 9.207c.585.815 1.58 2.027 1.993 2.897l-8.722.57c-.857-.776-2.695-3.528-3.434-4.726-1.03-1.666-2.082-3.193-3.15-4.917-15.64-25.263-25.426-59.151-22.574-89.493.849-9.045 2.985-18.681 5.386-26.91.922-3.162 2.818-9.161 4.232-11.908 2.645-5.149 6.77-9.64 10.802-13.38.638-.592 1.565-1.23 2.246-1.799 6.178-5.142 16.16-10.326 24.359-11.938 2.013-.396 4.985-.642 6.896-1.154 3.106-.833 4.128-.517 7.305-.8zm110.279-12.234c2.842-.808 3.992 2.663 5.597.45.919-1.267 1.325-3.846 2.434-5.408.559-.785 6.225-3.225 7.373-8.158.276.331.63.862.938 1.295l3.196 3.523c4.481 3.598 6.449 8.257 8.941 13.461.457.956 1.116 1.873 1.497 2.912-1.984.618-4.529 2.017-6.048 3.087-2.173 1.526-2.778 1.853-3.3 3.411-.367 1.081.013.503-1.055 1.197-1.942 1.264-3.402 2.536-5.012 3.94-1.27 1.11-3.346 2.971-5.243 3.693-.773-.645-1.399-1.196-2.277-1.943-3.425-2.9-3.984-3.155-5.323-7.004-1.226-3.524-1.984-10.445-1.718-14.456zm-12.833-4.327c1.632-.835 2.726-1.85 4.902-2.35l2.365 13.26c-.908-.58-1.806-1.253-2.734-1.867 1.039 1.574 2.388 3.283 3.314 5.237.952 2.007 1.643 4.284 2.363 6.605 1.098 3.529 3.08 5.283 5.461 7.752l6.208 7.019c7.842 10.395 9.155 20.376 12.236 32.135 1.382 5.285 9.043 27.621 11.383 32.97.897 2.052 1.957 4.105 2.776 6.097-.606.423-1.758.65-2.529.971-2.37.984-3.215 2.027-7.413 3.439-.527-.963-.88-2.278-1.398-3.283l-3.308-6.104c-.718-1.133-1.35-1.807-2.034-2.894-4.475-7.09-7.223-10.594-11.75-16.704-1.396-1.883-2.368-4.03-3.623-6.015-6.155-9.736-7.138-12.77-10.398-22.99-.412-1.29-.6-2.611-.976-3.944-2.948-10.427-3.027-11.898-9.462-18.992-2.443-2.696-9.999-13.778-11.682-17.144 1.438-3.3 8.302-7.782 11.491-9.933 1.167-.787 3.184-2.292 4.377-2.822l.821 1.182-.39-1.625zM69.638 321.284c.293-.587-.283-.29 1.448-1.266a10.414 10.414 0 011.852-.859c-.675.637-2.23 1.739-3.3 2.125zm1.96 9.466c4.112-2.988 7.032-5.173 11.582-7.818 3.505-2.036 3.765-1.693 6.078-3.555.872-.702 1.95-1.24 2.988-1.946l8.45-6.108c3.595-2.596 7.757-5.28 11.258-8.005 1.864-1.45 3.67-2.827 5.409-4.228 3.648-2.937 2.062-1.777 5.992-3.861 5.71-3.031 17.782-10.286 21.962-11.874 4.34-1.65 2.771-1.008 4.619-2.775l4.53-2.643c1.302-.736 12.078-5.674 12.911-6.615-2.28.06-4.316.197-6.568.452-2.099.238-4.404.124-6.587.141-6.027.055-18.432-1.321-24.248-2.677-1.869-.43-3.5-.997-5.241-1.478-1.75-.481-3.371-1.193-5.141-1.516.095 1.883-.608 1.856-2.108 2.272-1.185.326-2.126.688-3.164 1.097-2.126.841-3.909 1.811-6.088 2.634-2.229.842-4.018 1.6-6.24 2.5-5.13 2.076-13.81 4.895-19.382 6.834-4.177 1.453-8.34 3.289-12.58 4.896-12.684 4.814-25.512 8.985-37.857 14.58l-11.625 5.548c.013 1.905.638 1.783.972 3.445.504-1.421 1.871 2.284 6.2.644 1.291-.49 1.756.182 3.226.476 1.198.244 2.52.279 3.713.602-.71.652-2.008 1.32-1.418 2.89.306.808 1.46 1.732 2.42 2.083 2.64.962 4.962-.545 7.313-.978 3.271 4.514 10.762-.157 14.89-1.06-2.904 1.728-8.98 4.061-10.524 6.216-1.485 2.068.058 3.741 2.332 4.655 1.28.514 1.189 1.045 2.674 1.594.809.3.775.151 1.39.616 2.486 1.881 4.327 2.312 7.296.33 2.996-1.994 1.986-1.98 5.225-3.064 2.101-.701 10.925-4.342 12.29-4.319-.646.897-4.962 3.95-6.271 4.956-1.423 1.096-5.266 4.058-5.852 5.251 1.732-.963 8.162-4.872 9.55-5.297-1.16 1.241-3.782 3.59-4.375 5.105zm59.67-24.685c.756-.197 3.948-2.07 4.821-2.587 6.134-3.617 10.593-4.108 15.79-6.618 3.25-1.572 6.699-3.393 9.918-5.081 3.279-1.715 6.432-3.352 9.644-5.152 3.339-1.868 6.171-3.881 9.237-5.776 3.039-1.882 6.294-3.751 9.346-5.66 3.236-2.027 5.627-4.065 8.939-6.069 3.223-1.95 6.35-3.677 8.769-5.918-3.416.633-8.317 2.194-11.557 3.352-6.05 2.161-24.291 10.848-30.787 14.025-3.422 1.673-6.302 3.656-9.435 5.573l-13.466 9.16c-5.689 4.421-4.95 3.376-9.673 8.928-.431.5-1.286 1.606-1.546 1.823zm48.978-14.916c1.09-.526 2.484-1.596 3.506-2.285 1.167-.786 2.363-1.492 3.526-2.31 14.238-10.011 29.444-16.756 42.585-26.636l5.898-5.577c-3.423.264-13.191 5.236-16.324 6.793-7.395 3.676-15.039 8.559-20.96 13.772l-18.231 16.243zm-81.584 44.13c2.642-2.342 5.406-5.471 7.508-8.395 1.441-2.008 2.952-3.915 4.274-6.261 1.004-1.784 3.03-5.132 3.523-7.127-.812.341-.978.632-1.67 1.139-7.939 5.813-4.432 4.801-9.137 9.463-2.223 2.205-7.315 9.073-7.443 13.724l2.945-2.543z" fill="#FFED00"/><path fill-rule="evenodd" clip-rule="evenodd" d="M237.801 47.604c-.646-3.636-3.385-8.967-5.367-10.373.31 2.882 3.918 8.894 5.367 10.373zm27.987 68.423c-.322-2.914-1.21-4.81-2.649-6.591-.097 2.101 1.292 5.294 2.649 6.591z" fill="#FFED00"/></svg>