<svg width="710" height="710" fill="none" xmlns="http://www.w3.org/2000/svg"><path fill-rule="evenodd" clip-rule="evenodd" d="M0 0h712v710H0V0z" fill="#FF384B"/><path fill-rule="evenodd" clip-rule="evenodd" d="M326.834 416.076c1.067 3.065 2.002 8.747.34 11.633-1.219-3.197-1.916-8.44-.34-11.633zm9.176 11.128c-.703-3.916-.081-7.914.344-11.789 2.652 3.508 1.244 8.007-.344 11.789zm-3.104-12.69c.187 3.649.82 8.677-.762 11.561-.888-4.029-1.858-8.584.762-11.561zm74.862-14.459c-.385-3.854.375-9.898 2.389-12.516.776 6.023-.021 8.182-2.389 12.516zm33.745-7.527c-1.151-4.927.175-9.826 1.252-14.212 2.225 3.858.354 10.502-1.252 14.212zm-38.423 9.056l.935-11.46c.002 1.178-3.126 6.691-4.162 8.03l-.511.595a6.342 6.342 0 01-.274.297c.525-7.095 3.341-13.203 6.391-18.077.315 2.347-.142 3.358-.354 5.428-.198 1.941.68 2.408.811 5.284.169 3.873-1.184 7.466-2.836 9.903zm35.171-8.564c-1.487-5.045-.26-13.818 1.979-17.841 1.635 5.671-.148 12.887-1.979 17.841zm-126.458-28.279c6.636-.901 10.03-.886 16.52-2.614 12.033-3.2 19.575-1.053 33.737-3.445 2.847-.486 13.884-5.107 13.635.651-.243 5.564-25.562 6.38-31.099 6.831-8.691.707-22.126 2.686-30.163.379-2.014-.583-1.273-.404-2.63-1.802zm152.772 1.376c-4.07-1.708-8.084-4.631-8.77-9.606 1.404 1.139 2.805 3.349 4.397 4.855 1.823 1.724 3.471 2.61 4.373 4.751zm3.892-.361c-2.788-3.518-7.686-5.121-9.427-11.196 2.579 1.788 8.84 7.515 9.427 11.196zM381.13 354.63c-.875-1.609-1.709-3.041-2.652-4.884-1.949-3.789-.74-1.576-3.778-3.099 3.454-1.034 6.249-2.34 9.578-.01 4.418 3.098 9.153 8.78 6.203 14.68-.253.506-1.798 3.391-2.037 3.628-1.164 1.118-1.81.564-3.343 2.27-.096-1.566.633-.557-.253-2.009-1.915.35-.457-.171-2.224 2.633-1.205-5.544 1.728-7.297-1.494-13.209zm-58.693-7.494c-1.755-2.707-1.38-7.6-.888-10.62 1.755 2.623 1.327 7.185.888 10.62zm-16.624 2.235c.59-2.225 1.755-3.886 3.156-4.794-.429 2.55-1.909 3.677-3.156 4.794zm131.144-.651c-.554-1.813-.793-3.997-.729-6.038.055-1.963.385-4.386 1.411-5.896 1.118 4.511.906 7.505-.682 11.934zm2.743-.49c-.341-3.812-.024-8.471 1.63-11.339.138.231.238-.191.615 1.325.703 2.82-.97 7.694-2.245 10.014zm-113.401.469c-.596-3.712.618-9.719 2.549-12.008 1.545 3.83-1.437 8.867-2.549 12.008zM347 343.343c-1.192-1.131-1.215-1.475-1.561-3.488-.494-2.846-.678-8.6 1.001-10.907 1.771 3.947.148 9.98.56 14.395zm-6.177-.311c-2.789-2.406-3.353-7.945-1.678-12.171 1.466 3.331.71 8.49 1.678 12.171zm-37.72-.464c-.138-2.834 1.615-4.156 2.873-5.364-.266 2.439-1.792 3.657-2.873 5.364zm57.379-3.51c.342-2.651.598-5.1 2.025-6.779.356 3.613-.69 6.499-.55 8.223l5.73 5.463c-1.81-.605-5.4-2.539-6.7-3.485-1.625-1.176-3.007-3.65-3.744-6.421 1.538.995 2.834 2.124 3.239 2.999zm-7.705 4.493c-2.453-2.733-4.832-8.87-2.634-13.341 1.569 2.674 1.928 9.454 2.634 13.341zm-16.088-1.619c-3.814-3.341-4.069-10.704-2.144-12.855l2.144 12.855zm-28.781-.041c-.513-2.231-.132-4.928.69-7.151l2.416-5.244c.031-.175.14-.206.212-.303.377 4.233-.855 7.237-1.293 11.272 3.227-2.663 2.243-.894 3.538-8.637 1.576 3.759.503 6.75-.488 10.388-.801-1.6.066-.896-1.129-1.355-1.285 2.118-1.864 1.691-3.946 1.03zm16.658-12.354c.651.515.849.447 1.471 1.79.997 2.182 1.18 5.123.877 7.533-1.446-2.523-2.063-6.035-2.348-9.323zm161.048 23.509c-3.571-4.501-3.765-4.281-6.739-9.94a30.189 30.189 0 01-3.467-13.855l1.096 1.079c1.64 1.936 3.479 6.145 4.626 7.533l-1.199-6.911c2.011 1.208 4.521 5.544 5.916 8.312 1.584 3.142 2.688 8.006 2.755 12.142l-5.573-9.109 2.585 10.749zM355.169 338.97c-.357-4.464.702-9.054 2.712-11.928.26 2.656.286 4.427-.486 6.922-.295.943-.688 1.936-1.024 2.77l-1.202 2.236zm-39.002 1.609c.208-5.107 1.281-10.117 4.34-12.179-.451 3.683-1.298 6.392-2.715 9.587l-1.625 2.592zm140.626-13.304c-1.441-2.861-1.899-5.117-2.037-8.477 2.766 2.376 3.298 7.157 3.763 10.613-1.06-.85-1.038-.766-1.726-2.136zm36.839 11.388c-.404-.919-.879-4.304-1.417-5.917-2.253-6.674-3.58-11.791-2.848-19.191 2.939 1.331 8.189 20.508 4.265 25.108zm-35.774-21.435c.744.522.785.138 1.679 2.027 1.079 2.308 1.295 4.722 1.252 7.348-1.95-2.051-2.675-5.885-2.931-9.375zm-152.551-1.036c6.255-8.275 27.881-5.461 23.873 4.062-1.922-.428-2.708-1.406-5.417-1.814-2-.303-4.175-.509-6.152-.835-4.64-.764-7.359-1.456-12.304-1.413zm168.569 3.123c1.712-2.987 5.748-6.903 8.257-9.358 2.836-2.767 4.21-7.89 6.857-10.609.344 6.717-.826 10.619-4.437 13.561-2.249 1.833-7.371 5.446-10.677 6.406zm10.234-25.426c1.644-2.431.777-2.054 1.949-2.567.719 5.059-2.75 10.825-6.054 14.061-1.268 1.247-9.723 7.355-12.164 7.835l16.269-19.329zm-143.936 5.774c-3.861-3.912-6.045-1.953-10.069-3.997 6.803-1.287 10.001-.653 14.454 2.81 2.591 2.013 6.08 6.833 7.164 11.178 2.63 10.52-10.377 16.696-20.477 14.782 7.099-2.676 14.811-5.286 13.793-15.019-.416-3.962-2.755-7.616-4.865-9.754zm-12.526-10.764c-1.903-15.089-2.886-27.07 5.765-36.622.043 4.272-4.453 33.227-5.765 36.622zm82.414-31.359c-4.578 2.358-14.91-1.537-15.338-3.074-.047-.156-.181-.162-.268-.247 2.241.052 5.483.972 7.996 1.413 1.314.227 2.624.468 3.882.699 1.776.329 2.511.218 3.728 1.209zm123.941 35.852c-.702-6.678-7.484-6.959-9.705-13.606-1.722-5.152.513-14.663 2.501-19.082 1.524-3.395 7.89-9.835 11.183-11.332 4.466-2.032 15.355-2.544 18.484 1.003-3.852-.373-11.66 1.444-14.002 3.583-2.385 2.179-5.511 6.68-6.698 10.724-1.106 3.757-3.818 10.131-3.93 13.787-.173 5.395 4.173 6.37 3.543 14.449 4.146-.811 6.337-7.342 7.215-11.237 1.063-4.699.021-4.676-1.745-7.025-1.04-1.378-2.263-4.013-2.56-5.93 5.786 6.967 12.459 2.836 11.491 18.325-.671 10.758-5.159 13.007-14.57 15.133-5.091 1.148-5.425 3.494-9.279 5.686-7.035 3.998-16.703.705-8.564-11.664l5.399-9.293c.719 5.076-.019 6.378-.556 11.244 3.707-1.941 2.939-3.308 11.793-4.765zm-178.206-56.226c-16.918 2.548-18.335-10.788-12.968-15.226 3.66-3.017 19.791-8.019 26.291-8.415 31.721-1.942 35.904 15.976 41.111 18.87 2.245 1.253 3.957 1.483 2.966 4.771-2.875.756-3.586-.342-5.713-1.448-1.792-.933-3.395-1.463-5.094-2.4-5.201-2.861-2.216-2.857-9.46-5.955-4.303-1.84-7.884-2.503-12.875-1.939-2.564.29-10.757 1.407-12.201 2.618 1.635.769 4.966.439 7.001 1.238 5.32 2.089 8.473 8.047 12.096 11.844 13.577 14.209 13.25 6.217 21.653 10.621-9.244.843-11.275.26-17.713-3.778-2.98-1.862-9.932 3.759-15.748 3.591-3.122-.093-6.863-1.035-9.754-1.247-8.105-.589-6.445 10.208 6.413 15.117-4.234.692-22.419-5.062-14.04-19.305l-1.675-4.781c-2.727 3.014-1.777 3.78-4.02 2.396l3.73-6.572zm153.824 24.376c-9.522-13.13-11.161-11.719-23.041-22.921-13.909-13.104-23.564-14.808-28.4-18.932-.631-.538-.375-.315-.845-.857 8.268.387 21.354 4.425 28.549 8.605 3.217 1.879 4.432 2.997 6.772 5.405 8.321 8.558 17.573 17.523 18.656 30.641l-1.691-1.941zm-194.154-16.766c1.178-.723.989-.789 1.574-2.231l1.349-2.808c.813 6.178-1.228 8.263-2.81 13.209-3.956 12.335.099 12.782-7.758 25.322-1.168 1.862-1.805 3.425-3.247 5.224-1.159 1.448-2.348 3.228-3.569 4.896-4.469 6.108-11.968 8.521-11.517 21.962.352 10.554 13.739 10.864 21.101 11.136-4 1.836-6.791 2.967-11.777 2.557 1.252 4.627 3.775 5.9 2.891 11.686-.869 5.727-2.255 7.128-.469 12.511 1.312 3.951 2.686 7.224 4.218 10.889 3.946 9.441.492 4.849.721 12.097.311 9.63 9.221 11.923 18.51 11.4 5.083-.285 9.721.385 14.813.179 4.405-.175 10.481-1.519 14.632-.379-8.043 2.463-17.897 7.768-25.093 12.321-6.566 4.149-12.177 16.364-13.979 24.209-2.175 9.511 1.364 14.492 5.718 19.096 4.97 5.251 7.752 7.597 17.939 6.689 21.525-1.912 39.463-9.554 59.695-16.274 12.403-4.122 25.533-7.494 37.269-13.069 10.741-5.098 24.417-9.956 32.709-18.233 3.868-3.858 9.034-6.86 13.586-11.738 4.263-4.567 8.244-8.417 11.855-13.981 3.437-5.307 6.99-9.989 7.314-18.293.162-4.159.169-8.189.226-12.356.091-6.361.049-5.863-1.718-11.495-.072.095-.156.136-.183.311l-1.201 3.119c-.525 1.39-.648 1.714-1.579 2.604-.184-8.063-2.254-14.62-2.684-23.194 1.559 1.001 2.649 3.366 3.425 5.253l2.529 7.097c.742-5.566 6.636-19.232 10.263-22.858-.648 5.099-1.944 10.741-2.424 15.831-.459 4.928.301 12.216 3.65 14.558 4.391 3.08 20.924-9.206 23.006-11.128 5.351-4.954 11.829-13.466 16.026-19.675 7.034-10.401 15.097-25.835 12.309-40.572-.919-4.833-2.155-10.1-5.036-12.885-3.959-3.815-5.512-5.243-12.78-4.07-7.116 1.151-12.964 4.332-18.172 8.446-3.203 2.527-1.735 2.008-2.569 6.423-2.214 11.746-7.237 12.45-10.877 15.909-1.864 1.767-3.188 2.124-6.008 2.859-7.826 2.044-9.194.173-15.099-1.609-4.401 5.212-7.433 12.088-16.994 13.53 4.49-3.393 6.661-7.976 10.037-12.217 1.087-1.364 2.35-2.662 3.126-4.217l-2.16-1.803c-1.387 7.253-9.362 13.079-17.989 12.14 5.398-3.739 10.514-4.707 14.427-15.621-.801-1.646-1.386-1.972-2.362-3.459-.956-1.458-1.289-2.256-2.437-3.391-1.411 2.151-2.661 5.879-2.965 8.943-2.853-4.862-.417-7.68.593-12.109-2.113-1.374-3.162-2.641-6.29-3.681 1.794 4.412 2.422 7.039.875 12.36-.597 2.06-1.38 3.59-2.039 5.502-.585 1.689-.861 4.098-1.619 5.744-3.293-7.892 1.213-15.7 1.252-24.624-4.341-1.772-10.405-5.65-13.67-8.328-15.453-12.649-16.559-31.881-14.619-52.308 1.454 1.798 2.109 4.542 2.937 6.744.929 2.466 1.633 4.458 2.523 6.918 1.72 4.779 3.135 9.686 4.98 14.378 9.1 23.079 33.682 20.724 40.299 36.611 4.373 10.5 6.459 19.105 20.609 17.935 4.259-4.141 5.298-7.132 5.077-15.347-.109-4.168-2.694-13.003-4.105-16.676-4.206-10.906-13.655-16.301-16.693-24.605 4.675 2.171 13.103 8.112 16.778 11.198 5.763 4.841 8.63 7.612 11.643 17.07.688-.983 3.437-3.457 4.385-4.133 5.464-3.93 11.274-6.701 18.176-8.44 7.709-1.951 14.414.917 20.687 4.74 1.121.682 1.504.882 2.507 1.698 1.289 1.058 1.355 1.572 2.838 2.239-2.573-9.476-9.719-18.686-16.547-25.256-4.56-4.387-9.843-6.885-15.901-9.359-4.123-1.683-7.138-3.464-11.538-4.77-10.496-3.123-22.024-4.899-31.774-10.193l-5.169-3.434c7.429.97 15.231 2.894 23.113 3.998 8.249 1.156 16.174 1.067 24.011 3.444 15.015 4.557 25.264 6.945 35.109 19.57 8.796 11.287 12.222 30.377 8.741 44.911-.564 2.344-1.683 9.202-2.445 10.652-.867 1.652-3.289 13.186-6.564 20.51-1.37 3.061-3.522 6.843-4.57 9.595 1.886-.785 6.553-4.695 8.323-6.221 8.063-6.955 15.917-13.25 22.248-21.844 4.395-5.962 8.696-10.319 12.475-16.676 3.545-5.956 6.9-13.337 9.236-20.491 5.472-16.824 1.493-33.867-3.72-49.677-5.318-16.101-8.807-22.049-16.617-35.257-2.717-4.609-1.559-1.784-2.67-1.998-.727-5.416-4.714-9.763-6.848-14.869-.599-1.44-1.405-4.582-2.01-5.538-1.3-2.064-6.004-4.777-7.81-6.72-2.052-2.204-5.217-5.284-7.652-7.352-7.318-6.213-19.049-11.206-27.344-16.624-3.346-2.186-5.569-4.586-8.702-6.658-1.087 7.202-4.545 16.074-7.052 22.738-2.677 7.116-6.887 12.812-10.842 18.821-6.644 10.114-22.563 18.115-39.147 20.111 1.184 2.794 9.241 8.205 11.457 9.833 13.433 9.828 29.787 12.141 46.064 15.932 12.933 3.014 19.962 4.878 29.832 11.664 6.202 4.264 10.651 10.749 16.016 14.943 1.973 1.541 4.348 3.541 5.369 5.776-8.821-3.691-17.832-10.969-26.206-15.757-9.852-5.638-20.243-6.538-31.917-9.56-15.624-4.036-28.089-6.502-40.179-16.736-3.72-3.15-9.413-10.522-11.178-15.662-3.477-.156-7.495.993-11.484.874-3.399-.095-7.71-1.125-10.478-2.153-.552.813-4.459 9.051-4.729 9.783 3.885 4.089 7.687 7.16 10.237 14.162 3.837 10.531-.165 11.505 1.89 20.899.935 4.276 1.803 5.127 5.265 6.959 10.494 5.552 22.221 4.997 25.173 11.665-4.768-2.292-3.026-2.453-9.755-2.161-16.72.73-39.073-3.92-33.43-26.421 1.143-4.551 1.421-5.846.678-10.963-.517-3.585-1.648-7.029-2.908-9.769-2.645 2.534-5.508 6.444-8.917 8.001 1.255-2.873 3.09-5.175 4.56-8.322 2.754-5.898 1.341-4.299-.582-9.101 1.149.56 1.88 1.25 3.108 1.654 1.03-1.77 1.864-5.832 2.298-8.112.583-3.099-1.472-4.106-3.118-6.378-4.365 9.906-4.783 19.788-17.497 28.57-2.861 1.975-6.241 4.542-9.964 5.56 1.054-1.636 2.568-2.668 3.907-4.182 4.202-4.746 7.31-8.922 10.092-15.31 3.374-7.748 5.536-18.497 5.219-27.995-1.629-.052-13.462 5.865-26.139 5.368-13.437-.531-27.261-4.485-39.913-8.273-4.614-1.378-8.882.89-12.791 2.314-10.199 3.701-17.548 3.569-26.891-.864-1.443.773-2.164 1.858-4.102 2.779-4.892 2.328-5.277 1.613-9.201 13.39-2.403 7.216-3.419 14.47-6.648 23.618-2.437 6.907-4.118 15.141-6.902 22.877-2.997 8.322-3.845 14.549-8.721 21.281 1.329 1.457 4.686 2.079 6.502 2.913 2.416 1.117 3.638 2.271 5.778 3.568 3.139 1.908 8.854 7.698 6.799 11.856-1.644 2.935-5.934 1.693-9.67 1.998 1.794.968 3.594 2.791 4.605 4.342 1.112 1.706 2.824 4.219 3.551 5.991z" fill="#0074BF"/><path fill-rule="evenodd" clip-rule="evenodd" d="M526.038 502.744c-.818-4.521-2.676-9.117-2.111-14.179 1.052-9.443 9.919-32.07 12.745-35.485 2.228 9.993.127 17.769-3.388 26.005-8.171 19.171-4.085 13.988-6.624 22.23-.039.119-.091.259-.124.37l-.498 1.059zm-19.707-162.743c2.062 7.742 5.557 18.691 2.323 26.708-3.728 9.252-5.851 12.845-12.281 19.249-11.18 11.149-3.551 5.319-16.278 15.147-8.36 6.448-6.385 7.031-18.464 12.912-16.342 7.954-27.4 12.115-44.342 18.159-7.666 2.734-15.674 5-23.449 7.777-7.975 2.845-14.805 5.69-23.342 7.972 1.68 1.665 5.746 3.379 8.201 4.829 7.609 4.501 14.762 10.049 23.985 15.302 5.45 3.1 10.679 6.324 16.496 9.69 12.673 7.326 65.712 47.069 74.375 56.677-2.896-.925-9.604-4.682-12.331-6.274-12.519-7.309-24.771-13.533-36.8-20.687-4.008-2.388-8.009-4.862-11.77-7.412-4.171-2.826-7.254-5.062-11.265-7.923-3.863-2.756-7.445-5.171-11.288-7.89l-11.376-7.989c.676 1.827 4.177 6.061 5.574 8.232 1.757 2.744 3.427 5.69 5.029 8.632 3.207 5.902 6.846 14.933 9.306 18.029 4.531 5.692 13.227 18.122 21.234 19.63 21.186 3.986 14.288 5.134 25.089 16.019 6.057 6.112 7.551 6.944 17.725 9.848 7.878 2.256 20.805 8.249 27.783 12.832 2.307 1.51 7.042 5.564 7.853 5.64 2.373-23.642 7.312-36.699 17.071-57.206l10.182-27.137c3.185-10.174 4.904-19.566 6.562-30.819 1.868-12.63-.863-19.533-2.271-33.342-3.677-36.013-3.698-34.354-1.916-70.127.805-16.171 2.865-21 4.097-33.238-4.42 2.729-4.08 6.448-19.466 13.823-4.216 2.023-7.45 3.034-12.345 3.957-6.95 1.312-8.01.948-13.901-1.02zm-228.96 319.133c6.813.713 9.204 3.556 10.475 10.226 5.899 2.203 18.117 4.31 24.759 5.443 9.487 1.617 19.54.717 29.284 1.3 9.785.58 18.521 1.91 28.444 2.32 9.719.401 19.494.681 29.23 1.287 7.337.455 22.395 2.173 28.916.919 8.397-1.62 17.688-2.679 25.426-5.284 3.905-1.315 7.454-2.73 11.445-3.941 2.699-.82 2.834-1.366 4.597-2.882 1.611-1.384 2.789-2.225 4.552-3.414 4.192-2.826 14.828-7.319 18.576-12.205-3.264-3.782-6.204-7.929-10.014-11.027-4.097-3.327-8.795-5.398-12.984-8.539-2.309-1.735-3.658-2.837-5.927-4.371l-31.336-22.026c-1.236-1.046-1.847-1.422-2.832-2.324-3.514-3.236-20.063-13.099-23.488-14.391-9.584-3.619-22.675-10.024-30.069-12.389-10.652-3.407-21.502-8.658-30.973-11.464-10.525-3.109-35.638-15.444-43.141-20.843-4.449-3.208-14.5-10.846-17.581-14.746l-3.559-4.42c-.709-.853-.748-.896-1.462-1.512 1.027 4.657 3.077 9.735 4.337 14.71 7.168 28.226 5.075 21.714 4.525 52.92-.334 18.935-2.552 33.325-7.171 51.146-1.232 4.744-3.238 10.996-4.029 15.507z" fill="#0074BF"/><path fill-rule="evenodd" clip-rule="evenodd" d="M494.98 651.86c2.488-4.927-8.498-27.542-11.814-32.916-3.744-6.077-10.714-13.524-15.861-17.964-1.316-1.135-1.448-1.32-2.814-2.803l-9.056-8.294c-9.635-8.394-33.061-18.431-42.665-25.62-2.583-1.937-3.988-3.377-6.06-5.467l15.717 6.485c5.481 2.066 11.316 3.971 16.506 6.346 13.186 6.026 17.462 6.673 29.233 16.108 7.826 6.276 16.913 14.62 22.374 23.14 5.717 8.926 10.246 23.138 10.156 36.276 4.183-1.852 18.977-15.511 26.25-18.525-.361-5.849-4.544-15.053-6.995-19.432-1.641-2.938-3.565-5.527-5.336-7.837-1.778-2.319-4.177-5.444-5.926-7.226-8.64-8.86-7.388-6.598-13.756-12.517-3.784-3.527-7.985-8.815-14.238-11.999-6.258-3.181-12.406-2.753-18.784-7.328-5.323-3.805-9.983-7.603-13.812-12.446-5.543-7.021-1.45-5.985-18.815-7.283-7.58-.564-15.658-1.86-23.171-2.828-15.303-1.969-29.494-4.795-44.208-7.873-6.894-1.442-16.51-1.15-23.894-2.11-11.46-1.495-24.273-13.282-30.339-22.064-4.535-6.57-5.062-11.967-4.484-21.534.233-3.718-1.231-6.804-.453-11.878 1.978-12.906 10.027-19.982 13.269-26.901-.456-.816-8.243-8.156-13.219-16.019-1.386-2.186-2.218-8.833-2.713-11.913-.721-4.444.138-9.153 1.442-13.009.657-1.947 1.942-3.261 1.994-5.195.202-7.744-4.453-8.074-7.872-14.392-1.428-2.637-2.915-8.736-2.546-12.279 1.137-10.739 4.513-10.848.08-18.497-1.032-1.778-1.577-3.107-2.203-5.368-2.233-8.03 5.602-12.383 2.123-24.055-1.199-4.044-3.44-6.506-7.1-7.911-5.182-1.992-10.712-12.438-6.994-20.132 1.438-2.979 4.498-5.964 6.543-8.028 2.589-2.6 4.488-5.661 6.812-8.296-.443-5.385-1.028-3.267-1.424-13.721-1.583 1.475-3.087 3.629-4.607 5.691-1.425 1.93-3.026 4.071-4.463 5.892-3.205 4.065-12.152 13.724-14.117 16.882-12.257 19.708-12.626 35.352-14.028 59.019-.793 13.413 1.1 25.746 1.864 39.095.782 13.641.71 26.059 2.216 39.694 1.522 13.813 1.096 23.192 6.741 34.868 8.937 18.495 11.958 23.779 22.549 39.639 5.693 8.53 10.239 16.02 18.868 22.478 4.091 3.062 7.189 5.939 11.998 8.599 4.502 2.49 9.118 4.495 13.906 6.658 4.804 2.171 8.585 4.964 13.893 6.635 5.612 1.77 10.243 2.927 15.478 5.027 4.939 1.977 9.532 4.021 14.687 5.832 5.151 1.804 10.245 3.467 14.98 5.539 4.814 2.105 9.227 4.318 14.368 6.168 20.951 7.543 13.116 6.573 27.175 13.929 4.366 2.287 9.17 6.061 11.88 8.729 3.508 3.454 7.522 5.696 11.316 9.29l21.461 19.817c3.495 3.259 8.945 7.237 10.75 9.899 3.946 5.832 5.276 12.51 7.138 13.925zM134.399 335.043c15.26-5.58 27.257-6.925 37.572 7.622 12.739 17.972 8.222 38.24 2.13 57.442-1.751 5.521-6.521 12.199-8.988 17.879-3.156 7.274-4.385 10.042-10.447 16.393-9.641 10.119-6.98 8.073-18.428 17.222-13.752 10.986-43.73 17.992-38.488-12.762-7.479-3.811-8.776-6.089-11.052-7.301.799 4.545 2.132 8.698 2.945 13.349 2.35 13.502 3.784 29.32 5.738 43.12 2.663 18.81 5.825 38.535 7.642 57.489 2.842-3.856 4.98-8.875 7.256-13.559 3.835-7.9 21.857-27.804 28.857-33.117l24.934-16.232c14.395-8.57 13.231-7.357 28.075-13.498-.811-25.437-6.78-36.979 19.913-41.416 8.867-1.471 4.62-11.53 8.203-23.872 2.48-8.541 8.229-13.763 18.696-13.147.171-7.162-1.147-15.361-1.526-22.686-.645-12.264.171-33.045 2.636-45.135 1.724-8.426 5.168-13.644 6.5-18.106-11.19 1.148-21.507 2.462-32.977 2.905-12.283.482-23.506-1.84-35.176-1.17-12.754.739-10.294 2.472-24.145 11.905-3.706 2.527-17.219 13.239-19.87 16.675zm228.203-277.19l9.219 6.12c1.24.849 2.27 1.055 3.742 1.65-4.066.53-6.846-.853-10.385-1.961-9.488-2.981-23.43-2.268-30.101 5.218-2.319 2.612-3.683 3.722-5.953 6.724-3.692 4.878-7.379 10.045-13.134 12.677-3.277 1.502-7.847 1.522-10.31 2.738-2.332 2.163-5.823 25.402 9.812 33.24 5.178 2.6 6.665 2.433 12.788 3.109-11.596 5.43-30.993-1.02-33.587-17.858-.442-2.87-.77-5.818-.286-8.745.476-2.847 1.702-4.49 2.334-6.658-2.21 1.086-4.791 2.684-6.597 4.233-.021 2.711 3.017 10.69 3.981 13.615 1.648 5 4.113 8.1 6.826 11.538 5.901 7.476 23.111 9.523 26.756 5.842.083.006.196.019.221.109 0 .004 1.332 1.121 3.668-.362-3.437-3.541-6.543-3.673-10.667-11.359-2.564-4.779-3.538-13.199-3.079-19.486.912-12.47 13.876-22.5 21.9-22.246-6.675 3.27-12.848 10.62-13.159 18.394-.105 2.55.295 7.408 2.111 9.344 1.106-7.855 8.678-18.35 15.928-22.66 2.652-1.578 5.861-3 9.391-3.65 13.674-2.542 34.829.612 39.646 10.248-8.691-3.38-10.273-4.342-21.313-4.487-8.261-.107-15.476 1.47-21.059 5.229-4.462 3-9.944 8.742-12.375 13.926-3.822 8.139 1.298 14.171 4.741 19.098l4.94-.606c-3.529-2.324-5.7-9.494-2.948-14.448 7.287-13.154 28.201-16.71 42.705-15.58l-12.039 4.758c-4.321 1.337-8.311 2.765-12.059 4.732-4.457 2.334-7.019 3.91-9.993 6.872-2.013 1.996-6.002 8.481-2.789 12.406.642.488 14.767-3.661 17.577-5.774 11.307-8.512 51.843-35.357 57.771-41.483.924-.958 1.112-1.323 1.736-2.501l1.794-2.765c.859 9.868-7.361 18.724-13.382 25.112-11.476 12.175-21.677 17.564-39.497 24.22 4.006 1.868 8.959 3.393 13.447 2.297 9.522-2.339 17.301-4.291 25.266-10.201l10.04-8.237c5.442-4.266 13.005-12.213 16.809-18.867 5.606-9.79 7.613-14.437 8.71-27.711 4.702 9.742 4.142 14.263.96 25.288-6.753 23.412-28.345 40.898-51.853 43.526 8.226 4.427 30.099 4.804 37.662-.051-.025-3.134-1.757-10.712-2.576-13.72 2.473 1.432 6.57 7.935 7.614 11.404 2.317-.894 3.516-1.872 5.532-3.036l5.436-2.964c3.522-1.838 7.231-4.261 10.759-5.935-2.473 4.556-8.477 8.528-11.787 12.362.83 1.718 2.14 3.477 3.227 5.574.96 1.848 1.685 4.736 2.655 6.256 5.429.559 14.109-1.621 18.883-3.376 8.317-3.049 15.513-11.775 21.377-18.464l7.363-10.034c1.636-1.994 3.691-4.435 5.483-6.077-1.582 9.243-9.252 25.542-15.332 33.042-7.433 9.171-21.511 12.2-37.01 9.88.12 4.621-.261 6.481-.966 10.819 11.339.927 23.029-3.407 31.892-7.918 11.863-6.046 14.8-8.918 21.49-19.286 2.61-4.046 4.723-8.52 6.791-13.501 6.304-15.15 7.048-12.192 10.119-31.482 1.096-6.899.513-12.2-.208-19.174-8.383-1.387-15.289-4.417-20.15-8.807-3.297-2.976-10.598-14.436-13.383-15.736-7.345-3.426-15.993.251-22.374 3.205-7.874 3.644-11.989 6.831-22.294 7.103-19.511.511-24.04-16.181-57.138 2.59-3.135 1.775-6.319 3.466-9.322 5.178-9.796 5.579-8.675 6.055-21.997 7.53z" fill="#0074BF"/><path fill-rule="evenodd" clip-rule="evenodd" d="M627.048 596.19c1.477 7.693 6.177 20.97-2.772 24.004-6.552 2.221-7.796-2.699-6.865-8.49 1.265-7.879-6.253-22.66 3.195-41.459l6.442 25.945zm-16.578 14.592c-6.747-10.634-1.948-31.644 3.25-41.427 3.51 9.468-1.736 31.139-3.25 41.427zm-56.226-289.013c5.361 5.912 19.8 4.151 28.567 5.842 8.915 1.716 19.874 4.153 25.581 8.939 5.611 4.703 11.608 12.914 14.335 20.474 7.681 21.3.177 38.065 13.581 56.932 11.532 16.227 19.112 25.45 23.326 46.894 2.502 12.7 3.891 18.291.365 30.954-4.282 15.388-11.234 22.314-18.109 34.206-2.552 4.407-4.434 6.877-7.285 10.585-2.984 3.885-8.185 12.275-10.671 15.209l-11.659 14.661c-7.135 8.553-17.73 20.116-26.506 26.05-3.693 2.505-7.295 3.834-11.694 5.564-3.7 1.455-17.858 10.989-21.371 13.733-7.3 5.697-11.526 13.415-16.543 18.202-2 1.912-2.171 2.608-4.122 4.785-2.029 2.262-2.224 2.097-2.945 6.106-.175-.406-.233-.752-.408-1.145l-1.003-1.741c-1.007 2.093-7.888 7.898-9.888 10.434 10.494-1.506 21.57-3.813 32.192-5.657 11.054-1.916 22.724-2.822 34.052-3.953 16.471-1.646 31.974-2.305 44.941-12.389 14.57-11.328 7.026-32.027 9.351-48.377.676-4.769 1.916-11.989 3.654-15.827 2.455-5.428 11.038-19.547 14.006-24.59 4.941-8.407 6.448-13.757 13.853-24.778 2.92-4.347 4.498-7.791 6.282-13.53 4.172-13.434 4.133-19.237 1.557-33.269-2.097-11.429-4.855-19.749-9.448-29.275-4.255-8.831-8.189-13.714-12.836-25.828-10.133-26.43-9.624-46.993-16.079-61.965-3.224-7.476-10.319-17.63-17.548-21.478-12.966-6.895-14.158-6.619-27.719-10.489-11.324-3.232-18.444-5.47-29.134-9.518-1.738 1.846-10.339 12.406-10.675 14.239z" fill="#0074BF"/><path fill-rule="evenodd" clip-rule="evenodd" d="M625.332 523.795c5.038-8.442 9.847-15.154 14.047-24.16 5.456-11.711 7.451-19.01 5.278-31.448-2.115-12.06-4.319-20.411-9.645-29.588-5.421-9.334-19.169-23.011-21.921-36.436-1.079-5.275-1.965-12.071-2.366-17.584-.82-11.27-2.056-23.696-7.075-32.206-7.301-12.407-7.843-11.254-21.521-17.36-6.529-2.917-19.474-4.491-24.666-8.918l-1.955-1.854c-.622-.527-.163-.224-.925-.706.878 10.397 1.051 21.498 2.389 31.635 1.323 10.051 2.303 20.856 2.974 31.036.458 6.854-.854 29.053.441 32.991 4.192 12.717 3.374 12.34 10.692 23.262 10.17 15.182 17.735 19.132 27.692 31.496 1.336 1.666 2.71 2.748 4.034 4.402 6.136 7.626 5.271 6.141 10.433 14.98 4.15 7.107.846 2.272 5.142 7.544.606.744 1.014 1.654 1.547 2.721 1.253 2.516 5.075 17.749 5.405 20.193zm-79.339 80.569c3.74-4.06 7.989-8.09 12.362-11.493 1.602-1.249 2.848-2.567 4.483-3.949 7.724-6.528 20.648-11.316 28.994-19.688.599-.603 7.217-8.262 7.522-8.936.692-1.547.037-5.682.086-7.799.072-3.055.703-4.689.622-8.071-.125-5.085-.459-10.185-1.606-14.983-4.999-20.888-9.654-43.662-20.986-60.733-2.329-3.51-4.916-6.013-7.254-9.192-2.276-3.088-10.358-17.217-11.079-21.5-.146 4.701 2.163 14.799 2.624 20.687 1.123 14.172.618 20.311-1.396 33.503-.942 6.176 1.788 16.785-1.833 33.745-1.407 6.58-2.412 13.279-3.829 19.886-2.917 13.602-6.55 25.046-8.352 38.988-.814 6.297-4.167 14.445-.358 19.535zm-266.138 93.262c5.522 2.497 17.18 4.402 23.758 5.06 8.537.857 16.537 2.544 24.866 3.421 17.561 1.844 37.3.868 54.999.056 19.729-.904 56.405-5.084 75.167-10.259 2.055-.564 20.217-4.95 22.112-6.448-2.706-1.599-5.423-4.239-8.284-6.242-4.354-3.046-5.917-1.839-10.77-.342-7.569 2.328-14.1 4.417-22.604 5.77-11.732 1.871-68.889 1.191-82.462.202-8.766-.636-16.189-2.587-24.549-3.652-25.155-3.212-22.551-4.66-44.039-12.292-.159 4.837-1.414 9.346-3.385 13.075l-4.809 11.651zm432.554-215.928c-5.514-8.996-11.8-17.584-17.216-25.985-1.319-2.05-3.321-5.671-4.787-7.272.465 2.981 1.621 6.417 2.23 9.878.627 3.556 1.187 7.008 1.782 10.518 1.444 8.471 1.777 13.992.426 22.669-1.938 12.415-3.462 5.652.235 20.476 1.928 7.7 3.67 11.622 6.752 18.254 3.561 7.663 7.196 14.533 10.578 22.023v-70.561zM262.227 659.931l11.882-.96c.696-15.246.851-32.183.612-47.46-.126-7.888-.523-15.908-.278-23.802.235-7.389 1.075-14.99 1.761-22.342.64-6.907-.13-26.387-.645-34.753-1.213-19.677 2.261-7.572-9.577-26.714-1.102-1.774-8.42-13.897-8.614-14.863-.01 2.668 3.133 14.499 3.912 18.26 5.793 28.072 4.286 79.362 2.628 108.443-.373 6.573-1.955 39.814-1.681 44.191zM73.708 622.922l5.648-16.466-4.991 5.052c3.129-8.877 7.081-14.894 8.564-25.862.7-5.179 2.076-9.383 3.17-14.333 4.358-19.733.202-43.481-1.23-64.959-.332-4.977-.28-11.286-1.083-16.026-.744 5.91-1.31 11.346-2.575 16.968-1.174 5.197-2.885 10.316-3.777 15.627-2.982 17.673-5.491 18.433-8.465 30.83-2.99 12.477-2.188 23.68-2.02 36.839.088 7.165 3.666 27.697 6.76 32.33zm45.091-217.988c5.129-2.594 7.981-3.694 13.919-5.482-.523-.327.363-.107-1.11-.434-.706-.157-.599-.12-1.295-.176-.828-.066-1.967-.041-2.857-.076 1.03-.989 1.217-.539 1.691-1.707-3.969-10.076-5.026-20.065-1.464-31.339 2.836-8.982 9.898-19.27 20.34-14.146 8.958 4.392 9.007 21.432 7.071 28.992-1.11 4.324-3.001 9.901-4.568 13.872-3.003 7.618-1.718 1.971 2.171 13.279 1.275-2.501 2.031-5.171 3.299-7.667 1.452-2.866 2.676-4.644 3.916-7.859 2.183-5.663 4.607-11.629 5.011-18.596.438-7.564-1.597-22.11-7.328-27.579-2.793-2.66-2.202-4.157-7.788-3.62-12.895 1.259-21.566 10.723-26.252 20.028-6.533 12.974-3.545 26.821-4.756 42.51zm419.648-318.53c4.346 1.776 8.854 5.245 13.491 7.486 9.612 4.647 18.79 8.407 26.73 16.301 3.565 3.541 6.156 9.264 8.801 12.548.037-6.982-4.212-13.879-7.145-18.54-9.864-15.659-16.737-23.584-33.785-30.932-3.435-1.48-5.868-3.526-8.545-4.703.77 6.72.782 11.021.453 17.84zm-420.28 319.06c-2.69-12.708-6.746-23.132-6.233-37.334-.661.542-.288.225-.898.851l-2.027 2.287c-7.855 8.757-15.34 8.788-15.987 13.738-1.056 8.129 6.624 24.951 9.33 26.838 5.545 3.865 10.097-2.987 15.815-6.38zm13.5 18.982c-5.461 6.277-6.859 20.688-32.166 15.196.744 5.189 2.83 14.181 9.011 14.124 11.423-.111 17.962-10.09 21.083-12.805 3.579-3.113 13.315-15.444 14.541-19.412-5.438 2.147-5.704 2.742-12.469 2.897z" fill="#0074BF"/><path fill-rule="evenodd" clip-rule="evenodd" d="M96.86 421.657c.822 1.322 7.595 7.75 10.911 8.322 14.213 2.458 10.782-13.74 31.718-16.871 3.988-.596 4.741-.629 4.035-5.554-.783-5.43-4.08-9.633-9.921-6.238-19.717 11.472-8.099 24.44-36.743 20.341zm33.56-24.7c5.598-.462 9.616-2.252 14.825.613.478-5.189.262-13.725.223-19.201-.035-5.869-1.819-11.07-3.549-15.726-3.157 1.494-7.343 9.488-8.599 14.13-1.648 6.081-2.167 13.62-2.9 20.184zm178.062-240.885c2.004-2.542 3.087-7.912 5.338-11.046 1.318-1.831 1.975-2.822 3.397-4.587 1.198-1.492 2.564-3.051 3.612-4.518-8.335 1.076-13.635 1.292-21.692-2.96-3.699-1.953-3.697-3.15-5.37-3.947-.142 6.38 1.483 12.123 3.834 16.96 1.954 4.037 6.428 8.792 10.881 10.098zm-40.189 533.081c2.651-2.344 10.72-15.402 4.813-20.351-.342-.288-10.747-3.287-11.184-3.341-.23 10.719-.935 20.16-1.853 30.591l8.224-6.899zm201.365-9.798c14.864 2.857 24.108 15.308 25.955-.074.54-4.438-.162-8.797.029-13.306-2.785.407-4.193 2.113-6.97 3.236-6.825 2.759-8.648 5.482-19.014 10.144zM573.175 78.17c-.735-1.671-4.805-6.823-6.192-8.307-7.097-7.626-21.337-10.942-32.076-11.684.696 2.736.432 3.224 2.51 4.486 5.458 3.342 9.559 4.3 15.798 6.127 11.044 3.232 12.251 5.463 19.96 9.377zm-272.4 170.98c-1.367 5.192-.63 7.144-.601 12.189.027 4.384-1.045 8.374-1.226 12.71 1.825-2.317 1.92-1.413 4.34-5.679 3.619-6.361 2.529-9.101 8.354-17.578.877-1.273 1.53-1.809 2.218-3.041-4.447.503-8.589 1.13-13.085 1.399zM80.86 376.015c6.146-3.277 17.283-5.564 22.955-10.557 3.176-2.794.305-5.466-.783-8.024-5.872 1.65-18.938 11.431-22.172 18.581zm365.436-248.838c.28 3.351 1.334 6.388 1.507 9.983.116 2.389-.366 3.04.839 4.859.815 1.238 1.691 2.25 3.108 2.616 2.3-15.392-.499-8.829-2.525-16.504 1.149.574 1.971 1.499 3.083 2.229l-1.283-7.293c-.882.907-3.518 2.983-4.729 4.11zm-76.168 112.449c.924 3.9-.015 4.856-.938 7.974 3.199-.041 5.945-.873 9.166-.859 3.701.017 6.409-.228 10.02-.385-1.137-.544-2.251-1.709-3.681-2.457-2.102-1.094-11.948-3.587-14.567-4.273zM105.706 356.093c2.267 1.252 6.265 4.526 6.706 7.853 2.788-10.381 4.988-12.089 9.876-19.325-2.911 1.907-4.628 3.885-7.819 6.095-1.95 1.345-7.674 4.147-8.763 5.377zm209.758-111.317c-3.104-1.716-4.037-3.417-5.888-5.03-1.121-.973.045-.206-1.213-.884l-.177 7.581c3.254.426 7.074 1.839 7.278-1.667zm-22.163-11.408c2.875 1.086 1.722.802 4.686.116 1.93-.449 3.876-.392 5.839-.381-3.399-1.7-6.111-4.102-10.033-5.427l-.492 5.692zm10.552 2.909c-1.069 1.003-.569.661-1.38 3.232-1.887 5.971-1.479 2.251-2.171 4.455-.441 1.399.206 2.281 1.627 2.161 2.918-.251 6.274-8.641 1.924-9.848z" fill="#0074BF"/><path fill-rule="evenodd" clip-rule="evenodd" d="M712 399.532c-18.974-5.241-51.008-12.095-54.034-25.986-12.218-56.148-197.227-94.39-255.314-91.38-86.6 4.49-204.764 51.822-237.242 143-11.71 32.869-43.197 30.938-59.315 117.959-5.773 31.152-22.674 30.833-27.588 89.923C76.669 655.106 63.304 683.429 56 710h656V399.532z" fill="#0074BF"/><path fill-rule="evenodd" clip-rule="evenodd" d="M360.483 339.056c-.406-.876-1.702-2.005-3.24-3 .737 2.771 2.119 5.245 3.745 6.422 1.299.945 4.889 2.879 6.699 3.485l-5.729-5.463c-.14-1.724.906-4.61.55-8.224-1.428 1.679-1.683 4.129-2.025 6.78zm81.029 53.469c1.606-3.71 3.476-10.353 1.252-14.212-1.077 4.386-2.403 9.285-1.252 14.212zm-88.736-48.976c-.707-3.888-1.065-10.668-2.634-13.341-2.198 4.47.181 10.607 2.634 13.341zm115.69 22.206c-.587-3.681-6.848-9.407-9.427-11.195 1.74 6.074 6.638 7.677 9.427 11.195zM336.689 341.93l-2.144-12.854c-1.926 2.15-1.671 9.513 2.144 12.854zm-10.39 6.767c1.113-3.141 4.095-8.178 2.55-12.008-1.932 2.289-3.145 8.296-2.55 12.008zm138.277 17.417c-.903-2.141-2.55-3.027-4.373-4.751-1.592-1.506-2.993-3.716-4.398-4.855.686 4.975 4.701 7.898 8.771 9.606zm-27.617-17.396c1.587-4.429 1.8-7.423.681-11.934-1.025 1.51-1.355 3.933-1.411 5.896-.063 2.041.176 4.225.73 6.038zm21.559-19.309c-.466-3.457-.997-8.238-3.763-10.613.138 3.36.595 5.615 2.037 8.477.688 1.37.665 1.285 1.726 2.136zm2.27-2.808c.043-2.626-.173-5.04-1.253-7.348-.893-1.889-.935-1.505-1.678-2.027.255 3.49.98 7.324 2.931 9.375zm-138.351 20.532c.439-3.434.867-7.996-.888-10.618-.492 3.019-.867 7.911.888 10.618zm4.479-8.276c.303-2.41.119-5.352-.877-7.534-.622-1.343-.82-1.275-1.471-1.79.284 3.288.902 6.8 2.348 9.324zm76.176 62.725c1.652-2.437 3.005-6.03 2.836-9.903-.132-2.875-1.009-3.343-.812-5.284.212-2.07.67-3.081.355-5.428-3.051 4.874-5.866 10.982-6.392 18.077.093-.095.213-.222.274-.297l.511-.595c1.036-1.339 4.165-6.851 4.163-8.03l-.935 11.46zm-86.922-61.004l1.625-2.592c1.417-3.195 2.264-5.904 2.715-9.588-3.059 2.063-4.132 7.073-4.34 12.18zm91.599 59.474c2.369-4.334 3.166-6.493 2.389-12.516-2.014 2.618-2.774 8.662-2.389 12.516zm-52.595-61.085l1.202-2.235c.336-.834.73-1.827 1.024-2.771.772-2.494.746-4.266.486-6.921-2.01 2.874-3.069 7.463-2.712 11.927zm-19.161 88.235c1.588-3.782 2.997-8.281.344-11.789-.424 3.874-1.046 7.873-.344 11.789zm-3.105-12.69c-2.62 2.976-1.65 7.532-.762 11.561 1.581-2.884.949-7.913.762-11.561z" fill="#FEED01"/><path fill-rule="evenodd" clip-rule="evenodd" d="M279.856 697.627l4.809-11.651c1.971-3.729 3.226-8.239 3.384-13.075 21.489 7.632 18.885 9.08 44.04 12.292 8.36 1.065 15.783 3.015 24.549 3.652 13.573.989 70.73 1.669 82.461-.202 8.505-1.353 15.036-3.442 22.605-5.77 4.853-1.498 6.416-2.705 10.77.342 2.861 2.002 5.577 4.643 8.284 6.242-1.895 1.497-20.057 5.883-22.113 6.448-18.761 5.174-55.437 9.354-75.166 10.259-17.699.811-37.438 1.787-54.999-.056-8.329-.878-16.329-2.565-24.866-3.422-6.578-.657-18.236-2.563-23.758-5.059zm432.552-297.245v10.889c-16.146-4.275-21.161-5.943-35.529-13.322-3.763-1.928-7.332-4.684-10.547-6.269.677 4.784 4.858 7.548 7.355 10.484l12.232 14.554c6.819 7.803 13.363 16.544 19.334 25.328a615.335 615.335 0 017.155 10.734v28.919c-5.514-8.996-11.8-17.585-17.217-25.985-1.318-2.05-3.32-5.671-4.786-7.272.465 2.981 1.621 6.417 2.23 9.878.626 3.555 1.187 7.008 1.782 10.518 1.444 8.471 1.777 13.992.426 22.668-1.938 12.416-3.462 5.653.235 20.477 1.928 7.7 3.67 11.622 6.751 18.253 3.562 7.664 7.197 14.534 10.579 22.024v39.075c-3.032-7.917-6.278-15.432-9.913-25.135-5.695-15.203-12.974-32.75-15.149-50.151l-16.263 27.594c-4.947 8.244-12.5 20.258-14.201 30.097-2.756 15.914.272 33.84-2.126 41.62-11.643 37.812-60.825 33.134-93.1 38.446-12.324 2.021-24.678 4.39-36.892 6.784-5.526 1.083-11.415 3.147-13.064 8.969-1.881 6.611-1.306 11.903-4.47 17.896 11.413.469 24.214-2.333 35.865-1.121 6.156.638 5.149 2.478 8.86-1.069 3.551-3.399 14.21-5.132 20.37-4.924 6.727.229 16.861 2.59 22.825 2.293 1.696-.084 5.25-3.793 7.328-4.936 2.482-1.364 7.007-2.043 10.167-2.198 8.098-.406 16.345-.249 24.462-.781 6.75-.442 15.654-1.433 22.078-2.97 5.96-1.426 13.517-5.154 19.951-4.843-8.273 3.673-13.311 9.437-21.56 12.881 9.163.288 28.668 1.833 35.976-1.695l9.643-4.866c1.277-.873 1.464-1.518 2.741-2.398 1.893-1.3 4.217-1.796 6.472-1.65v26.117c-1.254 2.194-2.334 4.056-2.947 5.304l-5.77 9.398h-6.1a127.22 127.22 0 011.087-3.821l5.001-18.637c-6.465 1.757-7.915 2.499-15.635 2.612-5.688.084-11.556-.688-16.854-1.817-5.192-1.11-10.341-2.056-15.538-3.063-7.381-1.432-8.533-1.858-15.674-.062.466 8.009.171 15.473-1.075 23.264l-.247 1.524h-5.952c.024-1.275.062-2.416.105-3.335.375-8.057 1.979-13.388 3.17-20.792-4.237.385-7.973.843-12.278.884-3.913.041-8.245-.616-11.913-.33.025 1.801 1.568 6.327 1.907 9.225.497 4.137.46 9.21.072 14.348h-5.973l-.045-.952c-.327-7.356 1.193-14.644.816-21.77-5.897 1.763-6.752 6.58-14.931 6.04-6.271-.41-13.33-6.025-16.219-4.49-3.032 2.531-2.719 12.819-2.906 21.172h-4.048c-.432-1.681-.784-3.218-.964-4.278-1.159-6.819.437-9.505 2.476-14.878-5.503 2.213-6.527 11.285-7.295 19.156h-2.612c-1.299-3.84-2.414-7.867-2.626-11.9-.103-1.937.495-4.889-.113-5.997-3.133.307-4.018 6.779-4.404 9.55-.315 2.27-.471 5.482-.749 8.347h-2.766c-1.906-5.502-3.623-13.581-3.378-17.874-6.834.395-27.496 5.182-36.108 6.732-14.64 2.643-45.04 3.139-56.601 6.499-4.904 1.419-8.09 3.281-13.077 4.643H302.436c-4.179-1.069-8.012-2.134-12.061-3.749-2.544-1.018-12.226-6.604-14.043-5.56-2.445 1.399-3.843 2.505-7.415 3.366-3.794.915-6.384.367-9.96.791-.445 1.125-.863 3.139-1.263 5.152h-4.444l-.247-7.64a1039.464 1039.464 0 01-1.113-64.207c.398-28.282 1.582-56.94.455-85.148-.56-14.066.307-28.729-.595-42.542-.441-6.756-.908-13.509-1.129-20.272-.337-10.341.717-12.111-2.694-19.119-7.981-16.414-7.919-58.624-8.72-78.177-6.142-1.918-10.333 7.274-10.352 13.077-.022 6.639 3.304 16.706 2.12 22.192-2.878 13.374-18.236 9.728-20.865 15.148-4.496 9.263 1.288 44.932 2.896 55.131 2.251 14.202 3.141 29.3 5.543 43.277 2.426 14.066 4.933 27.52 7.503 41.303 2.591 13.872 4.179 28.521 6.109 42.692 3.709 27.235 8.949 56.524 7.547 84.285h-1.772l-13.991-51.539c-3.777-14.921-7.448-46.177-9.744-62.83-2.892-20.938-7.475-40.852-10.916-61.562-1.724-10.368-3.248-20.929-5.378-31.106-1.654-7.916-3.955-26.022-5.367-31.094-2.054 1.615-4.89 3.657-7.298 5.352-6.494 4.571-28.942 23.666-35.582 30.045-2.379 2.295-3.841 4.335-6.177 6.965l-12.074 14.721c-2.974 3.595-12.182 20.65-14.479 25.062-2.997 5.766-6.131 11.102-8.782 17.626-2.599 6.396-4.34 13.402-6.879 20.052-4.882 12.751-9.073 26.218-13.749 39.15-2.38 6.596-4.934 12.715-7.19 19.257-2.453 7.12-3.915 13.353-7.062 19.857-7.68 15.886-10.053 22.13-12.66 40.044H46.506c-1.877-28.482 4.89-26.867 14.76-55.705 1.83-5.335 3.262-10.337 5.672-15.104 1.995-3.945 4.912-10.238 6.166-14.834-5.161-7.113-9.84-14.502-13.324-23.171-8.448-21.041-10.43-40.246-3.592-62.035l7.475-29.402c2.175-10.346 4.08-19.517 7.153-29.289 5.23-16.66 10.889-26.77 10.992-44.509.066-11.427.7-7.49-4.341-14.229-5.356-7.158-9.868-14.553-10.35-26.701-.488-12.222.033-18.404 9.05-26.572 3.254-2.946 4.976-6.745 8.286-10.035 10.026-9.952 7.416-7.228 19.393-17.194 1.804-1.498 2.937-2.728 4.667-4.215l15.32-12.329c3.446-2.767 6.099-5.68 9.8-8.498 3.571-2.707 6.832-5.076 10.539-7.717 7.899-5.634 12.255-12.271 22.672-13.81 23.771-3.514 26.856 1.392 48.299 4.054 5.528.688 10.947 1.181 16.484 1.59 5.396.398 12.18 1.366 17.377 1.144 4.685-10.107 20.687-19.637 28.831-26.4 3.882-3.223 7.33-6.285 11.538-9.064 2.496-1.648 1.917-1.229 2.424-4.717 1.106-7.611 5.532-14.117-1.131-22.034-2.292-2.719-3.944-3.425-5.378-8.285-4.49-15.182 5.016-22.299 7.638-32.7 1.262-5.017 5.281-13.516 7.285-20.559 2.908-10.235 4.728-11.843 7.565-19.801-7.942-.929-11.23-2.942-15.052-7.373-3.623-4.202-6.56-10.022-4.884-17.935.412-1.934 3.051-7.071 2.915-8.116-.13-1.013-2.834-5.405-3.407-8.37-1.283-6.656-.416-14.698.978-21.065l1.588 1.827c1.978-4.563 7.736-9.74 12.958-12.06 11.585-5.147 10.357-11.17 17.923-19.18l6.817-5.836c4.721-3.551 12.065-5.498 19.289-5.535 4.38-.027 6.776 1.384 10.31 1.984 2.262.385 7.489-1.704 9.862-2.508 3.775-1.277 4.994-2.676 7.449-4.71 12.266-10.16 21.851-17.952 39.956-22.229 7.083-1.674 14.6-.273 21.599 1.165 7.419 1.52 12.358 5.049 20.454 2.12 10.904-3.947 26.498-12.124 39.416-7.069 3.808 1.492 8.788 3.591 12.183 6.028 1.478 1.057 1.606 1.918 3.375 3.183 2.229 1.594 5.158 3.048 7.51 4.665 2.988 2.052 4.068 3.323 8.071 4.547 9.726 2.97 28.393-1.87 42.481 7.252 10.811 6.997 16.707 13.223 21.877 27.93 2.257 6.443 2.706 13.957 4.82 20.271 3.528 10.531 6.646 30.696 11.497 38.609 3.299 5.368 6.382 10.032 9.581 15.359 7.302 12.177 11.375 21.113 15.583 34.918 3.116 10.246 8.389 31.194 7.036 42.353-1.491 12.364-5.475 17.486-10.033 27.269-9.775 20.983-32.639 37.651-52.619 47.246-2.735 1.31-6.037 2.414-8.583 3.702 13.209 1.926 26.737 2.773 40.017 4.697 9.462 1.365 25.352 7.28 31.735 13.491 3.586 3.493 7.201 8.038 10.111 12.438 8.395 12.715 10.628 28.579 13.338 43.394 1.013 5.536.017 5.086 4.657 7.101 5.19 2.264 10.858 4.137 16.265 6.118 5.89 2.163 11.394 3.212 17.659 4.658 3.403.785 6.69 1.481 9.899 2.167zM469.656 679.354c10.366-4.661 12.189-7.385 19.015-10.143 2.776-1.123 4.185-2.829 6.97-3.237-.192 4.51.511 8.869-.029 13.306-1.848 15.383-11.091 2.932-25.956.074zm-209.585 16.699c.919-10.432 1.623-19.873 1.854-30.591.436.054 10.842 3.053 11.184 3.341 5.907 4.948-2.163 18.007-4.814 20.351l-8.224 6.899zm-186.362-73.13c-3.094-4.633-6.672-25.166-6.76-32.33-.167-13.16-.97-24.362 2.02-36.839 2.974-12.398 5.483-13.158 8.466-30.831.891-5.31 2.603-10.429 3.777-15.627 1.264-5.621 1.83-11.058 2.574-16.968.804 4.74.752 11.05 1.084 16.027 1.431 21.478 5.587 45.225 1.23 64.958-1.094 4.95-2.47 9.155-3.17 14.334-1.483 10.967-5.436 16.985-8.565 25.861l4.991-5.051-5.647 16.466zm214.137 46.436c-1.271-6.67-3.663-9.513-10.476-10.226.791-4.511 2.797-10.763 4.029-15.507 4.62-17.821 6.838-32.211 7.171-51.146.55-31.205 2.643-24.693-4.525-52.92-1.26-4.974-3.309-10.052-4.337-14.71.715.616.754.659 1.462 1.512l3.559 4.42c3.082 3.9 13.132 11.539 17.581 14.746 7.504 5.399 32.617 17.735 43.142 20.843 9.47 2.806 20.32 8.057 30.973 11.464 7.394 2.365 20.485 8.77 30.068 12.389 3.425 1.292 19.975 11.155 23.488 14.391.985.903 1.597 1.278 2.832 2.324l31.336 22.026c2.27 1.535 3.619 2.636 5.927 4.371 4.19 3.141 8.888 5.212 12.984 8.539 3.811 3.098 6.75 7.245 10.014 11.027-3.748 4.886-14.384 9.379-18.575 12.205-1.763 1.189-2.942 2.03-4.552 3.414-1.763 1.516-1.899 2.062-4.597 2.882-3.992 1.211-7.541 2.626-11.446 3.941-7.738 2.605-17.029 3.664-25.426 5.284-6.521 1.254-21.579-.464-28.915-.919-9.736-.606-19.511-.886-29.231-1.288-9.923-.409-18.658-1.739-28.444-2.319-9.744-.583-19.797.317-29.284-1.3-6.642-1.133-18.86-3.24-24.758-5.443zm-13.734-10.389l-11.882.96c-.274-4.377 1.308-37.617 1.68-44.191 1.658-29.081 3.166-80.371-2.628-108.443-.778-3.761-3.921-15.592-3.911-18.26.194.966 7.511 13.09 8.613 14.863 11.839 19.142 8.365 7.037 9.578 26.714.515 8.366 1.285 27.846.644 34.753-.685 7.352-1.526 14.953-1.761 22.343-.245 7.894.153 15.913.279 23.801.238 15.277.084 32.214-.612 47.46zm284.245-66.099c-4.373 3.403-8.622 7.433-12.362 11.493-3.808-5.09-.455-13.237.358-19.535 1.802-13.942 5.436-25.386 8.352-38.988 1.417-6.606 2.422-13.305 3.829-19.885 3.621-16.96.892-27.569 1.833-33.745 2.014-13.192 2.519-19.331 1.396-33.504-.461-5.887-2.77-15.986-2.624-20.686.721 4.282 8.803 18.412 11.079 21.5 2.338 3.178 4.925 5.681 7.254 9.192 11.333 17.071 15.987 39.844 20.986 60.732 1.147 4.798 1.481 9.899 1.607 14.983.08 3.383-.55 5.016-.622 8.071-.05 2.118.605 6.252-.087 7.8-.305.673-6.922 8.332-7.522 8.936-8.345 8.371-21.27 13.159-28.993 19.687-1.636 1.382-2.882 2.701-4.484 3.949zM131.669 424.445c6.766-.155 7.031-.75 12.469-2.897-1.226 3.968-10.961 16.299-14.541 19.412-3.12 2.715-9.66 12.694-21.083 12.805-6.181.058-8.267-8.934-9.01-14.123 25.306 5.492 26.705-8.92 32.165-15.197zm1.048-1.813c1.677-3.838 4.282-4.773 8.027-6.924-1.279 2.718-4.457 6.178-8.027 6.924zm-35.856-.976c28.643 4.099 17.025-8.869 36.742-20.341 5.841-3.395 9.139.808 9.921 6.238.707 4.925-.047 4.958-4.035 5.553-20.936 3.132-17.504 19.33-31.718 16.872-3.316-.573-10.088-7-10.91-8.322zm33.558-24.7c.733-6.563 1.252-14.103 2.9-20.184 1.256-4.641 5.441-12.636 8.599-14.129 1.73 4.655 3.513 9.857 3.548 15.726.04 5.475.256 14.012-.222 19.201-5.209-2.866-9.227-1.075-14.825-.614zm-12.253 8.508c-5.718 3.393-10.27 10.244-15.814 6.38-2.706-1.887-10.387-18.709-9.33-26.838.646-4.95 8.131-4.981 15.987-13.738l2.026-2.287c.61-.626.237-.309.899-.851-.513 14.202 3.542 24.626 6.232 37.334zm-37.306-29.45c3.233-7.15 16.3-16.931 22.172-18.581 1.087 2.558 3.958 5.23.782 8.024-5.672 4.993-16.808 7.28-22.954 10.557zm37.938 28.92c1.211-15.689-1.777-29.536 4.756-42.51 4.686-9.305 13.357-18.769 26.252-20.027 5.586-.538 4.995.96 7.788 3.619 5.732 5.47 7.767 20.015 7.328 27.58-.404 6.967-2.828 12.932-5.011 18.595-1.24 3.216-2.464 4.994-3.916 7.859-1.268 2.497-2.024 5.167-3.299 7.667-3.889-11.307-5.174-5.66-2.171-13.278 1.567-3.972 3.458-9.548 4.568-13.872 1.936-7.56 1.887-24.601-7.07-28.993-10.443-5.123-17.505 5.165-20.341 14.146-3.562 11.275-2.505 21.264 1.464 31.339-.474 1.168-.661.719-1.691 1.708.89.035 2.029.01 2.857.076.696.056.589.019 1.295.175 1.473.328.587.107 1.11.435-5.938 1.788-8.79 2.888-13.919 5.481zm-13.093-48.842c1.09-1.23 6.813-4.032 8.764-5.377 3.19-2.21 4.908-4.188 7.818-6.095-4.887 7.236-7.087 8.944-9.876 19.325-.441-3.327-4.438-6.601-6.706-7.853zm529.306 82.507c5.326 9.177 7.53 17.529 9.645 29.588 2.173 12.439.177 19.737-5.279 31.448-4.2 9.007-9.009 15.718-14.047 24.16-.329-2.443-4.152-17.677-5.404-20.192-.534-1.067-.942-1.978-1.547-2.722-4.296-5.271-.993-.436-5.143-7.543-5.161-8.84-4.296-7.355-10.432-14.981-1.324-1.654-2.698-2.735-4.035-4.402-9.956-12.364-17.521-16.313-27.692-31.495-7.318-10.923-6.5-10.546-10.691-23.262-1.296-3.939.016-26.137-.441-32.991-.672-10.181-1.652-20.985-2.974-31.036-1.339-10.138-1.512-21.239-2.39-31.635.763.482.303.179.925.706l1.955 1.854c5.192 4.427 18.137 6.001 24.666 8.918 13.678 6.106 14.22 4.952 21.521 17.36 5.02 8.51 6.256 20.936 7.075 32.206.402 5.512 1.288 12.308 2.367 17.584 2.751 13.425 16.5 27.101 21.921 36.435zm-128.679-98.598c5.891 1.967 6.952 2.332 13.901 1.02 4.896-.923 8.129-1.934 12.345-3.957 15.386-7.375 15.046-11.094 19.466-13.823-1.232 12.238-3.291 17.067-4.097 33.238-1.781 35.772-1.761 34.114 1.916 70.127 1.409 13.808 4.14 20.711 2.272 33.341-1.658 11.254-3.378 20.645-6.562 30.82l-10.183 27.136c-9.759 20.508-14.698 33.564-17.07 57.207-.812-.077-5.547-4.13-7.854-5.64-6.978-4.584-19.904-10.577-27.783-12.832-10.174-2.905-11.667-3.737-17.725-9.849-10.8-10.885-3.903-12.032-25.088-16.019-8.008-1.508-16.704-13.938-21.235-19.63-2.459-3.096-6.099-12.127-9.306-18.029-1.602-2.941-3.272-5.887-5.029-8.631-1.397-2.171-4.898-6.405-5.574-8.232l11.376 7.989c3.843 2.719 7.425 5.133 11.289 7.889 4.01 2.862 7.093 5.097 11.264 7.923 3.761 2.551 7.763 5.025 11.771 7.412 12.028 7.155 24.281 13.378 36.799 20.687 2.727 1.592 9.435 5.35 12.331 6.274-8.663-9.607-61.702-49.351-74.375-56.676-5.817-3.366-11.046-6.59-16.496-9.691-9.223-5.253-16.376-10.8-23.985-15.301-2.455-1.451-6.52-3.164-8.201-4.829 8.537-2.282 15.367-5.128 23.342-7.972 7.775-2.777 15.783-5.043 23.449-7.777 16.942-6.044 28.001-10.205 44.342-18.159 12.08-5.881 10.105-6.464 18.465-12.912 12.726-9.828 5.097-3.998 16.277-15.147 6.43-6.405 8.554-9.997 12.282-19.249 3.233-8.017-.262-18.966-2.324-26.708zm11.462 308.451c2-2.535 8.881-8.341 9.889-10.434l1.003 1.741c.175.393.232.74.407 1.145.721-4.008.917-3.844 2.946-6.106 1.95-2.177 2.121-2.873 4.121-4.785 5.017-4.787 9.244-12.504 16.543-18.202 3.514-2.744 17.672-12.278 21.371-13.732 4.399-1.731 8.002-3.059 11.695-5.564 8.776-5.935 19.371-17.498 26.505-26.051l11.66-14.661c2.486-2.933 7.686-11.324 10.671-15.209 2.85-3.708 4.733-6.178 7.285-10.585 6.875-11.892 13.826-18.818 18.108-34.206 3.526-12.663 2.138-18.254-.364-30.954-4.215-21.444-11.794-30.667-23.326-46.894-13.404-18.867-5.901-35.632-13.581-56.932-2.727-7.56-8.725-15.771-14.335-20.474-5.707-4.786-16.667-7.223-25.581-8.939-8.768-1.691-23.206.07-28.567-5.842.335-1.833 8.937-12.393 10.675-14.239 10.689 4.048 17.81 6.285 29.134 9.518 13.56 3.87 14.753 3.594 27.718 10.489 7.23 3.848 14.325 14.002 17.548 21.478 6.455 14.972 5.947 35.535 16.08 61.964 4.647 12.115 8.581 16.998 12.836 25.829 4.593 9.526 7.351 17.846 9.447 29.275 2.577 14.032 2.616 19.836-1.557 33.269-1.784 5.739-3.361 9.183-6.282 13.53-7.404 11.021-8.912 16.371-13.853 24.778-2.968 5.043-11.55 19.162-14.005 24.59-1.739 3.838-2.979 11.058-3.654 15.827-2.326 16.35 5.219 37.049-9.351 48.377-12.967 10.084-28.47 10.743-44.941 12.389-11.328 1.131-22.998 2.038-34.052 3.953-10.622 1.844-21.699 4.152-32.193 5.657zM134.398 335.043c2.651-3.436 16.164-14.148 19.869-16.676 13.851-9.433 11.392-11.165 24.145-11.905 11.67-.669 22.893 1.652 35.177 1.17 11.47-.443 21.787-1.757 32.977-2.904-1.332 4.462-4.776 9.68-6.5 18.105-2.466 12.09-3.281 32.872-2.637 45.135.379 7.325 1.698 15.524 1.527 22.686-10.467-.616-16.216 4.607-18.696 13.147-3.584 12.342.664 22.401-8.203 23.872-26.693 4.437-20.724 15.979-19.913 41.416-14.844 6.141-13.68 4.928-28.075 13.498l-24.934 16.232c-7.001 5.313-25.022 25.217-28.857 33.117-2.276 4.684-4.414 9.703-7.257 13.559-1.816-18.954-4.978-38.679-7.64-57.489-1.956-13.8-3.39-29.618-5.74-43.119-.813-4.652-2.145-8.805-2.944-13.349 2.275 1.211 3.573 3.489 11.052 7.3-5.242 30.754 24.736 23.748 38.488 12.762 11.448-9.148 8.787-7.103 18.428-17.222 6.061-6.351 7.291-9.119 10.446-16.393 2.468-5.68 7.238-12.358 8.989-17.879 6.092-19.201 10.609-39.47-2.13-57.441-10.315-14.548-22.312-13.203-37.572-7.622zm360.584 316.816c-1.862-1.415-3.193-8.093-7.139-13.925-1.804-2.662-7.254-6.64-10.749-9.899l-21.462-19.817c-3.794-3.594-7.808-5.836-11.315-9.29-2.711-2.668-7.514-6.442-11.881-8.729-14.059-7.356-6.224-6.386-27.174-13.929-5.141-1.85-9.555-4.063-14.368-6.168-4.736-2.072-9.829-3.735-14.98-5.539-5.156-1.811-9.748-3.855-14.687-5.832-5.236-2.1-9.866-3.257-15.479-5.027-5.307-1.671-9.089-4.464-13.892-6.635-4.789-2.163-9.404-4.167-13.907-6.658-4.809-2.659-7.907-5.537-11.997-8.599-8.63-6.458-13.176-13.948-18.869-22.478-10.59-15.86-13.612-21.144-22.548-39.639-5.646-11.676-5.22-21.055-6.742-34.867-1.505-13.636-1.433-26.054-2.216-39.695-.764-13.349-2.657-25.682-1.864-39.095 1.403-23.667 1.771-39.311 14.028-59.019 1.965-3.158 10.912-12.817 14.117-16.882 1.438-1.821 3.038-3.961 4.463-5.892 1.52-2.062 3.024-4.216 4.608-5.691.395 10.454.98 8.337 1.423 13.721-2.323 2.635-4.222 5.696-6.811 8.296-2.046 2.064-5.106 5.049-6.544 8.028-3.717 7.694 1.813 18.141 6.995 20.133 3.66 1.404 5.901 3.866 7.099 7.91 3.479 11.672-4.356 16.025-2.123 24.055.626 2.262 1.172 3.59 2.204 5.368 4.432 7.649 1.056 7.758-.081 18.497-.368 3.543 1.119 9.643 2.546 12.279 3.419 6.318 8.074 6.648 7.872 14.392-.051 1.934-1.337 3.248-1.994 5.195-1.303 3.856-2.162 8.566-1.441 13.009.494 3.08 1.326 9.727 2.712 11.913 4.976 7.863 12.764 15.203 13.219 16.019-3.242 6.919-11.291 13.995-13.268 26.901-.779 5.074.686 8.16.453 11.878-.579 9.567-.052 14.964 4.484 21.534 6.065 8.782 18.878 20.569 30.338 22.064 7.384.96 17.001.668 23.894 2.11 14.714 3.078 28.905 5.904 44.208 7.873 7.514.968 15.592 2.264 23.171 2.828 17.365 1.298 13.273.262 18.815 7.283 3.829 4.843 8.49 8.641 13.812 12.446 6.379 4.575 12.527 4.147 18.784 7.328 6.253 3.184 10.455 8.472 14.238 11.999 6.369 5.919 5.116 3.657 13.757 12.517 1.748 1.782 4.148 4.907 5.925 7.226 1.771 2.31 3.695 4.899 5.337 7.837 2.451 4.379 6.634 13.583 6.994 19.432-7.272 3.014-22.067 16.673-26.25 18.525.091-13.138-4.438-27.35-10.156-36.276-5.46-8.52-14.547-16.864-22.374-23.14-11.771-9.435-16.046-10.082-29.232-16.108-5.191-2.375-11.026-4.28-16.506-6.346l-15.717-6.485c2.072 2.09 3.476 3.53 6.059 5.467 9.604 7.189 33.03 17.226 42.665 25.62l9.057 8.294c1.365 1.483 1.497 1.668 2.813 2.803 5.147 4.44 12.117 11.887 15.862 17.964 3.316 5.374 14.302 27.989 11.814 32.916zM300.778 249.151c4.496-.27 8.638-.897 13.085-1.399-.688 1.232-1.341 1.767-2.218 3.04-5.825 8.477-4.735 11.217-8.354 17.578-2.42 4.267-2.515 3.362-4.34 5.68.181-4.336 1.252-8.326 1.226-12.71-.029-5.045-.767-6.998.601-12.189zm14.689-4.376c-.204 3.506-4.024 2.093-7.279 1.667l.178-7.581c1.258.678.092-.089 1.213.884 1.851 1.613 2.784 3.314 5.888 5.03zm-12.992-5.267c.812-2.571.311-2.229 1.38-3.232 4.35 1.207.995 9.597-1.924 9.848-1.421.12-2.067-.762-1.627-2.161.692-2.204.285 1.517 2.171-4.455zm-8.681-11.831c3.921 1.325 6.634 3.727 10.032 5.426-1.963-.01-3.909-.068-5.839.381-2.964.686-1.81.97-4.685-.115l.492-5.692zm21.673 17.098c-.727-1.771-2.438-4.285-3.55-5.99-1.012-1.551-2.812-3.375-4.606-4.343 3.736-.305 8.027.937 9.67-1.998 2.056-4.157-3.66-9.948-6.799-11.855-2.14-1.298-3.361-2.452-5.777-3.568-1.817-.835-5.174-1.457-6.502-2.913 4.875-6.732 5.723-12.96 8.72-21.282 2.785-7.735 4.466-15.969 6.902-22.876 3.23-9.149 4.245-16.402 6.649-23.619 3.923-11.777 4.308-11.062 9.2-13.39 1.938-.92 2.659-2.006 4.103-2.779 9.342 4.434 16.691 4.566 26.89.864 3.91-1.424 8.177-3.692 12.791-2.314 12.652 3.789 26.477 7.742 39.914 8.273 12.677.497 24.51-5.42 26.139-5.368.317 9.499-1.846 20.248-5.219 27.995-2.783 6.389-5.891 10.564-10.093 15.311-1.338 1.514-2.852 2.545-3.907 4.181 3.724-1.018 7.104-3.584 9.965-5.56 12.714-8.782 13.132-18.664 17.496-28.57 1.646 2.272 3.702 3.28 3.119 6.378-.435 2.28-1.269 6.342-2.299 8.112-1.227-.404-1.959-1.094-3.108-1.654 1.924 4.802 3.337 3.203.583 9.101-1.471 3.148-3.306 5.449-4.56 8.323 3.409-1.558 6.272-5.468 8.916-8.002 1.261 2.74 2.391 6.185 2.908 9.769.744 5.117.466 6.413-.677 10.963-5.644 22.502 16.709 27.151 33.43 26.422 6.729-.293 4.986-.132 9.754 2.161-2.951-6.669-14.679-6.114-25.173-11.666-3.462-1.831-4.329-2.682-5.264-6.959-2.056-9.393 1.946-10.368-1.891-20.898-2.55-7.002-6.352-10.074-10.236-14.163.269-.731 4.177-8.969 4.729-9.783 2.768 1.028 7.079 2.058 10.477 2.153 3.99.119 8.008-1.03 11.485-.874 1.765 5.14 7.458 12.513 11.177 15.663 12.09 10.234 24.555 12.7 40.18 16.735 11.674 3.022 22.065 3.922 31.916 9.561 8.375 4.787 17.386 12.065 26.207 15.757-1.022-2.235-3.396-4.236-5.37-5.777-5.365-4.194-9.814-10.679-16.015-14.943-9.87-6.786-16.9-8.65-29.832-11.664-16.278-3.79-32.631-6.104-46.064-15.932-2.216-1.627-10.274-7.039-11.458-9.833 16.584-1.996 32.503-9.997 39.148-20.111 3.954-6.009 8.164-11.705 10.842-18.82 2.506-6.664 5.964-15.537 7.052-22.739 3.133 2.073 5.355 4.472 8.702 6.658 8.294 5.418 20.026 10.411 27.344 16.624 2.434 2.069 5.6 5.149 7.651 7.353 1.806 1.942 6.511 4.655 7.81 6.719.606.956 1.411 4.098 2.011 5.538 2.133 5.107 6.121 9.453 6.848 14.869 1.11.214-.047-2.61 2.669 1.998 7.81 13.209 11.299 19.156 16.617 35.257 5.213 15.811 9.193 32.853 3.72 49.677-2.335 7.155-5.691 14.535-9.235 20.491-3.78 6.357-8.08 10.714-12.475 16.676-6.332 8.594-14.185 14.889-22.249 21.844-1.769 1.526-6.436 5.437-8.323 6.221 1.048-2.752 3.201-6.534 4.571-9.595 3.274-7.323 5.696-18.857 6.564-20.51.762-1.45 1.88-8.308 2.444-10.652 3.481-14.533.056-33.623-8.741-44.91-9.845-12.626-20.094-15.014-35.108-19.57-7.837-2.378-15.763-2.289-24.012-3.444-7.882-1.105-15.684-3.029-23.113-3.999l5.17 3.434c9.75 5.294 21.278 7.07 31.774 10.193 4.399 1.306 7.414 3.088 11.538 4.771 6.057 2.474 11.34 4.971 15.9 9.359 6.828 6.569 13.975 15.779 16.547 25.255-1.483-.667-1.548-1.18-2.838-2.239-1.003-.816-1.386-1.016-2.506-1.698-6.274-3.823-12.978-6.691-20.687-4.74-6.902 1.739-12.712 4.51-18.177 8.44-.947.676-3.697 3.15-4.385 4.133-3.013-9.458-5.88-12.229-11.643-17.07-3.674-3.086-12.102-9.027-16.778-11.198 3.038 8.304 12.488 13.699 16.694 24.605 1.411 3.673 3.996 12.508 4.105 16.676.22 8.215-.818 11.206-5.077 15.347-14.15 1.17-16.236-7.435-20.609-17.935-6.618-15.886-31.2-13.532-40.299-36.61-1.846-4.693-3.261-9.6-4.98-14.379-.89-2.46-1.595-4.452-2.524-6.917-.828-2.203-1.482-4.947-2.937-6.745-1.94 20.427-.834 39.659 14.62 52.308 3.264 2.678 9.328 6.557 13.67 8.328-.039 8.924-4.546 16.732-1.253 24.624.758-1.646 1.034-4.054 1.619-5.744.659-1.911 1.442-3.442 2.039-5.502 1.547-5.321.919-7.948-.875-12.36 3.129 1.04 4.177 2.307 6.29 3.681-1.009 4.429-3.446 7.247-.593 12.109.305-3.063 1.555-6.792 2.966-8.943 1.147 1.135 1.481 1.933 2.436 3.391.977 1.488 1.562 1.813 2.363 3.459-3.913 10.914-9.03 11.882-14.428 15.621 8.628.939 16.603-4.886 17.989-12.14l2.16 1.803c-.776 1.555-2.039 2.853-3.126 4.217-3.376 4.241-5.547 8.825-10.037 12.218 9.561-1.442 12.593-8.319 16.995-13.531 5.905 1.782 7.272 3.653 15.099 1.609 2.819-.735 4.144-1.092 6.008-2.859 3.639-3.459 8.663-4.163 10.877-15.909.834-4.415-.635-3.896 2.568-6.423 5.209-4.114 11.056-7.295 18.172-8.446 7.269-1.172 8.822.255 12.78 4.07 2.882 2.785 4.117 8.053 5.036 12.885 2.789 14.738-5.275 30.172-12.308 40.572-4.198 6.209-10.675 14.721-16.026 19.676-2.083 1.922-18.615 14.207-23.007 11.128-3.349-2.343-4.108-9.631-3.649-14.558.48-5.091 1.775-10.733 2.424-15.832-3.627 3.626-9.522 17.292-10.263 22.858l-2.529-7.096c-.777-1.887-1.867-4.252-3.426-5.253.431 8.573 2.501 15.13 2.684 23.193.931-.89 1.055-1.213 1.58-2.604l1.201-3.118c.026-.175.111-.217.183-.311 1.767 5.632 1.808 5.133 1.718 11.494-.058 4.168-.064 8.197-.227 12.356-.323 8.304-3.876 12.986-7.314 18.293-3.61 5.564-7.591 9.414-11.855 13.981-4.552 4.878-9.717 7.88-13.585 11.738-8.292 8.277-21.969 13.135-32.71 18.233-11.735 5.575-24.866 8.947-37.269 13.069-20.232 6.72-38.169 14.362-59.695 16.274-10.187.909-12.969-1.438-17.939-6.689-4.354-4.604-7.892-9.585-5.717-19.096 1.802-7.845 7.412-20.06 13.978-24.209 7.197-4.553 17.05-9.857 25.093-12.321-4.15-1.139-10.226.204-14.632.379-5.091.206-9.73-.463-14.813-.179-9.289.523-18.199-1.77-18.51-11.4-.228-7.247 3.226-2.656-.721-12.097-1.532-3.664-2.906-6.938-4.218-10.889-1.786-5.383-.399-6.784.47-12.51.883-5.787-1.64-7.06-2.892-11.687 4.986.41 7.777-.721 11.777-2.556-7.361-.272-20.749-.583-21.101-11.136-.451-13.442 7.048-15.855 11.518-21.963 1.221-1.668 2.409-3.448 3.569-4.896 1.442-1.798 2.078-3.362 3.246-5.224 7.858-12.539 3.802-12.986 7.759-25.322 1.581-4.946 3.623-7.031 2.809-13.209l-1.349 2.808c-.585 1.442-.396 1.508-1.574 2.231zm5.364-108.853c-1.049 1.467-2.414 3.026-3.613 4.518-1.421 1.765-2.078 2.756-3.396 4.587-2.251 3.134-3.335 8.504-5.339 11.046-4.453-1.306-8.926-6.06-10.881-10.098-2.35-4.837-3.975-10.58-3.833-16.96 1.672.797 1.67 1.994 5.37 3.947 8.057 4.252 13.356 4.036 21.692 2.96zm125.465-8.745c1.211-1.126 3.847-3.203 4.729-4.109l1.283 7.292c-1.112-.729-1.934-1.654-3.083-2.229 2.026 7.676 4.825 1.113 2.525 16.505-1.417-.367-2.293-1.378-3.108-2.616-1.205-1.819-.723-2.47-.839-4.86-.173-3.594-1.227-6.631-1.507-9.983zM551.937 93.89c-4.636-2.242-9.145-5.71-13.491-7.486.33-6.819.317-11.12-.453-17.84 2.678 1.176 5.11 3.222 8.546 4.703 17.047 7.348 23.92 15.273 33.784 30.931 2.933 4.662 7.182 11.559 7.145 18.54-2.645-3.283-5.236-9.006-8.801-12.547-7.94-7.894-17.118-11.654-26.73-16.301zm21.237-15.72c-7.709-3.914-8.916-6.145-19.96-9.377-6.239-1.828-10.339-2.786-15.798-6.127-2.078-1.263-1.814-1.75-2.51-4.486 10.739.741 24.979 4.058 32.077 11.684 1.386 1.483 5.456 6.635 6.191 8.306zm-210.57-20.318c13.322-1.475 12.202-1.95 21.997-7.53 3.003-1.711 6.188-3.402 9.322-5.178 33.099-18.77 37.628-2.079 57.139-2.59 10.304-.271 14.419-3.458 22.293-7.102 6.381-2.955 15.03-6.632 22.374-3.206 2.785 1.3 10.086 12.76 13.384 15.736 4.861 4.39 11.767 7.42 20.149 8.807.721 6.975 1.304 12.276.208 19.175-3.071 19.29-3.814 16.331-10.119 31.481-2.068 4.981-4.181 9.455-6.79 13.501-6.69 10.368-9.627 13.24-21.491 19.286-8.862 4.511-20.553 8.845-31.891 7.918.704-4.338 1.085-6.198.966-10.819 15.499 2.32 29.576-.708 37.01-9.88 6.08-7.5 13.75-23.799 15.332-33.042-1.792 1.642-3.848 4.083-5.483 6.077l-7.363 10.034c-5.864 6.689-13.061 15.416-21.378 18.464-4.774 1.755-13.453 3.935-18.882 3.376-.97-1.52-1.695-4.408-2.655-6.256-1.088-2.097-2.397-3.856-3.227-5.574 3.309-3.834 9.313-7.805 11.787-12.362-3.528 1.675-7.238 4.097-10.76 5.935l-5.435 2.964c-2.017 1.164-3.215 2.142-5.532 3.036-1.045-3.469-5.141-9.972-7.615-11.404.82 3.008 2.552 10.587 2.577 13.72-7.563 4.855-29.437 4.478-37.663.051 23.509-2.628 45.1-20.113 51.854-43.525 3.182-11.025 3.742-15.547-.96-25.289-1.098 13.275-3.104 17.922-8.71 27.711-3.805 6.654-11.368 14.601-16.809 18.868l-10.041 8.236c-7.965 5.91-15.744 7.863-25.266 10.201-4.488 1.096-9.441-.429-13.447-2.297 17.82-6.656 28.022-12.045 39.498-24.22 6.02-6.388 14.24-15.244 13.381-25.111l-1.794 2.764c-.624 1.178-.811 1.543-1.736 2.501-5.928 6.127-46.463 32.971-57.771 41.483-2.809 2.113-16.934 6.262-17.577 5.774-3.213-3.925.777-10.41 2.789-12.406 2.974-2.962 5.536-4.538 9.993-6.872 3.749-1.967 7.738-3.395 12.06-4.732l12.038-4.758c-14.504-1.13-35.417 2.427-42.705 15.58-2.751 4.954-.58 12.125 2.948 14.448l-4.939.606c-3.444-4.927-8.564-10.959-4.741-19.098 2.43-5.183 7.913-10.926 12.374-13.926 5.584-3.76 12.799-5.335 21.06-5.228 11.04.144 12.621 1.106 21.313 4.487-4.818-9.637-25.972-12.79-39.646-10.249-3.53.651-6.739 2.072-9.392 3.65-7.25 4.31-14.821 14.806-15.927 22.66-1.817-1.936-2.217-6.793-2.111-9.344.311-7.774 6.483-15.124 13.159-18.393-8.025-.254-20.988 9.776-21.901 22.245-.459 6.287.515 14.707 3.08 19.486 4.123 7.686 7.229 7.818 10.666 11.359-2.335 1.483-3.668.367-3.668.362-.024-.09-.138-.102-.22-.109-3.646 3.682-20.856 1.634-26.757-5.842-2.713-3.438-5.178-6.538-6.826-11.538-.964-2.925-4.001-10.904-3.981-13.615 1.806-1.549 4.387-3.147 6.597-4.233-.632 2.167-1.858 3.811-2.333 6.658-.484 2.927-.157 5.875.286 8.745 2.593 16.838 21.991 23.288 33.586 17.858-6.123-.676-7.61-.509-12.788-3.109-15.635-7.838-12.144-31.077-9.812-33.24 2.463-1.215 7.034-1.236 10.311-2.737 5.754-2.633 9.441-7.8 13.134-12.678 2.27-3.001 3.633-4.112 5.952-6.724 6.671-7.486 20.613-8.199 30.102-5.218 3.538 1.108 6.319 2.491 10.385 1.962-1.473-.596-2.503-.802-3.743-1.65l-9.219-6.12z" fill="#FEED01"/><path fill-rule="evenodd" clip-rule="evenodd" d="M370.13 239.628c2.62.686 12.465 3.179 14.568 4.273 1.429.748 2.543 1.913 3.68 2.457-3.61.157-6.319.402-10.02.385-3.221-.014-5.967.818-9.165.859.923-3.119 1.862-4.074.937-7.974zm-9.116-1.123c.548-2.109.303-1.647 2.875-.838 1.351.42 2.426.713 3.314 1.22.503 2.917.34 4.289-1.085 6.53-1.722.15-2.159-.408-3.09-1.096l.672-.357c.09-.031.261-.082.377-.115.004-.006 3.48-.144 2.422-3.111-.361-1.013-1.047-1.375-2.116-1.678-1.058-.303-.943-.136-1.75-.233-.177-.021-.727-.054-.873-.078-.122-.027-.285-.089-.379-.108a2.407 2.407 0 01-.367-.136zm.175-4.26c1.436-.898 5.172-1.757 7.215-1.199 2.093.571 3.608 2.314 4.877 3.54l-12.092-2.341zm-5.392 2.921l-3.73 6.572c2.243 1.384 1.293.618 4.02-2.396l1.675 4.781c-8.379 14.243 9.806 19.997 14.04 19.305-12.858-4.909-14.518-15.706-6.413-15.117 2.891.212 6.632 1.154 9.754 1.247 5.816.169 12.768-5.453 15.748-3.591 6.438 4.038 8.469 4.621 17.713 3.778-8.403-4.404-8.076 3.589-21.653-10.621-3.623-3.797-6.776-9.754-12.096-11.843-2.035-.8-5.366-.47-7.001-1.238 1.444-1.212 9.637-2.328 12.201-2.619 4.991-.564 8.573.099 12.875 1.939 7.244 3.098 4.259 3.094 9.46 5.955 1.699.938 3.302 1.467 5.094 2.4 2.127 1.107 2.838 2.204 5.713 1.448.991-3.287-.721-3.518-2.966-4.771-5.207-2.894-9.39-20.812-41.11-18.869-6.501.395-22.632 5.397-26.292 8.415-5.367 4.437-3.95 17.774 12.968 15.225zm178.204 56.226c-8.854 1.457-8.086 2.824-11.793 4.765.537-4.866 1.275-6.168.556-11.244l-5.398 9.293c-8.14 12.369 1.528 15.663 8.564 11.664 3.853-2.192 4.187-4.538 9.278-5.685 9.411-2.126 13.899-4.376 14.57-15.134.969-15.489-5.705-11.358-11.49-18.325.296 1.918 1.52 4.552 2.56 5.93 1.765 2.349 2.807 2.326 1.744 7.025-.877 3.895-3.069 10.426-7.215 11.237.631-8.079-3.715-9.053-3.542-14.449.111-3.656 2.824-10.03 3.93-13.787 1.186-4.044 4.312-8.545 6.697-10.724 2.342-2.139 10.151-3.956 14.002-3.583-3.129-3.547-14.018-3.035-18.483-1.003-3.294 1.497-9.66 7.937-11.184 11.332-1.988 4.419-4.222 13.93-2.5 19.082 2.22 6.648 9.002 6.928 9.704 13.606zm86.604 276.852c-9.447 18.8-1.93 33.58-3.195 41.46-.931 5.79.314 10.71 6.865 8.489 8.949-3.034 4.249-16.311 2.772-24.003l-6.442-25.946zm-109.29-306.762c-1.084-13.118-10.336-22.083-18.657-30.641-2.339-2.408-3.555-3.526-6.772-5.405-7.194-4.18-20.281-8.218-28.548-8.605.469.542.214.319.844.857 4.836 4.124 14.492 5.828 28.4 18.931 11.88 11.203 13.52 9.792 23.042 22.922l1.691 1.941zM311.805 364.74c1.357 1.399.615 1.219 2.63 1.802 8.037 2.308 21.472.328 30.163-.379 5.537-.451 30.856-1.267 31.099-6.831.249-5.758-10.788-1.137-13.635-.651-14.162 2.392-21.704.246-33.737 3.445-6.49 1.728-9.884 1.714-16.52 2.614zm214.234 138.003l.499-1.059c.033-.111.084-.251.123-.37 2.54-8.242-1.546-3.059 6.624-22.23 3.516-8.236 5.617-16.012 3.388-26.005-2.826 3.415-11.692 26.042-12.745 35.485-.564 5.062 1.294 9.658 2.111 14.179zM330.104 295.666c4.025 2.043 6.208.084 10.07 3.996 2.109 2.139 4.448 5.793 4.864 9.754 1.018 9.734-6.693 12.344-13.793 15.02 10.101 1.914 23.107-4.262 20.477-14.783-1.083-4.344-4.572-9.165-7.163-11.177-4.453-3.463-7.652-4.098-14.455-2.81zM610.469 610.78c1.514-10.288 6.76-31.959 3.251-41.426-5.199 9.782-9.998 30.792-3.251 41.426zM379.419 347.5c2.311.237.742-.39 1.43 1.083l-1.43-1.083zm-4.718-.853c3.038 1.522 1.829-.69 3.777 3.098.944 1.844 1.778 3.276 2.653 4.885 3.221 5.912.288 7.665 1.493 13.208 1.768-2.803.309-2.282 2.225-2.632.885 1.452.156.443.253 2.008 1.532-1.705 2.179-1.151 3.343-2.27.239-.237 1.784-3.121 2.037-3.628 2.949-5.9-1.786-11.581-6.204-14.68-3.328-2.329-6.123-1.023-9.577.011zm110.914 6.397l-2.585-10.749 5.574 9.109c-.068-4.136-1.172-9-2.756-12.141-1.394-2.769-3.905-7.105-5.915-8.312l1.198 6.911c-1.147-1.389-2.986-5.597-4.626-7.534l-1.095-1.079a30.205 30.205 0 003.466 13.856c2.974 5.658 3.168 5.438 6.739 9.939z" fill="#FEED01"/><path fill-rule="evenodd" clip-rule="evenodd" d="M305.309 316.191c4.945-.043 7.663.649 12.304 1.413 1.977.325 4.152.532 6.152.834 2.708.408 3.495 1.387 5.417 1.815 4.008-9.524-17.618-12.337-23.873-4.062zm22.341-27.292c1.312-3.395 5.809-32.351 5.765-36.623-8.65 9.552-7.668 21.533-5.765 36.623zm140.192 24.318c2.441-.48 10.896-6.588 12.164-7.835 3.304-3.236 6.773-9.002 6.054-14.061-1.172.513-.305.136-1.948 2.567l-16.27 19.329zm25.793 25.446c3.923-4.6-1.327-23.776-4.266-25.107-.731 7.399.595 12.517 2.849 19.191.537 1.613 1.013 4.998 1.417 5.916zm-19.758-19.347c3.305-.96 8.428-4.573 10.677-6.407 3.61-2.942 4.78-6.843 4.436-13.561-2.646 2.719-4.02 7.842-6.856 10.609-2.509 2.456-6.546 6.372-8.257 9.359zM307.91 341.889c2.082.661 2.661 1.088 3.946-1.03 1.195.46.327-.245 1.129 1.356.99-3.638 2.063-6.629.488-10.389-1.296 7.744-.311 5.974-3.539 8.638.439-4.036 1.671-7.039 1.294-11.273-.072.097-.181.128-.212.303l-2.416 5.245c-.822 2.223-1.203 4.919-.69 7.15zm130.353 51.129c1.831-4.954 3.614-12.17 1.979-17.841-2.239 4.023-3.466 12.796-1.979 17.841zm-28.2-135.479c-1.217-.991-1.952-.879-3.728-1.209-1.258-.23-2.568-.472-3.882-.698-2.513-.441-5.755-1.362-7.996-1.413.087.084.221.09.268.247.428 1.537 10.759 5.432 15.338 3.073zM347 343.342c-.412-4.414 1.211-10.448-.56-14.395-1.679 2.307-1.496 8.061-1.002 10.908.346 2.012.369 2.356 1.562 3.487zm-20.167 72.733c-1.576 3.193-.879 8.436.34 11.634 1.662-2.887.727-8.568-.34-11.634zM362 233.852L373 237c-1.154-1.649-2.533-3.994-4.437-4.761-1.858-.751-5.257.404-6.563 1.613zm2.23 3.792c-1.995-.766-1.805-1.203-2.23.793.091.05.209.105.284.128.074.018.2.077.294.102.114.023.54.054.677.074.626.091.537-.066 1.358.22.829.287 1.361.63 1.64 1.589.821 2.807-1.875 2.938-1.878 2.943a8.43 8.43 0 00-.292.109l-.521.338c.722.651 1.061 1.179 2.396 1.037 1.105-2.121 1.231-3.419.841-6.179-.688-.48-1.522-.757-2.569-1.154zM341 344c-1.109-3.932-.243-9.442-1.923-13-1.918 4.513-1.272 10.43 1.923 13zm98.146 4c1.509-2.25 3.489-6.979 2.657-9.715-.446-1.471-.565-1.061-.729-1.285-1.958 2.782-2.333 7.303-1.928 11zM133 423c3.113-.754 5.885-4.253 7-7-3.266 2.174-5.538 3.12-7 7zm169.008-81c1.126-1.592 2.715-2.726 2.992-5-1.31 1.125-3.136 2.358-2.992 5zm2.992 7c1.975-.932 4.321-1.872 5-4-2.219.758-4.067 2.144-5 4z" fill="#FEED01"/></svg>