<svg width="50" height="50" fill="none" xmlns="http://www.w3.org/2000/svg"><path fill-rule="evenodd" clip-rule="evenodd" d="M50 0H0v50h50V0zM25 14c-2.988 0-3.362.012-4.535.066h-.001c-1.17.054-1.97.24-2.67.511a5.391 5.391 0 00-1.947 1.269 5.396 5.396 0 00-1.27 1.948c-.271.7-.458 1.5-.511 2.672C14.013 21.638 14 22.012 14 25c0 2.987.012 3.361.066 4.536.054 1.17.24 1.97.511 2.67.276.734.71 1.399 1.269 1.948.55.56 1.215.992 1.949 1.268.7.272 1.5.459 2.67.512 1.173.053 1.547.066 4.535.066 2.988 0 3.362-.012 4.536-.066 1.17-.054 1.97-.24 2.67-.512a5.394 5.394 0 001.948-1.268c.56-.55.992-1.215 1.268-1.949.272-.7.459-1.5.512-2.67.053-1.173.066-1.547.066-4.535 0-2.987-.012-3.361-.066-4.536-.054-1.17-.24-1.97-.512-2.67a5.373 5.373 0 00-1.268-1.947 5.412 5.412 0 00-1.948-1.27c-.7-.271-1.5-.458-2.672-.511C28.362 14.013 27.988 14 25 14zm0 1.982c2.937 0 3.285.011 4.445.064 1.073.049 1.655.228 2.043.379.478.176.91.457 1.265.822.385.385.622.752.822 1.265.151.388.33.97.379 2.043.053 1.16.064 1.508.064 4.445 0 2.937-.011 3.285-.064 4.445-.049 1.073-.228 1.655-.379 2.043-.176.477-.457.91-.822 1.265a3.416 3.416 0 01-1.265.822c-.388.151-.97.33-2.043.379-1.16.053-1.507.064-4.445.064-2.938 0-3.285-.011-4.445-.064-1.073-.049-1.655-.228-2.043-.379a3.415 3.415 0 01-1.265-.822 3.415 3.415 0 01-.822-1.265c-.151-.388-.33-.97-.379-2.043-.053-1.16-.064-1.508-.064-4.445 0-2.937.011-3.285.064-4.445.049-1.073.228-1.655.379-2.043.176-.478.457-.91.822-1.265a3.416 3.416 0 011.265-.822c.388-.151.97-.33 2.043-.379 1.16-.053 1.508-.064 4.445-.064zm1.067 12.534a3.67 3.67 0 01-3.786-1.051 3.67 3.67 0 116.375-2.824 3.668 3.668 0 01-2.59 3.875zm-3.23-8.74a5.653 5.653 0 104.326 10.446 5.653 5.653 0 00-4.327-10.446zm9.377-.022a1.336 1.336 0 11-2.446-1.076 1.336 1.336 0 012.446 1.076z" fill="#FEED01"/></svg>