<svg width="160" height="47" fill="none" xmlns="http://www.w3.org/2000/svg"><path fill-rule="evenodd" clip-rule="evenodd" d="M20.567 3.71A3.71 3.71 0 0018.282.283a3.7 3.7 0 00-4.037.803 3.709 3.709 0 002.619 6.33A3.702 3.702 0 0019.607 6.2l11.837 6.843a3.692 3.692 0 01.25 2.86L19.13 26.457a3.7 3.7 0 00-5.97 2.932 3.711 3.711 0 002.925 3.626 3.7 3.7 0 004.156-2.104 3.713 3.713 0 00-.098-3.245L32.708 17.11a3.7 3.7 0 004.883-.312 3.71 3.71 0 00-1.2-6.048 3.7 3.7 0 00-4.16.931L20.392 4.837a3.633 3.633 0 01.175-1.127zm8.483 33.833a14.688 14.688 0 002.47-8.153h2.207a16.9 16.9 0 01-2.842 9.38 16.868 16.868 0 01-7.568 6.218 16.845 16.845 0 01-18.377-3.66 16.902 16.902 0 01-3.657-18.4 16.88 16.88 0 016.21-7.576 16.85 16.85 0 019.37-2.846v2.208c-2.9 0-5.734.86-8.145 2.473a14.672 14.672 0 00-5.399 6.586 14.692 14.692 0 003.178 15.994 14.652 14.652 0 0015.975 3.181 14.662 14.662 0 006.578-5.405zm11.754-8.153l1.11 2.765 1.117-2.765H44.4v4.577h-.978v-3.205l-1.29 3.205h-.423l-1.29-3.205v3.205h-.973V29.39h1.358zm5.73 0v2.957l2.117-2.957h.998v4.577h-.972v-3.068l-2.18 3.068h-.94V29.39h.977zm4.418 0h2.137c.995 0 1.535.681 1.535 1.476 0 .795-.548 1.475-1.535 1.475h-1.164v1.626h-.973V29.39zm.967 2.092h1.034c.383 0 .672-.23.672-.616s-.289-.618-.672-.618H51.92v1.234zm5.755-.294h2.159V29.39h.98v4.577h-.98v-1.922h-2.159v1.922h-.973V29.39h.973v1.798zm3.912.494c0-1.378 1.009-2.366 2.385-2.366 1.389 0 2.39.986 2.39 2.366 0 1.38-1.013 2.366-2.39 2.366-1.376 0-2.385-.988-2.385-2.366zm1.001 0c0 .85.54 1.502 1.384 1.502.844 0 1.392-.644 1.392-1.502s-.548-1.502-1.392-1.502c-.844 0-1.384.651-1.384 1.502zm8.074-.456a1.016 1.016 0 01-.586.38h-.002c.486.076.877.549.877 1.125 0 .686-.459 1.236-1.33 1.236h-2.48V29.39h2.408c.862 0 1.315.562 1.315 1.166.013.24-.058.477-.202.67zm-1.33-1h-1.22v.997h1.22a.499.499 0 100-.996zm-1.22 2.895h1.254v.004c.37 0 .59-.197.59-.527 0-.288-.206-.535-.59-.535h-1.254v1.057zm8.861.85h-.98V29.39h.98v4.581zm-4.054-2.955h1.166c.985 0 1.534.673 1.534 1.476 0 .802-.541 1.475-1.534 1.475h-2.138V29.39h.972v1.625zm0 2.092h1.034c.385 0 .672-.238.672-.616s-.287-.618-.672-.618h-1.034v1.234zm9.2-3.718l-1.555 2.222 1.659 2.35h-1.167l-1.144-1.674-1.148 1.679h-1.161l1.66-2.347-1.556-2.23h1.148l1.057 1.565 1.035-1.565h1.172zm-39.734 9.606a1.015 1.015 0 00.778-1.046c0-.604-.453-1.166-1.316-1.166H39.44v4.57h2.481c.871 0 1.328-.55 1.328-1.234 0-.57-.383-1.042-.865-1.124zm-.75-1.38H40.41l.004.995h1.22a.486.486 0 00.535-.494.493.493 0 00-.536-.5zm-1.224 2.896h1.253v.006c.372 0 .592-.2.592-.53 0-.288-.207-.534-.592-.534h-1.252v1.058zm3.431-1.436c0-1.38 1.007-2.366 2.385-2.366l.003-.002c1.384 0 2.392.993 2.392 2.367 0 1.373-1.017 2.367-2.395 2.367-1.378 0-2.385-.986-2.385-2.366zm1.004-.001c0 .85.542 1.503 1.384 1.503.842 0 1.392-.647 1.392-1.503 0-.857-.55-1.502-1.392-1.502-.842 0-1.384.65-1.384 1.502zm6.811-.08c.494-.096.972-.471.972-1.039 0-.755-.74-1.24-1.81-1.24-.802 0-1.453.302-1.822.727l.485.604c.34-.308.782-.477 1.24-.474.522 0 .932.178.932.542 0 .337-.39.487-.932.487h-.922v.858h.923c.687 0 1.008.165 1.008.529s-.35.583-.952.583a1.995 1.995 0 01-1.336-.523l-.507.653c.335.411 1.042.733 1.884.733 1.09 0 1.877-.556 1.877-1.343 0-.678-.589-1.042-1.04-1.097zm3.525-2.217l1.11 2.765 1.114-2.76h1.37v4.572h-.979V38.15l-1.289 3.204h-.424l-1.289-3.204v3.204h-.972v-4.577h1.359zm4.507 2.29c0-1.38 1.006-2.366 2.383-2.366 1.384 0 2.392.987 2.392 2.367s-1.016 2.366-2.392 2.366c-1.377 0-2.383-.987-2.383-2.366zm.999 0c0 .851.541 1.504 1.384 1.504.843 0 1.391-.647 1.391-1.503 0-.857-.55-1.503-1.391-1.503-.843 0-1.384.652-1.384 1.503zm9.1-2.29h1.208l-1.82 2.16 1.932 2.417h-1.192l-1.384-1.828-.192.234v1.594h-.98v-1.599l-.191-.234-1.386 1.833h-1.19l1.93-2.424-1.812-2.147h1.199l1.453 1.837v-1.837h.98v1.831l1.446-1.837zm2.923 1.797h2.166l-.006-1.791h.978v4.57h-.978V39.44h-2.16v1.916h-.972v-4.571h.972v1.79zm3.918.494c0-1.38 1.007-2.367 2.385-2.367 1.382 0 2.39.987 2.39 2.367s-1.012 2.366-2.39 2.366c-1.378 0-2.385-.987-2.385-2.366zm1 0c0 .85.541 1.503 1.385 1.503l-.006.01c.842 0 1.39-.646 1.39-1.503 0-.857-.542-1.502-1.39-1.502-.848 0-1.38.64-1.38 1.492zm7.325-1.307a1.236 1.236 0 00-.629-.185l.003-.004c-.827 0-1.43.637-1.43 1.502 0 .864.603 1.503 1.43 1.503a1.222 1.222 0 001.076-.666l.834.41a2.106 2.106 0 01-1.913 1.124c-1.375 0-2.431-.962-2.431-2.367s1.062-2.366 2.431-2.366a2.089 2.089 0 011.913 1.118l-.837.411a1.239 1.239 0 00-.447-.48zm3.016-.121h-1.333l-.003-.857h3.645v.857h-1.33v3.714h-.979V37.64zm6.24 3.714h-3.235v-4.571h3.236v.857h-2.264v.967h2.211v.858h-2.212v1.03h2.264v.859zm3.651-4.945a1.47 1.47 0 01-.676.156h.009a1.508 1.508 0 01-1.208-.604l.383-.322a1.003 1.003 0 001.28.313 1 1 0 00.358-.313l.385.322c-.139.19-.321.343-.53.448zm-1.739 3.327l2.113-2.958 1.005.005v4.57h-.973v-3.067l-2.18 3.068h-.939v-4.571h.974v2.953zm14.136-34.985h.631V41.36h-.631V4.752zm14.307 33.842h-1.173V37.01h-1.375v4.28h1.375v-1.52h1.173v1.52h1.375v-4.28h-1.375v1.584zm12.771 0h-1.176V37.01h-1.374v4.28h1.374v-1.52h1.176v1.52h1.373v-4.28h-1.373v1.584zm20.997-.334h-.659v-1.25h-1.374v4.28h2.033c.891 0 1.62-.49 1.62-1.36v-.303c0-.873-.729-1.36-1.62-1.36v-.007zm-.14 1.984h-.519v-.934h.463a.436.436 0 01.477.47.439.439 0 01-.252.425.432.432 0 01-.169.039zm-8.723-.57h1.551v-1.018h-1.551v-.522h1.691v-1.116h-3.066v4.279h3.194V40.18h-1.811l-.008-.506zm-1.704-2.656h-1.488l-.726 1.617h-.341V37.01h-1.373v4.28h1.373v-1.52h.338l.743 1.52h1.579l-1.166-2.158 1.061-2.114zm-19.065-.071h-.675a1.564 1.564 0 00-1.511.992c-.079.2-.116.414-.108.629v1.195a1.553 1.553 0 00.458 1.162 1.561 1.561 0 001.161.457h.675a1.567 1.567 0 001.616-1.619v-1.195c0-1.038-.727-1.621-1.616-1.621zm.235 2.911a.516.516 0 01-.513.516h-.119a.515.515 0 01-.513-.516v-1.387a.518.518 0 01.513-.516h.116a.516.516 0 01.513.516l.003 1.388zm23.366-.575c0 .651-.171.746-.417.86a1.292 1.292 0 01-.397.037v1.117h.539c1.158 0 1.585-.67 1.603-2.183v-.98h.77v3.163h1.376V37.01h-3.471l-.003 2.273zm-19.484-2.267h-2.031v4.28h1.373v-1.05h.658c.891 0 1.62-.49 1.62-1.36v-.5c0-.873-.729-1.36-1.62-1.36v-.01zm.281 1.724a.436.436 0 01-.476.454h-.463V38.06h.518a.431.431 0 01.395.284c.02.054.029.112.026.17v.226zm7.515.44v-2.17h-1.303v4.28h1.208l1.412-2.15v2.15h1.301v-4.28h-1.207l-1.411 2.17zm6.511-25.611V4.9c7.11 0 12.876 5.751 12.876 12.845 0 7.093-5.766 12.844-12.876 12.844l-12.876-8.662v8.67a12.834 12.834 0 01-9.094-3.753 12.851 12.851 0 01-2.793-4.17 12.893 12.893 0 01-.986-4.922c0-7.095 5.764-12.844 12.873-12.844l12.876 8.66zM126.19 23.834a10.071 10.071 0 005.299 3.619V8.038a10.089 10.089 0 00-5.299 15.796zm8.058-15.604v10.374l12.876 8.662V16.89l-12.876-8.66zm15.638 19.223a10.087 10.087 0 004.467-16.77 10.062 10.062 0 00-4.467-2.642v19.412z" fill="#FEED01"/></svg>