<svg width="290" height="65" fill="none" xmlns="http://www.w3.org/2000/svg"><path d="M34.878 63.486H24.172V33.844H10.706v29.642H0V24.038h34.878v39.448zm14.809-39.448v21.753h.112l18.594-21.753h8.34v39.448H66.026V41.733h-.113L47.32 63.486h-8.34V24.038h10.707zm55.696 39.448L91.541 45.227v18.26H80.835v-39.45h10.706v17.357l13.298-17.357h13.86l-15.494 18.766 16.69 20.682h-14.512zM157.956 0v39.448H147.25V24.12h-13.466v15.33h-10.706V0h10.706v14.314h13.466V0h10.706zm14.809 0v21.753h.113L191.472 0h8.339v39.448h-10.706V17.695h-.112l-18.594 21.753h-8.339V0h10.705zm55.697 39.448L214.621 21.19v18.26h-10.706V0h10.706v17.357L227.918 0h13.861l-15.495 18.766 16.69 20.682h-14.512z" fill="#FFED00"/><path fill-rule="evenodd" clip-rule="evenodd" d="M247.896 62.03h8.267v1.752h-10.982V62.26l6.174-6.344c1.054-1.082 2.605-2.899 2.605-4.51 0-.93-.256-1.774-.956-2.41-.684-.623-1.512-.88-2.427-.88-1.748 0-2.973.781-3.718 2.361l-.128.27-1.537-.922.11-.224c.492-1 1.198-1.825 2.154-2.402.954-.576 2.007-.835 3.119-.835 1.383 0 2.614.435 3.655 1.35 1.098.964 1.551 2.245 1.551 3.692 0 1.045-.315 2.017-.858 2.906-.638 1.044-1.475 2.008-2.327 2.884l-4.702 4.832zm21.079-.428c-1.164 1.652-2.789 2.44-4.802 2.44-2.013 0-3.638-.788-4.801-2.44-1.3-1.847-1.686-4.183-1.686-6.398s.386-4.55 1.686-6.397c1.163-1.652 2.788-2.442 4.801-2.442 2.013 0 3.638.79 4.802 2.442 1.3 1.847 1.686 4.181 1.686 6.397s-.386 4.55-1.686 6.398zm5.9.427h8.267v1.753H272.16V62.26l6.175-6.344c1.054-1.082 2.605-2.899 2.605-4.51 0-.93-.257-1.774-.956-2.41-.685-.623-1.512-.88-2.428-.88-1.747 0-2.972.781-3.717 2.361l-.128.27-1.538-.922.11-.224c.492-1 1.199-1.825 2.155-2.402.954-.576 2.006-.835 3.118-.835 1.384 0 2.614.435 3.655 1.35 1.099.964 1.552 2.245 1.552 3.692 0 1.045-.316 2.017-.859 2.906-.638 1.044-1.475 2.008-2.326 2.884l-4.703 4.832zm13.326-13.386l-3.758 1.184-.454-1.607 4.627-1.593H290v17.155h-1.799V48.643zm-27.433 11.832c.817 1.213 1.942 1.816 3.405 1.816 1.463 0 2.588-.603 3.406-1.816 1.009-1.494 1.259-3.51 1.259-5.271 0-1.761-.25-3.777-1.259-5.27-.818-1.213-1.943-1.816-3.406-1.816s-2.588.603-3.405 1.815c-1.008 1.494-1.259 3.51-1.259 5.27 0 1.762.251 3.778 1.259 5.272z" fill="#FFED00"/><path d="M245.451 63.51v-1.139l6.098-6.265c1.787-1.85 2.681-3.417 2.681-4.698 0-1.108-.348-1.978-1.044-2.61-.696-.634-1.566-.95-2.61-.95-1.851 0-3.171.839-3.962 2.516l-1.068-.641c.49-.997 1.175-1.76 2.052-2.29.878-.53 1.871-.795 2.978-.795 1.345 0 2.503.427 3.476 1.281.972.854 1.459 2.017 1.459 3.489 0 .949-.273 1.87-.819 2.764-.545.894-1.308 1.84-2.289 2.836l-5.149 5.292h8.637v1.21h-10.44zm23.299-2.064c-1.091 1.55-2.618 2.325-4.579 2.325-1.961 0-3.488-.775-4.579-2.325-1.092-1.55-1.637-3.631-1.637-6.242 0-2.61.545-4.69 1.637-6.24 1.091-1.551 2.618-2.326 4.579-2.326 1.961 0 3.488.775 4.579 2.325 1.092 1.55 1.637 3.631 1.637 6.241s-.545 4.691-1.637 6.242zm-8.209-.82c.87 1.29 2.08 1.935 3.63 1.935 1.55 0 2.76-.645 3.63-1.934.87-1.29 1.305-3.097 1.305-5.423 0-2.325-.435-4.133-1.305-5.422-.87-1.29-2.08-1.934-3.63-1.934-1.55 0-2.76.645-3.63 1.934-.87 1.29-1.305 3.097-1.305 5.422 0 2.326.435 4.133 1.305 5.423zm11.887 2.884v-1.139l6.097-6.265c1.788-1.85 2.681-3.417 2.681-4.698 0-1.108-.348-1.978-1.044-2.61-.695-.634-1.566-.95-2.61-.95-1.85 0-3.171.839-3.962 2.516l-1.067-.641c.49-.997 1.174-1.76 2.052-2.29.878-.53 1.87-.795 2.977-.795 1.345 0 2.504.427 3.477 1.281.972.854 1.459 2.017 1.459 3.489 0 .949-.273 1.87-.819 2.764-.546.894-1.309 1.84-2.289 2.836l-5.149 5.292h8.636v1.21h-10.439zm16.228-16.61h1.068v16.61h-1.257V48.275l-3.844 1.21-.309-1.091 4.342-1.495z" fill="#FFED00"/></svg>