<svg width="50" height="50" fill="none" xmlns="http://www.w3.org/2000/svg"><path fill-rule="evenodd" clip-rule="evenodd" d="M50 0H0v50h50V0zM36.146 17.561c.828 0 1.003.427.828 1.008-.348 1.599-3.686 6.301-3.688 6.3-.288.465-.406.696 0 1.22.144.2.449.499.798.841.36.352.765.75 1.09 1.133 1.177 1.323 2.065 2.442 2.311 3.21.225.773-.166 1.165-.949 1.165h-2.74c-.733 0-1.103-.412-1.902-1.3a33.682 33.682 0 00-1.306-1.392c-1.627-1.566-2.324-1.771-2.73-1.771-.55 0-.717.157-.717.94v2.457c0 .675-.215 1.067-1.956 1.067-2.905 0-6.094-1.763-8.359-5.014-3.397-4.761-4.326-8.361-4.326-9.089 0-.405.156-.773.94-.773h2.74c.7 0 .964.306 1.225 1.065 1.341 3.904 3.601 7.316 4.53 7.316.35 0 .509-.162.509-1.045v-4.035c-.063-1.15-.464-1.648-.762-2.016-.183-.227-.327-.405-.327-.657 0-.307.262-.63.697-.63h4.308c.581 0 .782.31.782 1.008v5.428c0 .582.253.784.427.784.347 0 .639-.202 1.276-.843 1.975-2.204 3.369-5.603 3.369-5.603.175-.405.494-.774 1.191-.774h2.741z" fill="#FEED01"/></svg>